<?xml version="1.0" encoding="utf-8"?>
<!-- Generator: Adobe Illustrator 26.1.0, SVG Export Plug-In . SVG Version: 6.00 Build 0)  -->
<svg version="1.1" id="Layer_1" xmlns="http://www.w3.org/2000/svg" xmlns:xlink="http://www.w3.org/1999/xlink" x="0px" y="0px"
	 viewBox="0 0 250 250" style="enable-background:new 0 0 250 250;" xml:space="preserve">
<style type="text/css">
	.st0{fill:#3998D3;}
	.st1{fill:#1C74A0;}
	.st2{fill:#64BFED;}
	.st3{fill:#0B4F70;}
</style>
<path class="st0" d="M185.7,183.7c-0.6,13.8-5.4,27.6-13.5,38.9c-1.6,2.2-3.3,4.3-5.2,6.2c-1,1.1-2.1,2.2-3.3,3.2
	c-20,18-51.2,20.1-72.8,3.8c-16.3-12.3-25.7-32.3-26.9-52.4c0.2,0,0.4,0,0.6,0c12.1,0.8,30.5-0.8,34.8-14.5c0.8-2.6,0.9-5.6-0.3-8.8
	c3.2,6.1,4.4,13.8,5.1,19.9c1.1,9.4,3.2,19.9,11.1,25c5.3,3.4,12.6,3.5,17.9,0.3c8.6-5.2,10.7-16.4,11.9-26.3
	c1.2-9.9,3-21.1,11.4-26.6c4.9-3.3,9.4-3.9,13.2-2.8C183.9,153.5,186.1,171.7,185.7,183.7z"/>
<path class="st1" d="M149.7,81c-1.1,3.8-0.4,8.3,2.9,13.1c5.6,8.3,16.9,10.1,26.9,11.3c10,1.2,21.3,3.3,26.5,11.8
	c3.3,5.3,3.2,12.6-0.3,17.8c-5.2,7.9-15.7,10-25.2,11.1c-9.9,1.1-23.5,3.4-28.9,13.1c-8,14.2,8.2,25.5,21.1,26.7
	c23.8,2.1,49.4-7.4,64-26.6c16.4-21.4,14.2-52.4-3.9-72.2c-1-1.1-2.1-2.2-3.2-3.3c-2-1.8-4.1-3.5-6.3-5.1
	c-11.4-8-25.3-12.8-39.2-13.3C172,64.9,153.6,67.2,149.7,81z"/>
<path class="st2" d="M81.1,100.3c3.8,1.2,8.3,0.6,13.3-2.6c8.5-5.4,10.5-16.6,11.9-26.4c1.4-9.9,3.7-21.1,12.4-26.1
	c5.5-3.2,12.7-2.9,17.9,0.6c7.9,5.3,9.8,15.8,10.7,25.2c0.9,9.8,3,23.3,12.6,28.9c14.2,8.2,25.9-7.7,27.3-20.4
	c2.6-23.6-6.5-49.1-25.6-64C140.4-1.2,109.1,0.4,88.8,18c-1.2,1-2.3,2.1-3.3,3.1c-1.9,1.9-3.6,4-5.3,6.1
	c-8.3,11.1-13.4,24.8-14.2,38.6C65.4,77.9,67.2,96.1,81.1,100.3z"/>
<path class="st0" d="M99.5,168.9c-4.3,13.7-22.8,15.3-34.8,14.5c-0.2,0-0.4,0-0.6,0c-0.2-3.7-0.2-7.4,0.2-11.1
	c1.2-12.7,12.6-28.8,26.9-20.9c3.6,2,6.2,5.1,8.1,8.8C100.4,163.3,100.4,166.3,99.5,168.9z"/>
<path class="st3" d="M45.3,113.2c-3.6,5.1-3.9,12.3-0.8,17.8c5,8.7,16.2,11.1,26.2,12.6c9.9,1.5,21.2,3.6,26.5,12.1
	c1,1.5,1.7,3,2.2,4.4c-1.9-3.6-4.5-6.7-8.1-8.8c-14.3-8-25.8,8.1-26.9,20.9c-0.3,3.7-0.4,7.4-0.2,11.1c-13.7-1.1-27.2-6.2-38.1-14.5
	c-2.2-1.6-4.2-3.4-6.1-5.3c-1.1-1.1-2.1-2.2-3.1-3.4C-0.8,139.9-2,108.9,15,87.9c15.2-18.7,41.1-27.4,64.8-24.6
	c12.8,1.6,28.7,13.4,20.2,27.3c-5.7,9.5-19.4,11.4-29.3,12.2C61.3,103.7,50.7,105.4,45.3,113.2z"/>
</svg>
