<svg width="20" height="20" viewBox="0 0 87 75" fill="none" xmlns="http://www.w3.org/2000/svg">
<path d="M81.852 0H4.308C3.16586 0.00133018 2.07087 0.455634 1.26325 1.26325C0.455635 2.07087 0.00133018 3.16586 0 4.308V70.364C0.00133018 71.5061 0.455635 72.6011 1.26325 73.4087C2.07087 74.2164 3.16586 74.6707 4.308 74.672H20.104V64.1134C20.1043 63.4735 20.2756 62.8452 20.6001 62.2936C20.9247 61.7421 21.3907 61.2872 21.95 60.9762L38.4602 51.7996L33.028 38.219V27.284C33.028 24.618 34.0871 22.0613 35.9722 20.1762C37.8573 18.291 40.414 17.232 43.08 17.232C45.746 17.232 48.3027 18.291 50.1878 20.1762C52.073 22.0613 53.132 24.618 53.132 27.284V38.219L47.6998 51.799L64.21 60.9762C64.7693 61.2872 65.2353 61.7421 65.5599 62.2936C65.8844 62.8452 66.0557 63.4735 66.056 64.1134V74.672H81.852C82.9941 74.6707 84.0891 74.2164 84.8968 73.4087C85.7044 72.6011 86.1587 71.5061 86.16 70.364V4.308C86.1587 3.16586 85.7044 2.07087 84.8968 1.26325C84.0891 0.455634 82.9941 0.00133018 81.852 0ZM80.416 68.928H71.8V64.1134C71.7995 62.4493 71.3543 60.8155 70.5105 59.3811C69.6667 57.9467 68.4549 56.7639 67.0005 55.955L54.9117 49.2368L58.876 39.325V27.284C58.876 23.0946 57.2118 19.0769 54.2495 16.1145C51.2871 13.1522 47.2694 11.488 43.08 11.488C38.8906 11.488 34.8729 13.1522 31.9105 16.1145C28.9482 19.0769 27.284 23.0946 27.284 27.284V39.325L31.2483 49.2368L19.1595 55.9559C17.7053 56.7647 16.4936 57.9474 15.6498 59.3816C14.806 60.8158 14.3607 62.4494 14.36 64.1134V68.928H5.744V5.744H80.416V68.928Z" fill="white"/>
</svg>
