<?xml version="1.0" encoding="utf-8"?>
<!-- Generator: Adobe Illustrator 26.1.0, SVG Export Plug-In . SVG Version: 6.00 Build 0)  -->
<svg version="1.1" id="Layer_1" xmlns="http://www.w3.org/2000/svg" xmlns:xlink="http://www.w3.org/1999/xlink" x="0px" y="0px"
	 viewBox="0 0 500 129" style="enable-background:new 0 0 500 129;" xml:space="preserve">
<style type="text/css">
	.st0{fill:#3998D3;}
	.st1{fill:#1C74A0;}
	.st2{fill:#64BFED;}
	.st3{fill:#0B4F70;}
	.st4{fill:#FFFFFF;}
</style>
<path class="st0" d="M90.6,89.1c-0.2,5.8-2.2,11.7-5.6,16.4c-0.7,0.9-1.4,1.8-2.2,2.6c-0.4,0.5-0.9,0.9-1.4,1.4
	c-8.4,7.6-21.4,8.5-30.5,1.6c-6.8-5.2-10.7-13.6-11.2-22.1c0.1,0,0.2,0,0.3,0c5,0.4,12.8-0.3,14.6-6.1c0.4-1.1,0.4-2.4-0.1-3.7
	c1.3,2.6,1.8,5.8,2.1,8.4c0.4,4,1.3,8.4,4.7,10.6c2.2,1.4,5.3,1.5,7.5,0.1c3.6-2.2,4.5-6.9,5-11.1c0.5-4.2,1.3-8.9,4.8-11.2
	c2.1-1.4,3.9-1.6,5.5-1.2C89.9,76.4,90.8,84.1,90.6,89.1z"/>
<path class="st1" d="M75.5,45.8c-0.5,1.6-0.2,3.5,1.2,5.5c2.3,3.5,7.1,4.3,11.3,4.8c4.2,0.5,8.9,1.4,11.1,5c1.4,2.3,1.3,5.3-0.1,7.5
	c-2.2,3.3-6.6,4.2-10.5,4.7c-4.1,0.5-9.8,1.4-12.1,5.5c-3.3,6,3.4,10.8,8.8,11.3c10,0.9,20.7-3.1,26.8-11.2c6.9-9,6-22.1-1.6-30.5
	c-0.4-0.5-0.9-0.9-1.4-1.4c-0.8-0.8-1.7-1.5-2.6-2.2c-4.8-3.4-10.6-5.4-16.4-5.6C84.9,39,77.2,39.9,75.5,45.8z"/>
<path class="st2" d="M46.8,53.9c1.6,0.5,3.5,0.3,5.6-1.1c3.5-2.3,4.4-7,5-11.2c0.6-4.2,1.6-8.9,5.2-11c2.3-1.3,5.3-1.2,7.5,0.3
	c3.3,2.2,4.1,6.7,4.5,10.6c0.4,4.2,1.3,9.9,5.3,12.2c5.9,3.5,10.8-3.2,11.4-8.6c1.1-9.9-2.7-20.7-10.7-27c-8.9-7-22-6.4-30.5,1
	c-0.5,0.4-1,0.9-1.4,1.3c-0.8,0.8-1.5,1.7-2.2,2.6c-3.5,4.7-5.6,10.5-5.9,16.3C40.2,44.5,41,52.2,46.8,53.9z"/>
<path class="st0" d="M54.5,82.9c-1.8,5.8-9.5,6.5-14.6,6.1c-0.1,0-0.2,0-0.3,0c-0.1-1.6-0.1-3.1,0.1-4.7c0.5-5.4,5.3-12.2,11.3-8.8
	c1.5,0.8,2.6,2.2,3.4,3.7C54.9,80.5,54.9,81.8,54.5,82.9z"/>
<path class="st3" d="M31.8,59.4c-1.5,2.2-1.6,5.2-0.3,7.5c2.1,3.7,6.8,4.7,10.9,5.3c4.2,0.6,8.9,1.5,11.1,5.1
	c0.4,0.6,0.7,1.3,0.9,1.9c-0.8-1.5-1.9-2.8-3.4-3.7c-6-3.4-10.8,3.4-11.3,8.8c-0.1,1.6-0.2,3.1-0.1,4.7c-5.7-0.5-11.4-2.6-16-6.1
	c-0.9-0.7-1.8-1.4-2.6-2.2c-0.5-0.5-0.9-0.9-1.3-1.4c-7.3-8.6-7.8-21.7-0.7-30.5c6.4-7.9,17.2-11.6,27.1-10.4
	c5.4,0.7,12,5.7,8.5,11.5c-2.4,4-8.1,4.8-12.3,5.1C38.5,55.4,34.1,56.1,31.8,59.4z"/>
<path class="st4" d="M220,95.5h-10.8V53.5c0-7.3-0.5-11.7-1.5-13.2c-1.2-1.7-5.3-2.5-12.5-2.5c-6.5,0-10.5,1.4-11.9,4.1
	c-1.1,2.2-1.7,7.1-1.7,14.8v38.9h-10.9V57c0-7.9-0.6-13-1.8-15.3c-1.4-2.7-5.3-4-11.7-4c-7.3,0-11.5,0.9-12.6,2.6
	c-0.9,1.4-1.3,5.8-1.3,13.1v42.1h-10.9V53.5c0-9.4,1-15.7,3.1-19c3.3-5.1,10.5-7.6,21.7-7.6c9.5,0,15.8,3.3,18.8,9.8
	c3.1-6.5,9.5-9.8,19-9.8c11,0,18.1,2.5,21.4,7.4c2.3,3.4,3.4,9.8,3.4,19.3V95.5z"/>
<path class="st4" d="M280.8,95.5H270v-3.5c-1.3,1.6-3.5,2.6-6.4,3c-1.9,0.3-5.4,0.5-10.6,0.5h-0.6c-9.4,0-15.3-0.6-17.5-1.7
	c-2.3-1.2-3.8-2.8-4.5-4.7c-0.4-1.3-0.6-3.9-0.6-7.7v-2.2c0-3.9,0.2-6.4,0.6-7.7c0.6-2,2.1-3.6,4.5-4.7c2.2-1.1,8-1.7,17.5-1.7h1.1
	c5,0,8.5,0.1,10.3,0.4c2.8,0.4,4.9,1.4,6.2,2.9c0-5.6-0.7-8.9-2.1-10c-1.2-1-4.8-1.4-10.9-1.4h-4.5c-4.5,0-7.3,0-8.5,0.1
	c-1.4,0.1-2.1,0.2-2.4,0.3c-0.2,0.2-0.5,0.8-0.8,1.9l-0.6,1.9L229.5,59l1.4-4.5c1.2-3.9,3.4-6.4,6.5-7.4c2.2-0.7,7.2-1,15.1-1h4.5
	c6.8,0,11.2,0.1,13.4,0.4c3.3,0.4,5.7,1.3,7.1,2.7c1.4,1.5,2.3,3.9,2.8,7.4c0.3,2.6,0.5,7.3,0.5,14.3V95.5z M245.6,75.9
	c-1.6,0-2.8,0.2-3.5,0.6c-0.9,0.5-1.3,1.4-1.3,2.7v2.2c0,2.1,1.3,3.2,4,3.3h19.1c1.6,0,3-0.2,4.2-0.6c0.8-0.2,1.3-0.7,1.6-1.3
	c0.2-0.5,0.3-1.3,0.3-2.5c0-1.2-0.1-2.1-0.3-2.5c-0.2-0.6-0.7-1-1.5-1.3c-1.1-0.3-2.7-0.5-4.7-0.5H245.6z"/>
<path class="st4" d="M332.8,46.1v26.5c0,6.6,0.3,10.2,0.9,10.9c0.6,0.7,3.8,1.1,9.6,1.1c5.8,0,8.9-0.3,9.5-1c0.7-0.7,1-4.4,1-10.9
	V46.1h10.9v26.6c0,9.3-1.3,15.3-3.8,18.2c-1.7,1.9-3.9,3.1-6.8,3.8c-2.4,0.6-6,0.8-10.8,0.8c-4.7,0-8-0.3-9.9-1
	c-1.8-0.6-3.5-2-5.2-4.1c-0.4-0.5-0.8-1.1-1.1-1.6c-0.4,0.8-0.9,1.5-1.5,2.1c-1.8,2-3.5,3.3-5,3.8c-1.6,0.6-4.7,0.8-9.1,0.8
	c-5,0-8.8-0.3-11.3-1c-2.8-0.8-5-2.1-6.7-4.1c-1.5-1.8-2.4-4.2-2.9-7.1c-0.3-2.1-0.5-5.6-0.5-10.7V46.1H301v26.5
	c0,6.6,0.3,10.2,0.9,10.9c0.6,0.7,3.8,1.1,9.6,1.1c5.8,0,8.9-0.3,9.5-1c0.7-0.7,1-4.4,1-10.9V46.1H332.8z"/>
<path class="st4" d="M412.5,90.8c-1.8,1.9-3.5,3.2-5.2,3.8c-1.9,0.6-5.3,0.9-10.1,0.9h-0.4c-5.3,0-9.3-0.3-12-1c-3-0.7-5.3-2-7-3.9
	c-1.6-1.9-2.7-4.2-3.2-7.2c-0.3-2.1-0.5-5.7-0.5-10.8V69c0-5.3,0.3-9.3,1-12c0.7-3,2-5.4,3.8-7.1c1.8-1.6,4.2-2.7,7.1-3.2
	c2.2-0.4,5.8-0.6,10.8-0.6h0.4c4.5,0,7.5,0.2,9,0.6c1.7,0.4,3.5,1.5,5.4,3.2c0.3,0.3,0.6,0.6,0.9,1v-4.7h10.9v68.7h-10.9V90.8z
	 M412.5,68.2c0-6.1-0.4-9.6-1.2-10.3c-0.7-0.6-4.3-0.9-10.7-0.9h-3.8c-6.4,0-9.9,0.3-10.7,1c-0.8,0.8-1.2,4.4-1.2,11v3.6
	c0,6.5,0.3,10.1,0.9,10.8c0.7,0.8,4.4,1.3,11,1.3h3.8c6.5,0,10.2-0.4,11-1.3c0.6-0.7,0.9-3.8,0.9-9.5V68.2z"/>
<path class="st0" d="M443.5,46.1l-10.8-0.4l0.1-3.1c0.2-3.5,0.6-6.2,1.4-8.2c0.9-2.1,2.4-3.8,4.6-5.1c2.8-1.7,8.4-2.5,16.8-2.5h7.7
	c9.5,0,15.8,1.3,18.7,4c1.8,1.6,3,3.8,3.5,6.3c0.4,1.9,0.6,5,0.6,9.4c0,4.1-0.3,7-0.8,8.5c-0.5,1.3-1.8,2.9-3.9,4.6
	c-0.7,0.6-1.5,1.1-2.3,1.5c0.8,0.4,1.6,0.9,2.3,1.5c2.1,1.7,3.4,3.2,3.9,4.6c0.6,1.5,0.8,4.3,0.8,8.4c0,4.4-0.2,7.6-0.6,9.4
	c-0.6,2.6-1.7,4.7-3.5,6.4c-2.9,2.7-9.1,4-18.7,4h-7.7c-7.4,0-12.6-0.6-15.3-1.8c-4.2-1.8-6.6-5.5-7.2-11l-0.3-2.7l10.8-1.2l0.3,2.7
	c0.2,1.3,0.4,2.1,0.7,2.2c1.4,0.6,5,0.9,11,0.9h7.7c6.7,0,10.5-0.4,11.3-1.1c0.4-0.4,0.6-3,0.6-7.8c0-5.4-0.2-8.3-0.7-8.7
	c-0.8-0.6-4.5-1-11.2-1h-15.8v-9.7h15.8c6.7,0,10.4-0.3,11.2-0.9c0.5-0.4,0.7-3.3,0.7-8.8c0-4.8-0.2-7.4-0.6-7.8
	c-0.8-0.7-4.6-1.1-11.3-1.1h-7.7c-6.4,0-10.1,0.3-11.2,1c-0.3,0.2-0.6,1.7-0.7,4.4L443.5,46.1z"/>
</svg>
