<?xml version="1.0" encoding="UTF-8"?>
<!DOCTYPE svg PUBLIC "-//W3C//DTD SVG 1.1//EN" "http://www.w3.org/Graphics/SVG/1.1/DTD/svg11.dtd">
<!-- Creator: CorelDRAW -->
<svg xmlns="http://www.w3.org/2000/svg" xml:space="preserve" width="512px" height="512px" version="1.1" style="shape-rendering:geometricPrecision; text-rendering:geometricPrecision; image-rendering:optimizeQuality; fill-rule:evenodd; clip-rule:evenodd"
viewBox="0 0 512 512"
 xmlns:xlink="http://www.w3.org/1999/xlink">
 <defs>
  <style type="text/css">
   <![CDATA[
    .fil0 {fill:black}
   ]]>
  </style>
 </defs>
 <g id="Layer_x0020_1">
  <metadata id="CorelCorpID_0Corel-Layer"/>
  <g id="_439064200">
   <g>
    <g>
     <path class="fil0" d="M503 435l-494 0c-4,0 -7,-3 -7,-7l0 -358c0,-4 3,-7 7,-7l89 0c4,0 7,3 7,7 0,4 -3,7 -7,7l-82 0 0 344 480 0 0 -344 -144 0c-4,0 -7,-3 -7,-7 0,-4 3,-7 7,-7l151 0c4,0 7,3 7,7l0 358c0,4 -3,7 -7,7z"/>
    </g>
    <g>
     <path class="fil0" d="M288 472l-65 0c-4,0 -7,-3 -7,-7l0 -37c0,-4 3,-7 7,-7l65 0c4,0 7,3 7,7l0 37c0,4 -3,7 -7,7zm-58 -14l51 0 0 -23 -51 0 0 23z"/>
    </g>
    <g>
     <path class="fil0" d="M357 512l-202 0c-4,0 -7,-3 -7,-7l0 -40c0,-4 3,-7 7,-7l202 0c4,0 7,3 7,7l0 40c0,4 -3,7 -7,7zm-195 -14l188 0 0 -26 -188 0 0 26z"/>
    </g>
    <g>
     <path class="fil0" d="M471 413l-431 0c-4,0 -7,-3 -7,-7l0 -313c0,-4 3,-7 7,-7l58 0c4,0 7,3 7,7 0,4 -3,7 -7,7l-51 0 0 299 417 0 0 -299 -114 0c-4,0 -7,-3 -7,-7 0,-4 3,-7 7,-7l121 0c4,0 7,3 7,7l0 313c0,4 -3,7 -7,7z"/>
    </g>
    <g>
     <path class="fil0" d="M351 324l-253 0c-4,0 -7,-3 -7,-7l0 -310c0,-4 3,-7 7,-7l253 0c4,0 7,3 7,7l0 310c0,4 -3,7 -7,7zm-246 -14l239 0 0 -296 -239 0 0 296z"/>
    </g>
    <g>
     <path class="fil0" d="M314 206l-179 0c-4,0 -7,-3 -7,-7l0 -160c0,-4 3,-7 7,-7l179 0c4,0 7,3 7,7l0 160c0,4 -3,7 -7,7zm-172 -14l165 0 0 -146 -165 0 0 146z"/>
    </g>
    <g>
     <path class="fil0" d="M135 178c-1,0 -3,0 -4,-1 -3,-3 -4,-7 -1,-10l31 -40c2,-3 6,-4 9,-1l26 19 27 -27c3,-2 7,-2 10,0l40 40 12 -21c1,-2 3,-3 5,-4 2,0 4,1 6,2l22 21c3,3 3,7 0,10 -3,3 -7,3 -10,0l-15 -14 -12 21c-1,2 -3,3 -5,3 -2,0 -4,0 -6,-2l-42 -41 -26 26c-3,3 -6,3 -9,1l-26 -19 -27 35c-1,1 -3,2 -5,2z"/>
    </g>
    <g>
     <path class="fil0" d="M256 113c-16,0 -29,-13 -29,-29 0,-15 13,-28 29,-28 16,0 28,12 28,28 0,17 -12,29 -28,29zm0 -43c-8,0 -15,6 -15,14 0,8 7,15 15,15 8,0 14,-6 14,-15 0,-8 -6,-14 -14,-14z"/>
    </g>
    <g>
     <g>
      <path class="fil0" d="M305 233l-162 0c-4,0 -7,-3 -7,-7 0,-4 3,-7 7,-7l162 0c4,0 7,3 7,7 0,4 -3,7 -7,7z"/>
     </g>
     <g>
      <path class="fil0" d="M305 260l-162 0c-4,0 -7,-3 -7,-7 0,-4 3,-7 7,-7l162 0c4,0 7,3 7,7 0,4 -3,7 -7,7z"/>
     </g>
     <g>
      <path class="fil0" d="M305 286l-162 0c-4,0 -7,-3 -7,-7 0,-4 3,-7 7,-7l162 0c4,0 7,3 7,7 0,4 -3,7 -7,7z"/>
     </g>
    </g>
   </g>
  </g>
 </g>
</svg>
