<svg width="32" height="32" viewBox="0 0 32 32" fill="none" xmlns="http://www.w3.org/2000/svg">
<path d="M30.8 22H30.1C30 21.5 29.8 21 29.5 20.5L30 20C30.1 19.9 30.2 19.7 30.2 19.6C30.2 19.4 30.1 19.3 30 19.2L29.1 18.3V4.4C29.1 4.1 29 3.8 28.7 3.5C28.5 3.3 28.1 3.1 27.8 3.1H2.30001C2.00001 3.2 1.70001 3.3 1.40001 3.6C1.20001 3.8 1.10001 4.1 1.10001 4.4V26.4C1.10001 26.7 1.20001 27 1.50001 27.3C1.70001 27.5 2.10001 27.7 2.40001 27.7H20.4L21 28.3C21.1 28.4 21.3 28.5 21.4 28.5C21.6 28.5 21.7 28.4 21.8 28.3L22.3 27.8C22.8 28.1 23.3 28.3 23.8 28.4V29.1C23.8 29.3 23.9 29.4 24 29.5C24.1 29.6 24.3 29.7 24.4 29.7H25.7C25.9 29.7 26 29.6 26.1 29.5C26.2 29.4 26.3 29.2 26.3 29.1V28.4C26.8 28.3 27.3 28.1 27.8 27.8L28.3 28.3C28.4 28.4 28.6 28.5 28.7 28.5C28.9 28.5 29 28.4 29.1 28.3L30 27.4C30.1 27.3 30.2 27.1 30.2 27C30.2 26.9 30.1 26.7 30 26.6L29.5 26C29.8 25.5 30 25 30.1 24.5H30.8C31 24.5 31.1 24.4 31.2 24.3C31.3 24.2 31.4 24 31.4 23.9V22.6C31.4 22.4 31.3 22.3 31.2 22.2C31.1 22.1 30.9 22 30.8 22Z" fill="#E6E7E8"/>
<path d="M26.8 2.4H1.29999C0.699988 2.4 0.299988 2.8 0.299988 3.4V25.4C0.299988 26 0.699988 26.4 1.29999 26.4H26.8C27.4 26.4 27.8 26 27.8 25.4V3.4C27.8 2.9 27.4 2.4 26.8 2.4Z" fill="white"/>
<path d="M10.3 8.9H8.59999C8.49999 8.9 8.49999 8.9 8.39999 8.8C8.39999 8.8 8.29999 8.7 8.29999 8.6C8.29999 8.5 8.29999 8.5 8.39999 8.4C8.39999 8.4 8.49999 8.3 8.59999 8.3H10.3C10.4 8.3 10.4 8.3 10.5 8.4C10.5 8.4 10.6 8.5 10.6 8.6C10.6 8.7 10.6 8.7 10.5 8.8C10.5 8.9 10.4 8.9 10.3 8.9Z" fill="#005789"/>
<path d="M7.10001 8.9H2.90001C2.80001 8.9 2.80001 8.9 2.70001 8.8C2.70001 8.8 2.60001 8.7 2.60001 8.6C2.60001 8.5 2.60001 8.5 2.70001 8.4C2.70001 8.4 2.80001 8.3 2.90001 8.3H7.10001C7.20001 8.3 7.20001 8.3 7.30001 8.4C7.30001 8.4 7.40001 8.5 7.40001 8.6C7.40001 8.7 7.40001 8.7 7.30001 8.8C7.30001 8.9 7.20001 8.9 7.10001 8.9Z" fill="#005789"/>
<path d="M10.3 17.7H7.8C7.7 17.7 7.7 17.7 7.6 17.6C7.6 17.6 7.5 17.5 7.5 17.4C7.5 17.3 7.5 17.3 7.6 17.2C7.6 17.2 7.7 17.1 7.8 17.1H10.4C10.5 17.1 10.5 17.1 10.6 17.2C10.6 17.2 10.7 17.3 10.7 17.4C10.7 17.5 10.7 17.5 10.6 17.6C10.5 17.7 10.4 17.7 10.3 17.7Z" fill="#005789"/>
<path d="M6.80001 17.7H2.90001C2.80001 17.7 2.80001 17.7 2.70001 17.6C2.70001 17.6 2.60001 17.5 2.60001 17.4C2.60001 17.3 2.60001 17.3 2.70001 17.2C2.70001 17.2 2.80001 17.1 2.90001 17.1H6.70001C6.80001 17.1 6.80001 17.1 6.90001 17.2C6.90001 17.2 7.00001 17.3 7.00001 17.4C7.00001 17.5 7.00001 17.5 6.90001 17.6C6.90001 17.7 6.80001 17.7 6.80001 17.7Z" fill="#005789"/>
<path d="M10.3 22.9H6.59999C6.49999 22.9 6.49999 22.9 6.39999 22.8C6.39999 22.8 6.29999 22.7 6.29999 22.6C6.29999 22.5 6.29999 22.5 6.39999 22.4C6.39999 22.4 6.49999 22.3 6.59999 22.3H10.3C10.4 22.3 10.4 22.3 10.5 22.4C10.5 22.4 10.6 22.5 10.6 22.6C10.6 22.7 10.6 22.7 10.5 22.8C10.5 22.9 10.4 22.9 10.3 22.9Z" fill="#005789"/>
<path d="M4.80001 22.9H2.90001C2.80001 22.9 2.80001 22.9 2.70001 22.8C2.70001 22.8 2.60001 22.7 2.60001 22.6C2.60001 22.5 2.60001 22.5 2.70001 22.4C2.70001 22.4 2.80001 22.3 2.90001 22.3H4.80001C4.90001 22.3 4.90001 22.3 5.00001 22.4C5.00001 22.4 5.10001 22.5 5.10001 22.6C5.10001 22.7 5.10001 22.7 5.00001 22.8C5.00001 22.9 4.90001 22.9 4.80001 22.9Z" fill="#005789"/>
<path d="M26.8 25.7H1.29999C0.999988 25.7 0.799988 25.6 0.599988 25.4C0.399988 25.2 0.299988 25 0.299988 24.7V25.4C0.299988 25.7 0.399988 25.9 0.599988 26.1C0.799988 26.3 0.999988 26.4 1.29999 26.4H26.8C27.1 26.4 27.3 26.3 27.5 26.1C27.7 25.9 27.8 25.7 27.8 25.4V24.7C27.8 25 27.7 25.2 27.5 25.4C27.3 25.6 27.1 25.7 26.8 25.7Z" fill="white"/>
<path d="M26.8 2.4H1.29999C0.999988 2.4 0.799988 2.6 0.599988 2.7C0.399988 2.9 0.299988 3.2 0.299988 3.4V6H27.8V3.4C27.8 3.1 27.7 2.9 27.5 2.7C27.3 2.6 27.1 2.4 26.8 2.4Z" fill="#F7F7F7"/>
<path d="M22.5 3.7C22.4 3.7 22.3 3.7 22.2 3.8C22.1 3.9 22 4 21.9 4.1C21.9 4.2 21.8 4.3 21.9 4.4C21.9 4.5 22 4.6 22.1 4.7C22.2 4.8 22.3 4.8 22.4 4.9C22.5 4.9 22.6 4.9 22.7 4.9C22.8 4.9 22.9 4.8 23 4.7C23.1 4.6 23.1 4.5 23.1 4.4C23.1 4.2 23 4.1 22.9 4C22.8 3.8 22.6 3.7 22.5 3.7Z" fill="white"/>
<path d="M24.2 3.7C24.1 3.7 24 3.7 23.9 3.8C23.8 3.9 23.7 4 23.7 4.1C23.7 4.2 23.6 4.3 23.7 4.4C23.7 4.5 23.8 4.6 23.9 4.7C24 4.8 24.1 4.8 24.2 4.9C24.3 4.9 24.4 4.9 24.5 4.9C24.6 4.9 24.7 4.8 24.8 4.7C24.9 4.6 24.9 4.5 24.9 4.4C24.9 4.2 24.8 4.1 24.7 4C24.5 3.8 24.4 3.7 24.2 3.7Z" fill="white"/>
<path d="M26 3.7C25.9 3.7 25.8 3.7 25.7 3.8C25.6 3.9 25.5 4 25.5 4.1C25.5 4.2 25.4 4.3 25.5 4.4C25.5 4.5 25.6 4.6 25.7 4.7C25.8 4.8 25.9 4.8 26 4.9C26.1 4.9 26.2 4.9 26.3 4.9C26.4 4.9 26.5 4.8 26.6 4.7C26.7 4.6 26.7 4.5 26.7 4.4C26.7 4.2 26.6 4.1 26.5 4C26.3 3.8 26.1 3.7 26 3.7Z" fill="white"/>
<path d="M30.1 22.9V21.6V21.5C30.1 21.5 30.1 21.4 30 21.4L29.9 21.3H29.8H28.9C28.8 20.7 28.5 20.1 28.2 19.5L28.8 18.9L28.9 18.8V18.7V18.6C28.9 18.6 28.9 18.5 28.8 18.5L27.9 17.6L27.8 17.5H27.7H27.6C27.6 17.5 27.5 17.5 27.5 17.6L26.9 18.2C26.4 17.8 25.8 17.6 25.1 17.5V16.6V16.5C25.1 16.5 25.1 16.4 25 16.4L24.9 16.3H24.8H23.5H23.4C23.4 16.3 23.3 16.3 23.3 16.4L23.2 16.5V16.6V17.5C22.6 17.6 22 17.9 21.4 18.2L20.8 17.6L20.7 17.5H20.6H20.5C20.5 17.5 20.4 17.5 20.4 17.6L19.5 18.5C19.4 18.6 19.4 18.7 19.4 18.8C19.4 18.9 19.4 19 19.5 19.1L20.1 19.7C19.7 20.2 19.5 20.8 19.4 21.5H18.5H18.4C18.4 21.5 18.3 21.5 18.3 21.6L18.2 21.7V21.8V23.1V23.2C18.2 23.2 18.2 23.3 18.3 23.3L18.4 23.4H18.5H19C19.1 24 19.4 24.6 19.7 25.2L19.1 25.8C19 25.9 19 26 19 26.1C19 26.2 19 26.3 19.1 26.4L20 27.3L20.1 27.4H20.2H20.3C20.3 27.4 20.4 27.4 20.4 27.3L21 26.7C21.5 27.1 22.1 27.3 22.8 27.4V28.3C22.8 28.4 22.8 28.5 22.9 28.6C23 28.7 23.1 28.7 23.2 28.7H24.5C24.6 28.7 24.7 28.7 24.8 28.6C24.9 28.5 24.9 28.4 24.9 28.3V27.4C25.5 27.3 26.1 27 26.7 26.7L27.3 27.3L27.4 27.4H27.5H27.6C27.6 27.4 27.7 27.4 27.7 27.3L28.6 26.4L28.7 26.3V26.2V26.1C28.7 26.1 28.7 26 28.6 26L28 25.4C28.4 24.9 28.6 24.3 28.7 23.6H29.6H29.7C29.7 23.6 29.8 23.6 29.8 23.5L29.9 23.4C30.1 23 30.1 23 30.1 22.9ZM24 25.2C23.4 25.2 22.8 25 22.4 24.7C21.9 24.4 21.5 23.9 21.3 23.4C21.1 22.9 21 22.3 21.1 21.7C21.2 21.1 21.5 20.6 21.9 20.2C22.3 19.8 22.8 19.5 23.4 19.4C24 19.3 24.6 19.3 25.1 19.6C25.6 19.8 26.1 20.2 26.4 20.7C26.7 21.2 26.9 21.8 26.9 22.3C26.9 22.7 26.8 23.1 26.7 23.4C26.6 23.8 26.3 24.1 26.1 24.4C25.8 24.7 25.5 24.9 25.1 25C24.7 25.2 24.3 25.2 24 25.2Z" fill="white"/>
<path d="M12.8 10.7H20.4C20.5 10.7 20.5 10.7 20.6 10.6C20.6 10.6 20.7 10.5 20.7 10.4C20.7 10.3 20.7 10.3 20.6 10.2C20.6 10.2 20.5 10.1 20.4 10.1H12.8C12.7 10.1 12.7 10.1 12.6 10.2C12.6 10.2 12.5 10.3 12.5 10.4C12.5 10.5 12.5 10.5 12.6 10.6C12.6 10.7 12.7 10.7 12.8 10.7Z" fill="#005789"/>
<path d="M4.69999 10.7H11C11.1 10.7 11.1 10.7 11.2 10.6C11.2 10.6 11.3 10.5 11.3 10.4C11.3 10.3 11.3 10.3 11.2 10.2C11.2 10.2 11.1 10.1 11 10.1H4.69999C4.59999 10.1 4.59999 10.1 4.49999 10.2C4.49999 10.2 4.39999 10.3 4.39999 10.4C4.39999 10.5 4.39999 10.5 4.49999 10.6C4.59999 10.7 4.59999 10.7 4.69999 10.7Z" fill="#005789"/>
<path d="M9 12.2C9 12.3 9 12.3 9.1 12.4C9.1 12.4 9.2 12.5 9.3 12.5H22.9C23 12.5 23 12.5 23.1 12.4C23.1 12.4 23.2 12.3 23.2 12.2C23.2 12.1 23.2 12.1 23.1 12C23.1 12 23 11.9 22.9 11.9H9.3C9.2 11.9 9.2 11.9 9.1 12C9.1 12.1 9 12.1 9 12.2Z" fill="#005789"/>
<path d="M4.69999 12.4H7.79999C7.89999 12.4 7.89999 12.4 7.99999 12.3C7.99999 12.3 8.09999 12.2 8.09999 12.1C8.09999 12 8.09999 12 7.99999 11.9C7.99999 11.9 7.89999 11.8 7.79999 11.8H4.69999C4.59999 11.8 4.59999 11.8 4.49999 11.9C4.49999 11.9 4.39999 12 4.39999 12.1C4.39999 12.2 4.39999 12.2 4.49999 12.3C4.59999 12.4 4.59999 12.4 4.69999 12.4Z" fill="#005789"/>
<path d="M4.69999 14.2H22.9C23 14.2 23 14.2 23.1 14.1C23.1 14.1 23.2 14 23.2 13.9C23.2 13.8 23.2 13.8 23.1 13.7C23.1 13.7 23 13.6 22.9 13.6H4.69999C4.59999 13.6 4.59999 13.6 4.49999 13.7C4.49999 13.7 4.39999 13.8 4.39999 13.9C4.39999 14 4.39999 14 4.49999 14.1C4.59999 14.2 4.59999 14.2 4.69999 14.2Z" fill="#005789"/>
<path d="M20.8 15.4H17.8C17.7 15.4 17.7 15.4 17.6 15.5C17.6 15.5 17.5 15.6 17.5 15.7C17.5 15.8 17.5 15.8 17.6 15.9C17.6 15.9 17.7 16 17.8 16H20.8C20.9 16 20.9 16 21 15.9C21 15.9 21.1 15.8 21.1 15.7C21.1 15.6 21.1 15.6 21 15.5C21 15.5 20.9 15.4 20.8 15.4Z" fill="#005789"/>
<path d="M4.69999 15.9H16.6C16.7 15.9 16.7 15.9 16.8 15.8C16.8 15.8 16.9 15.7 16.9 15.6C16.9 15.5 16.9 15.5 16.8 15.4C16.8 15.4 16.7 15.3 16.6 15.3H4.69999C4.59999 15.3 4.59999 15.3 4.49999 15.4C4.49999 15.4 4.39999 15.5 4.39999 15.6C4.39999 15.7 4.39999 15.7 4.49999 15.8C4.59999 15.9 4.59999 15.9 4.69999 15.9Z" fill="#005789"/>
<path d="M17.3 18.9H14.7C14.6 18.9 14.6 18.9 14.5 19C14.5 19 14.4 19.1 14.4 19.2C14.4 19.3 14.4 19.3 14.5 19.4C14.5 19.4 14.6 19.5 14.7 19.5H17.3C17.4 19.5 17.4 19.5 17.5 19.4C17.5 19.4 17.6 19.3 17.6 19.2C17.6 19.1 17.6 19.1 17.5 19C17.5 19 17.4 18.9 17.3 18.9Z" fill="#005789"/>
<path d="M4.69999 19.4H13.3C13.4 19.4 13.4 19.4 13.5 19.3C13.5 19.3 13.6 19.2 13.6 19.1C13.6 19 13.6 19 13.5 18.9C13.5 18.9 13.4 18.8 13.3 18.8H4.69999C4.59999 18.8 4.59999 18.8 4.49999 18.9C4.49999 18.9 4.39999 19 4.39999 19.1C4.39999 19.2 4.39999 19.2 4.49999 19.3C4.59999 19.4 4.59999 19.4 4.69999 19.4Z" fill="#005789"/>
<path d="M15.6 20.7H4.69999C4.59999 20.7 4.59999 20.7 4.49999 20.8C4.49999 20.8 4.39999 20.9 4.39999 21C4.39999 21.1 4.39999 21.1 4.49999 21.2C4.49999 21.2 4.59999 21.3 4.69999 21.3H15.6C15.7 21.3 15.7 21.3 15.8 21.2C15.8 21.2 15.9 21.1 15.9 21C15.9 20.9 15.9 20.9 15.8 20.8C15.7 20.7 15.7 20.7 15.6 20.7Z" fill="#005789"/>
<path d="M16.4 6.3H18.6C18.7 6.3 18.7 6.3 18.8 6.2C18.8 6.2 18.9 6.1 18.9 6C18.9 5.9 18.9 5.9 18.8 5.8C18.7 5.7 18.7 5.7 18.6 5.7H16.4C16.3 5.7 16.3 5.7 16.2 5.8C16.2 5.8 16.1 5.9 16.1 6C16.1 6.1 16.1 6.1 16.2 6.2C16.3 6.3 16.4 6.3 16.4 6.3Z" fill="#005789"/>
<path d="M29.8 21H29.1C29 20.5 28.8 20 28.5 19.5L29 19C29.1 18.9 29.2 18.7 29.2 18.6C29.2 18.4 29.1 18.3 29 18.2L28.1 17.3V3.4C28.1 3.1 28 2.8 27.7 2.5C27.5 2.3 27.1 2.1 26.8 2.1H1.30001C1.00001 2.2 0.700006 2.3 0.400006 2.6C0.200006 2.8 0.100006 3.1 0.100006 3.4V25.4C0.100006 25.7 0.200006 26 0.500006 26.3C0.700006 26.5 1.10001 26.7 1.40001 26.7H19.4L20 27.3C20.1 27.4 20.3 27.5 20.4 27.5C20.6 27.5 20.7 27.4 20.8 27.3L21.3 26.8C21.8 27.1 22.3 27.3 22.8 27.4V28.1C22.8 28.3 22.9 28.4 23 28.5C23.1 28.6 23.3 28.7 23.4 28.7H24.7C24.9 28.7 25 28.6 25.1 28.5C25.2 28.4 25.3 28.2 25.3 28.1V27.4C25.8 27.3 26.3 27.1 26.8 26.8L27.3 27.3C27.4 27.4 27.6 27.5 27.7 27.5C27.9 27.5 28 27.4 28.1 27.3L29 26.4C29.1 26.3 29.2 26.1 29.2 26C29.2 25.8 29.1 25.7 29 25.6L28.5 25C28.8 24.5 29 24 29.1 23.5H29.8C30 23.5 30.1 23.4 30.2 23.3C30.3 23.2 30.4 23 30.4 22.9V21.6C30.4 21.4 30.3 21.3 30.2 21.2C30.1 21.1 29.9 21 29.8 21ZM0.600006 25.4V6.3H15.3C15.4 6.3 15.4 6.3 15.5 6.2C15.5 6.2 15.6 6.1 15.6 6C15.6 5.9 15.6 5.9 15.5 5.8C15.5 5.8 15.4 5.7 15.3 5.7H0.600006V3.4C0.600006 3.2 0.700006 3 0.800006 2.9C0.900006 2.8 1.10001 2.7 1.30001 2.7H26.8C27 2.7 27.2 2.8 27.3 2.9C27.4 3 27.5 3.2 27.5 3.4V5.8H19.8C19.7 5.8 19.7 5.8 19.6 5.9C19.6 5.9 19.5 6 19.5 6.1C19.5 6.2 19.5 6.2 19.6 6.3C19.6 6.3 19.7 6.4 19.8 6.4H27.5V17.2C27.4 17.2 27.2 17.3 27.1 17.4L26.6 17.9C26.1 17.6 25.6 17.4 25.1 17.3V16.6C25.1 16.4 25 16.3 24.9 16.2C24.8 16.1 24.6 16 24.5 16H23.2C23 16 22.9 16.1 22.8 16.2C22.7 16.3 22.6 16.5 22.6 16.6V17.3C22.1 17.4 21.6 17.6 21.1 17.9L20.6 17.4C20.5 17.3 20.3 17.2 20.2 17.2C20 17.2 19.9 17.3 19.8 17.4L19 18.2C18.9 18.3 18.8 18.5 18.8 18.6C18.8 18.8 18.9 18.9 19 19L19.5 19.5C19.2 20 19 20.5 18.9 21H18.2C18 21 17.9 21.1 17.8 21.2C17.7 21.3 17.6 21.5 17.6 21.6V22.9C17.6 23.1 17.7 23.2 17.8 23.3C17.9 23.4 18.1 23.5 18.2 23.5H18.9C19 24 19.2 24.5 19.5 25L19 25.5C18.9 25.6 18.9 25.7 18.8 25.8C18.8 25.9 18.8 26.1 18.9 26.2H1.30001C1.10001 26.2 0.900006 26.1 0.800006 26C0.600006 25.8 0.600006 25.6 0.600006 25.4ZM29.9 22.9C29.9 23 29.8 23 29.9 22.9C29.8 23 29.8 23 29.8 23H28.9C28.8 23 28.8 23 28.7 23.1L28.6 23.2C28.5 23.8 28.2 24.4 27.9 24.9C27.9 24.9 27.9 25 27.9 25.1C27.9 25.2 27.9 25.2 28 25.3L28.6 25.9C28.6 25.9 28.6 25.9 28.6 26V26.1L27.7 27C27.7 27 27.7 27 27.6 27H27.5L26.9 26.4C26.9 26.4 26.8 26.3 26.7 26.3C26.6 26.3 26.6 26.3 26.5 26.3C26 26.6 25.4 26.9 24.8 27C24.7 27 24.7 27 24.7 27.1C24.7 27.1 24.6 27.2 24.6 27.3V28.2V28.3C24.6 28.3 24.6 28.3 24.5 28.3H23.2H23.1C23.1 28.3 23.1 28.3 23.1 28.2V27.3C23.1 27.2 23.1 27.2 23 27.1L22.9 27C22.3 26.9 21.7 26.6 21.2 26.3C21.2 26.3 21.1 26.3 21 26.3C20.9 26.3 20.9 26.3 20.8 26.4L20.2 27C20.2 27 20.2 27 20.1 27H20L19.3 26C19.3 26 19.3 26 19.3 25.9V25.8L19.9 25.2C19.9 25.2 20 25.1 20 25C20 24.9 20 24.9 20 24.8C19.7 24.3 19.4 23.7 19.3 23.1C19.3 23 19.3 23 19.2 23C19.2 23 19.1 22.9 19 22.9H18.1H18C18 22.9 18 22.9 18 22.8V21.5V21.4C18 21.4 18 21.4 18.1 21.4H19C19.1 21.4 19.1 21.4 19.2 21.3L19.3 21.2C19.4 20.6 19.7 20 20 19.5C20 19.5 20 19.4 20 19.3C20 19.2 20 19.2 19.9 19.1L19.3 18.5C19.3 18.5 19.3 18.5 19.3 18.4C19.3 18.3 19.3 18.3 19.3 18.3L20.2 17.4C20.2 17.4 20.2 17.4 20.3 17.4C20.4 17.4 20.4 17.4 20.4 17.4L21 18C21 18 21.1 18.1 21.2 18.1C21.3 18.1 21.3 18.1 21.4 18.1C21.9 17.8 22.5 17.5 23.1 17.4C23.2 17.4 23.2 17.4 23.2 17.3C23.2 17.3 23.3 17.2 23.3 17.1V16.2H24.6H24.7C24.7 16.2 24.7 16.2 24.7 16.3V17.2C24.7 17.3 24.7 17.3 24.8 17.4L24.9 17.5C25.5 17.6 26.1 17.9 26.6 18.2C26.6 18.2 26.7 18.2 26.8 18.2C26.9 18.2 26.9 18.2 27 18.1L27.6 17.5C27.6 17.5 27.6 17.5 27.7 17.5H27.8L28.7 18.4C28.7 18.4 28.7 18.4 28.7 18.5C28.7 18.6 28.7 18.6 28.7 18.6L28 19.3C28 19.3 27.9 19.4 27.9 19.5C27.9 19.6 27.9 19.6 27.9 19.7C28.2 20.2 28.5 20.8 28.6 21.4C28.6 21.5 28.6 21.5 28.7 21.5C28.7 21.5 28.8 21.6 28.9 21.6H29.8H29.9C29.9 21.6 29.9 21.6 29.9 21.7V22.9Z" fill="#005789"/>
<path d="M24 19.1C23.4 19.1 22.8 19.3 22.2 19.6C21.7 20 21.3 20.4 21 21C20.8 21.6 20.7 22.2 20.8 22.8C20.9 23.4 21.2 24 21.7 24.4C22.1 24.8 22.7 25.2 23.3 25.3C23.9 25.4 24.6 25.4 25.1 25.1C25.7 24.9 26.2 24.4 26.5 23.9C26.9 23.4 27 22.8 27 22.1C27 21.3 26.7 20.4 26.1 19.8C25.6 19.4 24.8 19.1 24 19.1ZM24 25C23.5 25 22.9 24.8 22.5 24.5C22.1 24.2 21.7 23.8 21.5 23.3C21.3 22.8 21.2 22.3 21.3 21.7C21.4 21.2 21.7 20.7 22 20.3C22.4 19.9 22.9 19.7 23.4 19.6C23.9 19.5 24.5 19.5 25 19.8C25.5 20 25.9 20.3 26.2 20.8C26.5 21.2 26.7 21.8 26.7 22.3C26.7 23 26.4 23.7 25.9 24.2C25.4 24.7 24.7 25 24 25Z" fill="#005789"/>
</svg>
