<svg width="32" height="32" viewBox="0 0 76 76" fill="none" xmlns="http://www.w3.org/2000/svg">
<path d="M52.3866 28.5C54.5159 27.4026 56.2149 25.6215 57.2107 23.4428C58.2065 21.264 58.4415 18.8139 57.8779 16.4856C57.3143 14.1573 55.9849 12.0859 54.1029 10.6037C52.2209 9.12156 49.8955 8.31466 47.5 8.3125H26.125C23.7295 8.31466 21.4041 9.12156 19.5221 10.6037C17.6402 12.0859 16.3107 14.1573 15.7471 16.4856C15.1835 18.8139 15.4185 21.264 16.4143 23.4428C17.4101 25.6215 19.1091 27.4026 21.2384 28.5C19.4548 29.419 17.9659 30.8216 16.9421 32.5473C15.9183 34.2729 15.401 36.2519 15.4493 38.2578C15.4976 40.2638 16.1097 42.2155 17.2153 43.8899C18.321 45.5643 19.8757 46.8935 21.7016 47.7256C19.8503 48.7181 18.2955 50.1839 17.1956 51.9734C16.0957 53.7629 15.4902 55.8122 15.4408 57.9121C15.3914 60.0121 15.8999 62.0875 16.9144 63.9268C17.9289 65.7661 19.4131 67.3033 21.2156 68.3818C23.0181 69.4602 25.0744 70.0413 27.1748 70.0656C29.2752 70.09 31.3444 69.5568 33.1715 68.5204C34.9985 67.4841 36.518 65.9816 37.5748 64.1664C38.6317 62.3511 39.1882 60.288 39.1875 58.1875V44.7064C40.185 45.949 41.4477 46.9529 42.8832 47.6445C44.3187 48.3361 45.8907 48.698 47.4841 48.7037C49.0776 48.7093 50.6521 48.3586 52.0925 47.6772C53.5329 46.9958 54.8026 46.0009 55.8089 44.7654C56.8151 43.5298 57.5324 42.085 57.9081 40.5364C58.2839 38.9879 58.3086 37.375 57.9805 35.8157C57.6525 34.2564 56.9798 32.7902 56.012 31.5244C55.0441 30.2586 53.8054 29.2253 52.3866 28.5ZM55.8125 19C55.8125 21.2046 54.9367 23.3189 53.3778 24.8778C51.8189 26.4367 49.7046 27.3125 47.5 27.3125H39.1875V10.6875H47.5C49.7046 10.6875 51.8189 11.5633 53.3778 13.1222C54.9367 14.6811 55.8125 16.7954 55.8125 19ZM39.1875 29.6875H40.7936C40.2033 30.165 39.665 30.7033 39.1875 31.2936V29.6875ZM17.8125 19C17.8125 16.7954 18.6883 14.6811 20.2472 13.1222C21.8061 11.5633 23.9204 10.6875 26.125 10.6875H36.8125V27.3125H26.125C23.9204 27.3125 21.8061 26.4367 20.2472 24.8778C18.6883 23.3189 17.8125 21.2046 17.8125 19ZM36.8125 58.1875C36.8125 60.0664 36.2553 61.9031 35.2115 63.4654C34.1676 65.0277 32.6839 66.2453 30.948 66.9644C29.2121 67.6834 27.302 67.8715 25.4591 67.505C23.6163 67.1384 21.9236 66.2336 20.595 64.905C19.2664 63.5764 18.3616 61.8837 17.995 60.0409C17.6285 58.198 17.8166 56.2879 18.5356 54.552C19.2547 52.8161 20.4723 51.3324 22.0346 50.2885C23.5969 49.2447 25.4336 48.6875 27.3125 48.6875H36.8125V58.1875ZM36.8125 46.3125H26.125C23.9204 46.3125 21.8061 45.4367 20.2472 43.8778C18.6883 42.3189 17.8125 40.2046 17.8125 38C17.8125 35.7954 18.6883 33.6811 20.2472 32.1222C21.8061 30.5633 23.9204 29.6875 26.125 29.6875H36.8125V46.3125ZM47.5 46.3125C45.8559 46.3125 44.2488 45.825 42.8818 44.9116C41.5148 43.9982 40.4494 42.7 39.8203 41.1811C39.1911 39.6621 39.0265 37.9908 39.3472 36.3783C39.668 34.7658 40.4596 33.2847 41.6222 32.1222C42.7847 30.9597 44.2658 30.168 45.8783 29.8472C47.4908 29.5265 49.1621 29.6911 50.6811 30.3203C52.2 30.9494 53.4982 32.0148 54.4116 33.3818C55.325 34.7488 55.8125 36.3559 55.8125 38C55.8125 40.2046 54.9367 42.3189 53.3778 43.8778C51.8189 45.4367 49.7046 46.3125 47.5 46.3125Z" fill="#F8F8F8"/>
</svg>
