<svg width="46" height="45" viewBox="0 0 46 45" fill="none" xmlns="http://www.w3.org/2000/svg">
<path d="M19.1185 30.0987H14.4676C14.3511 30.0987 14.2393 30.0524 14.1569 29.97C14.0745 29.8875 14.0282 29.7758 14.0282 29.6592V21.1778C14.0282 21.0612 14.0745 20.9494 14.1569 20.867C14.2393 20.7846 14.3511 20.7383 14.4676 20.7383H19.1185C19.235 20.7383 19.3468 20.7846 19.4292 20.867C19.5116 20.9494 19.5579 21.0612 19.5579 21.1778V29.6592C19.5579 29.7758 19.5116 29.8875 19.4292 29.97C19.3468 30.0524 19.235 30.0987 19.1185 30.0987ZM14.9071 29.2198H18.679V21.6172H14.9071V29.2198Z" fill="#7FCFFF"/>
<path d="M6.39435 30.0987C6.5109 30.0987 6.62268 30.0524 6.70509 29.97C6.7875 29.8875 6.8338 29.7758 6.8338 29.6592V10.4774C6.8338 10.3609 6.8801 10.2491 6.96251 10.1667C7.04493 10.0843 7.1567 10.038 7.27325 10.038H37.8778C37.9944 10.038 38.1062 10.0843 38.1886 10.1667C38.271 10.2491 38.3173 10.3609 38.3173 10.4774V29.6592C38.3173 29.7758 38.3636 29.8875 38.446 29.97C38.5284 30.0524 38.6402 30.0987 38.7567 30.0987C38.8733 30.0987 38.9851 30.0524 39.0675 29.97C39.1499 29.8875 39.1962 29.7758 39.1962 29.6592V10.4774C39.1958 10.1279 39.0567 9.79283 38.8096 9.54568C38.5624 9.29853 38.2273 9.1595 37.8778 9.15908H7.27325C6.92373 9.1595 6.58865 9.29853 6.3415 9.54568C6.09435 9.79283 5.95531 10.1279 5.9549 10.4774V29.6592C5.9549 29.7758 6.00119 29.8875 6.08361 29.97C6.16602 30.0524 6.2778 30.0987 6.39435 30.0987Z" fill="#005789"/>
<path d="M9.1049 12.2569C8.98835 12.2569 8.87658 12.3032 8.79416 12.3856C8.71175 12.468 8.66545 12.5798 8.66545 12.6963V29.6592C8.66545 29.7758 8.71175 29.8875 8.79416 29.97C8.87658 30.0524 8.98835 30.0987 9.1049 30.0987H36.0462C36.1627 30.0987 36.2745 30.0524 36.3569 29.97C36.4393 29.8875 36.4856 29.7758 36.4856 29.6592V12.6963C36.4856 12.5798 36.4393 12.468 36.3569 12.3856C36.2745 12.3032 36.1627 12.2569 36.0462 12.2569H9.1049ZM35.6067 29.2198H9.54436V13.1358H35.6067V29.2198Z" fill="#005789"/>
<path d="M40.7689 31.5712H4.38219C4.03266 31.5716 3.69758 31.7106 3.45043 31.9578C3.20328 32.2049 3.06425 32.54 3.06383 32.8895V34.5226C3.06425 34.8721 3.20328 35.2072 3.45043 35.4543C3.69758 35.7015 4.03266 35.8405 4.38219 35.8409H40.7689C41.1184 35.8405 41.4535 35.7015 41.7007 35.4543C41.9478 35.2072 42.0868 34.8721 42.0873 34.5226V32.8895C42.0868 32.54 41.9478 32.2049 41.7007 31.9578C41.4535 31.7106 41.1184 31.5716 40.7689 31.5712ZM41.2084 34.5234C41.2084 34.64 41.1621 34.7518 41.0796 34.8342C40.9972 34.9166 40.8855 34.9629 40.7689 34.9629H4.38219C4.26564 34.9629 4.15386 34.9166 4.07145 34.8342C3.98903 34.7518 3.94273 34.64 3.94273 34.5234V32.8904C3.94273 32.7739 3.98903 32.6621 4.07145 32.5797C4.15386 32.4973 4.26564 32.451 4.38219 32.451H40.7689C40.8855 32.451 40.9972 32.4973 41.0796 32.5797C41.1621 32.6621 41.2084 32.7739 41.2084 32.8904V34.5234Z" fill="#005789"/>
<path d="M26.3301 34.087H18.821C18.7045 34.087 18.5927 34.0407 18.5103 33.9583C18.4279 33.8758 18.3816 33.7641 18.3816 33.6475C18.3816 33.531 18.4279 33.4192 18.5103 33.3368C18.5927 33.2544 18.7045 33.2081 18.821 33.2081H26.3301C26.4466 33.2081 26.5584 33.2544 26.6408 33.3368C26.7232 33.4192 26.7695 33.531 26.7695 33.6475C26.7695 33.7641 26.7232 33.8758 26.6408 33.9583C26.5584 34.0407 26.4466 34.087 26.3301 34.087Z" fill="#EBE7F2"/>
<path d="M30.6835 19.7314H14.4676C14.3511 19.7314 14.2393 19.6851 14.1569 19.6027C14.0745 19.5203 14.0282 19.4085 14.0282 19.292V15.0293C14.0282 14.9127 14.0745 14.801 14.1569 14.7186C14.2393 14.6361 14.3511 14.5898 14.4676 14.5898H30.6835C30.8 14.5898 30.9118 14.6361 30.9942 14.7186C31.0766 14.801 31.1229 14.9127 31.1229 15.0293V19.292C31.1229 19.4085 31.0766 19.5203 30.9942 19.6027C30.9118 19.6851 30.8 19.7314 30.6835 19.7314ZM14.9071 18.8525H30.244V15.4688H14.9071V18.8525Z" fill="#7FCFFF"/>
<path d="M30.6835 21.6172H21.1254C21.0088 21.6172 20.897 21.5709 20.8146 21.4885C20.7322 21.4061 20.6859 21.2943 20.6859 21.1778C20.6859 21.0612 20.7322 20.9494 20.8146 20.867C20.897 20.7846 21.0088 20.7383 21.1254 20.7383H30.6835C30.8 20.7383 30.9118 20.7846 30.9942 20.867C31.0766 20.9494 31.1229 21.0612 31.1229 21.1778C31.1229 21.2943 31.0766 21.4061 30.9942 21.4885C30.9118 21.5709 30.8 21.6172 30.6835 21.6172Z" fill="#7FCFFF"/>
<path d="M30.6835 23.8157H21.1254C21.0088 23.8157 20.897 23.7694 20.8146 23.687C20.7322 23.6046 20.6859 23.4928 20.6859 23.3763C20.6859 23.2597 20.7322 23.1479 20.8146 23.0655C20.897 22.9831 21.0088 22.9368 21.1254 22.9368H30.6835C30.8 22.9368 30.9118 22.9831 30.9942 23.0655C31.0766 23.1479 31.1229 23.2597 31.1229 23.3763C31.1229 23.4928 31.0766 23.6046 30.9942 23.687C30.9118 23.7694 30.8 23.8157 30.6835 23.8157Z" fill="#7FCFFF"/>
<path d="M30.6835 26.0142H21.1254C21.0088 26.0142 20.897 25.9679 20.8146 25.8855C20.7322 25.8031 20.6859 25.6913 20.6859 25.5748C20.6859 25.4582 20.7322 25.3464 20.8146 25.264C20.897 25.1816 21.0088 25.1353 21.1254 25.1353H30.6835C30.8 25.1353 30.9118 25.1816 30.9942 25.264C31.0766 25.3464 31.1229 25.4582 31.1229 25.5748C31.1229 25.6913 31.0766 25.8031 30.9942 25.8855C30.9118 25.9679 30.8 26.0142 30.6835 26.0142Z" fill="#7FCFFF"/>
<path d="M30.6835 28.2129H21.1254C21.0088 28.2129 20.897 28.1666 20.8146 28.0842C20.7322 28.0018 20.6859 27.89 20.6859 27.7734C20.6859 27.6569 20.7322 27.5451 20.8146 27.4627C20.897 27.3803 21.0088 27.334 21.1254 27.334H30.6835C30.8 27.334 30.9118 27.3803 30.9942 27.4627C31.0766 27.5451 31.1229 27.6569 31.1229 27.7734C31.1229 27.89 31.0766 28.0018 30.9942 28.0842C30.9118 28.1666 30.8 28.2129 30.6835 28.2129Z" fill="#7FCFFF"/>
</svg>