<svg width="46" height="46" viewBox="0 0 46 46" fill="none" xmlns="http://www.w3.org/2000/svg">
<path d="M43.155 19.27H38.4603V15.3785C38.4595 14.9178 38.3052 14.4705 38.0217 14.1072C37.7383 13.744 37.3419 13.4856 36.8951 13.3729V9.9019C36.8944 9.15814 36.5986 8.44504 36.0727 7.91909C35.5468 7.39313 34.8338 7.09727 34.09 7.09644H5.2798C4.53604 7.09727 3.82298 7.39313 3.29709 7.91909C2.7712 8.44504 2.47543 9.15814 2.47469 9.9019V31.0104C2.47562 31.7541 2.77146 32.467 3.29733 32.9928C3.8232 33.5186 4.53616 33.8143 5.2798 33.8152H16.0077V37.3477H13.1045C12.6352 37.3477 12.185 37.5341 11.8531 37.866C11.5212 38.1979 11.3348 38.6481 11.3348 39.1175C11.3348 39.5868 11.5212 40.037 11.8531 40.3689C12.185 40.7008 12.6352 40.8872 13.1045 40.8872H43.155C43.6029 40.8867 44.0322 40.7085 44.3489 40.3918C44.6656 40.0752 44.8437 39.6458 44.8443 39.198V20.9592C44.8437 20.5114 44.6656 20.0821 44.3489 19.7654C44.0322 19.4487 43.6029 19.2705 43.155 19.27Z" fill="#E6E7E8"/>
<path d="M19.7339 13.9723C19.7339 13.5164 19.9151 13.0791 20.2375 12.7567C20.5599 12.4343 20.9971 12.2532 21.4531 12.2532H34.9833C35.0357 12.2532 35.0853 12.2641 35.137 12.2686V8.49565C35.137 7.84484 34.8784 7.22068 34.4182 6.76048C33.958 6.30028 33.3339 6.04175 32.683 6.04175H3.87355C3.2228 6.04184 2.59873 6.30042 2.13861 6.7606C1.67849 7.22079 1.42 7.8449 1.42 8.49565V29.6038C1.42 30.2546 1.67849 30.8787 2.13861 31.3389C2.59873 31.7991 3.2228 32.0576 3.87355 32.0577H19.7339V13.9723Z" fill="white"/>
<path d="M2.47469 29.6042V8.49565C2.47469 7.84493 2.73318 7.22086 3.19332 6.76073C3.65345 6.3006 4.27752 6.0421 4.92824 6.0421H3.87355C3.22283 6.0421 2.59876 6.3006 2.13863 6.76073C1.6785 7.22086 1.42 7.84493 1.42 8.49565V29.6042C1.42009 30.2549 1.67862 30.8789 2.13873 31.339C2.59884 31.7991 3.22286 32.0576 3.87355 32.0577H4.92824C4.27755 32.0576 3.65353 31.7991 3.19342 31.339C2.73331 30.8789 2.47478 30.2549 2.47469 29.6042Z" fill="white"/>
<path d="M19.7339 13.9723C19.7339 13.5163 19.9151 13.0791 20.2375 12.7567C20.5599 12.4343 20.9971 12.2532 21.4531 12.2532H33.0441V9.65546C33.0441 9.2825 32.8959 8.92481 32.6322 8.66109C32.3685 8.39736 32.0108 8.24921 31.6378 8.24921H4.9191C4.54614 8.24921 4.18845 8.39736 3.92473 8.66109C3.66101 8.92481 3.51285 9.2825 3.51285 9.65546V26.4932C3.51285 26.8662 3.66101 27.2238 3.92473 27.4876C4.18845 27.7513 4.54614 27.8994 4.9191 27.8994H19.7339V13.9723Z" fill="white"/>
<path d="M31.4364 37.7914V19.553C31.4364 19.3774 31.471 19.2035 31.5383 19.0413C31.6055 18.8791 31.7041 18.7318 31.8283 18.6077C31.9525 18.4836 32.1 18.3853 32.2623 18.3182C32.4246 18.2512 32.5985 18.2168 32.7741 18.2171H36.7024V13.9723C36.7025 13.7465 36.6581 13.523 36.5717 13.3144C36.4854 13.1059 36.3588 12.9163 36.1991 12.7567C36.0395 12.5971 35.85 12.4704 35.6415 12.384C35.4329 12.2976 35.2094 12.2532 34.9837 12.2532H21.4531C20.9971 12.2532 20.5599 12.4343 20.2375 12.7567C19.9151 13.0791 19.7339 13.5163 19.7339 13.9723V37.4117C19.7339 37.6374 19.7784 37.8609 19.8648 38.0695C19.9512 38.2781 20.0778 38.4676 20.2375 38.6272C20.3971 38.7868 20.5866 38.9134 20.7952 38.9997C21.0038 39.0861 21.2273 39.1305 21.4531 39.1305H32.7734C32.5976 39.1306 32.4235 39.096 32.2611 39.0288C32.0987 38.9615 31.9511 38.8628 31.8269 38.7384C31.7027 38.614 31.6043 38.4663 31.5373 38.3038C31.4703 38.1413 31.436 37.9671 31.4364 37.7914Z" fill="white"/>
<path d="M19.7339 32.0577H14.953V36.2933H19.7339V32.0577Z" fill="white"/>
<path d="M19.7339 37.4103V36.293H11.6983C11.3261 36.2989 10.9711 36.4508 10.7099 36.7161C10.4488 36.9814 10.3024 37.3388 10.3024 37.711C10.3024 38.0833 10.4488 38.4406 10.7099 38.7059C10.9711 38.9712 11.3261 39.1232 11.6983 39.1291H21.4531C21.2273 39.1291 21.0038 39.0847 20.7952 38.9983C20.5866 38.912 20.3971 38.7854 20.2375 38.6258C20.0778 38.4661 19.9512 38.2767 19.8648 38.0681C19.7784 37.8595 19.7339 37.636 19.7339 37.4103Z" fill="white"/>
<path d="M31.4364 19.553C31.4364 19.3774 31.471 19.2035 31.5383 19.0414C31.6055 18.8792 31.7041 18.7318 31.8283 18.6077C31.9525 18.4836 32.1 18.3853 32.2623 18.3182C32.4246 18.2512 32.5985 18.2168 32.7741 18.2171H36.7024V14.8002H19.7339V35.4851H31.4364V19.553Z" fill="white"/>
<path d="M30.3044 13.2744H26.132C25.9936 13.2744 25.8814 13.3867 25.8814 13.5251V13.5782C25.8814 13.7166 25.9936 13.8289 26.132 13.8289H30.3044C30.4428 13.8289 30.555 13.7166 30.555 13.5782V13.5251C30.555 13.3867 30.4428 13.2744 30.3044 13.2744Z" fill="#005789"/>
<path d="M31.6639 13.8559C31.8318 13.8559 31.968 13.7198 31.968 13.5518C31.968 13.3839 31.8318 13.2477 31.6639 13.2477C31.4959 13.2477 31.3598 13.3839 31.3598 13.5518C31.3598 13.7198 31.4959 13.8559 31.6639 13.8559Z" fill="#005789"/>
<path d="M41.7488 18.2153H32.7741C32.0353 18.2153 31.4364 18.8142 31.4364 19.553V37.7914C31.4364 38.5301 32.0353 39.1291 32.7741 39.1291H41.7488C42.4876 39.1291 43.0865 38.5301 43.0865 37.7914V19.553C43.0865 18.8142 42.4876 18.2153 41.7488 18.2153Z" fill="white"/>
<path d="M42.6501 36.0956V20H31V36.0956H42.6501Z" fill="white"/>
<path d="M38.885 19.0112H35.6383C35.5305 19.0112 35.4432 19.0986 35.4432 19.2064V19.2475C35.4432 19.3552 35.5305 19.4426 35.6383 19.4426H38.885C38.9927 19.4426 39.0801 19.3552 39.0801 19.2475V19.2064C39.0801 19.0986 38.9927 19.0112 38.885 19.0112Z" fill="#005789"/>
<path d="M39.9428 18.9901C39.8959 18.9901 39.8501 19.0039 39.811 19.0299C39.772 19.0559 39.7416 19.0929 39.7236 19.1363C39.7056 19.1796 39.7009 19.2272 39.71 19.2732C39.7192 19.3192 39.7417 19.3615 39.7749 19.3946C39.8081 19.4278 39.8503 19.4504 39.8963 19.4595C39.9423 19.4686 39.99 19.4639 40.0333 19.4459C40.0766 19.428 40.1136 19.3975 40.1396 19.3585C40.1656 19.3195 40.1795 19.2736 40.1794 19.2267C40.1793 19.164 40.1544 19.1039 40.11 19.0595C40.0657 19.0152 40.0055 18.9902 39.9428 18.9901Z" fill="#0089EF"/>
<path d="M21.9337 6.39331H24.6583C24.7515 6.39331 24.8409 6.35627 24.9069 6.29034C24.9728 6.22441 25.0098 6.13499 25.0098 6.04175C25.0098 5.94851 24.9728 5.85909 24.9069 5.79316C24.8409 5.72722 24.7515 5.69019 24.6583 5.69019H21.9337C21.8404 5.69019 21.751 5.72722 21.6851 5.79316C21.6191 5.85909 21.5821 5.94851 21.5821 6.04175C21.5821 6.13499 21.6191 6.22441 21.6851 6.29034C21.751 6.35627 21.8404 6.39331 21.9337 6.39331Z" fill="#005789"/>
<path d="M41.7488 17.8637H37.054V13.9723C37.0529 13.5116 36.8984 13.0644 36.6149 12.7012C36.3314 12.3381 35.9351 12.0796 35.4885 11.9666V8.49565C35.4878 7.75189 35.192 7.03879 34.6661 6.51283C34.1402 5.98688 33.4272 5.69102 32.6834 5.69019H26.0645C25.9713 5.69019 25.8819 5.72722 25.8159 5.79316C25.75 5.85909 25.713 5.94851 25.713 6.04175C25.713 6.13499 25.75 6.22441 25.8159 6.29034C25.8819 6.35627 25.9713 6.39331 26.0645 6.39331H32.683C33.2404 6.39396 33.7747 6.61568 34.1688 7.00981C34.5629 7.40395 34.7845 7.93831 34.785 8.49565V11.9002H33.3957V9.65546C33.3951 9.18943 33.2097 8.74265 32.8802 8.41311C32.5507 8.08358 32.1039 7.8982 31.6379 7.89765H4.9191C4.45307 7.8982 4.00629 8.08358 3.67676 8.41311C3.34722 8.74265 3.16185 9.18943 3.16129 9.65546V26.4932C3.16185 26.9592 3.34722 27.406 3.67676 27.7355C4.00629 28.0651 4.45307 28.2504 4.9191 28.251H19.3824V31.7058H3.87355C3.3163 31.7053 2.78203 31.4837 2.38796 31.0897C1.99389 30.6957 1.77221 30.1614 1.77156 29.6042V8.49565C1.77212 7.93831 1.99375 7.40395 2.38782 7.00981C2.78188 6.61568 3.31621 6.39396 3.87355 6.39331H20.557C20.6502 6.39331 20.7396 6.35627 20.8055 6.29034C20.8715 6.22441 20.9085 6.13499 20.9085 6.04175C20.9085 5.94851 20.8715 5.85909 20.8055 5.79316C20.7396 5.72722 20.6502 5.69019 20.557 5.69019H3.87355C3.12981 5.69112 2.41681 5.987 1.89094 6.51294C1.36507 7.03887 1.06927 7.75192 1.06844 8.49565V29.6042C1.06937 30.3478 1.36521 31.0607 1.89108 31.5865C2.41695 32.1123 3.12991 32.4081 3.87355 32.4089H14.6015V35.9414H11.6983C11.2289 35.9414 10.7788 36.1279 10.4469 36.4598C10.115 36.7917 9.92851 37.2418 9.92851 37.7112C9.92851 38.1806 10.115 38.6307 10.4469 38.9626C10.7788 39.2945 11.2289 39.481 11.6983 39.481H41.7488C42.1966 39.4804 42.626 39.3023 42.9427 38.9856C43.2593 38.6689 43.4375 38.2396 43.438 37.7917V19.553C43.4375 19.1051 43.2593 18.6758 42.9427 18.3591C42.626 18.0425 42.1966 17.8643 41.7488 17.8637ZM20.0855 37.4106V35.8367H31.0848V37.7917C31.0856 38.1464 31.199 38.4917 31.4086 38.7778H21.4531C21.0907 38.7769 20.7434 38.6325 20.4871 38.3763C20.2308 38.12 20.0864 37.773 20.0855 37.4106ZM31.788 20.5497H42.7349V35.9421H31.788V20.5497ZM42.7349 19.553V19.8466H31.788V19.553C31.7887 19.2918 31.8929 19.0416 32.0777 18.8571C32.2626 18.6726 32.513 18.5689 32.7741 18.5686H41.7488C42.0099 18.5689 42.2603 18.6726 42.4452 18.8571C42.63 19.0416 42.7342 19.2918 42.7349 19.553ZM32.7741 17.8655C32.3262 17.866 31.8968 18.0441 31.5801 18.3608C31.2634 18.6775 31.0853 19.1069 31.0848 19.5548V29.8204H29.0271C28.9339 29.8204 28.8445 29.8574 28.7786 29.9234C28.7126 29.9893 28.6756 30.0787 28.6756 30.1719C28.6756 30.2652 28.7126 30.3546 28.7786 30.4205C28.8445 30.4865 28.9339 30.5235 29.0271 30.5235H31.0848V31.484H29.0271C28.9339 31.484 28.8445 31.521 28.7786 31.5869C28.7126 31.6529 28.6756 31.7423 28.6756 31.8355C28.6756 31.9288 28.7126 32.0182 28.7786 32.0841C28.8445 32.1501 28.9339 32.1871 29.0271 32.1871H31.0848V33.1476H29.0271C28.9339 33.1476 28.8445 33.1846 28.7786 33.2505C28.7126 33.3165 28.6756 33.4059 28.6756 33.4991C28.6756 33.5924 28.7126 33.6818 28.7786 33.7477C28.8445 33.8137 28.9339 33.8507 29.0271 33.8507H31.0848V35.1353H20.0855V15.1518H36.3509V17.8637L32.7741 17.8655ZM36.3509 13.9723V14.4501H20.0855V13.9723C20.0864 13.6099 20.2308 13.2626 20.4871 13.0063C20.7434 12.75 21.0907 12.6056 21.4531 12.6047H34.983C35.3454 12.6056 35.6928 12.7499 35.9492 13.0062C36.2055 13.2625 36.35 13.6098 36.3509 13.9723ZM4.92121 27.5493C4.64149 27.5493 4.37322 27.4382 4.17543 27.2404C3.97764 27.0426 3.86652 26.7743 3.86652 26.4946V9.65546C3.86652 9.37574 3.97764 9.10747 4.17543 8.90968C4.37322 8.71189 4.64149 8.60077 4.92121 8.60077H31.64C31.9197 8.60077 32.1879 8.71189 32.3857 8.90968C32.5835 9.10747 32.6946 9.37574 32.6946 9.65546V11.9002H21.4531C20.9042 11.9011 20.378 12.1196 19.9899 12.5077C19.6018 12.8958 19.3833 13.422 19.3824 13.9709V23.693H15.0902C14.9969 23.693 14.9075 23.73 14.8416 23.796C14.7756 23.8619 14.7386 23.9513 14.7386 24.0446C14.7386 24.1378 14.7756 24.2272 14.8416 24.2932C14.9075 24.3591 14.9969 24.3961 15.0902 24.3961H19.3824V25.4508H15.0902C14.9969 25.4508 14.9075 25.4879 14.8416 25.5538C14.7756 25.6197 14.7386 25.7091 14.7386 25.8024C14.7386 25.8956 14.7756 25.985 14.8416 26.051C14.9075 26.1169 14.9969 26.1539 15.0902 26.1539H19.3824V27.5479L4.92121 27.5493ZM15.3046 32.4089H19.3827V35.9414H15.3046V32.4089ZM10.632 37.7108C10.6324 37.4282 10.7448 37.1572 10.9447 36.9573C11.1446 36.7574 11.4156 36.6449 11.6983 36.6446H19.3824V37.4103C19.3826 37.9144 19.5676 38.4009 19.9023 38.7778H11.6983C11.4155 38.7774 11.1445 38.6648 10.9446 38.4648C10.7447 38.2648 10.6323 37.9936 10.632 37.7108ZM41.7488 38.7778H32.7741C32.5126 38.7776 32.262 38.6736 32.0771 38.4887C31.8922 38.3038 31.7882 38.0532 31.788 37.7917V36.6453H42.7349V37.7917C42.7346 38.0532 42.6307 38.3038 42.4458 38.4887C42.2609 38.6736 42.0102 38.7776 41.7488 38.7778Z" fill="#005789"/>
</svg>
