<svg width="44" height="45" viewBox="0 0 44 45" fill="none" xmlns="http://www.w3.org/2000/svg">
<path d="M42.8555 6.35001H25.2774V23.9281H42.8555V6.35001Z" fill="#7FCFFF"/>
<path d="M43.7344 24.807H24.3985V5.4711H43.7344V24.807ZM26.1563 23.0492H41.9766V7.22891H26.1563V23.0492Z" fill="#005789"/>
<path d="M32.3086 28.3227H23.5196V30.0805H32.3086V28.3227Z" fill="#005789"/>
<path d="M32.3086 33.5961H23.5196V35.3539H32.3086V33.5961Z" fill="#005789"/>
<path d="M30.5508 14.2602C29.0969 14.2602 27.9141 13.0773 27.9141 11.6234C27.9141 10.1696 29.0969 8.98672 30.5508 8.98672C32.0047 8.98672 33.1875 10.1696 33.1875 11.6234C33.1875 13.0773 32.0047 14.2602 30.5508 14.2602ZM30.5508 10.7445C30.0662 10.7445 29.6719 11.1388 29.6719 11.6234C29.6719 12.1081 30.0662 12.5023 30.5508 12.5023C31.0355 12.5023 31.4297 12.1081 31.4297 11.6234C31.4297 11.1388 31.0355 10.7445 30.5508 10.7445Z" fill="#005789"/>
<path d="M37.5821 21.2914C36.1282 21.2914 34.9454 20.1086 34.9454 18.6547C34.9454 17.2008 36.1282 16.018 37.5821 16.018C39.036 16.018 40.2188 17.2008 40.2188 18.6547C40.2188 20.1086 39.036 21.2914 37.5821 21.2914ZM37.5821 17.7758C37.0974 17.7758 36.7032 18.1701 36.7032 18.6547C36.7032 19.1393 37.0974 19.5336 37.5821 19.5336C38.0667 19.5336 38.461 19.1393 38.461 18.6547C38.461 18.1701 38.0667 17.7758 37.5821 17.7758Z" fill="#005789"/>
<path d="M38.7214 9.24329L28.1731 19.7901L29.416 21.0332L39.9643 10.4864L38.7214 9.24329Z" fill="#005789"/>
<path d="M10.336 44.143C5.00507 44.143 0.668015 39.8059 0.668015 34.475C0.668015 29.1441 5.00507 24.807 10.336 24.807C15.6669 24.807 20.004 29.1441 20.004 34.475C20.004 39.8059 15.6669 44.143 10.336 44.143ZM10.336 26.5648C5.97432 26.5648 2.42583 30.1133 2.42583 34.475C2.42583 38.8367 5.97432 42.3852 10.336 42.3852C14.6976 42.3852 18.2461 38.8367 18.2461 34.475C18.2461 30.1133 14.6976 26.5648 10.336 26.5648Z" fill="#005789"/>
<path d="M36.7032 40.6273H15.6078L16.6646 39.2206C17.6993 37.8433 18.2461 36.2022 18.2461 34.475C18.2461 30.1133 14.6976 26.5648 10.336 26.5648C9.52686 26.5648 8.72846 26.6868 7.96276 26.9273L6.82036 27.2863V10.7445H17.3672V0.197662H36.7032V7.22891H26.1563V23.0492H36.7032V40.6273ZM18.951 38.8695H34.9454V24.807H24.3985V5.4711H34.9454V1.95547H19.125V12.5023H8.57817V24.967C9.15579 24.8608 9.7436 24.807 10.336 24.807C15.6669 24.807 20.004 29.1441 20.004 34.475C20.004 36.025 19.6434 37.5185 18.951 38.8695Z" fill="#005789"/>
<path d="M11.2149 38.8695H9.45708C8.00319 38.8695 6.82036 37.6867 6.82036 36.2328H8.57817C8.57817 36.7174 8.97245 37.1117 9.45708 37.1117H11.2149C11.6995 37.1117 12.0938 36.7174 12.0938 36.2328C12.0938 35.7482 11.6995 35.3539 11.2149 35.3539H9.45708C8.00319 35.3539 6.82036 34.1711 6.82036 32.7172C6.82036 31.2633 8.00319 30.0805 9.45708 30.0805H11.2149C12.6688 30.0805 13.8516 31.2633 13.8516 32.7172H12.0938C12.0938 32.2326 11.6995 31.8383 11.2149 31.8383H9.45708C8.97245 31.8383 8.57817 32.2326 8.57817 32.7172C8.57817 33.2018 8.97245 33.5961 9.45708 33.5961H11.2149C12.6688 33.5961 13.8516 34.7789 13.8516 36.2328C13.8516 37.6867 12.6688 38.8695 11.2149 38.8695Z" fill="#005789"/>
<path d="M11.2149 28.3227H9.45708V30.0805H11.2149V28.3227Z" fill="#005789"/>
<path d="M11.2149 38.8695H9.45708V40.6273H11.2149V38.8695Z" fill="#005789"/>
<path d="M15.6094 8.98672H6.82036V6.86487L13.4876 0.197662H15.6094V8.98672ZM8.94221 7.22891H13.8516V2.31952L8.94221 7.22891Z" fill="#005789"/>
</svg>
