<svg width="60" height="60" viewBox="0 0 46 46" fill="none" xmlns="http://www.w3.org/2000/svg">
<path d="M44.4049 13.3493V8.9375C44.4042 8.34715 44.1694 7.78117 43.7519 7.36376C43.3345 6.94635 42.7684 6.71161 42.1781 6.71105H21.1975C20.6073 6.7117 20.0413 6.94648 19.6239 7.36388C19.2065 7.78128 18.9718 8.34721 18.9711 8.9375V13.3493C18.9715 13.7232 19.0661 14.0911 19.2463 14.4188C19.4264 14.7465 19.6863 15.0235 20.0019 15.2241C19.7164 15.4062 19.4762 15.6509 19.2995 15.9397C19.1228 16.2285 19.0144 16.5538 18.9824 16.8909L15.8092 15.4062C15.4867 15.255 15.1349 15.1765 14.7787 15.1765C14.4225 15.1765 14.0707 15.255 13.7483 15.4062L4.42977 19.7635C3.97465 19.9848 3.59601 20.3371 3.34245 20.775C3.08888 21.213 2.97195 21.7167 3.00665 22.2216C3.18243 24.9448 3.82157 30.0949 6.15806 33.9902C9.12524 38.9353 12.7906 40.2832 14.2292 40.6312C14.5905 40.7182 14.9673 40.7182 15.3286 40.6312C16.7668 40.2821 20.4322 38.9356 23.399 33.9905C23.7974 33.3192 24.1489 32.6211 24.4509 31.9012H42.1781C42.7684 31.9007 43.3345 31.6659 43.7519 31.2485C44.1694 30.8311 44.4042 30.2651 44.4049 29.6748V25.2619C44.4045 24.888 44.3099 24.5201 44.1297 24.1924C43.9496 23.8647 43.6897 23.5877 43.3741 23.3871C43.6896 23.1863 43.9495 22.9092 44.1296 22.5815C44.3098 22.2537 44.4045 21.8858 44.4049 21.5118V17.0994C44.4045 16.7254 44.3098 16.3575 44.1297 16.0297C43.9495 15.702 43.6897 15.4249 43.3741 15.2241C43.6897 15.0235 43.9496 14.7465 44.1297 14.4188C44.3099 14.0911 44.4045 13.7232 44.4049 13.3493Z" fill="#E6E7E8"/>
<path d="M42.6471 11.943V7.53125C42.6471 7.034 42.4495 6.55711 42.0979 6.20551C41.7463 5.8539 41.2694 5.65636 40.7722 5.65636H19.7913C19.294 5.65636 18.8172 5.8539 18.4656 6.20551C18.1139 6.55711 17.9164 7.034 17.9164 7.53125V11.943C17.9164 12.4403 18.1139 12.9171 18.4656 13.2687C18.8172 13.6204 19.294 13.8179 19.7913 13.8179C19.294 13.818 18.8171 14.0156 18.4655 14.3673C18.1139 14.7189 17.9164 15.1958 17.9164 15.6931V16.032L23.5723 18.6758C23.9644 18.8658 24.2904 19.1693 24.508 19.5467C24.7257 19.9242 24.8249 20.3583 24.793 20.7929C24.6608 22.8597 24.2277 26.6956 22.8119 30.1444H40.7715C41.2688 30.1444 41.7457 29.9467 42.0973 29.5951C42.4489 29.2434 42.6464 28.7665 42.6464 28.2692V23.8557C42.6464 23.3584 42.4489 22.8815 42.0973 22.5298C41.7457 22.1782 41.2688 21.9806 40.7715 21.9805C41.2687 21.9805 41.7456 21.7829 42.0972 21.4313C42.4488 21.0797 42.6464 20.6028 42.6464 20.1056V15.6931C42.6464 15.1958 42.4489 14.7189 42.0973 14.3673C41.7457 14.0156 41.2688 13.818 40.7715 13.8179C41.0178 13.818 41.2616 13.7696 41.4892 13.6754C41.7167 13.5812 41.9235 13.4431 42.0977 13.269C42.2719 13.0949 42.41 12.8882 42.5043 12.6607C42.5986 12.4331 42.6471 12.1893 42.6471 11.943Z" fill="white"/>
<path d="M34.7018 27.1442C35.2996 27.1442 35.7842 26.6596 35.7842 26.0618C35.7842 25.4639 35.2996 24.9793 34.7018 24.9793C34.1039 24.9793 33.6193 25.4639 33.6193 26.0618C33.6193 26.6596 34.1039 27.1442 34.7018 27.1442Z" fill="#7FCFFF"/>
<path d="M38.5707 27.1442C39.1685 27.1442 39.6532 26.6596 39.6532 26.0618C39.6532 25.4639 39.1685 24.9793 38.5707 24.9793C37.9729 24.9793 37.4883 25.4639 37.4883 26.0618C37.4883 26.6596 37.9729 27.1442 38.5707 27.1442Z" fill="#7FCFFF"/>
<path d="M34.7018 18.9816C35.2996 18.9816 35.7842 18.497 35.7842 17.8992C35.7842 17.3014 35.2996 16.8167 34.7018 16.8167C34.1039 16.8167 33.6193 17.3014 33.6193 17.8992C33.6193 18.497 34.1039 18.9816 34.7018 18.9816Z" fill="#7FCFFF"/>
<path d="M38.5707 18.9816C39.1685 18.9816 39.6532 18.497 39.6532 17.8992C39.6532 17.3014 39.1685 16.8167 38.5707 16.8167C37.9729 16.8167 37.4883 17.3014 37.4883 17.8992C37.4883 18.497 37.9729 18.9816 38.5707 18.9816Z" fill="#7FCFFF"/>
<path d="M34.7018 10.8191C35.2996 10.8191 35.7842 10.3344 35.7842 9.73661C35.7842 9.13878 35.2996 8.65414 34.7018 8.65414C34.1039 8.65414 33.6193 9.13878 33.6193 9.73661C33.6193 10.3344 34.1039 10.8191 34.7018 10.8191Z" fill="#7FCFFF"/>
<path d="M38.5707 10.8191C39.1685 10.8191 39.6532 10.3344 39.6532 9.73661C39.6532 9.13878 39.1685 8.65414 38.5707 8.65414C37.9729 8.65414 37.4883 9.13878 37.4883 9.73661C37.4883 10.3344 37.9729 10.8191 38.5707 10.8191Z" fill="#7FCFFF"/>
<path d="M12.4908 14.3199L3.17189 18.6758C2.77965 18.8656 2.45349 19.1689 2.23572 19.5464C2.01794 19.9238 1.9186 20.358 1.95056 20.7925C2.11263 23.328 2.72681 28.5269 5.05275 32.4025C7.9883 37.2935 11.6305 38.5742 12.9056 38.8832C13.2124 38.9574 13.5325 38.9574 13.8394 38.8832C15.1145 38.5732 18.7577 37.2935 21.6915 32.4029C24.0174 28.5259 24.6316 23.328 24.7937 20.7929C24.8256 20.3583 24.7262 19.9241 24.5084 19.5466C24.2907 19.1691 23.9646 18.8657 23.5724 18.6758L14.2538 14.3199C13.978 14.1904 13.677 14.1233 13.3723 14.1233C13.0676 14.1233 12.7666 14.1904 12.4908 14.3199Z" fill="url(#paint0_linear_3_43)"/>
<path d="M3.17189 19.7305L12.4908 15.3746C12.7666 15.2451 13.0676 15.178 13.3723 15.178C13.677 15.178 13.978 15.2451 14.2538 15.3746L23.5724 19.7305C23.8815 19.8791 24.1505 20.0996 24.3568 20.3737C24.5631 20.6477 24.7006 20.9673 24.7578 21.3055C24.7719 21.1248 24.7842 20.9539 24.793 20.7929C24.8249 20.3584 24.7257 19.9242 24.508 19.5468C24.2904 19.1693 23.9644 18.8659 23.5724 18.6758L14.2538 14.3199C13.978 14.1904 13.677 14.1233 13.3723 14.1233C13.0676 14.1233 12.7666 14.1904 12.4908 14.3199L3.17189 18.6758C2.77965 18.8656 2.45349 19.1689 2.23572 19.5464C2.01794 19.9238 1.9186 20.358 1.95056 20.7925C1.96076 20.9529 1.97271 21.1244 1.98572 21.3048C2.04313 20.9666 2.18082 20.6472 2.38721 20.3733C2.59361 20.0993 2.86269 19.8789 3.17189 19.7305Z" fill="white"/>
<path d="M10.7825 24.3577V22.6875C10.7733 22.0474 10.9961 21.4256 11.4096 20.937C11.8232 20.4484 12.3997 20.1259 13.0325 20.0293C13.3982 19.9812 13.7699 20.0117 14.1228 20.1188C14.4757 20.2258 14.8018 20.4069 15.0792 20.65C15.3565 20.8931 15.5789 21.1925 15.7313 21.5283C15.8837 21.8642 15.9628 22.2287 15.9631 22.5975V24.3577H17.421V22.5975C17.4205 22.033 17.302 21.475 17.0733 20.959C16.8445 20.443 16.5105 19.9805 16.0926 19.6011C15.6747 19.2217 15.1822 18.9338 14.6466 18.7558C14.111 18.5778 13.5441 18.5137 12.9822 18.5675C11.9674 18.6839 11.0319 19.1724 10.3565 19.9387C9.68111 20.705 9.31393 21.6946 9.32597 22.7159V24.3581L10.7825 24.3577Z" fill="#D4FBFF"/>
<path d="M18.551 24.3577H8.19393C7.73921 24.3577 7.37057 24.7264 7.37057 25.1811V31.666C7.37057 32.1207 7.73921 32.4894 8.19393 32.4894H18.551C19.0057 32.4894 19.3743 32.1207 19.3743 31.666V25.1811C19.3743 24.7264 19.0057 24.3577 18.551 24.3577Z" fill="white"/>
<path d="M42.9986 11.943V7.53125C42.998 6.94096 42.7632 6.37503 42.3458 5.95763C41.9284 5.54023 41.3625 5.30545 40.7722 5.3048H29.4631C29.3699 5.3048 29.2805 5.34184 29.2145 5.40777C29.1486 5.4737 29.1116 5.56312 29.1116 5.65636C29.1116 5.7496 29.1486 5.83903 29.2145 5.90496C29.2805 5.97089 29.3699 6.00793 29.4631 6.00793H40.7722C41.1761 6.00839 41.5633 6.16903 41.8488 6.45461C42.1344 6.74019 42.2951 7.12738 42.2955 7.53125V11.943C42.2951 12.3469 42.1344 12.7341 41.8488 13.0196C41.5633 13.3052 41.1761 13.4659 40.7722 13.4663H19.7913C19.3874 13.4659 19.0002 13.3052 18.7147 13.0196C18.4291 12.7341 18.2684 12.3469 18.268 11.943V7.53125C18.2684 7.12738 18.4291 6.74019 18.7147 6.45461C19.0002 6.16903 19.3874 6.00839 19.7913 6.00793H23.2229C23.3161 6.00793 23.4056 5.97089 23.4715 5.90496C23.5374 5.83903 23.5745 5.7496 23.5745 5.65636C23.5745 5.56312 23.5374 5.4737 23.4715 5.40777C23.4056 5.34184 23.3161 5.3048 23.2229 5.3048H19.7913C19.201 5.30545 18.6351 5.54023 18.2177 5.95763C17.8003 6.37503 17.5655 6.94096 17.5649 7.53125V11.943C17.5653 12.3169 17.6599 12.6847 17.84 13.0124C18.0201 13.3401 18.2798 13.6171 18.5953 13.8179C18.3098 13.9999 18.0696 14.2447 17.893 14.5335C17.7163 14.8223 17.6078 15.1476 17.5758 15.4846L14.4029 14C14.0805 13.8487 13.7286 13.7703 13.3725 13.7703C13.0163 13.7703 12.6645 13.8487 12.342 14L3.02388 18.3594C2.56891 18.5803 2.19034 18.9322 1.93671 19.3698C1.68308 19.8074 1.56597 20.3108 1.6004 20.8154C1.77618 23.5386 2.41532 28.6904 4.75216 32.5839C7.719 37.529 11.3844 38.8769 12.8233 39.225C13.1845 39.3119 13.5611 39.3119 13.9223 39.225C15.3602 38.8759 19.0259 37.5297 21.9928 32.5843C22.3912 31.9129 22.7426 31.2148 23.0447 30.495H40.7722C41.3625 30.4943 41.9284 30.2595 42.3458 29.8421C42.7632 29.4247 42.998 28.8588 42.9986 28.2685V23.8557C42.9983 23.4818 42.9037 23.114 42.7236 22.7863C42.5435 22.4586 42.2837 22.1816 41.9682 21.9808C42.2836 21.78 42.5434 21.503 42.7235 21.1753C42.9036 20.8476 42.9982 20.4798 42.9986 20.1059V15.6931C42.9983 15.3191 42.9037 14.9513 42.7236 14.6235C42.5435 14.2958 42.2837 14.0187 41.9682 13.8179C42.2837 13.6171 42.5434 13.3401 42.7235 13.0124C42.9036 12.6847 42.9982 12.3169 42.9986 11.943ZM21.3899 32.2218C18.5594 36.9398 15.1085 38.2128 13.7567 38.5415C13.5043 38.6025 13.241 38.6025 12.9886 38.5415C11.6361 38.2128 8.18517 36.9398 5.35474 32.2218C3.09489 28.4548 2.47192 23.4303 2.30212 20.7707C2.27564 20.4068 2.35855 20.0432 2.54022 19.7267C2.72189 19.4103 2.99402 19.1553 3.32165 18.9946L12.6402 14.6388C12.8694 14.5312 13.1196 14.4755 13.3728 14.4755C13.6261 14.4755 13.8762 14.5312 14.1055 14.6388L23.4219 18.9946C23.7495 19.1554 24.0216 19.4103 24.2033 19.7268C24.3849 20.0433 24.4679 20.4068 24.4414 20.7707C24.2727 23.4307 23.65 28.4552 21.3899 32.2218ZM42.2955 23.8546V28.2682C42.2951 28.672 42.1344 29.0592 41.8488 29.3448C41.5633 29.6304 41.1761 29.791 40.7722 29.7915H23.3277C24.2031 27.3864 24.7701 24.8801 25.0152 22.3324H40.7726C41.1764 22.3329 41.5635 22.4936 41.849 22.7792C42.1345 23.0648 42.2951 23.4519 42.2955 23.8557V23.8546ZM42.2955 15.6921V20.1059C42.2951 20.5098 42.1344 20.897 41.8488 21.1826C41.5633 21.4681 41.1761 21.6288 40.7722 21.6293H25.0823C25.1069 21.3413 25.1287 21.0668 25.1445 20.8154C25.1789 20.3108 25.0618 19.8074 24.8082 19.3698C24.5545 18.9322 24.176 18.5804 23.7211 18.3594L18.268 15.8084V15.6931C18.2684 15.2892 18.429 14.9019 18.7145 14.6163C19.0001 14.3306 19.3874 14.1699 19.7913 14.1695H40.7722C41.1761 14.1699 41.5634 14.3306 41.849 14.6163C42.1345 14.9019 42.2951 15.2892 42.2955 15.6931V15.6921Z" fill="#005789"/>
<path d="M24.7982 6.00687H27.7493C27.8425 6.00687 27.9319 5.96983 27.9979 5.9039C28.0638 5.83797 28.1008 5.74855 28.1008 5.65531C28.1008 5.56207 28.0638 5.47265 27.9979 5.40672C27.9319 5.34079 27.8425 5.30375 27.7493 5.30375H24.7982C24.705 5.30375 24.6156 5.34079 24.5497 5.40672C24.4837 5.47265 24.4467 5.56207 24.4467 5.65531C24.4467 5.74855 24.4837 5.83797 24.5497 5.9039C24.6156 5.96983 24.705 6.00687 24.7982 6.00687Z" fill="#005789"/>
<path d="M18.551 24.0062H17.7719V22.5971C17.7708 21.9845 17.6421 21.3788 17.3939 20.8187C17.1457 20.2587 16.7836 19.7564 16.3305 19.3441C15.878 18.9286 15.3426 18.6136 14.7597 18.4197C14.1767 18.2258 13.5594 18.1574 12.9481 18.2191C11.848 18.3473 10.8339 18.8771 10.1003 19.7069C9.36665 20.5367 8.96511 21.608 8.97265 22.7156V24.0062H8.19393C7.88268 24.0065 7.58427 24.1302 7.36405 24.3502C7.14383 24.5702 7.01976 24.8684 7.01901 25.1797V31.6657C7.01929 31.9772 7.14316 32.2759 7.36343 32.4963C7.5837 32.7166 7.88238 32.8406 8.19393 32.8409H18.551C18.8625 32.8405 19.1611 32.7165 19.3814 32.4962C19.6016 32.2759 19.7255 31.9772 19.7259 31.6657V25.1797C19.7251 24.8684 19.6011 24.5702 19.3809 24.3502C19.1606 24.1302 18.8622 24.0065 18.551 24.0062ZM9.67577 22.7156C9.66705 21.7825 10.0031 20.8789 10.6194 20.1783C11.2357 19.4776 12.089 19.0291 13.0156 18.9187C13.5294 18.867 14.0482 18.9246 14.5382 19.0877C15.0281 19.2507 15.478 19.5155 15.8583 19.8648C16.239 20.2113 16.5433 20.6333 16.7517 21.1039C16.9602 21.5745 17.0683 22.0834 17.0691 22.5982V24.0072H16.314V22.5971C16.3137 22.1782 16.2241 21.7643 16.0511 21.3828C15.8782 21.0013 15.6258 20.6612 15.3109 20.385C14.996 20.1088 14.6258 19.903 14.225 19.7813C13.8242 19.6595 13.4021 19.6247 12.9868 19.6791C12.2687 19.7854 11.6136 20.1489 11.1435 20.702C10.6733 21.2551 10.4201 21.9602 10.4309 22.686V24.0048H9.67577V22.7156ZM11.1337 24.0062V22.6875C11.1227 22.1326 11.3135 21.5925 11.6707 21.1678C12.0279 20.743 12.5272 20.4624 13.0757 20.378C13.3927 20.3346 13.7152 20.3602 14.0213 20.4532C14.3274 20.5462 14.6098 20.7043 14.849 20.9166C15.088 21.1266 15.2795 21.3851 15.4108 21.6748C15.5421 21.9646 15.6102 22.279 15.6105 22.5971V24.0062H11.1337ZM19.0228 31.6657C19.0227 31.7908 18.9729 31.9108 18.8845 31.9993C18.796 32.0878 18.6761 32.1376 18.551 32.1378H8.19393C8.0688 32.1376 7.94885 32.0878 7.86041 31.9993C7.77196 31.9108 7.72223 31.7908 7.72214 31.6657V25.1797C7.72223 25.0546 7.77197 24.9346 7.86043 24.8462C7.94889 24.7577 8.06883 24.708 8.19393 24.7079H18.551C18.6761 24.708 18.796 24.7577 18.8845 24.8462C18.9729 24.9346 19.0227 25.0546 19.0228 25.1797V31.6657Z" fill="#005789"/>
<path d="M13.3725 26.6074C13.0926 26.6073 12.821 26.7023 12.6022 26.8768C12.3834 27.0513 12.2304 27.295 12.1683 27.5679C12.1061 27.8408 12.1385 28.1267 12.2602 28.3787C12.3818 28.6307 12.5855 28.834 12.8377 28.9551V30.4243C12.8377 30.5661 12.8941 30.7021 12.9944 30.8024C13.0946 30.9027 13.2307 30.959 13.3725 30.959C13.5143 30.959 13.6503 30.9027 13.7506 30.8024C13.8509 30.7021 13.9072 30.5661 13.9072 30.4243V28.9551C14.1595 28.834 14.3631 28.6307 14.4848 28.3787C14.6064 28.1267 14.6388 27.8408 14.5767 27.5679C14.5145 27.295 14.3615 27.0513 14.1427 26.8768C13.9239 26.7023 13.6523 26.6073 13.3725 26.6074Z" fill="#005789"/>
<defs>
<linearGradient id="paint0_linear_3_43" x1="13.3721" y1="14.1233" x2="13.3721" y2="38.9389" gradientUnits="userSpaceOnUse">
<stop stop-color="white"/>
<stop offset="1" stop-color="white" stop-opacity="0"/>
</linearGradient>
</defs>
</svg>
