<svg width="32" height="32" viewBox="0 0 80 97" fill="none" xmlns="http://www.w3.org/2000/svg">
<g clip-path="url(#clip0_1_5)">
<path d="M50.0425 64.5859C57.413 64.5859 63.3879 57.3582 63.3879 48.4423V24.2269C63.3879 15.3111 57.413 8.08333 50.0425 8.08333H16.6788C9.3083 8.08333 3.33334 15.3111 3.33334 24.2269V74.6757C3.33334 75.7902 4.08021 76.6936 5.00152 76.6936C5.44231 76.6905 5.86339 76.4722 6.16925 76.0883L12.842 68.0165C14.7581 65.7596 17.3413 64.5243 20.0152 64.5859H50.0425ZM70.0607 24.2269V56.5141C70.0607 65.43 64.0857 72.6577 56.7152 72.6577H16.6788C16.6788 77.1157 19.6663 80.7295 23.3515 80.7295H60.0516C62.7168 80.7216 65.2746 81.9999 67.158 84.2811L73.8308 92.3529C74.1366 92.7369 74.5577 92.9552 74.9985 92.9583C75.9198 92.9583 76.6667 92.0549 76.6667 90.9404V32.2987C76.6669 27.8721 73.7198 24.2712 70.0607 24.2269Z" fill="#005789"/>
</g>
<defs>
<clipPath id="clip0_1_5">
<rect width="80" height="97" fill="white"/>
</clipPath>
</defs>
</svg>
