<svg width="33" height="33" viewBox="0 0 33 33" fill="none" xmlns="http://www.w3.org/2000/svg">
<path d="M15.8741 14.6275C15.8227 14.6275 15.7721 14.6148 15.7267 14.5905C15.6814 14.5662 15.6427 14.5311 15.6142 14.4883C15.5857 14.4455 15.5682 14.3964 15.5632 14.3452C15.5582 14.294 15.566 14.2424 15.5857 14.1949L16.8375 11.1863C16.8693 11.1097 16.9302 11.049 17.0069 11.0174C17.0835 10.9857 17.1695 10.9859 17.2461 11.0177C17.3226 11.0495 17.3833 11.1104 17.415 11.1871C17.4466 11.2637 17.4464 11.3497 17.4146 11.4263L16.1625 14.4349C16.1388 14.4919 16.0988 14.5406 16.0475 14.5749C15.9962 14.6091 15.9358 14.6275 15.8741 14.6275Z" fill="#005789"/>
<path d="M18.9934 14.6172C18.9316 14.6172 18.8712 14.5989 18.8198 14.5645C18.7684 14.5302 18.7283 14.4814 18.7047 14.4243C18.6811 14.3672 18.6749 14.3044 18.687 14.2437C18.699 14.1831 18.7288 14.1274 18.7725 14.0837L20.0456 12.8105L18.7725 11.5375C18.7426 11.5087 18.7188 11.4742 18.7025 11.4361C18.6861 11.3979 18.6775 11.3569 18.6771 11.3154C18.6767 11.2739 18.6847 11.2328 18.7004 11.1944C18.7161 11.156 18.7393 11.1211 18.7686 11.0917C18.798 11.0624 18.8329 11.0392 18.8713 11.0235C18.9097 11.0078 18.9508 10.9999 18.9923 11.0002C19.0338 11.0006 19.0748 11.0092 19.1129 11.0256C19.1511 11.042 19.1855 11.0658 19.2144 11.0956L20.7085 12.5897C20.7671 12.6484 20.8 12.7278 20.8 12.8107C20.8 12.8935 20.7671 12.973 20.7085 13.0316L19.2144 14.5257C19.1854 14.5548 19.1509 14.5778 19.113 14.5935C19.0751 14.6092 19.0344 14.6173 18.9934 14.6172Z" fill="#005789"/>
<path d="M14.0066 14.6173C13.9656 14.6173 13.9249 14.6092 13.887 14.5935C13.8491 14.5778 13.8146 14.5547 13.7856 14.5256L12.2915 13.0315C12.2329 12.9729 12.2 12.8934 12.2 12.8106C12.2 12.7277 12.2329 12.6482 12.2915 12.5896L13.7856 11.0955C13.8146 11.0663 13.8491 11.0431 13.887 11.0272C13.925 11.0113 13.9657 11.0031 14.0069 11.003C14.048 11.0029 14.0888 11.011 14.1268 11.0267C14.1649 11.0424 14.1994 11.0655 14.2285 11.0946C14.2576 11.1237 14.2807 11.1583 14.2964 11.1963C14.3121 11.2343 14.3201 11.2751 14.32 11.3163C14.3199 11.3574 14.3117 11.3981 14.2958 11.4361C14.2799 11.4741 14.2567 11.5085 14.2275 11.5375L12.9544 12.8105L14.2275 14.0837C14.2712 14.1274 14.301 14.1831 14.313 14.2437C14.3251 14.3044 14.3189 14.3672 14.2953 14.4243C14.2716 14.4814 14.2316 14.5302 14.1802 14.5646C14.1288 14.5989 14.0684 14.6172 14.0066 14.6173Z" fill="#005789"/>
<path d="M10.2949 17.5125H5.55988C5.477 17.5125 5.39751 17.5454 5.3389 17.604C5.2803 17.6626 5.24738 17.7421 5.24738 17.825V22.5599C5.24738 22.6428 5.2803 22.7222 5.3389 22.7808C5.39751 22.8394 5.477 22.8724 5.55988 22.8724H10.2949C10.3778 22.8724 10.4572 22.8394 10.5158 22.7808C10.5745 22.7222 10.6074 22.6428 10.6074 22.5599V17.825C10.6074 17.784 10.5993 17.7433 10.5836 17.7054C10.5679 17.6675 10.5449 17.633 10.5158 17.604C10.4868 17.575 10.4524 17.552 10.4145 17.5363C10.3766 17.5206 10.3359 17.5125 10.2949 17.5125ZM9.5405 18.1375L7.928 19.75L6.3155 18.1375H9.5405ZM5.87238 18.5792L7.4855 20.1924L5.873 21.8056L5.87238 18.5792ZM6.31425 22.2474L7.92675 20.6349L9.53988 22.2474H6.31425ZM9.98238 21.8055L8.36988 20.193L9.98238 18.5805V21.8055Z" fill="#005789"/>
<path d="M27.4401 17.5125H22.7052C22.6224 17.5125 22.5429 17.5454 22.4843 17.604C22.4257 17.6626 22.3927 17.7421 22.3927 17.825V22.5599C22.3927 22.6428 22.4257 22.7222 22.4843 22.7808C22.5429 22.8394 22.6224 22.8724 22.7052 22.8724H27.4401C27.523 22.8724 27.6025 22.8394 27.6611 22.7808C27.7197 22.7222 27.7526 22.6428 27.7526 22.5599V17.825C27.7526 17.7421 27.7197 17.6626 27.6611 17.604C27.6025 17.5454 27.523 17.5125 27.4401 17.5125ZM23.0177 18.5795L24.6302 20.192L23.0177 21.8045V18.5795ZM23.4595 18.1375H26.6857L25.0732 19.7506L23.4595 18.1375ZM25.0726 20.6344L26.6851 22.2469H23.4596L25.0726 20.6344ZM25.5145 20.1925L27.127 18.58V21.8062L25.5145 20.1925Z" fill="#005789"/>
<path d="M29.5416 4.075H3.45837C3.37549 4.075 3.29601 4.10792 3.2374 4.16653C3.1788 4.22514 3.14587 4.30462 3.14587 4.3875V28.6125C3.14587 28.6954 3.1788 28.7749 3.2374 28.8335C3.29601 28.8921 3.37549 28.925 3.45837 28.925H29.5416C29.6245 28.925 29.704 28.8921 29.7626 28.8335C29.8212 28.7749 29.8541 28.6954 29.8541 28.6125V4.3875C29.8541 4.30462 29.8212 4.22514 29.7626 4.16653C29.704 4.10792 29.6245 4.075 29.5416 4.075ZM29.2291 4.7V7.3875H3.77087V4.7H29.2291ZM3.77087 28.3V8.0125H29.2291V28.3H3.77087Z" fill="#005789"/>
<path d="M5.375 6.325H6.75C6.83288 6.325 6.91237 6.29208 6.97097 6.23347C7.02958 6.17487 7.0625 6.09538 7.0625 6.0125C7.0625 5.92962 7.02958 5.85014 6.97097 5.79153C6.91237 5.73293 6.83288 5.7 6.75 5.7H5.375C5.29212 5.7 5.21263 5.73293 5.15403 5.79153C5.09542 5.85014 5.0625 5.92962 5.0625 6.0125C5.0625 6.09538 5.09542 6.17487 5.15403 6.23347C5.21263 6.29208 5.29212 6.325 5.375 6.325Z" fill="#005789"/>
<path d="M8.32263 6.325H9.69763C9.78051 6.325 9.86 6.29208 9.9186 6.23347C9.97721 6.17487 10.0101 6.09538 10.0101 6.0125C10.0101 5.92962 9.97721 5.85014 9.9186 5.79153C9.86 5.73293 9.78051 5.7 9.69763 5.7H8.32263C8.23975 5.7 8.16027 5.73293 8.10166 5.79153C8.04306 5.85014 8.01013 5.92962 8.01013 6.0125C8.01013 6.09538 8.04306 6.17487 8.10166 6.23347C8.16027 6.29208 8.23975 6.325 8.32263 6.325Z" fill="#005789"/>
<path d="M11.2704 6.325H12.6454C12.7283 6.325 12.8077 6.29208 12.8663 6.23347C12.9249 6.17487 12.9579 6.09538 12.9579 6.0125C12.9579 5.92962 12.9249 5.85014 12.8663 5.79153C12.8077 5.73293 12.7283 5.7 12.6454 5.7H11.2704C11.1875 5.7 11.108 5.73293 11.0494 5.79153C10.9908 5.85014 10.9579 5.92962 10.9579 6.0125C10.9579 6.09538 10.9908 6.17487 11.0494 6.23347C11.108 6.29208 11.1875 6.325 11.2704 6.325Z" fill="#005789"/>
<path d="M26.2077 6.325H27.5827C27.6656 6.325 27.7451 6.29208 27.8037 6.23347C27.8623 6.17487 27.8952 6.09538 27.8952 6.0125C27.8952 5.92962 27.8623 5.85014 27.8037 5.79153C27.7451 5.73293 27.6656 5.7 27.5827 5.7H26.2077C26.1249 5.7 26.0454 5.73293 25.9868 5.79153C25.9282 5.85014 25.8952 5.92962 25.8952 6.0125C25.8952 6.09538 25.9282 6.17487 25.9868 6.23347C26.0454 6.29208 26.1249 6.325 26.2077 6.325Z" fill="#005789"/>
<path d="M27.4401 12.498H22.7052C22.6224 12.498 22.5429 12.5309 22.4843 12.5895C22.4257 12.6481 22.3927 12.7276 22.3927 12.8105C22.3927 12.8934 22.4257 12.9729 22.4843 13.0315C22.5429 13.0901 22.6224 13.123 22.7052 13.123H27.4401C27.523 13.123 27.6025 13.0901 27.6611 13.0315C27.7197 12.9729 27.7526 12.8934 27.7526 12.8105C27.7526 12.7276 27.7197 12.6481 27.6611 12.5895C27.6025 12.5309 27.523 12.498 27.4401 12.498Z" fill="#005789"/>
<path d="M10.2949 12.498H5.55988C5.477 12.498 5.39751 12.5309 5.3389 12.5895C5.2803 12.6481 5.24738 12.7276 5.24738 12.8105C5.24738 12.8934 5.2803 12.9729 5.3389 13.0315C5.39751 13.0901 5.477 13.123 5.55988 13.123H10.2949C10.3778 13.123 10.4572 13.0901 10.5158 13.0315C10.5745 12.9729 10.6074 12.8934 10.6074 12.8105C10.6074 12.7276 10.5745 12.6481 10.5158 12.5895C10.4572 12.5309 10.3778 12.498 10.2949 12.498Z" fill="#005789"/>
<path d="M21.025 17.5125H11.975C11.8921 17.5125 11.8126 17.5454 11.754 17.604C11.6954 17.6626 11.6625 17.7421 11.6625 17.825V26.875C11.6625 26.9579 11.6954 27.0374 11.754 27.096C11.8126 27.1546 11.8921 27.1875 11.975 27.1875H21.025C21.1079 27.1875 21.1874 27.1546 21.246 27.096C21.3046 27.0374 21.3375 26.9579 21.3375 26.875V17.825C21.3375 17.7421 21.3046 17.6626 21.246 17.604C21.1874 17.5454 21.1079 17.5125 21.025 17.5125ZM12.2875 18.5794L16.0581 22.35L12.2875 26.1206V18.5794ZM12.7294 18.1375H20.2703L16.5 21.9082L12.7294 18.1375ZM16.5 22.792L20.2704 26.5625H12.7295L16.5 22.792ZM16.9419 22.3501L20.7125 18.5797V26.1206L16.9419 22.3501Z" fill="#005789"/>
</svg>
