<svg width="18" height="18" viewBox="0 0 21 19" fill="none" xmlns="http://www.w3.org/2000/svg">
<path d="M2.58798 19C2.03798 19 1.56698 18.804 1.17498 18.412C0.782984 18.02 0.587317 17.5493 0.587984 17V6C0.587984 5.45 0.783984 4.979 1.17598 4.587C1.56798 4.195 2.03865 3.99934 2.58798 4H6.58798V2C6.58798 1.45 6.78398 0.979002 7.17598 0.587002C7.56798 0.195002 8.03865 -0.000664969 8.58798 1.69779e-06H12.588C13.138 1.69779e-06 13.609 0.196002 14.001 0.588002C14.393 0.980002 14.5887 1.45067 14.588 2V4H18.588C19.138 4 19.609 4.196 20.001 4.588C20.393 4.98 20.5887 5.45067 20.588 6V17C20.588 17.55 20.392 18.021 20 18.413C19.608 18.805 19.1373 19.0007 18.588 19H2.58798ZM1.58798 18H11.088H19.088V12V6H1.58798V12V18ZM8 4H13.588V1.5H8V4Z" fill="black"/>
</svg>
