<?xml version="1.0" encoding="utf-8"?>
<!-- Generator: Adobe Illustrator 26.1.0, SVG Export Plug-In . SVG Version: 6.00 Build 0)  -->
<svg version="1.1" id="Layer_1" xmlns="http://www.w3.org/2000/svg" xmlns:xlink="http://www.w3.org/1999/xlink" x="0px" y="0px"
	 viewBox="0 0 1920 330" style="enable-background:new 0 0 1920 330;" xml:space="preserve">
<style type="text/css">
	
		.st0{opacity:0.5;clip-path:url(#SVGID_00000115489083282341028250000004353688136881462151_);fill:none;stroke:#1E1E1E;stroke-width:3;stroke-linecap:round;stroke-linejoin:round;stroke-miterlimit:10;enable-background:new    ;}
	
		.st1{opacity:0.5;clip-path:url(#SVGID_00000025441287793620250100000007135280405215855544_);fill:none;stroke:#1E1E1E;stroke-width:3;stroke-linecap:round;stroke-linejoin:round;stroke-miterlimit:10;enable-background:new    ;}
	
		.st2{opacity:0.5;clip-path:url(#SVGID_00000070839814294439852460000003565478372295782843_);fill:none;stroke:#1E1E1E;stroke-width:3;stroke-linecap:round;stroke-linejoin:round;stroke-miterlimit:10;enable-background:new    ;}
	
		.st3{opacity:0.5;clip-path:url(#SVGID_00000176752454543284164190000001742597489886793396_);fill:none;stroke:#1E1E1E;stroke-width:3;stroke-linecap:round;stroke-linejoin:round;stroke-miterlimit:10;enable-background:new    ;}
	
		.st4{opacity:0.5;clip-path:url(#SVGID_00000000915592031045143590000003718148475755514042_);fill:none;stroke:#1E1E1E;stroke-width:3;stroke-linecap:round;stroke-linejoin:round;stroke-miterlimit:10;enable-background:new    ;}
	
		.st5{opacity:0.5;clip-path:url(#SVGID_00000127004349659300623520000008227542627248800906_);fill:none;stroke:#1E1E1E;stroke-width:3;stroke-linecap:round;stroke-linejoin:round;stroke-miterlimit:10;enable-background:new    ;}
	
		.st6{opacity:0.5;clip-path:url(#SVGID_00000146459737761629706580000000422028109031578532_);fill:none;stroke:#1E1E1E;stroke-width:3;stroke-linecap:round;stroke-linejoin:round;stroke-miterlimit:10;enable-background:new    ;}
	
		.st7{opacity:0.5;clip-path:url(#SVGID_00000073692278641421840400000012493670822728273341_);fill:none;stroke:#1E1E1E;stroke-width:3;stroke-linecap:round;stroke-linejoin:round;stroke-miterlimit:10;enable-background:new    ;}
	
		.st8{opacity:0.5;clip-path:url(#SVGID_00000144300957971251062080000007872222717338358458_);fill:none;stroke:#1E1E1E;stroke-width:3;stroke-linecap:round;stroke-linejoin:round;stroke-miterlimit:10;enable-background:new    ;}
	
		.st9{opacity:0.5;clip-path:url(#SVGID_00000059287710938157742230000001996936807433151161_);fill:none;stroke:#1E1E1E;stroke-width:3;stroke-linecap:round;stroke-linejoin:round;stroke-miterlimit:10;enable-background:new    ;}
	
		.st10{opacity:0.5;clip-path:url(#SVGID_00000119102064599648797710000011949898269357480085_);fill:none;stroke:#1E1E1E;stroke-width:3;stroke-linecap:round;stroke-linejoin:round;stroke-miterlimit:10;enable-background:new    ;}
	
		.st11{opacity:0.5;clip-path:url(#SVGID_00000007403731290127385640000012631483256912629417_);fill:none;stroke:#1E1E1E;stroke-width:3;stroke-linecap:round;stroke-linejoin:round;stroke-miterlimit:10;enable-background:new    ;}
	
		.st12{opacity:0.5;clip-path:url(#SVGID_00000095329817087428452680000009455441566019675316_);fill:none;stroke:#1E1E1E;stroke-width:3;stroke-linecap:round;stroke-linejoin:round;stroke-miterlimit:10;enable-background:new    ;}
	
		.st13{opacity:0.5;clip-path:url(#SVGID_00000113348585741576655290000013330450668254806704_);fill:none;stroke:#1E1E1E;stroke-width:3;stroke-linecap:round;stroke-linejoin:round;stroke-miterlimit:10;enable-background:new    ;}
	
		.st14{opacity:0.5;clip-path:url(#SVGID_00000165928693345475653060000013498053835125033389_);fill:none;stroke:#1E1E1E;stroke-width:3;stroke-linecap:round;stroke-linejoin:round;stroke-miterlimit:10;enable-background:new    ;}
	
		.st15{opacity:0.5;clip-path:url(#SVGID_00000001653211687524370500000008745687278365977496_);fill:none;stroke:#1E1E1E;stroke-width:3;stroke-linecap:round;stroke-linejoin:round;stroke-miterlimit:10;enable-background:new    ;}
	
		.st16{opacity:0.5;clip-path:url(#SVGID_00000013185906262155878690000002831964605674342072_);fill:none;stroke:#1E1E1E;stroke-width:3;stroke-linecap:round;stroke-linejoin:round;stroke-miterlimit:10;enable-background:new    ;}
	
		.st17{opacity:0.5;clip-path:url(#SVGID_00000084513044546047314170000001225010150492840623_);fill:none;stroke:#1E1E1E;stroke-width:3;stroke-linecap:round;stroke-linejoin:round;stroke-miterlimit:10;enable-background:new    ;}
	.st18{fill:#2B2B2B;}
	
		.st19{clip-path:url(#SVGID_00000096778722910626241800000002560872795572501632_);fill:none;stroke:#FFFFFF;stroke-width:3;stroke-miterlimit:10;}
	
		.st20{clip-path:url(#SVGID_00000128460820731020949310000016830643053881615286_);fill:none;stroke:#FFFFFF;stroke-width:3;stroke-miterlimit:10;}
	
		.st21{clip-path:url(#SVGID_00000183210434441439896280000016329358487253944738_);fill:none;stroke:#FFFFFF;stroke-width:3;stroke-miterlimit:10;}
	
		.st22{clip-path:url(#SVGID_00000139258089569476528590000012909316351281994376_);fill:none;stroke:#FFFFFF;stroke-width:3;stroke-miterlimit:10;}
	.st23{fill:none;stroke:#E91E63;stroke-width:4;stroke-miterlimit:10;}
	.st24{fill:none;stroke:#E91E63;stroke-width:3;stroke-miterlimit:10;}
	.st25{fill:#E91E63;}
	.st26{fill:none;stroke:#FFFFFF;stroke-width:5;stroke-linecap:round;stroke-linejoin:round;stroke-miterlimit:10;}
</style>
<g>
	<g>
		<defs>
			<circle id="SVGID_1_" cx="105.5" cy="151.5" r="59"/>
		</defs>
		<clipPath id="SVGID_00000076564244556602838060000013516277158667287177_">
			<use xlink:href="#SVGID_1_"  style="overflow:visible;"/>
		</clipPath>
		
			<line style="opacity:0.5;clip-path:url(#SVGID_00000076564244556602838060000013516277158667287177_);fill:none;stroke:#1E1E1E;stroke-width:3;stroke-linecap:round;stroke-linejoin:round;stroke-miterlimit:10;enable-background:new    ;" x1="82" y1="56" x2="200.5" y2="174.5"/>
	</g>
	<g>
		<defs>
			<circle id="SVGID_00000072974647408711828050000017320022589958983336_" cx="105.5" cy="151.5" r="59"/>
		</defs>
		<clipPath id="SVGID_00000047030045467838007670000005162962542126906034_">
			<use xlink:href="#SVGID_00000072974647408711828050000017320022589958983336_"  style="overflow:visible;"/>
		</clipPath>
		
			<line style="opacity:0.5;clip-path:url(#SVGID_00000047030045467838007670000005162962542126906034_);fill:none;stroke:#1E1E1E;stroke-width:3;stroke-linecap:round;stroke-linejoin:round;stroke-miterlimit:10;enable-background:new    ;" x1="73" y1="56" x2="191.5" y2="174.5"/>
	</g>
	<g>
		<defs>
			<circle id="SVGID_00000147192743874362824570000007115859821559024268_" cx="105.5" cy="151.5" r="59"/>
		</defs>
		<clipPath id="SVGID_00000115517124290401553790000001293047239240485524_">
			<use xlink:href="#SVGID_00000147192743874362824570000007115859821559024268_"  style="overflow:visible;"/>
		</clipPath>
		
			<line style="opacity:0.5;clip-path:url(#SVGID_00000115517124290401553790000001293047239240485524_);fill:none;stroke:#1E1E1E;stroke-width:3;stroke-linecap:round;stroke-linejoin:round;stroke-miterlimit:10;enable-background:new    ;" x1="73" y1="65" x2="191.5" y2="183.5"/>
	</g>
	<g>
		<defs>
			<circle id="SVGID_00000049191056439419550180000009003783125949876632_" cx="105.5" cy="151.5" r="59"/>
		</defs>
		<clipPath id="SVGID_00000128469492142620148650000005511485307639590583_">
			<use xlink:href="#SVGID_00000049191056439419550180000009003783125949876632_"  style="overflow:visible;"/>
		</clipPath>
		
			<line style="opacity:0.5;clip-path:url(#SVGID_00000128469492142620148650000005511485307639590583_);fill:none;stroke:#1E1E1E;stroke-width:3;stroke-linecap:round;stroke-linejoin:round;stroke-miterlimit:10;enable-background:new    ;" x1="64" y1="65" x2="182.5" y2="183.5"/>
	</g>
	<g>
		<defs>
			<circle id="SVGID_00000086666737152618487820000006847956856830001836_" cx="105.5" cy="151.5" r="59"/>
		</defs>
		<clipPath id="SVGID_00000021101030593694221060000008504192398415854495_">
			<use xlink:href="#SVGID_00000086666737152618487820000006847956856830001836_"  style="overflow:visible;"/>
		</clipPath>
		
			<line style="opacity:0.5;clip-path:url(#SVGID_00000021101030593694221060000008504192398415854495_);fill:none;stroke:#1E1E1E;stroke-width:3;stroke-linecap:round;stroke-linejoin:round;stroke-miterlimit:10;enable-background:new    ;" x1="64" y1="74" x2="182.5" y2="192.5"/>
	</g>
	<g>
		<defs>
			<circle id="SVGID_00000080170082173098442300000003765733156012722843_" cx="105.5" cy="151.5" r="59"/>
		</defs>
		<clipPath id="SVGID_00000124878640980464381560000004905290684051868579_">
			<use xlink:href="#SVGID_00000080170082173098442300000003765733156012722843_"  style="overflow:visible;"/>
		</clipPath>
		
			<line style="opacity:0.5;clip-path:url(#SVGID_00000124878640980464381560000004905290684051868579_);fill:none;stroke:#1E1E1E;stroke-width:3;stroke-linecap:round;stroke-linejoin:round;stroke-miterlimit:10;enable-background:new    ;" x1="55" y1="74" x2="173.5" y2="192.5"/>
	</g>
	<g>
		<defs>
			<circle id="SVGID_00000115510441689146822580000017133020726146719116_" cx="105.5" cy="151.5" r="59"/>
		</defs>
		<clipPath id="SVGID_00000067953225349662983140000012632434419438852279_">
			<use xlink:href="#SVGID_00000115510441689146822580000017133020726146719116_"  style="overflow:visible;"/>
		</clipPath>
		
			<line style="opacity:0.5;clip-path:url(#SVGID_00000067953225349662983140000012632434419438852279_);fill:none;stroke:#1E1E1E;stroke-width:3;stroke-linecap:round;stroke-linejoin:round;stroke-miterlimit:10;enable-background:new    ;" x1="55" y1="83" x2="173.5" y2="201.5"/>
	</g>
	<g>
		<defs>
			<circle id="SVGID_00000152981483976472474460000006126391793047139503_" cx="105.5" cy="151.5" r="59"/>
		</defs>
		<clipPath id="SVGID_00000129896478295477294280000016061973274873243299_">
			<use xlink:href="#SVGID_00000152981483976472474460000006126391793047139503_"  style="overflow:visible;"/>
		</clipPath>
		
			<line style="opacity:0.5;clip-path:url(#SVGID_00000129896478295477294280000016061973274873243299_);fill:none;stroke:#1E1E1E;stroke-width:3;stroke-linecap:round;stroke-linejoin:round;stroke-miterlimit:10;enable-background:new    ;" x1="46" y1="83" x2="164.5" y2="201.5"/>
	</g>
	<g>
		<defs>
			<circle id="SVGID_00000048499377549794369510000003875170272546552767_" cx="105.5" cy="151.5" r="59"/>
		</defs>
		<clipPath id="SVGID_00000013873506319845127570000015359184611766151078_">
			<use xlink:href="#SVGID_00000048499377549794369510000003875170272546552767_"  style="overflow:visible;"/>
		</clipPath>
		
			<line style="opacity:0.5;clip-path:url(#SVGID_00000013873506319845127570000015359184611766151078_);fill:none;stroke:#1E1E1E;stroke-width:3;stroke-linecap:round;stroke-linejoin:round;stroke-miterlimit:10;enable-background:new    ;" x1="46" y1="92" x2="164.5" y2="210.5"/>
	</g>
	<g>
		<defs>
			<circle id="SVGID_00000127723188965441982790000000981204845680859033_" cx="105.5" cy="151.5" r="59"/>
		</defs>
		<clipPath id="SVGID_00000057141468697735333160000010093203903092193215_">
			<use xlink:href="#SVGID_00000127723188965441982790000000981204845680859033_"  style="overflow:visible;"/>
		</clipPath>
		
			<line style="opacity:0.5;clip-path:url(#SVGID_00000057141468697735333160000010093203903092193215_);fill:none;stroke:#1E1E1E;stroke-width:3;stroke-linecap:round;stroke-linejoin:round;stroke-miterlimit:10;enable-background:new    ;" x1="37" y1="92" x2="155.5" y2="210.5"/>
	</g>
	<g>
		<defs>
			<circle id="SVGID_00000176746505220662658220000018319157255220999079_" cx="105.5" cy="151.5" r="59"/>
		</defs>
		<clipPath id="SVGID_00000126313713176828379050000000448216642526628488_">
			<use xlink:href="#SVGID_00000176746505220662658220000018319157255220999079_"  style="overflow:visible;"/>
		</clipPath>
		
			<line style="opacity:0.5;clip-path:url(#SVGID_00000126313713176828379050000000448216642526628488_);fill:none;stroke:#1E1E1E;stroke-width:3;stroke-linecap:round;stroke-linejoin:round;stroke-miterlimit:10;enable-background:new    ;" x1="37" y1="101" x2="155.5" y2="219.5"/>
	</g>
	<g>
		<defs>
			<circle id="SVGID_00000116934315322632093120000018171651255400845460_" cx="105.5" cy="151.5" r="59"/>
		</defs>
		<clipPath id="SVGID_00000155133547933613880350000009444062179936596371_">
			<use xlink:href="#SVGID_00000116934315322632093120000018171651255400845460_"  style="overflow:visible;"/>
		</clipPath>
		
			<line style="opacity:0.5;clip-path:url(#SVGID_00000155133547933613880350000009444062179936596371_);fill:none;stroke:#1E1E1E;stroke-width:3;stroke-linecap:round;stroke-linejoin:round;stroke-miterlimit:10;enable-background:new    ;" x1="28" y1="101" x2="146.5" y2="219.5"/>
	</g>
	<g>
		<defs>
			<circle id="SVGID_00000137125269103136911700000003676163739033328539_" cx="105.5" cy="151.5" r="59"/>
		</defs>
		<clipPath id="SVGID_00000016767091178484081160000017976882454554715040_">
			<use xlink:href="#SVGID_00000137125269103136911700000003676163739033328539_"  style="overflow:visible;"/>
		</clipPath>
		
			<line style="opacity:0.5;clip-path:url(#SVGID_00000016767091178484081160000017976882454554715040_);fill:none;stroke:#1E1E1E;stroke-width:3;stroke-linecap:round;stroke-linejoin:round;stroke-miterlimit:10;enable-background:new    ;" x1="28" y1="110" x2="146.5" y2="228.5"/>
	</g>
	<g>
		<defs>
			<circle id="SVGID_00000143585080358685192150000005822670407989531048_" cx="105.5" cy="151.5" r="59"/>
		</defs>
		<clipPath id="SVGID_00000013903296917688423120000011685109731073315501_">
			<use xlink:href="#SVGID_00000143585080358685192150000005822670407989531048_"  style="overflow:visible;"/>
		</clipPath>
		
			<line style="opacity:0.5;clip-path:url(#SVGID_00000013903296917688423120000011685109731073315501_);fill:none;stroke:#1E1E1E;stroke-width:3;stroke-linecap:round;stroke-linejoin:round;stroke-miterlimit:10;enable-background:new    ;" x1="28" y1="119" x2="146.5" y2="237.5"/>
	</g>
	<g>
		<defs>
			<circle id="SVGID_00000100372034579282922590000010567541368682832011_" cx="105.5" cy="151.5" r="59"/>
		</defs>
		<clipPath id="SVGID_00000165918543165859699640000015225747172684671138_">
			<use xlink:href="#SVGID_00000100372034579282922590000010567541368682832011_"  style="overflow:visible;"/>
		</clipPath>
		
			<line style="opacity:0.5;clip-path:url(#SVGID_00000165918543165859699640000015225747172684671138_);fill:none;stroke:#1E1E1E;stroke-width:3;stroke-linecap:round;stroke-linejoin:round;stroke-miterlimit:10;enable-background:new    ;" x1="19" y1="119" x2="137.5" y2="237.5"/>
	</g>
	<g>
		<defs>
			<circle id="SVGID_00000052783982906370319240000014706049344939242408_" cx="105.5" cy="151.5" r="59"/>
		</defs>
		<clipPath id="SVGID_00000039129513357947545900000003423183568181125519_">
			<use xlink:href="#SVGID_00000052783982906370319240000014706049344939242408_"  style="overflow:visible;"/>
		</clipPath>
		
			<line style="opacity:0.5;clip-path:url(#SVGID_00000039129513357947545900000003423183568181125519_);fill:none;stroke:#1E1E1E;stroke-width:3;stroke-linecap:round;stroke-linejoin:round;stroke-miterlimit:10;enable-background:new    ;" x1="19" y1="128" x2="137.5" y2="246.5"/>
	</g>
	<g>
		<defs>
			<circle id="SVGID_00000142142727343352722090000009621104683125168000_" cx="105.5" cy="151.5" r="59"/>
		</defs>
		<clipPath id="SVGID_00000044162871463165623630000017063649818404325525_">
			<use xlink:href="#SVGID_00000142142727343352722090000009621104683125168000_"  style="overflow:visible;"/>
		</clipPath>
		
			<line style="opacity:0.5;clip-path:url(#SVGID_00000044162871463165623630000017063649818404325525_);fill:none;stroke:#1E1E1E;stroke-width:3;stroke-linecap:round;stroke-linejoin:round;stroke-miterlimit:10;enable-background:new    ;" x1="10" y1="128" x2="128.5" y2="246.5"/>
	</g>
	<g>
		<defs>
			<circle id="SVGID_00000101095718124567443770000003991350290748407961_" cx="105.5" cy="151.5" r="59"/>
		</defs>
		<clipPath id="SVGID_00000178172446774870828180000017342030434173744277_">
			<use xlink:href="#SVGID_00000101095718124567443770000003991350290748407961_"  style="overflow:visible;"/>
		</clipPath>
		
			<line style="opacity:0.5;clip-path:url(#SVGID_00000178172446774870828180000017342030434173744277_);fill:none;stroke:#1E1E1E;stroke-width:3;stroke-linecap:round;stroke-linejoin:round;stroke-miterlimit:10;enable-background:new    ;" x1="1" y1="128" x2="119.5" y2="246.5"/>
	</g>
</g>
<g>
	<g>
		<path id="bgElements10_3" class="st18" d="M1831.9,39.4c-0.1,12.4-0.2,24.4,6.6,35.6c4.9,8.1,12.6,14.1,21.5,17.3
			c11.7,4,26.5,2.3,36,11.4c5.1,4.8,7.4,11.8,6.3,18.8c-2.7,18.1-20.4,22.7-36.3,22.9c-18.6,0.3-38.3-3.3-52.7,11.4
			c-8.5,8.8-12.4,23.3-23.9,29.1c-16.9,8.6-29.5-12-34.9-25c-4.7-11.8-9.1-23.6-11.5-36.2c-1.3-6.5-1.8-13.4,0.4-19.7
			c5.2-15.5,21.8-13.2,33.9-19.7c6.4-3.5,11.1-9,13.8-15.7c4.9-12.2,4.9-25.9,5.8-38.9c0.9-12.3,10.9-27.6,25.4-21.2
			c6.6,2.9,9.2,9.9,9.6,16.8C1832,30.7,1832,35.1,1831.9,39.4z"/>
	</g>
	<g>
		<defs>
			<path id="SVGID_00000110444938155917111360000004666975974883463313_" d="M1831.9,39.4c-0.1,12.4-0.2,24.4,6.6,35.6
				c4.9,8.1,12.6,14.1,21.5,17.3c11.7,4,26.5,2.3,36,11.4c5.1,4.8,7.4,11.8,6.3,18.8c-2.7,18.1-20.4,22.7-36.3,22.9
				c-18.6,0.3-38.3-3.3-52.7,11.4c-8.5,8.8-12.4,23.3-23.9,29.1c-16.9,8.6-29.5-12-34.9-25c-4.7-11.8-9.1-23.6-11.5-36.2
				c-1.3-6.5-1.8-13.4,0.4-19.7c5.2-15.5,21.8-13.2,33.9-19.7c6.4-3.5,11.1-9,13.8-15.7c4.9-12.2,4.9-25.9,5.8-38.9
				c0.9-12.3,10.9-27.6,25.4-21.2c6.6,2.9,9.2,9.9,9.6,16.8C1832,30.7,1832,35.1,1831.9,39.4z"/>
		</defs>
		<clipPath id="SVGID_00000030447180755497913140000017746894075717032325_">
			<use xlink:href="#SVGID_00000110444938155917111360000004666975974883463313_"  style="overflow:visible;"/>
		</clipPath>
		
			<path style="clip-path:url(#SVGID_00000030447180755497913140000017746894075717032325_);fill:none;stroke:#FFFFFF;stroke-width:3;stroke-miterlimit:10;" d="
			M1770.3,80.9c0,0-13.6,17.3,11.5,49s2.8,66.3,2.8,66.3"/>
	</g>
	<g>
		<defs>
			<path id="SVGID_00000007426541751298962340000008705217833847936654_" d="M1831.9,39.4c-0.1,12.4-0.2,24.4,6.6,35.6
				c4.9,8.1,12.6,14.1,21.5,17.3c11.7,4,26.5,2.3,36,11.4c5.1,4.8,7.4,11.8,6.3,18.8c-2.7,18.1-20.4,22.7-36.3,22.9
				c-18.6,0.3-38.3-3.3-52.7,11.4c-8.5,8.8-12.4,23.3-23.9,29.1c-16.9,8.6-29.5-12-34.9-25c-4.7-11.8-9.1-23.6-11.5-36.2
				c-1.3-6.5-1.8-13.4,0.4-19.7c5.2-15.5,21.8-13.2,33.9-19.7c6.4-3.5,11.1-9,13.8-15.7c4.9-12.2,4.9-25.9,5.8-38.9
				c0.9-12.3,10.9-27.6,25.4-21.2c6.6,2.9,9.2,9.9,9.6,16.8C1832,30.7,1832,35.1,1831.9,39.4z"/>
		</defs>
		<clipPath id="SVGID_00000081614012841111104840000008499184099993192117_">
			<use xlink:href="#SVGID_00000007426541751298962340000008705217833847936654_"  style="overflow:visible;"/>
		</clipPath>
		
			<path style="clip-path:url(#SVGID_00000081614012841111104840000008499184099993192117_);fill:none;stroke:#FFFFFF;stroke-width:3;stroke-miterlimit:10;" d="
			M1786,70.4c0,0-13.6,17.3,11.5,49s2.8,66.3,2.8,66.3"/>
	</g>
	<g>
		<defs>
			<path id="SVGID_00000029766883359282801890000010305664659479600050_" d="M1831.9,39.4c-0.1,12.4-0.2,24.4,6.6,35.6
				c4.9,8.1,12.6,14.1,21.5,17.3c11.7,4,26.5,2.3,36,11.4c5.1,4.8,7.4,11.8,6.3,18.8c-2.7,18.1-20.4,22.7-36.3,22.9
				c-18.6,0.3-38.3-3.3-52.7,11.4c-8.5,8.8-12.4,23.3-23.9,29.1c-16.9,8.6-29.5-12-34.9-25c-4.7-11.8-9.1-23.6-11.5-36.2
				c-1.3-6.5-1.8-13.4,0.4-19.7c5.2-15.5,21.8-13.2,33.9-19.7c6.4-3.5,11.1-9,13.8-15.7c4.9-12.2,4.9-25.9,5.8-38.9
				c0.9-12.3,10.9-27.6,25.4-21.2c6.6,2.9,9.2,9.9,9.6,16.8C1832,30.7,1832,35.1,1831.9,39.4z"/>
		</defs>
		<clipPath id="SVGID_00000001622534973031567380000015428816048145565321_">
			<use xlink:href="#SVGID_00000029766883359282801890000010305664659479600050_"  style="overflow:visible;"/>
		</clipPath>
		
			<path style="clip-path:url(#SVGID_00000001622534973031567380000015428816048145565321_);fill:none;stroke:#FFFFFF;stroke-width:3;stroke-miterlimit:10;" d="
			M1797,22.3c0,0-16.6,21.3,14.6,60.5c31.2,39.4,4.2,81.7,4.2,81.7"/>
	</g>
	<g>
		<defs>
			<path id="SVGID_00000109729446110529443380000016975375504712730009_" d="M1831.9,39.4c-0.1,12.4-0.2,24.4,6.6,35.6
				c4.9,8.1,12.6,14.1,21.5,17.3c11.7,4,26.5,2.3,36,11.4c5.1,4.8,7.4,11.8,6.3,18.8c-2.7,18.1-20.4,22.7-36.3,22.9
				c-18.6,0.3-38.3-3.3-52.7,11.4c-8.5,8.8-12.4,23.3-23.9,29.1c-16.9,8.6-29.5-12-34.9-25c-4.7-11.8-9.1-23.6-11.5-36.2
				c-1.3-6.5-1.8-13.4,0.4-19.7c5.2-15.5,21.8-13.2,33.9-19.7c6.4-3.5,11.1-9,13.8-15.7c4.9-12.2,4.9-25.9,5.8-38.9
				c0.9-12.3,10.9-27.6,25.4-21.2c6.6,2.9,9.2,9.9,9.6,16.8C1832,30.7,1832,35.1,1831.9,39.4z"/>
		</defs>
		<clipPath id="SVGID_00000155121176841497579750000014282426665451550107_">
			<use xlink:href="#SVGID_00000109729446110529443380000016975375504712730009_"  style="overflow:visible;"/>
		</clipPath>
		
			<path style="clip-path:url(#SVGID_00000155121176841497579750000014282426665451550107_);fill:none;stroke:#FFFFFF;stroke-width:3;stroke-miterlimit:10;" d="
			M1830.8,13.4c0,0-16.6,21.3,14.6,60.5c31.2,39.3,4.2,81.7,4.2,81.7"/>
	</g>
</g>
<circle class="st23" cx="313.5" cy="77.5" r="21.5"/>
<circle class="st24" cx="372.2" cy="162" r="10.5"/>
<circle class="st25" cx="1630" cy="209.4" r="50.7"/>
<g>
	<line class="st26" x1="1577" y1="239.4" x2="1624.3" y2="186"/>
	<line class="st26" x1="1577" y1="266.4" x2="1624.3" y2="213"/>
	<line class="st26" x1="1577" y1="293.4" x2="1624.3" y2="240"/>
</g>
</svg>
