<svg xmlns="http://www.w3.org/2000/svg" width="26" height="26" viewBox="0 0 26 26" fill="none">
  <path d="M10.5459 18.307H15.3459ZM0.945862 7.5982L12.6243 1.08457C12.7241 1.02895 12.8342 1 12.9459 1C13.0575 1 13.1676 1.02895 13.2675 1.08457L24.9459 7.5982M22.5459 11.614V22.3228C22.5459 23.0328 22.293 23.7138 21.8429 24.2159C21.3928 24.7179 20.7824 25 20.1459 25H5.74586C5.10934 25 4.49889 24.7179 4.04881 24.2159C3.59872 23.7138 3.34586 23.0328 3.34586 22.3228V11.614" fill="#405664"/>
  <path d="M10.5459 18.307H15.3459M0.945862 7.5982L12.6243 1.08457C12.7241 1.02895 12.8342 1 12.9459 1C13.0575 1 13.1676 1.02895 13.2675 1.08457L24.9459 7.5982M22.5459 11.614V22.3228C22.5459 23.0328 22.293 23.7138 21.8429 24.2159C21.3928 24.7179 20.7824 25 20.1459 25H5.74586C5.10934 25 4.49889 24.7179 4.04881 24.2159C3.59872 23.7138 3.34586 23.0328 3.34586 22.3228V11.614" stroke="#405664" stroke-width="1.5" stroke-linecap="round" stroke-linejoin="round"/>
</svg>