<?xml version="1.0" encoding="utf-8"?>
<!-- Generator: Adobe Illustrator 26.1.0, SVG Export Plug-In . SVG Version: 6.00 Build 0)  -->
<svg version="1.1" id="Layer_1" xmlns="http://www.w3.org/2000/svg" xmlns:xlink="http://www.w3.org/1999/xlink" x="0px" y="0px"
	 viewBox="0 0 50 500" style="enable-background:new 0 0 50 500;" xml:space="preserve">
<style type="text/css">
	.st0{fill:#3F3F3F;}
</style>
<g>
	<polygon class="st0" points="25.2,219.2 24.8,219.2 0,219.2 0,221.7 24,221.7 24,246.3 26.4,246.3 26.4,221.7 50,221.7 50,219.2 	
		"/>
	<polygon class="st0" points="26.3,322.7 26.2,322.7 34.5,314.4 26.3,306.1 26.3,279.8 23.7,279.8 23.7,306.1 15.5,314.4 
		23.8,322.7 23.7,322.7 23.7,349 15.5,357.3 25,366.8 34.5,357.3 26.3,349 	"/>
	<g>
		<path class="st0" d="M17.9,201.3c0-1.6,0.4-2.7,1.1-3.4c0.7-0.6,1.7-0.9,3.2-0.9h2.4c1.6,0,2.7,0.4,3.4,1.1
			c0.6,0.7,0.9,1.7,0.9,3.2l0,0v5h-11V201.3z M19.7,204.6h7.6v-3.3c0-1-0.2-1.7-0.5-2s-1-0.5-2.1-0.5h-2.4c-1,0-1.7,0.1-2,0.4
			c-0.4,0.3-0.5,1-0.5,2.1v3.3H19.7z"/>
		<path class="st0" d="M24.1,195.5c-1.1,0-1.9-0.2-2.3-0.6c-0.3-0.3-0.5-0.7-0.6-1.1c-0.1-0.4-0.2-1.1-0.2-1.9v-0.6
			c0-0.8,0.1-1.5,0.2-1.9c0.1-0.5,0.3-0.9,0.6-1.1c0.3-0.3,0.7-0.4,1.1-0.5c0.3-0.1,0.9-0.1,1.7-0.1h1v6.2c0.8,0,1.3-0.1,1.4-0.2
			c0.1-0.1,0.2-0.7,0.2-1.7v-0.7c0-0.8,0-1.4-0.1-1.6c0-0.1-0.1-0.2-0.2-0.2l-0.5-0.2l0.4-1.6l0.7,0.2c0.7,0.2,1.1,0.7,1.3,1.4
			c0.1,0.4,0.2,1.1,0.2,2v0.6c0,0.8,0,1.4-0.1,1.7c-0.1,0.5-0.3,0.9-0.5,1.1c-0.4,0.5-1.3,0.7-2.5,0.8L24.1,195.5L24.1,195.5z
			 M24.3,189.3c-0.8,0-1.2,0.1-1.3,0.1c-0.1,0.1-0.2,0.7-0.2,1.8v0.6c0,1.1,0.1,1.6,0.2,1.8c0.1,0.1,0.5,0.1,1.3,0.1V189.3z"/>
		<path class="st0" d="M32.1,184.3v1.8H21v-1.8h0.8c-0.1,0-0.1-0.1-0.2-0.1c-0.3-0.3-0.4-0.6-0.5-0.9c-0.1-0.2-0.1-0.7-0.1-1.5v-0.1
			c0-0.8,0-1.4,0.1-1.7c0.1-0.5,0.3-0.9,0.5-1.1c0.3-0.3,0.7-0.5,1.1-0.6s1.1-0.2,1.9-0.2h0.6c0.8,0,1.4,0,1.7,0.1
			c0.5,0.1,0.9,0.3,1.2,0.5c0.3,0.3,0.5,0.7,0.6,1.1c0.1,0.4,0.2,1.1,0.2,1.9v0.1c0,0.8,0,1.3-0.1,1.6s-0.3,0.6-0.6,0.8L32.1,184.3
			L32.1,184.3z M25.5,184.3c0.9,0,1.4,0,1.5-0.1s0.2-0.7,0.2-1.8v-0.6c0-1.1-0.1-1.6-0.2-1.8c-0.1-0.1-0.7-0.1-1.7-0.1h-0.6
			c-1.1,0-1.6,0.1-1.8,0.2c-0.1,0.1-0.2,0.7-0.2,1.7v0.6c0,1,0,1.6,0.1,1.7c0.1,0.1,0.7,0.2,1.7,0.2L25.5,184.3L25.5,184.3z"/>
		<path class="st0" d="M17.9,176.1v-1.8H29v1.8H17.9z"/>
		<path class="st0" d="M21,168c0-0.9,0.1-1.5,0.2-1.9c0.1-0.5,0.3-0.9,0.6-1.1c0.3-0.3,0.7-0.4,1.2-0.5c0.3-0.1,0.9-0.1,1.7-0.1h0.6
			c0.8,0,1.5,0.1,1.9,0.2c0.5,0.1,0.9,0.3,1.1,0.6c0.3,0.3,0.4,0.7,0.5,1.1c0.1,0.3,0.1,0.9,0.1,1.7v0.6c0,0.8,0,1.4-0.1,1.7
			c-0.1,0.5-0.3,0.9-0.5,1.1c-0.3,0.3-0.7,0.5-1.1,0.6s-1.1,0.2-1.9,0.2h-0.6c-0.8,0-1.4,0-1.7-0.1c-0.5-0.1-0.9-0.3-1.1-0.5
			c-0.3-0.3-0.5-0.7-0.6-1.1c-0.1-0.4-0.2-1.1-0.2-1.9V168H21z M22.8,168.7c0,1.1,0.1,1.6,0.2,1.8c0.1,0.1,0.7,0.2,1.7,0.2h0.6
			c1.1,0,1.6-0.1,1.8-0.2c0.1-0.1,0.2-0.7,0.2-1.7V168c0-1-0.1-1.6-0.2-1.7c-0.1-0.1-0.7-0.2-1.8-0.2h-0.6c-1,0-1.6,0-1.7,0.1
			s-0.2,0.7-0.2,1.8V168.7z"/>
		<path class="st0" d="M29,161.1h0.2c0.6,0,0.9-0.1,0.9-0.2c0.1-0.2,0.2-0.8,0.2-1.8v-0.6c0-1.1-0.1-1.6-0.2-1.8
			c-0.1-0.1-0.7-0.1-1.7-0.1l0,0h-0.8c0.4,0.5,0.6,1.4,0.6,2.7v0.1c0,0.8-0.1,1.4-0.2,1.8c-0.1,0.4-0.3,0.8-0.6,1
			c-0.3,0.3-0.7,0.4-1.1,0.5c-0.3,0.1-0.9,0.1-1.7,0.1H21V161h3.5c1,0,1.6-0.1,1.7-0.2c0.1-0.1,0.2-0.6,0.2-1.6v-1
			c0-0.9-0.1-1.5-0.2-1.6s-0.7-0.1-1.7-0.1h-0.7l0,0H21v-1.7h7.4c0.8,0,1.4,0,1.7,0.1c0.5,0.1,0.9,0.3,1.2,0.5
			c0.3,0.3,0.5,0.7,0.6,1.1c0.1,0.4,0.2,1.1,0.2,1.9v0.6c0,1.4-0.2,2.3-0.5,2.8c-0.4,0.6-1.2,0.8-2.3,0.9h-0.1L29,161.1z"/>
		<path class="st0" d="M17.9,153.1v-1.8h1.8v1.8H17.9z M21,153.1v-1.8h8v1.8H21z"/>
		<path class="st0" d="M21,149.5v-1.8h0.8c-0.5-0.5-0.8-1.3-0.8-2.5v-0.1c0-0.8,0.1-1.5,0.2-1.9c0.1-0.5,0.3-0.9,0.6-1.1
			c0.3-0.3,0.7-0.4,1.1-0.5c0.3-0.1,0.9-0.1,1.7-0.1H29v1.8h-4.3c-1,0-1.6,0-1.7,0.1s-0.2,0.7-0.2,1.8v0.6c0,1.1,0.1,1.6,0.2,1.8
			c0.1,0.1,0.6,0.1,1.6,0.1H29v1.8L21,149.5L21,149.5z"/>
		<path class="st0" d="M21,136.3c0-0.8,0-1.3,0.1-1.6s0.3-0.6,0.6-0.8H21v-1.8h7.4c0.8,0,1.5,0.1,1.9,0.2c0.5,0.1,0.9,0.3,1.1,0.6
			c0.3,0.3,0.4,0.7,0.5,1.1c0.1,0.3,0.1,0.9,0.1,1.7v0.6c0,1.2-0.1,2.1-0.3,2.5c-0.4,0.7-1.1,1-2.2,1.1h-0.1l-0.1-1.7h0.1
			c0.5,0,0.7-0.1,0.8-0.2c0.1-0.2,0.1-0.7,0.1-1.7v-0.6c0-1-0.1-1.6-0.2-1.7c-0.1-0.1-0.7-0.2-1.8-0.2h-0.6c0.1,0,0.1,0.1,0.2,0.1
			c0.3,0.3,0.5,0.6,0.5,0.9c0.1,0.2,0.1,0.7,0.1,1.5v0.1c0,0.8,0,1.4-0.1,1.7c-0.1,0.5-0.3,0.9-0.5,1.1c-0.3,0.3-0.7,0.5-1.1,0.6
			s-1.1,0.2-1.9,0.2h-0.2c-0.8,0-1.4,0-1.7-0.1c-0.5-0.1-0.9-0.3-1.2-0.5c-0.3-0.3-0.5-0.7-0.6-1.1C21.1,137.8,21,137.2,21,136.3
			L21,136.3z M22.8,136.3c0,1.1,0.1,1.6,0.2,1.8c0.1,0.1,0.7,0.1,1.7,0.1h0.2c1.1,0,1.7-0.1,1.8-0.2c0.1-0.1,0.2-0.7,0.2-1.7v-0.6
			c0-1-0.1-1.6-0.2-1.7c-0.1-0.1-0.7-0.2-1.7-0.2h-0.4c-1,0-1.5,0-1.6,0.1s-0.2,0.7-0.2,1.8V136.3z"/>
		<path class="st0" d="M25.5,120.4v-1.8h1.2c0.3,0,0.6,0,0.8,0.1c0.3,0.1,0.6,0.2,0.8,0.4c0.2,0.2,0.4,0.4,0.5,0.8
			c0.1,0.2,0.1,0.5,0.1,0.8c0,0.1,0,0.3,0,0.5c0,0.3,0,0.5,0,0.6v0.6c0,0.2,0,0.4,0,0.5c0,0.3,0,0.6-0.1,0.8
			c-0.1,0.3-0.2,0.6-0.4,0.8c-0.2,0.2-0.5,0.4-0.9,0.5c-0.2,0.1-0.5,0.1-0.9,0.1h-4.1v1.2H21v-1.2h-3.1v-1.8H21V119h1.6v4.3h4
			c0.2,0,0.3,0,0.4-0.1s0.2-0.2,0.2-0.4c0-0.1,0-0.3,0-0.4v-1.1c0-0.2,0-0.3,0-0.5s0-0.3-0.1-0.3c0,0-0.2,0-0.4,0L25.5,120.4
			L25.5,120.4z"/>
		<path class="st0" d="M21,113.3c0-0.9,0.1-1.5,0.2-1.9c0.1-0.5,0.3-0.9,0.6-1.1c0.3-0.3,0.7-0.4,1.2-0.5c0.3-0.1,0.9-0.1,1.7-0.1
			h0.6c0.8,0,1.5,0.1,1.9,0.2c0.5,0.1,0.9,0.3,1.1,0.6c0.3,0.3,0.4,0.7,0.5,1.1c0.1,0.3,0.1,0.9,0.1,1.7v0.6c0,0.8,0,1.4-0.1,1.7
			c-0.1,0.5-0.3,0.9-0.5,1.1c-0.3,0.3-0.7,0.5-1.1,0.6s-1.1,0.2-1.9,0.2h-0.6c-0.8,0-1.4,0-1.7-0.1c-0.5-0.1-0.9-0.3-1.1-0.5
			c-0.3-0.3-0.5-0.7-0.6-1.1s-0.2-1.1-0.2-1.9v-0.6L21,113.3L21,113.3z M22.8,113.9c0,1.1,0.1,1.6,0.2,1.8c0.1,0.1,0.7,0.2,1.7,0.2
			h0.6c1.1,0,1.6-0.1,1.8-0.2c0.1-0.1,0.2-0.7,0.2-1.7v-0.6c0-1-0.1-1.6-0.2-1.7s-0.7-0.2-1.8-0.2h-0.6c-1,0-1.6,0-1.7,0.1
			s-0.2,0.7-0.2,1.8V113.9z"/>
		<path class="st0" d="M25.5,98v-1.8h1.2c0.3,0,0.6,0,0.8,0.1c0.3,0.1,0.6,0.2,0.8,0.4c0.2,0.2,0.4,0.4,0.5,0.8
			c0.1,0.2,0.1,0.5,0.1,0.8c0,0.1,0,0.3,0,0.5c0,0.3,0,0.5,0,0.6v0.6c0,0.2,0,0.4,0,0.5c0,0.3,0,0.6-0.1,0.8
			c-0.1,0.3-0.2,0.6-0.4,0.8c-0.2,0.2-0.5,0.4-0.9,0.5c-0.2,0.1-0.5,0.1-0.9,0.1h-4.1v1.2H21v-1.2h-3.1v-1.8H21v-4.3h1.6v4.3h4
			c0.2,0,0.3,0,0.4-0.1s0.2-0.2,0.2-0.4c0-0.1,0-0.3,0-0.4v-1.1c0-0.2,0-0.3,0-0.5s0-0.3-0.1-0.3c0,0-0.2,0-0.4,0L25.5,98L25.5,98z"
			/>
		<path class="st0" d="M17.9,95.1v-1.8H22c-0.1,0-0.1-0.1-0.2-0.1c-0.3-0.3-0.5-0.7-0.6-1.1s-0.2-1-0.2-1.6s0.1-1.1,0.2-1.6
			s0.3-0.9,0.6-1.1c0.3-0.3,0.7-0.4,1.1-0.5c0.3-0.1,0.9-0.1,1.7-0.1H29V89h-4.3c-1,0-1.6,0-1.7,0.1s-0.2,0.7-0.2,1.8v0.6
			c0,1.1,0.1,1.6,0.2,1.8c0.1,0.1,0.6,0.1,1.6,0.1H29v1.8H17.9V95.1z"/>
		<path class="st0" d="M24.1,85.6c-1.1,0-1.9-0.2-2.3-0.6c-0.3-0.3-0.5-0.7-0.6-1.1S21,82.8,21,82v-0.6c0-0.8,0.1-1.5,0.2-1.9
			c0.1-0.5,0.3-0.9,0.6-1.1c0.3-0.3,0.7-0.4,1.1-0.5c0.3-0.1,0.9-0.1,1.7-0.1h1V84c0.8,0,1.3-0.1,1.4-0.2s0.2-0.7,0.2-1.7v-0.7
			c0-0.8,0-1.4-0.1-1.6c0-0.1-0.1-0.2-0.2-0.2l-0.5-0.2l0.4-1.6l0.7,0.2c0.7,0.2,1.1,0.7,1.3,1.4c0.1,0.4,0.2,1.1,0.2,2V82
			c0,0.8,0,1.4-0.1,1.7c-0.1,0.5-0.3,0.9-0.5,1.1c-0.4,0.5-1.3,0.7-2.5,0.8H24.1z M24.3,79.4c-0.8,0-1.2,0.1-1.3,0.1
			c-0.1,0.1-0.2,0.7-0.2,1.8V82c0,1.1,0.1,1.6,0.2,1.8c0.1,0.1,0.5,0.1,1.3,0.1V79.4z"/>
		<path class="st0" d="M23.5,63.9v1.8h-0.4c-0.1,0-0.2,0-0.3,0.1c0,0,0,0.2-0.1,0.4c0,0.3,0,0.8,0,1.4v0.6c0,0.9,0,1.4,0.1,1.6
			c0,0.1,0.1,0.2,0.1,0.2c0.1,0,0.2,0.1,0.4,0.1h0.4c0.2,0,0.3,0,0.4,0s0.1-0.1,0.1-0.2c0-0.3,0-0.8,0-1.6v-0.6
			c0-1.5,0.1-2.4,0.4-2.8c0.2-0.4,0.5-0.6,0.8-0.7c0.2-0.1,0.6-0.1,1.1-0.1h0.2c0.5,0,0.9,0.1,1.2,0.2c0.4,0.2,0.6,0.4,0.8,0.8
			c0.2,0.4,0.3,1.3,0.3,2.7v0.6c0,1.4-0.1,2.3-0.3,2.7c-0.2,0.4-0.5,0.7-0.8,0.8c-0.3,0.1-0.7,0.2-1.2,0.2h-0.2l-0.1-1.8h0.2
			c0.2,0,0.3,0,0.4,0s0.1-0.1,0.1-0.3c0-0.2,0-0.8,0-1.6v-0.6c0-0.8,0-1.3,0-1.5s0-0.3-0.1-0.3c0,0-0.1-0.1-0.2-0.1H26
			c-0.1,0-0.2,0-0.3,0c-0.1,0-0.1,0.2-0.1,0.4c0,0.3,0,0.8,0,1.5v0.6c0,1.4-0.1,2.3-0.3,2.7c-0.2,0.4-0.5,0.7-0.8,0.8
			c-0.3,0.1-0.7,0.2-1.2,0.2h-0.1c-0.5,0-0.9,0-1.1-0.1c-0.3-0.1-0.6-0.4-0.8-0.7c-0.2-0.4-0.4-1.4-0.4-2.8v-0.6
			c0-1.5,0.1-2.4,0.4-2.8c0.2-0.4,0.5-0.6,0.8-0.7c0.2-0.1,0.6-0.1,1.1-0.1h0.3V63.9z"/>
		<path class="st0" d="M24.1,62.4c-1.1,0-1.9-0.2-2.3-0.6c-0.3-0.3-0.5-0.7-0.6-1.1c-0.1-0.4-0.2-1.1-0.2-1.9v-0.6
			c0-0.8,0.1-1.5,0.2-1.9c0.1-0.5,0.3-0.9,0.6-1.1c0.3-0.3,0.7-0.4,1.1-0.5c0.3-0.1,0.9-0.1,1.7-0.1h1v6.2c0.8,0,1.3-0.1,1.4-0.2
			c0.1-0.1,0.2-0.7,0.2-1.7v-0.7c0-0.8,0-1.4-0.1-1.6c0-0.1-0.1-0.2-0.2-0.2l-0.5-0.2l0.4-1.6l0.7,0.2c0.7,0.2,1.1,0.7,1.3,1.4
			c0.1,0.4,0.2,1.1,0.2,2v0.6c0,0.8,0,1.4-0.1,1.7c-0.1,0.5-0.3,0.9-0.5,1.1c-0.4,0.5-1.3,0.7-2.5,0.8
			C25.9,62.4,24.1,62.4,24.1,62.4z M24.3,56.2c-0.8,0-1.2,0.1-1.3,0.1c-0.1,0.1-0.2,0.7-0.2,1.8v0.6c0,1.1,0.1,1.6,0.2,1.8
			c0.1,0.1,0.5,0.1,1.3,0.1V56.2z"/>
		<path class="st0" d="M29,51.2V53h-8v-1.8h0.8c-0.1,0-0.1-0.1-0.2-0.1c-0.3-0.3-0.4-0.6-0.5-0.9c0-0.2-0.1-0.6-0.1-1.2
			s0-1.1,0.1-1.4c0.1-0.5,0.3-0.9,0.5-1.1c0.5-0.5,1.5-0.8,3-0.8l0.1,1.8c-1,0-1.6,0.1-1.7,0.2c-0.1,0.1-0.2,0.6-0.2,1.4v0.3
			c0,1,0,1.6,0.1,1.7c0.1,0.1,0.7,0.2,1.7,0.2H29V51.2z"/>
		<path class="st0" d="M21,43.4l5.8-2.5L21,38.4v-1.9l7,3.1c0.3,0.1,0.5,0.3,0.6,0.5c0.2,0.2,0.3,0.5,0.3,0.8s-0.1,0.6-0.3,0.8
			c-0.2,0.2-0.4,0.4-0.6,0.5l-7,3.1V43.4z"/>
		<path class="st0" d="M24.1,35.6c-1.1,0-1.9-0.2-2.3-0.6c-0.3-0.3-0.5-0.7-0.6-1.1C21.1,33.5,21,32.8,21,32v-0.6
			c0-0.8,0.1-1.5,0.2-1.9c0.1-0.5,0.3-0.9,0.6-1.1c0.3-0.3,0.7-0.4,1.1-0.5c0.3-0.1,0.9-0.1,1.7-0.1h1V34c0.8,0,1.3-0.1,1.4-0.2
			c0.1-0.1,0.2-0.7,0.2-1.7v-0.7c0-0.8,0-1.4-0.1-1.6c0-0.1-0.1-0.2-0.2-0.2l-0.5-0.2l0.4-1.6l0.7,0.2c0.7,0.2,1.1,0.7,1.3,1.4
			c0.1,0.4,0.2,1.1,0.2,2V32c0,0.8,0,1.4-0.1,1.7c-0.1,0.5-0.3,0.9-0.5,1.1c-0.4,0.5-1.3,0.7-2.5,0.8H24.1z M24.3,29.4
			c-0.8,0-1.2,0.1-1.3,0.1c-0.1,0.1-0.2,0.7-0.2,1.8V32c0,1.1,0.1,1.6,0.2,1.8c0.1,0.1,0.5,0.1,1.3,0.1V29.4z"/>
		<path class="st0" d="M29,24.4v1.8h-8v-1.8h0.8c-0.1,0-0.1-0.1-0.2-0.1c-0.3-0.3-0.4-0.6-0.5-0.9C21,23.2,21,22.8,21,22.2
			s0-1.1,0.1-1.4c0.1-0.5,0.3-0.9,0.5-1.1c0.5-0.5,1.5-0.8,3-0.8l0.1,1.8c-1,0-1.6,0.1-1.7,0.2s-0.2,0.6-0.2,1.4v0.3
			c0,1,0,1.6,0.1,1.7s0.7,0.2,1.7,0.2H29V24.4z"/>
	</g>
	<g>
		<path class="st0" d="M22,269.7h-1.8v-9.6h-3.5v-1.8h3.8c0.4,0,0.8,0.2,1.1,0.5c0.3,0.3,0.5,0.7,0.5,1.1v9.8H22z"/>
		<path class="st0" d="M29.6,258.4c0.9,0,1.5,0.1,2,0.2c0.5,0.1,0.9,0.3,1.2,0.7c0.3,0.3,0.4,0.7,0.5,1.2c0.1,0.3,0.1,0.9,0.1,1.8
			v3.8c0,0.9-0.1,1.5-0.2,2c-0.1,0.5-0.3,0.9-0.6,1.2c-0.3,0.3-0.7,0.4-1.2,0.5c-0.4,0.1-1,0.1-1.8,0.1h-1.3c-0.8,0-1.4,0-1.8-0.1
			c-0.5-0.1-0.9-0.3-1.2-0.5c-0.3-0.3-0.5-0.7-0.7-1.2c-0.1-0.4-0.2-1.1-0.2-2v-3.8c0-0.8,0-1.4,0.1-1.8c0.1-0.5,0.3-0.9,0.5-1.2
			c0.3-0.3,0.7-0.5,1.2-0.6c0.4-0.1,1.1-0.2,2-0.2h1.4C29.6,258.5,29.6,258.4,29.6,258.4z M28.3,260.2c-1.1,0-1.7,0.1-1.8,0.2
			c-0.1,0.1-0.2,0.7-0.2,1.8v3.8c0,1.1,0.1,1.7,0.2,1.8c0.1,0.1,0.7,0.2,1.8,0.2h1.3c1.1,0,1.6-0.1,1.8-0.2c0.1-0.1,0.2-0.7,0.2-1.8
			v-3.8c0-1.1-0.1-1.7-0.2-1.8c-0.1-0.1-0.7-0.2-1.8-0.2H28.3z"/>
	</g>
</g>
</svg>
