<?xml version="1.0" encoding="utf-8"?>
<!-- Generator: Adobe Illustrator 26.1.0, SVG Export Plug-In . SVG Version: 6.00 Build 0)  -->
<svg version="1.1" id="Layer_1" xmlns="http://www.w3.org/2000/svg" xmlns:xlink="http://www.w3.org/1999/xlink" x="0px" y="0px"
	 viewBox="0 0 50 500" style="enable-background:new 0 0 50 500;" xml:space="preserve">
<style type="text/css">
	.st0{fill:#EFBA00;}
</style>
<g>
	<polygon class="st0" points="50,219.2 25.2,219.2 24.8,219.2 0,219.2 0,221.7 24,221.7 24,246.3 26.4,246.3 26.4,221.7 50,221.7 	
		"/>
	<polygon class="st0" points="26.3,349 26.3,322.7 26.2,322.7 34.5,314.4 26.3,306.1 26.3,279.8 23.7,279.8 23.7,306.1 15.5,314.4 
		23.8,322.7 23.7,322.7 23.7,349 15.5,357.3 23.8,365.6 23.7,365.6 23.7,391.9 15.5,400.1 25,409.6 34.5,400.1 26.3,391.9 
		26.3,365.6 26.2,365.6 34.5,357.3 	"/>
	<g>
		<path class="st0" d="M24.7,204.6H29v1.8H17.9v-4.6c0-1.5,0.1-2.5,0.4-3c0.5-0.8,1.5-1.3,3-1.3c0.8,0,1.4,0.1,1.9,0.4
			c0.4,0.3,0.8,0.7,1,1.2c0.3,0.6,0.4,1.7,0.4,3.3v2.2H24.7z M23.1,204.6v-2.2c0-1.3-0.1-2.2-0.3-2.5c-0.2-0.4-0.7-0.6-1.5-0.6
			s-1.3,0.1-1.5,0.4c-0.1,0.2-0.2,1-0.2,2.1v2.8H23.1z"/>
		<path class="st0" d="M29,194.5v1.8h-8v-1.8h0.8c-0.1,0-0.1-0.1-0.2-0.1c-0.3-0.3-0.4-0.6-0.5-0.9c-0.1-0.2-0.1-0.6-0.1-1.2
			c0-0.6,0-1.1,0.1-1.4c0.1-0.5,0.3-0.9,0.5-1.1c0.5-0.5,1.5-0.8,3-0.8l0.1,1.8c-1,0-1.6,0.1-1.7,0.2c-0.1,0.1-0.2,0.6-0.2,1.4v0.3
			c0,1,0,1.6,0.1,1.7c0.1,0.1,0.7,0.2,1.7,0.2L29,194.5L29,194.5z"/>
		<path class="st0" d="M21,183.7c0-0.9,0.1-1.5,0.2-1.9c0.1-0.5,0.3-0.9,0.6-1.1c0.3-0.3,0.7-0.4,1.2-0.5c0.3-0.1,0.9-0.1,1.7-0.1
			h0.6c0.9,0,1.5,0.1,1.9,0.2c0.5,0.1,0.9,0.3,1.1,0.6c0.3,0.3,0.4,0.7,0.5,1.1c0.1,0.3,0.1,0.9,0.1,1.7v0.6c0,0.8,0,1.4-0.1,1.7
			c-0.1,0.5-0.3,0.9-0.5,1.1c-0.3,0.3-0.7,0.5-1.1,0.6s-1.1,0.2-1.9,0.2h-0.6c-0.8,0-1.4,0-1.7-0.1c-0.5-0.1-0.9-0.3-1.1-0.5
			c-0.3-0.3-0.5-0.7-0.6-1.1c-0.1-0.4-0.2-1.1-0.2-1.9v-0.6H21z M22.8,184.3c0,1.1,0.1,1.6,0.2,1.8c0.1,0.1,0.7,0.2,1.7,0.2h0.6
			c1.1,0,1.6-0.1,1.8-0.2c0.1-0.1,0.2-0.7,0.2-1.7v-0.6c0-1-0.1-1.6-0.2-1.7c-0.1-0.1-0.7-0.2-1.8-0.2h-0.6c-1,0-1.6,0-1.7,0.1
			s-0.2,0.7-0.2,1.8V184.3z"/>
		<path class="st0" d="M17.9,177.7V176h1.8v1.8h-1.8V177.7z M30.3,180.3l1.7,0.2c0-0.2,0-0.6,0-1.2c0-0.8,0-1.3-0.1-1.7
			s-0.3-0.8-0.6-1.1c-0.5-0.4-1.5-0.6-3-0.6H21v1.8h7.4c1.1,0,1.7,0.1,1.8,0.2c0.1,0.1,0.1,0.6,0.1,1.4V180.3z"/>
		<path class="st0" d="M24.1,174.1c-1.1,0-1.9-0.2-2.3-0.6c-0.3-0.3-0.5-0.7-0.6-1.1c-0.1-0.4-0.2-1.1-0.2-1.9v-0.6
			c0-0.8,0.1-1.5,0.2-1.9c0.1-0.5,0.3-0.9,0.6-1.1c0.3-0.3,0.7-0.4,1.1-0.5c0.3-0.1,0.9-0.1,1.7-0.1h1v6.2c0.8,0,1.3-0.1,1.4-0.2
			s0.2-0.7,0.2-1.7v-0.7c0-0.8,0-1.4-0.1-1.6c0-0.1-0.1-0.2-0.2-0.2l-0.5-0.2l0.4-1.6l0.7,0.2c0.7,0.2,1.1,0.7,1.3,1.4
			c0.1,0.4,0.2,1.1,0.2,2v0.6c0,0.8,0,1.4-0.1,1.7c-0.1,0.5-0.3,0.9-0.5,1.1c-0.4,0.5-1.3,0.7-2.5,0.8L24.1,174.1L24.1,174.1z
			 M24.3,167.9c-0.8,0-1.2,0.1-1.3,0.1c-0.1,0.1-0.2,0.7-0.2,1.8v0.6c0,1.1,0.1,1.6,0.2,1.8c0.1,0.1,0.5,0.1,1.3,0.1V167.9z"/>
		<path class="st0" d="M25.8,158.4l0.3-1.7l0.9,0.1c0.9,0.2,1.5,0.6,1.8,1.3c0.2,0.4,0.2,1.2,0.2,2.3v0.6c0,0.8,0,1.4-0.1,1.7
			c-0.1,0.5-0.3,0.9-0.5,1.1c-0.3,0.3-0.7,0.5-1.1,0.6s-1.1,0.2-1.9,0.2h-0.6c-0.8,0-1.4,0-1.7-0.1c-0.5-0.1-0.9-0.3-1.2-0.5
			c-0.3-0.3-0.5-0.7-0.6-1.1c-0.1-0.4-0.2-1.1-0.2-1.9v-0.6c0-1.1,0.1-1.9,0.3-2.4c0.3-0.7,0.9-1.1,1.7-1.2l0.9-0.1l0.3,1.7
			l-0.9,0.1c-0.2,0-0.3,0.1-0.3,0.2c-0.1,0.2-0.2,0.8-0.2,1.7v0.6c0,1.1,0.1,1.6,0.2,1.8c0.1,0.1,0.7,0.1,1.7,0.1h0.6
			c1.1,0,1.7-0.1,1.8-0.2c0.1-0.1,0.2-0.7,0.2-1.7v-0.6c0-0.9,0-1.5-0.1-1.6c0-0.1-0.2-0.2-0.4-0.2L25.8,158.4z"/>
		<path class="st0" d="M25.5,149.4v-1.8h1.2c0.3,0,0.6,0,0.8,0.1c0.3,0.1,0.6,0.2,0.8,0.4c0.2,0.2,0.4,0.4,0.5,0.8
			c0.1,0.2,0.1,0.5,0.1,0.8c0,0.1,0,0.3,0,0.5c0,0.3,0,0.5,0,0.6v0.6c0,0.2,0,0.4,0,0.5c0,0.3,0,0.6-0.1,0.8
			c-0.1,0.3-0.2,0.6-0.4,0.8c-0.2,0.2-0.5,0.4-0.9,0.5c-0.2,0.1-0.5,0.1-0.9,0.1h-4.1v1.2H21V154h-3.1v-1.8H21V148h1.6v4.3h4
			c0.2,0,0.3,0,0.4-0.1s0.2-0.2,0.2-0.4c0-0.1,0-0.3,0-0.4v-1.1c0-0.2,0-0.3,0-0.5s0-0.3-0.1-0.3c0,0-0.2,0-0.4,0h-1.2V149.4z"/>
		<path class="st0" d="M23.5,134.2v1.8h-0.4c-0.1,0-0.2,0-0.3,0.1c0,0,0,0.2-0.1,0.4c0,0.3,0,0.8,0,1.4v0.6c0,0.9,0,1.4,0.1,1.6
			c0,0.1,0.1,0.2,0.1,0.2c0.1,0,0.2,0.1,0.4,0.1h0.4c0.2,0,0.3,0,0.4,0s0.1-0.1,0.1-0.2c0-0.3,0-0.8,0-1.6V138
			c0-1.5,0.1-2.4,0.4-2.8c0.2-0.4,0.5-0.6,0.8-0.7c0.2-0.1,0.6-0.1,1.1-0.1h0.2c0.5,0,0.9,0.1,1.2,0.2c0.4,0.2,0.6,0.4,0.8,0.8
			c0.2,0.4,0.3,1.3,0.3,2.7v0.6c0,1.4-0.1,2.3-0.3,2.7c-0.2,0.4-0.5,0.7-0.8,0.8s-0.7,0.2-1.2,0.2h-0.2l-0.1-1.8h0.2
			c0.2,0,0.3,0,0.4,0s0.1-0.1,0.1-0.3s0-0.8,0-1.6v-0.6c0-0.8,0-1.3,0-1.5s0-0.3-0.1-0.3c0,0-0.1-0.1-0.2-0.1H26c-0.1,0-0.2,0-0.3,0
			c-0.1,0-0.1,0.2-0.1,0.4c0,0.3,0,0.8,0,1.5v0.6c0,1.4-0.1,2.3-0.3,2.7c-0.2,0.4-0.5,0.7-0.8,0.8s-0.7,0.2-1.2,0.2h-0.1
			c-0.5,0-0.9,0-1.1-0.1c-0.3-0.1-0.6-0.4-0.8-0.7c-0.2-0.4-0.4-1.4-0.4-2.8v-0.6c0-1.5,0.1-2.4,0.4-2.8c0.2-0.4,0.5-0.6,0.8-0.7
			c0.2-0.1,0.6-0.1,1.1-0.1h0.3V134.2z"/>
		<path class="st0" d="M17.9,132.7V131h5.8l-2.7-4.1v-2.8l2.7,4c0.8-2.1,2.3-3.2,4.4-3.2H29v1.8h-0.9c-1,0-1.8,0.4-2.4,1.2
			c-0.4,0.5-0.6,1-0.8,1.7l0.9,1.4H29v1.8H17.9V132.7z"/>
		<path class="st0" d="M24.1,123.4c-1.1,0-1.9-0.2-2.3-0.6c-0.3-0.3-0.5-0.7-0.6-1.1s-0.2-1.1-0.2-1.9v-0.6c0-0.8,0.1-1.5,0.2-1.9
			c0.1-0.5,0.3-0.9,0.6-1.1c0.3-0.3,0.7-0.4,1.1-0.5c0.3-0.1,0.9-0.1,1.7-0.1h1v6.2c0.8,0,1.3-0.1,1.4-0.2s0.2-0.7,0.2-1.7V119
			c0-0.8,0-1.4-0.1-1.6c0-0.1-0.1-0.2-0.2-0.2l-0.5-0.2l0.4-1.6l0.7,0.2c0.7,0.2,1.1,0.7,1.3,1.4c0.1,0.4,0.2,1.1,0.2,2v0.6
			c0,0.8,0,1.4-0.1,1.7c-0.1,0.5-0.3,0.9-0.5,1.1c-0.4,0.5-1.3,0.7-2.5,0.8h-1.8V123.4z M24.3,117.2c-0.8,0-1.2,0.1-1.3,0.1
			c-0.1,0.1-0.2,0.7-0.2,1.8v0.6c0,1.1,0.1,1.6,0.2,1.8c0.1,0.1,0.5,0.1,1.3,0.1V117.2z"/>
		<path class="st0" d="M25.5,108.1v-1.8h1.2c0.3,0,0.6,0,0.8,0.1c0.3,0.1,0.6,0.2,0.8,0.4c0.2,0.2,0.4,0.4,0.5,0.8
			c0.1,0.2,0.1,0.5,0.1,0.8c0,0.1,0,0.3,0,0.5c0,0.3,0,0.5,0,0.6v0.6c0,0.2,0,0.4,0,0.5c0,0.3,0,0.6-0.1,0.8
			c-0.1,0.3-0.2,0.6-0.4,0.8c-0.2,0.2-0.5,0.4-0.9,0.5c-0.2,0.1-0.5,0.1-0.9,0.1h-4.1v1.2H21v-1.2h-3.1V111H21v-4.3h1.6v4.3h4
			c0.2,0,0.3,0,0.4-0.1s0.2-0.2,0.2-0.4c0-0.1,0-0.3,0-0.4V109c0-0.2,0-0.3,0-0.5s0-0.3-0.1-0.3c0,0-0.2,0-0.4,0L25.5,108.1
			L25.5,108.1z"/>
		<path class="st0" d="M25.8,98.9l0.3-1.7l0.9,0.1c0.9,0.2,1.5,0.6,1.8,1.3C29,99,29,99.8,29,100.9v0.6c0,0.8,0,1.4-0.1,1.7
			c-0.1,0.5-0.3,0.9-0.5,1.1c-0.3,0.3-0.7,0.5-1.1,0.6s-1.1,0.2-1.9,0.2h-0.6c-0.8,0-1.4,0-1.7-0.1c-0.5-0.1-0.9-0.3-1.2-0.5
			c-0.3-0.3-0.5-0.7-0.6-1.1s-0.2-1.1-0.2-1.9v-0.6c0-1.1,0.1-1.9,0.3-2.4c0.3-0.7,0.9-1.1,1.7-1.2l0.9-0.1l0.3,1.7L23.4,99
			c-0.2,0-0.3,0.1-0.3,0.2c-0.1,0.2-0.2,0.8-0.2,1.7v0.6c0,1.1,0.1,1.6,0.2,1.8c0.1,0.1,0.7,0.1,1.7,0.1h0.6c1.1,0,1.7-0.1,1.8-0.2
			c0.1-0.1,0.2-0.7,0.2-1.7v-0.6c0-0.9,0-1.5-0.1-1.6c0-0.1-0.2-0.2-0.4-0.2L25.8,98.9z"/>
		<path class="st0" d="M17.9,95.7V94H22c-0.1,0-0.1-0.1-0.2-0.1c-0.3-0.3-0.5-0.7-0.6-1.1s-0.2-1-0.2-1.6s0.1-1.1,0.2-1.6
			s0.3-0.9,0.6-1.1c0.3-0.3,0.7-0.4,1.1-0.5c0.3-0.1,0.9-0.1,1.7-0.1H29v1.8h-4.3c-1,0-1.6,0-1.7,0.1s-0.2,0.7-0.2,1.8V92
			c0,1.1,0.1,1.6,0.2,1.8c0.1,0.1,0.6,0.1,1.6,0.1H29v1.8C29,95.7,17.9,95.7,17.9,95.7z"/>
		<path class="st0" d="M24.1,86.3c-1.1,0-1.9-0.2-2.3-0.6c-0.3-0.3-0.5-0.7-0.6-1.1S21,83.5,21,82.7V82c0-0.8,0.1-1.5,0.2-1.9
			c0.1-0.5,0.3-0.9,0.6-1.1c0.3-0.3,0.7-0.4,1.1-0.5c0.3-0.1,0.9-0.1,1.7-0.1h1v6.2c0.8,0,1.3-0.1,1.4-0.2s0.2-0.7,0.2-1.7V82
			c0-0.8,0-1.4-0.1-1.6c0-0.1-0.1-0.2-0.2-0.2L26.4,80l0.4-1.6l0.7,0.2c0.7,0.2,1.1,0.7,1.3,1.4c0.1,0.4,0.2,1.1,0.2,2v0.6
			c0,0.8,0,1.4-0.1,1.7c-0.1,0.5-0.3,0.9-0.5,1.1c-0.4,0.5-1.3,0.7-2.5,0.8L24.1,86.3L24.1,86.3z M24.3,80.1c-0.8,0-1.2,0.1-1.3,0.1
			c-0.1,0.1-0.2,0.7-0.2,1.8v0.6c0,1.1,0.1,1.6,0.2,1.8c0.1,0.1,0.5,0.1,1.3,0.1V80.1z"/>
		<path class="st0" d="M23.5,68.9v1.8h-0.4c-0.1,0-0.2,0-0.3,0.1c0,0,0,0.2-0.1,0.4c0,0.3,0,0.8,0,1.4v0.6c0,0.9,0,1.4,0.1,1.6
			c0,0.1,0.1,0.2,0.1,0.2c0.1,0,0.2,0.1,0.4,0.1h0.4c0.2,0,0.3,0,0.4,0s0.1-0.1,0.1-0.2c0-0.3,0-0.8,0-1.6v-0.6
			c0-1.5,0.1-2.4,0.4-2.8c0.2-0.4,0.5-0.6,0.8-0.7c0.2-0.1,0.6-0.1,1.1-0.1h0.2c0.5,0,0.9,0.1,1.2,0.2c0.4,0.2,0.6,0.4,0.8,0.8
			c0.2,0.4,0.3,1.3,0.3,2.7v0.6c0,1.4-0.1,2.3-0.3,2.7c-0.2,0.4-0.5,0.7-0.8,0.8c-0.3,0.1-0.7,0.2-1.2,0.2h-0.2l-0.1-1.8h0.2
			c0.2,0,0.3,0,0.4,0s0.1-0.1,0.1-0.3c0-0.2,0-0.8,0-1.6v-0.6c0-0.8,0-1.3,0-1.5s0-0.3-0.1-0.3c0,0-0.1-0.1-0.2-0.1H26
			c-0.1,0-0.2,0-0.3,0c-0.1,0-0.1,0.2-0.1,0.4c0,0.3,0,0.8,0,1.5v0.6c0,1.4-0.1,2.3-0.3,2.7c-0.2,0.4-0.5,0.7-0.8,0.8
			c-0.3,0.1-0.7,0.2-1.2,0.2h-0.1c-0.5,0-0.9,0-1.1-0.1c-0.3-0.1-0.6-0.4-0.8-0.7c-0.2-0.4-0.4-1.4-0.4-2.8v-0.6
			c0-1.5,0.1-2.4,0.4-2.8c0.2-0.4,0.5-0.6,0.8-0.7c0.2-0.1,0.6-0.1,1.1-0.1h0.3V68.9z"/>
	</g>
	<g>
		<path class="st0" d="M22.4,263.7h-1.8v-0.9c0-0.7,0-1.3,0.1-1.6c0.1-0.4,0.3-0.8,0.6-1c0.5-0.4,1.5-0.6,3-0.6h1.3
			c1.6,0,2.6,0.2,3.1,0.7c0.3,0.3,0.5,0.6,0.6,1c0.1,0.3,0.1,0.8,0.1,1.6c0,0.8,0,1.3-0.1,1.7c-0.1,0.5-0.3,0.8-0.6,1.1
			c-0.5,0.4-1.5,0.6-3,0.6h-1.3c-1.1,0-1.7,0.1-1.9,0.2c-0.1,0.1-0.1,0.5-0.1,1.3v1.4h7v1.8h-8.8v-3c0-0.7,0-1.3,0.1-1.6
			c0.1-0.4,0.3-0.8,0.6-1c0.5-0.4,1.5-0.6,3-0.6h1.3c1.1,0,1.7-0.1,1.8-0.2c0.1-0.1,0.1-0.6,0.1-1.6c0-0.8,0-1.2-0.1-1.3
			c-0.1-0.1-0.8-0.2-1.9-0.2h-1.3c-1.1,0-1.7,0.1-1.9,0.2c-0.1,0.1-0.1,0.5-0.1,1.3v0.7H22.4z"/>
	</g>
</g>
</svg>
