<?xml version="1.0" encoding="utf-8"?>
<!-- Generator: Adobe Illustrator 26.1.0, SVG Export Plug-In . SVG Version: 6.00 Build 0)  -->
<svg version="1.1" id="Layer_1" xmlns="http://www.w3.org/2000/svg" xmlns:xlink="http://www.w3.org/1999/xlink" x="0px" y="0px"
	 viewBox="0 0 50 500" style="enable-background:new 0 0 50 500;" xml:space="preserve">
<style type="text/css">
	.st0{fill:#10CFC2;}
</style>
<g>
	<polygon class="st0" points="50,219.2 25.2,219.2 24.8,219.2 0,219.2 0,221.7 24,221.7 24,246.3 26.4,246.3 26.4,221.7 50,221.7 	
		"/>
	<polygon class="st0" points="26.3,349 26.3,322.7 26.2,322.7 34.5,314.4 26.3,306.1 26.3,279.8 23.7,279.8 23.7,306.1 15.5,314.4 
		23.8,322.7 23.7,322.7 23.7,349 15.5,357.3 23.8,365.6 23.7,365.6 23.7,391.9 15.5,400.1 23.8,408.5 23.7,408.5 23.7,434.7 
		15.5,443 25,452.5 34.5,443 26.3,434.7 26.3,408.5 26.2,408.5 34.5,400.1 26.3,391.9 26.3,365.6 26.2,365.6 34.5,357.3 	"/>
	<g>
		<path class="st0" d="M14.1,197v1.8H14c-1,0-1.6,0-1.7,0.1c-0.1,0.1-0.2,0.7-0.2,1.8v2c0,1.1,0.1,1.6,0.2,1.8
			c0.1,0.1,0.7,0.1,1.7,0.1h3.7c1.1,0,1.6-0.1,1.8-0.2c0.1-0.1,0.2-0.7,0.2-1.7v-2c0-1-0.1-1.6-0.2-1.7c-0.1-0.1-0.7-0.2-1.8-0.2
			h-0.1V197h0.1c0.9,0,1.5,0,1.9,0.1c0.5,0.1,0.9,0.3,1.1,0.6c0.3,0.3,0.4,0.7,0.5,1.1c0.1,0.3,0.1,0.9,0.1,1.7v2
			c0,0.8,0,1.4-0.1,1.7c-0.1,0.5-0.3,0.9-0.5,1.1c-0.3,0.3-0.7,0.5-1.1,0.6s-1.1,0.2-1.9,0.2H14c-0.8,0-1.4,0-1.7-0.1
			c-0.5-0.1-0.9-0.3-1.1-0.5c-0.3-0.3-0.5-0.7-0.6-1.1c-0.1-0.4-0.2-1.1-0.2-1.9v-2c0-0.9,0.1-1.5,0.2-1.9c0.1-0.5,0.3-0.9,0.6-1.1
			c0.3-0.3,0.7-0.4,1.2-0.5C12.7,196.9,13.3,196.9,14.1,197L14.1,197L14.1,197z"/>
		<path class="st0" d="M21.4,193.8v1.8h-8v-1.8h0.8c-0.1,0-0.1-0.1-0.2-0.1c-0.3-0.3-0.4-0.6-0.5-0.9c-0.1-0.2-0.1-0.6-0.1-1.2
			c0-0.6,0-1.1,0.1-1.4c0.1-0.5,0.3-0.9,0.5-1.1c0.5-0.5,1.5-0.8,3-0.8l0.1,1.8c-1,0-1.6,0.1-1.7,0.2c-0.1,0.1-0.2,0.6-0.2,1.4v0.3
			c0,1,0,1.6,0.1,1.7c0.1,0.1,0.7,0.2,1.7,0.2L21.4,193.8L21.4,193.8z"/>
		<path class="st0" d="M16.5,187.2c-1.1,0-1.9-0.2-2.3-0.6c-0.3-0.3-0.5-0.7-0.6-1.1c-0.1-0.4-0.2-1.1-0.2-1.9V183
			c0-0.8,0.1-1.5,0.2-1.9c0.1-0.5,0.3-0.9,0.6-1.1c0.3-0.3,0.7-0.4,1.1-0.5c0.3-0.1,0.9-0.1,1.7-0.1h1v6.2c0.8,0,1.3-0.1,1.4-0.2
			s0.2-0.7,0.2-1.7V183c0-0.8,0-1.4-0.1-1.6c0-0.1-0.1-0.2-0.2-0.2l-0.5-0.2l0.4-1.6l0.7,0.2c0.7,0.2,1.1,0.7,1.3,1.4
			c0.1,0.4,0.2,1.1,0.2,2v0.6c0,0.8,0,1.4-0.1,1.7c-0.1,0.5-0.3,0.9-0.5,1.1c-0.4,0.5-1.3,0.7-2.5,0.8L16.5,187.2L16.5,187.2z
			 M16.7,181c-0.8,0-1.2,0.1-1.3,0.1c-0.1,0.1-0.2,0.7-0.2,1.8v0.6c0,1.1,0.1,1.6,0.2,1.8c0.1,0.1,0.5,0.1,1.3,0.1V181z"/>
		<path class="st0" d="M21.4,169.4v1.7h-0.6c0.3,0.2,0.4,0.6,0.5,1c0,0.3,0.1,0.9,0.1,1.7v0.1c0,1.5-0.1,2.5-0.3,2.8
			c-0.2,0.4-0.4,0.6-0.8,0.7c-0.2,0.1-0.6,0.1-1.2,0.1h-0.4c-0.6,0-1,0-1.2-0.1c-0.3-0.1-0.6-0.3-0.8-0.7c-0.2-0.4-0.3-1.3-0.3-2.8
			v-0.2c0-0.8,0-1.4,0.1-1.7c0.1-0.5,0.2-0.8,0.5-1c-0.9,0-1.4,0.1-1.6,0.3c-0.2,0.2-0.2,0.8-0.2,1.8v0.7c0,0.7,0,1.2,0,1.4
			s0,0.3,0,0.4c0,0,0.1,0.1,0.3,0.1l0.3,0.1l-0.3,1.7l-0.7-0.2c-0.6-0.2-1-0.5-1.2-1.1c-0.1-0.4-0.2-1.2-0.2-2.4v-0.7
			c0-1.1,0-1.8,0.1-2.2c0.1-0.5,0.2-0.9,0.4-1.1c0.2-0.2,0.6-0.4,1.2-0.4c0.4,0,1.2-0.1,2.3-0.1L21.4,169.4L21.4,169.4z M18.2,175.1
			c0,0.3,0,0.4,0.1,0.6c0.1,0.1,0.2,0.2,0.4,0.2h0.4c0.3,0,0.5-0.2,0.5-0.6v-3.1c0-0.3,0-0.5-0.1-0.7c0-0.1-0.1-0.2-0.2-0.3
			c-0.1,0-0.2-0.1-0.4-0.1s-0.3,0-0.4,0s-0.2,0.1-0.2,0.2c-0.1,0.2-0.1,0.4-0.1,0.8C18.2,172.1,18.2,175.1,18.2,175.1z"/>
		<path class="st0" d="M17.9,162.1v-1.8h1.2c0.3,0,0.6,0,0.8,0.1c0.3,0.1,0.6,0.2,0.8,0.4c0.2,0.2,0.4,0.4,0.5,0.8
			c0.1,0.2,0.1,0.5,0.1,0.8c0,0.1,0,0.3,0,0.5c0,0.3,0,0.5,0,0.6v0.6c0,0.2,0,0.4,0,0.5c0,0.3,0,0.6-0.1,0.8
			c-0.1,0.3-0.2,0.6-0.4,0.8c-0.2,0.2-0.5,0.4-0.9,0.5c-0.2,0.1-0.5,0.1-0.9,0.1h-4v1.2h-1.6v-1.2h-3.1V165h3.1v-4.3H15v4.3h4
			c0.2,0,0.3,0,0.4-0.1s0.2-0.2,0.2-0.4c0-0.1,0-0.3,0-0.4V163c0-0.2,0-0.3,0-0.5s0-0.3-0.1-0.3c0,0-0.2,0-0.4,0L17.9,162.1
			L17.9,162.1z"/>
		<path class="st0" d="M10.3,158.9v-1.8h1.8v1.8H10.3z M13.4,158.9v-1.8h8v1.8H13.4z"/>
		<path class="st0" d="M13.4,155.3v-1.8h0.8c-0.5-0.5-0.8-1.3-0.8-2.5l0,0c0-0.8,0.1-1.5,0.2-1.9c0.1-0.5,0.3-0.9,0.6-1.1
			c0.3-0.3,0.7-0.4,1.1-0.5c0.3-0.1,0.9-0.1,1.7-0.1h4.3v1.8H17c-1,0-1.6,0-1.7,0.1c-0.1,0.1-0.2,0.7-0.2,1.8v0.6
			c0,1.1,0.1,1.6,0.2,1.8c0.1,0.1,0.6,0.1,1.6,0.1h4.5v1.8h-8V155.3z"/>
		<path class="st0" d="M13.4,142.1c0-0.8,0-1.3,0.1-1.6s0.3-0.6,0.6-0.8h-0.8v-1.8h7.4c0.9,0,1.5,0.1,1.9,0.2
			c0.5,0.1,0.9,0.3,1.1,0.6c0.3,0.3,0.4,0.7,0.5,1.1c0.1,0.3,0.1,0.9,0.1,1.7v0.6c0,1.2-0.1,2.1-0.3,2.5c-0.4,0.7-1.1,1-2.2,1.1
			h-0.1l-0.1-1.7h0.1c0.5,0,0.7-0.1,0.8-0.2c0.1-0.2,0.1-0.7,0.1-1.7v-0.6c0-1-0.1-1.6-0.2-1.7c-0.1-0.1-0.7-0.2-1.8-0.2H20
			c0.1,0,0.1,0.1,0.2,0.1c0.3,0.3,0.4,0.6,0.5,0.9c0.1,0.2,0.1,0.7,0.1,1.5v0.1c0,0.8,0,1.4-0.1,1.7c-0.1,0.5-0.3,0.9-0.5,1.1
			c-0.3,0.3-0.7,0.5-1.1,0.6s-1.1,0.2-1.9,0.2H17c-0.8,0-1.4,0-1.7-0.1c-0.5-0.1-0.9-0.3-1.2-0.5c-0.3-0.3-0.5-0.7-0.6-1.1
			C13.5,143.6,13.4,143,13.4,142.1L13.4,142.1z M15.2,142.1c0,1.1,0.1,1.6,0.2,1.8c0.1,0.1,0.7,0.1,1.7,0.1h0.2
			c1.1,0,1.6-0.1,1.8-0.2c0.1-0.1,0.2-0.7,0.2-1.7v-0.6c0-1-0.1-1.6-0.2-1.7c-0.1-0.1-0.7-0.2-1.7-0.2H17c-1,0-1.5,0-1.6,0.1
			s-0.2,0.7-0.2,1.8V142.1z"/>
		<path class="st0" d="M10.3,125.9v-1.8h11.1v1.8h-0.8c0.1,0,0.1,0.1,0.2,0.1c0.3,0.3,0.5,0.6,0.5,0.9c0.1,0.2,0.1,0.7,0.1,1.5v0.1
			c0,0.8,0,1.4-0.1,1.7c-0.1,0.5-0.3,0.9-0.5,1.1c-0.3,0.3-0.7,0.5-1.1,0.6s-1.1,0.2-1.9,0.2h-0.6c-0.8,0-1.4,0-1.7-0.1
			c-0.5-0.1-0.9-0.3-1.2-0.5c-0.3-0.3-0.5-0.7-0.6-1.1c-0.1-0.4-0.2-1.1-0.2-1.9v-0.1c0-0.8,0-1.3,0.1-1.6c0.1-0.3,0.3-0.6,0.6-0.8
			L10.3,125.9L10.3,125.9z M16.9,125.9c-0.9,0-1.4,0-1.5,0.1s-0.2,0.7-0.2,1.8v0.6c0,1.1,0.1,1.6,0.2,1.8c0.1,0.1,0.7,0.1,1.7,0.1
			h0.6c1.1,0,1.7-0.1,1.8-0.2c0.1-0.1,0.2-0.7,0.2-1.7v-0.6c0-1-0.1-1.6-0.2-1.7s-0.7-0.2-1.7-0.2L16.9,125.9L16.9,125.9z"/>
		<path class="st0" d="M16.5,122.6c-1.1,0-1.9-0.2-2.3-0.6c-0.3-0.3-0.5-0.7-0.6-1.1s-0.2-1.1-0.2-1.9v-0.6c0-0.8,0.1-1.5,0.2-1.9
			c0.1-0.5,0.3-0.9,0.6-1.1c0.3-0.3,0.7-0.4,1.1-0.5c0.3-0.1,0.9-0.1,1.7-0.1h1v6.2c0.8,0,1.3-0.1,1.4-0.2s0.2-0.7,0.2-1.7v-0.7
			c0-0.8,0-1.4-0.1-1.6c0-0.1-0.1-0.2-0.2-0.2l-0.5-0.2l0.4-1.6l0.7,0.2c0.7,0.2,1.1,0.7,1.3,1.4c0.1,0.4,0.2,1.1,0.2,2v0.6
			c0,0.8,0,1.4-0.1,1.7c-0.1,0.5-0.3,0.9-0.5,1.1c-0.4,0.5-1.3,0.7-2.5,0.8L16.5,122.6L16.5,122.6z M16.7,116.4
			c-0.8,0-1.2,0.1-1.3,0.1c-0.1,0.1-0.2,0.7-0.2,1.8v0.6c0,1.1,0.1,1.6,0.2,1.8c0.1,0.1,0.5,0.1,1.3,0.1V116.4z"/>
		<path class="st0" d="M15.9,105.2v1.8h-0.4c-0.1,0-0.2,0-0.3,0.1c0,0,0,0.2-0.1,0.4c0,0.3,0,0.8,0,1.4v0.6c0,0.9,0,1.4,0.1,1.6
			c0,0.1,0.1,0.2,0.1,0.2c0.1,0,0.2,0.1,0.4,0.1h0.4c0.2,0,0.3,0,0.4,0s0.1-0.1,0.1-0.2c0-0.3,0-0.8,0-1.6V109
			c0-1.5,0.1-2.4,0.4-2.8c0.2-0.4,0.5-0.6,0.8-0.7c0.2-0.1,0.6-0.1,1.1-0.1h0.2c0.5,0,0.9,0.1,1.2,0.2c0.4,0.2,0.6,0.4,0.8,0.8
			c0.2,0.4,0.3,1.3,0.3,2.7v0.6c0,1.4-0.1,2.3-0.3,2.7c-0.2,0.4-0.5,0.7-0.8,0.8c-0.3,0.1-0.7,0.2-1.2,0.2h-0.2l-0.1-1.8H19
			c0.2,0,0.3,0,0.4,0s0.1-0.1,0.1-0.3c0-0.2,0-0.8,0-1.6v-0.6c0-0.8,0-1.3,0-1.5s0-0.3-0.1-0.3c0,0-0.1-0.1-0.2-0.1h-0.8
			c-0.1,0-0.2,0-0.3,0c-0.1,0-0.1,0.2-0.1,0.4c0,0.3,0,0.8,0,1.5v0.6c0,1.4-0.1,2.3-0.3,2.7c-0.2,0.4-0.5,0.7-0.8,0.8
			c-0.3,0.1-0.7,0.2-1.2,0.2h-0.1c-0.5,0-0.9,0-1.1-0.1c-0.3-0.1-0.6-0.4-0.8-0.7c-0.2-0.4-0.4-1.4-0.4-2.8v-0.6
			c0-1.5,0.1-2.4,0.4-2.8c0.2-0.4,0.5-0.6,0.8-0.7c0.2-0.1,0.6-0.1,1.1-0.1h0.3V105.2z"/>
		<path class="st0" d="M10.3,103.3v-1.8h1.8v1.8H10.3z M13.4,103.3v-1.8h8v1.8H13.4z"/>
		<path class="st0" d="M13.4,96c0-0.8,0-1.3,0.1-1.6c0.1-0.3,0.3-0.6,0.6-0.8h-0.8v-1.8h7.4c0.9,0,1.5,0.1,1.9,0.2
			c0.5,0.1,0.9,0.3,1.1,0.6c0.3,0.3,0.4,0.7,0.5,1.1c0.1,0.3,0.1,0.9,0.1,1.7V96c0,1.2-0.1,2.1-0.3,2.5c-0.4,0.7-1.1,1-2.2,1.1h-0.1
			l0.1-1.6h0.1c0.5,0,0.7-0.1,0.8-0.2c0.1-0.2,0.1-0.7,0.1-1.7v-0.6c0-1-0.1-1.6-0.2-1.7s-0.7-0.2-1.8-0.2h-0.6
			c0.1,0,0.1,0.1,0.2,0.1c0.3,0.3,0.4,0.6,0.5,0.9C21,94.8,21,95.3,21,96v0.1c0,0.8,0,1.4-0.1,1.7c-0.1,0.5-0.3,0.9-0.5,1.1
			c-0.3,0.3-0.7,0.5-1.1,0.6s-1.1,0.2-1.9,0.2h-0.2c-0.8,0-1.4,0-1.7-0.1c-0.5-0.1-0.9-0.3-1.2-0.5c-0.3-0.3-0.5-0.7-0.6-1.1
			C13.5,97.6,13.4,96.9,13.4,96L13.4,96z M15.2,96.1c0,1.1,0.1,1.6,0.2,1.8c0.1,0.1,0.7,0.1,1.7,0.1h0.2c1.1,0,1.6-0.1,1.8-0.2
			c0.1-0.1,0.2-0.7,0.2-1.7v-0.6c0-1-0.1-1.6-0.2-1.7s-0.7-0.2-1.7-0.2H17c-1,0-1.5,0-1.6,0.1s-0.2,0.7-0.2,1.8V96.1z"/>
		<path class="st0" d="M13.4,90.3v-1.8h0.8c-0.5-0.5-0.8-1.3-0.8-2.5l0,0c0-0.8,0.1-1.5,0.2-1.9c0.1-0.5,0.3-0.9,0.6-1.1
			c0.3-0.3,0.7-0.4,1.1-0.5c0.3-0.1,0.9-0.1,1.7-0.1h4.3v1.8H17c-1,0-1.6,0-1.7,0.1c-0.1,0.1-0.2,0.7-0.2,1.8v0.6
			c0,1.1,0.1,1.6,0.2,1.8c0.1,0.1,0.6,0.1,1.6,0.1h4.5v1.8h-8V90.3z"/>
		<path class="st0" d="M13.4,69.6h4.3c1.1,0,1.6,0,1.8-0.1c0.1-0.1,0.2-0.6,0.2-1.5s-0.1-1.4-0.2-1.5s-0.7-0.2-1.8-0.2h-4.3v-1.8
			h4.3c1.5,0,2.5,0.2,2.9,0.6c0.3,0.3,0.5,0.6,0.6,1.1c0.1,0.4,0.1,1,0.1,1.7c0,0.8-0.1,1.3-0.2,1.6c-0.1,0.3-0.3,0.6-0.7,0.8
			c-0.1,0.1-0.2,0.1-0.3,0.2c0.1,0.1,0.2,0.2,0.3,0.2c0.3,0.3,0.5,0.6,0.6,0.8c0.1,0.3,0.1,0.8,0.1,1.5c0,0.8-0.1,1.4-0.2,1.8
			c-0.1,0.5-0.3,0.8-0.7,1.1c-0.3,0.2-0.7,0.4-1.1,0.5c-0.3,0-0.9,0.1-1.7,0.1h-4.3v-1.8h4.3c1.1,0,1.6,0,1.8-0.1
			c0.1-0.1,0.2-0.6,0.2-1.5s-0.1-1.4-0.2-1.5s-0.7-0.2-1.8-0.2h-4.3v-1.8H13.4z"/>
		<path class="st0" d="M10.3,62.7v-1.8h1.8v1.8H10.3z M13.4,62.7v-1.8h8v1.8H13.4z"/>
		<path class="st0" d="M17.9,53.2v-1.8h1.2c0.3,0,0.6,0,0.8,0.1c0.3,0.1,0.6,0.2,0.8,0.4c0.2,0.2,0.4,0.4,0.5,0.8
			c0.1,0.2,0.1,0.5,0.1,0.8c0,0.1,0,0.3,0,0.5c0,0.3,0,0.5,0,0.6v0.6c0,0.2,0,0.4,0,0.5c0,0.3,0,0.6-0.1,0.8
			c-0.1,0.3-0.2,0.6-0.4,0.8c-0.2,0.2-0.5,0.4-0.9,0.5c-0.2,0.1-0.5,0.1-0.9,0.1h-4V59h-1.6v-1.2h-3.1V56h3.1v-4.3H15V56h4
			c0.2,0,0.3,0,0.4-0.1s0.2-0.2,0.2-0.4c0-0.1,0-0.3,0-0.4V54c0-0.2,0-0.3,0-0.5s0-0.3-0.1-0.3c0,0-0.2,0-0.4,0H17.9z"/>
		<path class="st0" d="M10.3,50.3v-1.8h4.1c-0.1,0-0.1-0.1-0.2-0.1c-0.3-0.3-0.5-0.7-0.6-1.1c-0.1-0.4-0.2-1-0.2-1.6
			s0.1-1.1,0.2-1.6c0.1-0.5,0.3-0.9,0.6-1.1c0.3-0.3,0.7-0.4,1.1-0.5c0.3-0.1,0.9-0.1,1.7-0.1h4.3v1.8H17c-1,0-1.6,0-1.7,0.1
			c-0.1,0.1-0.2,0.7-0.2,1.8v0.6c0,1.1,0.1,1.6,0.2,1.8c0.1,0.1,0.6,0.1,1.6,0.1h4.5v1.8H10.3V50.3z"/>
		<path class="st0" d="M28.6,206.3v-1.8H36c1.1,0,1.6-0.1,1.8-0.2c0.1-0.1,0.2-0.7,0.2-1.7v-2c0-1-0.1-1.6-0.2-1.7
			c-0.1-0.1-0.7-0.2-1.8-0.2h-7.4V197H36c0.9,0,1.5,0,1.9,0.1c0.5,0.1,0.9,0.3,1.1,0.6c0.3,0.3,0.4,0.7,0.5,1.1
			c0.1,0.3,0.1,0.9,0.1,1.7v2c0,0.8,0,1.4-0.1,1.7c-0.1,0.5-0.3,0.9-0.5,1.1c-0.3,0.3-0.7,0.5-1.1,0.6c-0.4,0.1-1.1,0.2-1.9,0.2
			h-7.4V206.3z"/>
		<path class="st0" d="M28.6,195.5v-1.8h2.6c1,0,1.7-0.1,1.9-0.4c0.2-0.4,0.3-1.3,0.3-2.5s-0.1-2-0.3-2.5c-0.2-0.3-0.8-0.4-1.9-0.4
			h-2.6v-1.8h2.1c1.6,0,2.8,0.4,3.3,1.2c0,0,0,0.1,0.1,0.1c0,0,0-0.1,0.1-0.1c0.6-0.8,1.7-1.2,3.3-1.2h2.1v1.8H37
			c-1,0-1.7,0.1-1.9,0.4c-0.2,0.5-0.2,1.3-0.2,2.5s0.1,2,0.2,2.5c0.2,0.3,0.8,0.4,1.9,0.4h2.6v1.8h-2.2c-1.6,0-2.7-0.4-3.3-1.2
			c0,0,0-0.1-0.1-0.1c0,0,0,0.1-0.1,0.1c-0.5,0.8-1.6,1.2-3.3,1.2H28.6z"/>
		<path class="st0" d="M28.6,176l11.1,3v1.8l-11.1-3V176z"/>
		<path class="st0" d="M28.6,170.5v-1.8H36c1.1,0,1.6-0.1,1.8-0.2c0.1-0.1,0.2-0.7,0.2-1.7v-2c0-1-0.1-1.6-0.2-1.7
			c-0.1-0.1-0.7-0.2-1.8-0.2h-7.4v-1.8H36c0.9,0,1.5,0,1.9,0.1c0.5,0.1,0.9,0.3,1.1,0.6c0.3,0.3,0.4,0.7,0.5,1.1
			c0.1,0.3,0.1,0.9,0.1,1.7v2c0,0.8,0,1.4-0.1,1.7c-0.1,0.5-0.3,0.9-0.5,1.1c-0.3,0.3-0.7,0.5-1.1,0.6c-0.4,0.1-1.1,0.2-1.9,0.2
			h-7.4V170.5z"/>
		<path class="st0" d="M28.6,159.1v-1.8h11.1v1.8H28.6z"/>
		<path class="st0" d="M36.2,145.2v-1.8h1.2c0.3,0,0.6,0,0.8,0.1c0.3,0.1,0.6,0.2,0.8,0.4s0.4,0.4,0.5,0.8c0.1,0.2,0.1,0.5,0.1,0.8
			c0,0.1,0,0.3,0,0.5c0,0.3,0,0.5,0,0.6v0.6c0,0.2,0,0.4,0,0.5c0,0.3,0,0.6-0.1,0.8c-0.1,0.3-0.2,0.6-0.4,0.8s-0.5,0.4-0.9,0.5
			c-0.2,0.1-0.5,0.1-0.9,0.1h-4.1v1.2h-1.6v-1.2h-3.1V148h3.1v-4.3h1.6v4.3h4c0.2,0,0.3,0,0.4-0.1c0.1-0.1,0.2-0.2,0.2-0.4
			c0-0.1,0-0.3,0-0.4V146c0-0.2,0-0.3,0-0.5s0-0.3-0.1-0.3c0,0-0.2,0-0.4,0H36.2z"/>
		<path class="st0" d="M31.7,138c0-0.9,0.1-1.5,0.2-1.9c0.1-0.5,0.3-0.9,0.6-1.1c0.3-0.3,0.7-0.4,1.2-0.5c0.3-0.1,0.9-0.1,1.7-0.1
			H36c0.9,0,1.5,0.1,1.9,0.2c0.5,0.1,0.9,0.3,1.1,0.6c0.3,0.3,0.4,0.7,0.5,1.1c0.1,0.3,0.1,0.9,0.1,1.7v0.6c0,0.8,0,1.4-0.1,1.7
			c-0.1,0.5-0.3,0.9-0.5,1.1c-0.3,0.3-0.7,0.5-1.1,0.6c-0.4,0.1-1.1,0.2-1.9,0.2h-0.6c-0.8,0-1.4,0-1.7-0.1
			c-0.5-0.1-0.9-0.3-1.1-0.5c-0.3-0.3-0.5-0.7-0.6-1.1c-0.1-0.4-0.2-1.1-0.2-1.9V138H31.7z M33.5,138.6c0,1.1,0.1,1.6,0.2,1.8
			c0.1,0.1,0.7,0.2,1.7,0.2H36c1.1,0,1.6-0.1,1.8-0.2c0.1-0.1,0.2-0.7,0.2-1.7V138c0-1-0.1-1.6-0.2-1.7c-0.1-0.1-0.7-0.2-1.8-0.2
			h-0.6c-1,0-1.6,0-1.7,0.1c-0.1,0.1-0.2,0.7-0.2,1.8V138.6z"/>
		<path class="st0" d="M31.7,128.5c0-0.9,0.1-1.5,0.2-1.9c0.1-0.5,0.3-0.9,0.6-1.1c0.3-0.3,0.7-0.4,1.2-0.5c0.3-0.1,0.9-0.1,1.7-0.1
			H36c0.9,0,1.5,0.1,1.9,0.2c0.5,0.1,0.9,0.3,1.1,0.6c0.3,0.3,0.4,0.7,0.5,1.1c0.1,0.3,0.1,0.9,0.1,1.7v0.6c0,0.8,0,1.4-0.1,1.7
			c-0.1,0.5-0.3,0.9-0.5,1.1c-0.3,0.3-0.7,0.5-1.1,0.6c-0.4,0.1-1.1,0.2-1.9,0.2h-0.6c-0.8,0-1.4,0-1.7-0.1
			c-0.5-0.1-0.9-0.3-1.1-0.5c-0.3-0.3-0.5-0.7-0.6-1.1c-0.1-0.4-0.2-1.1-0.2-1.9v-0.6H31.7z M33.5,129.2c0,1.1,0.1,1.6,0.2,1.8
			c0.1,0.1,0.7,0.2,1.7,0.2H36c1.1,0,1.6-0.1,1.8-0.2c0.1-0.1,0.2-0.7,0.2-1.7v-0.6c0-1-0.1-1.6-0.2-1.7c-0.1-0.1-0.7-0.2-1.8-0.2
			h-0.6c-1,0-1.6,0-1.7,0.1c-0.1,0.1-0.2,0.7-0.2,1.8V129.2z"/>
		<path class="st0" d="M28.6,122.9v-1.8h11.1v1.8H28.6z"/>
		<path class="st0" d="M34.2,111.1v1.8h-0.4c-0.1,0-0.2,0-0.3,0.1c0,0,0,0.2-0.1,0.4c0,0.3,0,0.8,0,1.4v0.6c0,0.9,0,1.4,0.1,1.6
			c0,0.1,0.1,0.2,0.1,0.2c0.1,0,0.2,0.1,0.4,0.1h0.4c0.2,0,0.3,0,0.4,0c0.1,0,0.1-0.1,0.1-0.2c0-0.3,0-0.8,0-1.6v-0.6
			c0-1.5,0.1-2.4,0.4-2.8c0.2-0.4,0.5-0.6,0.8-0.7c0.2-0.1,0.6-0.1,1.1-0.1h0.2c0.5,0,0.9,0.1,1.2,0.2c0.4,0.2,0.6,0.4,0.8,0.8
			s0.3,1.3,0.3,2.7v0.6c0,1.4-0.1,2.3-0.3,2.7c-0.2,0.4-0.5,0.7-0.8,0.8c-0.3,0.1-0.7,0.2-1.2,0.2h-0.2l-0.1-1.8h0.2
			c0.2,0,0.3,0,0.4,0c0.1,0,0.1-0.1,0.1-0.3c0-0.2,0-0.8,0-1.6V115c0-0.8,0-1.3,0-1.5s0-0.3-0.1-0.3c0,0-0.1-0.1-0.2-0.1h-0.8
			c-0.1,0-0.2,0-0.3,0s-0.1,0.2-0.1,0.4c0,0.3,0,0.8,0,1.5v0.6c0,1.4-0.1,2.3-0.3,2.7c-0.2,0.4-0.5,0.7-0.8,0.8
			c-0.3,0.1-0.7,0.2-1.2,0.2h0c-0.5,0-0.9,0-1.1-0.1c-0.3-0.1-0.6-0.4-0.8-0.7c-0.2-0.4-0.4-1.4-0.4-2.8v-0.6c0-1.5,0.1-2.4,0.4-2.8
			c0.2-0.4,0.5-0.6,0.8-0.7c0.2-0.1,0.6-0.1,1.1-0.1h0.2V111.1z"/>
	</g>
	<g>
		<path class="st0" d="M22.4,261.6l-1.8-0.1V261c0-0.6,0.1-1,0.2-1.3c0.1-0.4,0.4-0.6,0.8-0.9c0.5-0.3,1.4-0.4,2.8-0.4h1.3
			c1.6,0,2.6,0.2,3.1,0.7c0.3,0.3,0.5,0.6,0.6,1c0.1,0.3,0.1,0.8,0.1,1.6c0,0.7,0,1.2-0.1,1.4c-0.1,0.2-0.3,0.5-0.7,0.8
			c-0.1,0.1-0.2,0.2-0.4,0.2c0.1,0.1,0.3,0.2,0.4,0.3c0.3,0.3,0.6,0.5,0.7,0.8c0.1,0.2,0.1,0.7,0.1,1.4c0,0.7,0,1.3-0.1,1.6
			c-0.1,0.4-0.3,0.8-0.6,1.1c-0.5,0.4-1.5,0.7-3.1,0.7h-1.3c-1.2,0-2.1-0.1-2.5-0.3c-0.7-0.3-1.1-0.9-1.2-1.8l-0.1-0.4l1.8-0.2
			l0.1,0.4c0,0.2,0.1,0.3,0.1,0.4c0.2,0.1,0.8,0.1,1.8,0.1h1.3c1.1,0,1.7-0.1,1.9-0.2c0.1-0.1,0.1-0.5,0.1-1.3c0-0.9,0-1.4-0.1-1.4
			c-0.1-0.1-0.7-0.2-1.8-0.2H23v-1.6h2.6c1.1,0,1.7-0.1,1.8-0.2c0.1-0.1,0.1-0.6,0.1-1.4s0-1.2-0.1-1.3c-0.1-0.1-0.8-0.2-1.9-0.2
			h-1.3c-1.1,0-1.7,0.1-1.9,0.2c-0.1,0-0.1,0.3-0.1,0.7L22.4,261.6z"/>
	</g>
</g>
</svg>
