<?xml version="1.0" encoding="utf-8"?>
<!-- Generator: Adobe Illustrator 26.1.0, SVG Export Plug-In . SVG Version: 6.00 Build 0)  -->
<svg version="1.1" id="Layer_1" xmlns="http://www.w3.org/2000/svg" xmlns:xlink="http://www.w3.org/1999/xlink" x="0px" y="0px"
	 viewBox="0 0 50 500" style="enable-background:new 0 0 50 500;" xml:space="preserve">
<style type="text/css">
	.st0{fill:#FF4747;}
</style>
<g>
	<polygon class="st0" points="50,219.2 25.2,219.2 24.8,219.2 0,219.2 0,221.7 24,221.7 24,246.3 26.4,246.3 26.4,221.7 50,221.7 	
		"/>
	<polygon class="st0" points="26.3,349 26.3,322.7 26.2,322.7 34.5,314.4 26.3,306.1 26.3,279.8 23.7,279.8 23.7,306.1 15.5,314.4 
		23.8,322.7 23.7,322.7 23.7,349 15.5,357.3 23.8,365.6 23.7,365.6 23.7,391.9 15.5,400.1 23.8,408.5 23.7,408.5 23.7,434.7 
		15.5,443 23.8,451.3 23.7,451.3 23.7,477.6 15.5,485.9 25,495.4 34.5,485.9 26.3,477.6 26.3,451.3 26.2,451.3 34.5,443 26.3,434.7 
		26.3,408.5 26.2,408.5 34.5,400.1 26.3,391.9 26.3,365.6 26.2,365.6 34.5,357.3 	"/>
	<g>
		<path class="st0" d="M13.5,204.6v-5.5h1.6v5.5h4.7v1.8h-11v-7.5h1.7v5.8h3V204.6z"/>
		<path class="st0" d="M19.8,189.6v1.8H19c0.5,0.5,0.8,1.3,0.8,2.5v0.1c0,0.8-0.1,1.5-0.2,1.9c-0.1,0.5-0.3,0.9-0.6,1.1
			c-0.3,0.3-0.7,0.4-1.1,0.5c-0.3,0.1-0.9,0.1-1.7,0.1h-4.3v-1.8h4.3c1,0,1.6-0.1,1.7-0.2c0.1-0.1,0.2-0.7,0.2-1.8v-0.6
			c0-1.1-0.1-1.6-0.2-1.8c-0.1-0.1-0.6-0.1-1.6-0.1h-4.5v-1.8h8V189.6z"/>
		<path class="st0" d="M11.9,188.1v-1.8h0.8c-0.5-0.5-0.8-1.3-0.8-2.5v-0.1c0-0.8,0.1-1.5,0.2-1.9c0.1-0.5,0.3-0.9,0.6-1.1
			c0.3-0.3,0.7-0.4,1.1-0.5c0.3-0.1,0.9-0.1,1.7-0.1h4.3v1.8h-4.3c-1,0-1.6,0-1.7,0.1c-0.1,0.1-0.2,0.7-0.2,1.8v0.6
			c0,1.1,0.1,1.6,0.2,1.8c0.1,0.1,0.6,0.1,1.6,0.1h4.5v1.8L11.9,188.1L11.9,188.1z"/>
		<path class="st0" d="M16.6,172.4l0.3-1.7l0.9,0.1c0.9,0.2,1.5,0.6,1.8,1.3c0.2,0.4,0.2,1.2,0.2,2.3v0.6c0,0.8,0,1.4-0.1,1.7
			c-0.1,0.5-0.3,0.9-0.5,1.1c-0.3,0.3-0.7,0.5-1.1,0.6s-1.1,0.2-1.9,0.2h-0.6c-0.8,0-1.4,0-1.7-0.1c-0.5-0.1-0.9-0.3-1.2-0.5
			c-0.3-0.3-0.5-0.7-0.6-1.1c-0.1-0.4-0.2-1.1-0.2-1.9v-0.6c0-1.1,0.1-1.9,0.3-2.4c0.3-0.7,0.8-1.1,1.7-1.2l0.9-0.1l0.3,1.7
			l-0.9,0.1c-0.2,0-0.3,0.1-0.3,0.2c-0.1,0.2-0.2,0.8-0.2,1.7v0.6c0,1.1,0.1,1.6,0.2,1.8c0.1,0.1,0.7,0.1,1.7,0.1h0.6
			c1.1,0,1.6-0.1,1.8-0.2c0.1-0.1,0.2-0.7,0.2-1.7v-0.6c0-0.9,0-1.5-0.1-1.6c0-0.1-0.2-0.2-0.4-0.2L16.6,172.4z"/>
		<path class="st0" d="M16.4,163.3v-1.8h1.2c0.3,0,0.6,0,0.8,0.1c0.3,0.1,0.6,0.2,0.8,0.4c0.2,0.2,0.4,0.4,0.5,0.8
			c0.1,0.2,0.1,0.5,0.1,0.8c0,0.1,0,0.3,0,0.5c0,0.3,0,0.5,0,0.6v0.6c0,0.2,0,0.4,0,0.5c0,0.3,0,0.6-0.1,0.8
			c-0.1,0.3-0.2,0.6-0.4,0.8c-0.2,0.2-0.5,0.4-0.9,0.5c-0.2,0.1-0.5,0.1-0.9,0.1h-4.1v1.2h-1.6V168h-3v-1.8h3.1v-4.3h1.6v4.3h4
			c0.2,0,0.3,0,0.4-0.1s0.2-0.2,0.2-0.4c0-0.1,0-0.3,0-0.4v-1.1c0-0.2,0-0.3,0-0.5s0-0.3-0.1-0.3c0,0-0.2,0-0.4,0h-1.2V163.3z"/>
		<path class="st0" d="M8.8,160.1v-1.8h1.8v1.8H8.8z M11.9,160.1v-1.8h8v1.8H11.9z"/>
		<path class="st0" d="M11.9,152.2c0-0.9,0.1-1.5,0.2-1.9c0.1-0.5,0.3-0.9,0.6-1.1c0.3-0.3,0.7-0.4,1.2-0.5c0.3-0.1,0.9-0.1,1.7-0.1
			h0.6c0.8,0,1.5,0.1,1.9,0.2c0.5,0.1,0.9,0.3,1.1,0.6c0.3,0.3,0.4,0.7,0.5,1.1c0.1,0.3,0.1,0.9,0.1,1.7v0.6c0,0.8,0,1.4-0.1,1.7
			c-0.1,0.5-0.3,0.9-0.5,1.1c-0.3,0.3-0.7,0.5-1.1,0.6s-1.1,0.2-1.9,0.2h-0.6c-0.8,0-1.4,0-1.7-0.1c-0.5-0.1-0.9-0.3-1.1-0.5
			c-0.3-0.3-0.5-0.7-0.6-1.1c-0.1-0.4-0.2-1.1-0.2-1.9L11.9,152.2L11.9,152.2z M13.6,152.8c0,1.1,0.1,1.6,0.2,1.8
			c0.1,0.1,0.7,0.2,1.7,0.2h0.6c1.1,0,1.6-0.1,1.8-0.2c0.1-0.1,0.2-0.7,0.2-1.7v-0.6c0-1-0.1-1.6-0.2-1.7c-0.1-0.1-0.7-0.2-1.8-0.2
			h-0.6c-1,0-1.6,0-1.7,0.1c-0.1,0.1-0.2,0.7-0.2,1.8V152.8z"/>
		<path class="st0" d="M11.9,147v-1.8h0.8c-0.5-0.5-0.8-1.3-0.8-2.5v-0.1c0-0.8,0.1-1.5,0.2-1.9c0.1-0.5,0.3-0.9,0.6-1.1
			c0.3-0.3,0.7-0.4,1.1-0.5c0.3-0.1,0.9-0.1,1.7-0.1h4.3v1.8h-4.3c-1,0-1.6,0-1.7,0.1c-0.1,0.1-0.2,0.7-0.2,1.8v0.6
			c0,1.1,0.1,1.6,0.2,1.8c0.1,0.1,0.6,0.1,1.6,0.1h4.5v1.8L11.9,147L11.9,147z"/>
		<path class="st0" d="M16.4,127.4v-1.8h1.2c0.3,0,0.6,0,0.8,0.1c0.3,0.1,0.6,0.2,0.8,0.4c0.2,0.2,0.4,0.4,0.5,0.8
			c0.1,0.2,0.1,0.5,0.1,0.8c0,0.1,0,0.3,0,0.5c0,0.3,0,0.5,0,0.6v0.6c0,0.2,0,0.4,0,0.5c0,0.3,0,0.6-0.1,0.8
			c-0.1,0.3-0.2,0.6-0.4,0.8c-0.2,0.2-0.5,0.4-0.9,0.5c-0.2,0.1-0.5,0.1-0.9,0.1h-4.1v1.2h-1.6v-1.2h-3v-1.8h3.1V126h1.6v4.3h4
			c0.2,0,0.3,0,0.4-0.1s0.2-0.2,0.2-0.4c0-0.1,0-0.3,0-0.4v-1.1c0-0.2,0-0.3,0-0.5s0-0.3-0.1-0.3c0,0-0.2,0-0.4,0L16.4,127.4
			L16.4,127.4z"/>
		<path class="st0" d="M8.8,124.5v-1.8h4.1c-0.1,0-0.1-0.1-0.2-0.1c-0.3-0.3-0.5-0.7-0.6-1.1s-0.2-1-0.2-1.6s0.1-1.1,0.2-1.6
			c0.1-0.5,0.3-0.9,0.6-1.1c0.3-0.3,0.7-0.4,1.1-0.5c0.3-0.1,0.9-0.1,1.7-0.1h4.3v1.8h-4.3c-1,0-1.6,0-1.7,0.1
			c-0.1,0.1-0.2,0.7-0.2,1.8v0.6c0,1.1,0.1,1.6,0.2,1.8c0.1,0.1,0.6,0.1,1.6,0.1h4.5v1.8H8.8V124.5z"/>
		<path class="st0" d="M15,115.1c-1.1,0-1.9-0.2-2.3-0.6c-0.3-0.3-0.5-0.7-0.6-1.1s-0.2-1.1-0.2-1.9v-0.6c0-0.8,0.1-1.5,0.2-1.9
			c0.1-0.5,0.3-0.9,0.6-1.1c0.3-0.3,0.7-0.4,1.1-0.5c0.3-0.1,0.9-0.1,1.7-0.1h1v6.2c0.8,0,1.3-0.1,1.4-0.2s0.2-0.7,0.2-1.7v-0.7
			c0-0.8,0-1.4-0.1-1.6c0-0.1-0.1-0.2-0.2-0.2l-0.5-0.2l0.4-1.6l0.7,0.2c0.7,0.2,1.1,0.7,1.3,1.4c0.1,0.4,0.2,1.1,0.2,2v0.6
			c0,0.8,0,1.4-0.1,1.7c-0.1,0.5-0.3,0.9-0.5,1.1c-0.4,0.5-1.3,0.7-2.5,0.8L15,115.1L15,115.1z M15.1,108.9c-0.8,0-1.2,0.1-1.3,0.1
			c-0.1,0.1-0.2,0.7-0.2,1.8v0.6c0,1.1,0.1,1.6,0.2,1.8c0.1,0.1,0.5,0.1,1.3,0.1V108.9z"/>
		<path class="st0" d="M11.9,94.4h4.3c1.1,0,1.6,0,1.8-0.1c0.1-0.1,0.2-0.6,0.2-1.5s-0.1-1.4-0.2-1.5s-0.7-0.2-1.8-0.2h-4.3v-1.8
			h4.3c1.5,0,2.5,0.2,2.9,0.6c0.3,0.3,0.5,0.6,0.6,1.1c0.1,0.4,0.1,1,0.1,1.7c0,0.8-0.1,1.3-0.2,1.6c-0.1,0.3-0.3,0.6-0.7,0.8
			c-0.1,0.1-0.2,0.1-0.3,0.2c0.1,0.1,0.2,0.2,0.3,0.2c0.3,0.3,0.5,0.6,0.6,0.8c0.1,0.3,0.1,0.8,0.1,1.5c0,0.8-0.1,1.4-0.2,1.8
			c-0.1,0.5-0.3,0.8-0.7,1.1c-0.3,0.2-0.7,0.4-1.1,0.5c-0.3,0-0.9,0.1-1.7,0.1h-4.3v-1.8h4.3c1.1,0,1.6,0,1.8-0.1
			c0.1-0.1,0.2-0.6,0.2-1.5s-0.1-1.4-0.2-1.5s-0.7-0.2-1.8-0.2h-4.3v-1.8H11.9z"/>
		<path class="st0" d="M15,87.8c-1.1,0-1.9-0.2-2.3-0.6c-0.3-0.3-0.5-0.7-0.6-1.1s-0.2-1.1-0.2-1.9v-0.6c0-0.8,0.1-1.5,0.2-1.9
			c0.1-0.5,0.3-0.9,0.6-1.1c0.3-0.3,0.7-0.4,1.1-0.5c0.3-0.1,0.9-0.1,1.7-0.1h1v6.2c0.8,0,1.3-0.1,1.4-0.2s0.2-0.7,0.2-1.7v-0.7
			c0-0.8,0-1.4-0.1-1.6c0-0.1-0.1-0.2-0.2-0.2l-0.5-0.2l0.4-1.6l0.7,0.2c0.7,0.2,1.1,0.7,1.3,1.4c0.1,0.4,0.2,1.1,0.2,2v0.6
			c0,0.8,0,1.4-0.1,1.7c-0.1,0.5-0.3,0.9-0.5,1.1c-0.4,0.5-1.3,0.7-2.5,0.8L15,87.8L15,87.8z M15.1,81.6c-0.8,0-1.2,0.1-1.3,0.1
			c-0.1,0.1-0.2,0.7-0.2,1.8v0.6c0,1.1,0.1,1.6,0.2,1.8c0.1,0.1,0.5,0.1,1.3,0.1V81.6z"/>
		<path class="st0" d="M12.6,76.6c-0.3-0.3-0.5-0.6-0.6-0.8c-0.1-0.3-0.1-0.9-0.1-1.6v-0.1c0-0.8,0.1-1.5,0.2-1.9
			c0.1-0.5,0.3-0.9,0.6-1.1c0.3-0.3,0.7-0.4,1.2-0.5c0.3-0.1,0.9-0.1,1.7-0.1h0.6c0.8,0,1.5,0.1,1.9,0.2c0.5,0.1,0.9,0.3,1.1,0.6
			c0.3,0.3,0.4,0.7,0.5,1.1c0.1,0.3,0.1,0.9,0.1,1.7v0.1c0,0.7,0,1.2-0.1,1.5s-0.2,0.6-0.5,0.9c0,0.1-0.1,0.1-0.2,0.1h0.8v1.8h-11
			v-1.8L12.6,76.6L12.6,76.6z M16.2,76.6c1,0,1.5-0.1,1.7-0.2c0.1-0.1,0.2-0.7,0.2-1.7v-0.6c0-1-0.1-1.6-0.2-1.7s-0.7-0.2-1.8-0.2
			h-0.6c-1,0-1.6,0-1.7,0.1c-0.1,0.1-0.2,0.7-0.2,1.8v0.6c0,1.1,0.1,1.6,0.2,1.8c0.1,0.1,0.6,0.1,1.5,0.1L16.2,76.6L16.2,76.6z"/>
		<path class="st0" d="M14.3,61v1.8H14c-0.1,0-0.2,0-0.3,0.1c0,0,0,0.2-0.1,0.4c0,0.3,0,0.8,0,1.4v0.6c0,0.9,0,1.4,0.1,1.6
			c0,0.1,0.1,0.2,0.1,0.2c0.1,0,0.2,0.1,0.4,0.1h0.4c0.2,0,0.3,0,0.4,0c0.1,0,0.1-0.1,0.1-0.2c0-0.3,0-0.8,0-1.6v-0.6
			c0-1.5,0.1-2.4,0.4-2.8c0.2-0.4,0.5-0.6,0.8-0.7c0.2-0.1,0.6-0.1,1.1-0.1h0.2c0.5,0,0.9,0.1,1.2,0.2c0.4,0.2,0.6,0.4,0.8,0.8
			c0.2,0.4,0.3,1.3,0.3,2.7v0.6c0,1.4-0.1,2.3-0.3,2.7c-0.2,0.4-0.5,0.7-0.8,0.8c-0.3,0.1-0.7,0.2-1.2,0.2h-0.2l-0.1-1.8h0.2
			c0.2,0,0.3,0,0.4,0s0.1-0.1,0.1-0.3c0-0.2,0-0.8,0-1.6v-0.6c0-0.8,0-1.3,0-1.5s0-0.3-0.1-0.3c0,0-0.1-0.1-0.2-0.1H17
			c-0.1,0-0.2,0-0.3,0c-0.1,0-0.1,0.2-0.1,0.4c0,0.3,0,0.8,0,1.5v0.6c0,1.4-0.1,2.3-0.3,2.7c-0.2,0.4-0.5,0.7-0.8,0.8
			c-0.3,0.1-0.7,0.2-1.2,0.2h-0.1c-0.5,0-0.9,0-1.1-0.1c-0.3-0.1-0.6-0.4-0.8-0.7c-0.2-0.4-0.4-1.4-0.4-2.8V65
			c0-1.5,0.1-2.4,0.4-2.8c0.2-0.4,0.5-0.6,0.8-0.7c0.2-0.1,0.6-0.1,1.1-0.1h0.1V61z"/>
		<path class="st0" d="M8.8,59.1v-1.8h1.8v1.8H8.8z M11.9,59.1v-1.8h8v1.8H11.9z"/>
		<path class="st0" d="M16.4,49.7v-1.8h1.2c0.3,0,0.6,0,0.8,0.1c0.3,0.1,0.6,0.2,0.8,0.4c0.2,0.2,0.4,0.4,0.5,0.8
			c0.1,0.2,0.1,0.5,0.1,0.8c0,0.1,0,0.3,0,0.5c0,0.3,0,0.5,0,0.6v0.6c0,0.2,0,0.4,0,0.5c0,0.3,0,0.6-0.1,0.8
			c-0.1,0.3-0.2,0.6-0.4,0.8c-0.2,0.2-0.5,0.4-0.9,0.5c-0.2,0.1-0.5,0.1-0.9,0.1h-4.1v1.2h-1.6v-1.2h-3v-1.8h3.1v-4.3h1.6v4.3h4
			c0.2,0,0.3,0,0.4-0.1s0.2-0.2,0.2-0.4c0-0.1,0-0.3,0-0.4v-1.1c0-0.2,0-0.3,0-0.5s0-0.3-0.1-0.3c0,0-0.2,0-0.4,0L16.4,49.7
			L16.4,49.7z"/>
		<path class="st0" d="M15,46.8c-1.1,0-1.9-0.2-2.3-0.6c-0.3-0.3-0.5-0.7-0.6-1.1c-0.1-0.4-0.2-1.1-0.2-1.9v-0.6
			c0-0.8,0.1-1.5,0.2-1.9c0.1-0.5,0.3-0.9,0.6-1.1c0.3-0.3,0.7-0.4,1.1-0.5c0.3-0.1,0.9-0.1,1.7-0.1h1v6c0.8,0,1.3-0.1,1.4-0.2
			c0.1-0.1,0.2-0.7,0.2-1.7v-0.7c0-0.8,0-1.4-0.1-1.6c0-0.1-0.1-0.2-0.2-0.2l-0.5-0.2l0.4-1.6l0.7,0.2c0.7,0.2,1.1,0.7,1.3,1.4
			c0.1,0.4,0.2,1.1,0.2,2V43c0,0.8,0,1.4-0.1,1.7c-0.1,0.5-0.3,0.9-0.5,1.1c-0.4,0.5-1.3,0.7-2.5,0.8H15V46.8z M15.1,40.6
			c-0.8,0-1.2,0.1-1.3,0.1c-0.1,0.1-0.2,0.7-0.2,1.8v0.6c0,1.1,0.1,1.6,0.2,1.8c0.1,0.1,0.5,0.1,1.3,0.1V40.6z"/>
		<path class="st0" d="M30.2,199.5h4.3c1.1,0,1.6,0,1.8-0.1c0.1-0.1,0.2-0.6,0.2-1.5s-0.1-1.4-0.2-1.5c-0.1-0.1-0.7-0.2-1.8-0.2
			h-4.3v-1.8h4.3c1.5,0,2.5,0.2,2.9,0.6c0.3,0.3,0.5,0.6,0.6,1.1c0.1,0.4,0.1,1,0.1,1.7c0,0.8-0.1,1.3-0.2,1.6
			c-0.1,0.3-0.3,0.6-0.7,0.8c-0.1,0.1-0.2,0.1-0.3,0.2c0.1,0.1,0.2,0.2,0.3,0.2c0.3,0.3,0.5,0.6,0.6,0.8c0.1,0.3,0.1,0.8,0.1,1.5
			c0,0.8-0.1,1.4-0.2,1.8c-0.1,0.5-0.3,0.8-0.7,1.1c-0.3,0.2-0.7,0.4-1.1,0.5c-0.3,0-0.9,0.1-1.7,0.1h-4.3v-1.8h4.3
			c1.1,0,1.6,0,1.8-0.1c0.1-0.1,0.2-0.6,0.2-1.5s-0.1-1.4-0.2-1.5c-0.1-0.1-0.7-0.2-1.8-0.2h-4.3v-1.8H30.2z"/>
		<path class="st0" d="M27.1,192.5v-1.8h1.8v1.8H27.1z M30.2,192.5v-1.8h8v1.8H30.2z"/>
		<path class="st0" d="M34.7,183v-1.8h1.2c0.3,0,0.6,0,0.8,0.1c0.3,0.1,0.6,0.2,0.8,0.4s0.4,0.4,0.5,0.8c0.1,0.2,0.1,0.5,0.1,0.8
			c0,0.1,0,0.3,0,0.5c0,0.3,0,0.5,0,0.6v0.6c0,0.2,0,0.4,0,0.5c0,0.3,0,0.6-0.1,0.8c-0.1,0.3-0.2,0.6-0.4,0.8s-0.5,0.4-0.9,0.5
			c-0.2,0.1-0.5,0.1-0.9,0.1h-4.1v1.2h-1.6v-1.2H27v-1.8h3.1v-4.3h1.6v4.3h4c0.2,0,0.3,0,0.4-0.1c0.1-0.1,0.2-0.2,0.2-0.4
			c0-0.1,0-0.3,0-0.4v-1.1c0-0.2,0-0.3,0-0.5s0-0.3-0.1-0.3c0,0-0.2,0-0.4,0h-1.1V183z"/>
		<path class="st0" d="M27.1,180.1v-1.8h4.1c-0.1,0-0.1-0.1-0.2-0.1c-0.3-0.3-0.5-0.7-0.6-1.1c-0.1-0.4-0.2-1-0.2-1.6
			s0.1-1.1,0.2-1.6s0.3-0.9,0.6-1.1c0.3-0.3,0.7-0.4,1.1-0.5c0.3-0.1,0.9-0.1,1.7-0.1h4.3v1.8h-4.3c-1,0-1.6,0-1.7,0.1
			c-0.1,0.1-0.2,0.7-0.2,1.8v0.6c0,1.1,0.1,1.6,0.2,1.8c0.1,0.1,0.6,0.1,1.6,0.1h4.5v1.8L27.1,180.1L27.1,180.1z"/>
		<path class="st0" d="M27.1,161.2v-1.8h7.4c0.8,0,1.5,0.1,1.9,0.2c0.5,0.1,0.9,0.3,1.1,0.6c0.3,0.3,0.4,0.7,0.5,1.1
			c0.1,0.3,0.1,0.9,0.1,1.7s0,1.4-0.1,1.7c-0.1,0.5-0.3,0.9-0.5,1.1c-0.3,0.3-0.7,0.5-1.1,0.6c-0.4,0.1-1.1,0.2-1.9,0.2h-0.2
			l-0.1-1.8h0.3c1.1,0,1.6-0.1,1.8-0.2c0.1-0.1,0.2-0.7,0.2-1.7s-0.1-1.6-0.2-1.7c-0.1-0.1-0.7-0.2-1.8-0.2h-7.4V161.2z"/>
		<path class="st0" d="M38.1,149.3v1.7h-0.6c0.3,0.2,0.4,0.6,0.5,1c0,0.3,0.1,0.9,0.1,1.7v0.1c0,1.5-0.1,2.5-0.3,2.8
			c-0.2,0.4-0.4,0.6-0.8,0.7c-0.2,0.1-0.6,0.1-1.2,0.1h-0.3c-0.6,0-1,0-1.2-0.1c-0.3-0.1-0.6-0.3-0.8-0.7s-0.3-1.3-0.3-2.8v-0.2
			c0-0.8,0-1.4,0.1-1.7c0.1-0.5,0.2-0.8,0.5-1c-0.9,0-1.4,0.1-1.6,0.3C32,151.4,32,152,32,153v0.7c0,0.7,0,1.2,0,1.4s0,0.3,0,0.4
			c0,0,0.1,0.1,0.3,0.1l0.3,0.1l-0.3,1.7l-0.7-0.2c-0.6-0.2-1-0.5-1.2-1.1c-0.1-0.4-0.2-1.2-0.2-2.4V153c0-1.1,0-1.8,0.1-2.2
			c0.1-0.5,0.2-0.9,0.4-1.1c0.2-0.2,0.6-0.4,1.2-0.4c0.4,0,1.2-0.1,2.3-0.1L38.1,149.3L38.1,149.3z M35,154.9c0,0.3,0,0.4,0.1,0.6
			c0.1,0.1,0.2,0.2,0.4,0.2h0.3c0.3,0,0.5-0.2,0.5-0.6V152c0-0.3,0-0.5-0.1-0.7c0-0.1-0.1-0.2-0.2-0.3c-0.1,0-0.2-0.1-0.4-0.1
			s-0.3,0-0.4,0c-0.1,0-0.2,0.1-0.2,0.2c-0.1,0.2-0.1,0.4-0.1,0.8v3H35z"/>
		<path class="st0" d="M30.2,146.5L36,144l-5.8-2.5v-1.9l7,3.1c0.3,0.1,0.5,0.3,0.6,0.5c0.2,0.2,0.3,0.5,0.3,0.8s-0.1,0.6-0.3,0.8
			s-0.4,0.4-0.6,0.5l-7,3.1V146.5z"/>
		<path class="st0" d="M38.1,130.5v1.7h-0.6c0.3,0.2,0.4,0.6,0.5,1c0,0.3,0.1,0.9,0.1,1.7v0.1c0,1.5-0.1,2.5-0.3,2.8
			c-0.2,0.4-0.4,0.6-0.8,0.7c-0.2,0.1-0.6,0.1-1.2,0.1h-0.3c-0.6,0-1,0-1.2-0.1c-0.3-0.1-0.6-0.3-0.8-0.7s-0.3-1.3-0.3-2.8v-0.2
			c0-0.8,0-1.4,0.1-1.7c0.1-0.5,0.2-0.8,0.5-1c-0.9,0-1.4,0.1-1.6,0.3c-0.2,0.2-0.2,0.8-0.2,1.8v0.7c0,0.7,0,1.2,0,1.4s0,0.3,0,0.4
			c0,0,0.1,0.1,0.3,0.1l0.3,0.1l-0.3,1.7l-0.7-0.2c-0.6-0.2-1-0.5-1.2-1.1c-0.1-0.4-0.2-1.2-0.2-2.4v-0.7c0-1.1,0-1.8,0.1-2.2
			c0.1-0.5,0.2-0.9,0.4-1.1c0.2-0.2,0.6-0.4,1.2-0.4c0.4,0,1.2-0.1,2.3-0.1L38.1,130.5L38.1,130.5z M35,136.2c0,0.3,0,0.4,0.1,0.6
			c0.1,0.1,0.2,0.2,0.4,0.2h0.3c0.3,0,0.5-0.2,0.5-0.6v-3.1c0-0.3,0-0.5-0.1-0.7c0-0.1-0.1-0.2-0.2-0.3c-0.1,0-0.2-0.1-0.4-0.1
			s-0.3,0-0.4,0c-0.1,0-0.2,0.1-0.2,0.2c-0.1,0.2-0.1,0.4-0.1,0.8v3H35z"/>
		<path class="st0" d="M30.4,119.7l0.1,1.8h-0.2c-0.8,0-1.2,0-1.3,0.1c-0.1,0.1-0.2,0.7-0.2,1.8v2c0,1.1,0.1,1.7,0.2,1.8
			c0.1,0.1,0.5,0.1,1.3,0.1s1.2,0,1.3-0.1c0.1-0.1,0.2-0.7,0.2-1.8v-2c0-1.5,0.2-2.5,0.6-3c0.3-0.3,0.6-0.5,1-0.6
			c0.3-0.1,0.9-0.1,1.6-0.1c0.7,0,1.3,0.1,1.7,0.2s0.8,0.3,1,0.7c0.3,0.4,0.5,1.4,0.5,2.8v2c0,1.5-0.2,2.5-0.6,2.9
			c-0.3,0.3-0.6,0.5-1,0.6S35.7,129,35,129h-0.3v-1.8H35c0.8,0,1.2,0,1.3-0.1s0.2-0.7,0.2-1.8v-2c0-1.1,0-1.6-0.1-1.8
			c-0.1-0.1-0.5-0.1-1.3-0.1s-1.2,0-1.3,0.1s-0.2,0.7-0.2,1.8v2c0,1.5-0.2,2.5-0.6,2.9c-0.3,0.3-0.6,0.5-1,0.6
			c-0.4,0.1-0.9,0.1-1.6,0.1s-1.2,0-1.5-0.1c-0.4-0.1-0.8-0.3-1-0.6c-0.4-0.5-0.6-1.5-0.6-3v-2c0-1.5,0.2-2.5,0.6-3
			c0.3-0.3,0.6-0.5,1-0.6c0.3-0.1,0.9-0.1,1.6-0.1h-0.1V119.7z"/>
		<path class="st0" d="M35,111.9l0.3-1.7l0.9,0.1c0.9,0.2,1.5,0.6,1.8,1.3c0.2,0.4,0.2,1.2,0.2,2.3v0.6c0,0.8,0,1.4-0.1,1.7
			c-0.1,0.5-0.3,0.9-0.5,1.1c-0.3,0.3-0.7,0.5-1.1,0.6c-0.4,0.1-1.1,0.2-1.9,0.2H34c-0.8,0-1.4,0-1.7-0.1c-0.5-0.1-0.9-0.3-1.2-0.5
			c-0.3-0.3-0.5-0.7-0.6-1.1s-0.2-1.1-0.2-1.9v-0.6c0-1.1,0.1-1.9,0.3-2.4c0.3-0.7,0.8-1.1,1.7-1.2l0.9-0.1l0.3,1.7l-0.9,0.1
			c-0.2,0-0.3,0.1-0.3,0.2c-0.1,0.2-0.2,0.8-0.2,1.7v0.6c0,1.1,0.1,1.6,0.2,1.8c0.1,0.1,0.7,0.1,1.7,0.1h0.6c1.1,0,1.6-0.1,1.8-0.2
			c0.1-0.1,0.2-0.7,0.2-1.7v-0.6c0-0.9,0-1.5-0.1-1.6c0-0.1-0.2-0.2-0.4-0.2L35,111.9z"/>
		<path class="st0" d="M38.1,106.9v1.8h-8v-1.8h0.8c-0.1,0-0.1-0.1-0.2-0.1c-0.3-0.3-0.4-0.6-0.5-0.9c-0.1-0.2-0.1-0.6-0.1-1.2
			s0-1.1,0.1-1.4c0.1-0.5,0.3-0.9,0.5-1.1c0.5-0.5,1.5-0.8,3-0.8l0.1,1.8c-1,0-1.6,0.1-1.7,0.2c-0.1,0.1-0.2,0.6-0.2,1.4v0.3
			c0,1,0,1.6,0.1,1.7s0.7,0.2,1.7,0.2L38.1,106.9L38.1,106.9z"/>
		<path class="st0" d="M27.1,100v-1.8h1.8v1.8H27.1z M30.2,100v-1.8h8v1.8H30.2z"/>
		<path class="st0" d="M41.2,94.6v1.8h-11v-1.8H31c-0.1,0-0.1-0.1-0.2-0.1c-0.3-0.3-0.4-0.6-0.5-0.9c-0.1-0.2-0.1-0.7-0.1-1.5V92
			c0-0.8,0-1.4,0.1-1.7c0.1-0.5,0.3-0.9,0.5-1.1c0.3-0.3,0.7-0.5,1.1-0.6s1.1-0.2,1.9-0.2h0.6c0.8,0,1.4,0,1.7,0.1
			c0.5,0.1,0.9,0.3,1.2,0.5c0.3,0.3,0.5,0.7,0.6,1.1s0.2,1.1,0.2,1.9v0.1c0,0.8,0,1.3-0.1,1.6c-0.1,0.3-0.3,0.6-0.6,0.8L41.2,94.6
			L41.2,94.6z M34.6,94.6c0.9,0,1.4,0,1.5-0.1s0.2-0.7,0.2-1.8v-0.6c0-1.1-0.1-1.6-0.2-1.8c-0.1-0.1-0.7-0.1-1.7-0.1h-0.6
			c-1.1,0-1.6,0.1-1.8,0.2c-0.1,0.1-0.2,0.7-0.2,1.7v0.6c0,1,0,1.6,0.1,1.7s0.7,0.2,1.7,0.2L34.6,94.6L34.6,94.6z"/>
		<path class="st0" d="M34.7,81.1v-1.8h1.2c0.3,0,0.6,0,0.8,0.1c0.3,0.1,0.6,0.2,0.8,0.4c0.2,0.2,0.4,0.4,0.5,0.8
			c0.1,0.2,0.1,0.5,0.1,0.8c0,0.1,0,0.3,0,0.5c0,0.3,0,0.5,0,0.6v0.6c0,0.2,0,0.4,0,0.5c0,0.3,0,0.6-0.1,0.8
			c-0.1,0.3-0.2,0.6-0.4,0.8c-0.2,0.2-0.5,0.4-0.9,0.5c-0.2,0.1-0.5,0.1-0.9,0.1h-4.1V87h-1.6v-1.2H27V84h3.1v-4.3h1.6V84h4
			c0.2,0,0.3,0,0.4-0.1c0.1-0.1,0.2-0.2,0.2-0.4c0-0.1,0-0.3,0-0.4V82c0-0.2,0-0.3,0-0.5s0-0.3-0.1-0.3c0,0-0.2,0-0.4,0L34.7,81.1
			L34.7,81.1z"/>
	</g>
	<g>
		<path class="st0" d="M22.4,263.5c0.2-0.4,0.6-0.6,1.1-0.6h2.1c1.5,0,2.5,0.2,3,0.5c0.3,0.3,0.5,0.6,0.7,1c0.1,0.3,0.1,0.8,0.2,1.5
			v0.7c0,0.7-0.1,1.3-0.2,1.6c-0.1,0.4-0.4,0.7-0.7,1c-0.4,0.3-1.4,0.5-2.8,0.5h-1.3c-1.5,0-2.5-0.2-3-0.6c-0.3-0.3-0.5-0.6-0.7-1
			c-0.1-0.4-0.1-0.9-0.1-1.7v-5.7c0-0.8,0.3-1.3,0.7-1.7c0.5-0.4,1.5-0.7,3.1-0.7h1.3c1.6,0,2.6,0.2,3,0.6c0.3,0.3,0.5,0.6,0.6,1
			c0.1,0.3,0.1,0.9,0.1,1.6v0.1l-1.8,0.1v-0.1c0-0.8,0-1.3-0.1-1.3c-0.1-0.1-0.8-0.2-1.9-0.2h-1.3c-1.1,0-1.7,0.1-1.9,0.2
			c-0.1,0.1-0.1,0.5-0.1,1.2C22.4,261.5,22.4,263.5,22.4,263.5z M22.4,266.4c0,0.8,0,1.3,0.1,1.3c0.1,0.1,0.7,0.2,1.8,0.2h1.3
			c1.1,0,1.7,0,1.8-0.1c0.1-0.1,0.1-0.4,0.2-1.1V266c0-0.7,0-1.1-0.1-1.1c-0.1-0.1-0.8-0.2-1.9-0.2h-2.9c-0.1,0-0.2,0-0.3,0.1
			c-0.1,0.1-0.1,0.2-0.1,0.3v1.3H22.4z"/>
	</g>
</g>
</svg>
