<?xml version="1.0" encoding="utf-8"?>
<!-- Generator: Adobe Illustrator 26.1.0, SVG Export Plug-In . SVG Version: 6.00 Build 0)  -->
<svg version="1.1" id="Layer_1" xmlns="http://www.w3.org/2000/svg" xmlns:xlink="http://www.w3.org/1999/xlink" x="0px" y="0px"
	 viewBox="0 0 50 500" style="enable-background:new 0 0 50 500;" xml:space="preserve">
<style type="text/css">
	.st0{fill:#FF4747;}
</style>
<g>
	<polygon class="st0" points="50,219.2 25.2,219.2 24.8,219.2 0,219.2 0,221.7 24,221.7 24,246.3 26.4,246.3 26.4,221.7 50,221.7 	
		"/>
	<polygon class="st0" points="26.3,349 26.3,322.7 26.2,322.7 34.5,314.4 26.3,306.1 26.3,279.8 23.7,279.8 23.7,306.1 15.5,314.4 
		23.8,322.7 23.7,322.7 23.7,349 15.5,357.3 23.8,365.6 23.7,365.6 23.7,391.9 15.5,400.1 25,409.6 34.5,400.1 26.3,391.9 
		26.3,365.6 26.2,365.6 34.5,357.3 	"/>
	<g>
		<path class="st0" d="M8.8,201.3c0-1.6,0.4-2.7,1.1-3.4c0.7-0.6,1.7-0.9,3.2-0.9h2.4c1.6,0,2.7,0.4,3.4,1.1
			c0.6,0.7,0.9,1.7,0.9,3.2l0,0v5h-11C8.8,206.3,8.8,201.3,8.8,201.3z M10.5,204.6h7.6v-3.3c0-1-0.2-1.7-0.5-2s-1-0.5-2.1-0.5h-2.4
			c-1,0-1.7,0.1-2,0.4c-0.4,0.3-0.5,1-0.5,2.1v3.3H10.5z"/>
		<path class="st0" d="M15,195.5c-1.1,0-1.9-0.2-2.3-0.6c-0.3-0.3-0.5-0.7-0.6-1.1c-0.1-0.4-0.2-1.1-0.2-1.9v-0.6
			c0-0.8,0.1-1.5,0.2-1.9c0.1-0.5,0.3-0.9,0.6-1.1c0.3-0.3,0.7-0.4,1.1-0.5c0.3-0.1,0.9-0.1,1.7-0.1h1v6.2c0.8,0,1.3-0.1,1.4-0.2
			c0.1-0.1,0.2-0.7,0.2-1.7v-0.7c0-0.8,0-1.4-0.1-1.6c0-0.1-0.1-0.2-0.2-0.2l-0.5-0.2l0.4-1.6l0.7,0.2c0.7,0.2,1.1,0.7,1.3,1.4
			c0.1,0.4,0.2,1.1,0.2,2v0.6c0,0.8,0,1.4-0.1,1.7c-0.1,0.5-0.3,0.9-0.5,1.1c-0.4,0.5-1.3,0.7-2.5,0.8L15,195.5L15,195.5z
			 M15.1,189.3c-0.8,0-1.2,0.1-1.3,0.1c-0.1,0.1-0.2,0.7-0.2,1.8v0.6c0,1.1,0.1,1.6,0.2,1.8c0.1,0.1,0.5,0.1,1.3,0.1V189.3z"/>
		<path class="st0" d="M11.9,184.8l5.8-2.5l-5.8-2.5v-1.9l7,3.1c0.3,0.1,0.5,0.3,0.6,0.5c0.2,0.2,0.3,0.5,0.3,0.8s-0.1,0.6-0.3,0.8
			c-0.2,0.2-0.4,0.4-0.6,0.5l-7,3.1C11.9,186.7,11.9,184.8,11.9,184.8z"/>
		<path class="st0" d="M15,177.1c-1.1,0-1.9-0.2-2.3-0.6c-0.3-0.3-0.5-0.7-0.6-1.1c-0.1-0.4-0.2-1.1-0.2-1.9v-0.6
			c0-0.8,0.1-1.5,0.2-1.9c0.1-0.5,0.3-0.9,0.6-1.1c0.3-0.3,0.7-0.4,1.1-0.5c0.3-0.1,0.9-0.1,1.7-0.1h1v6.2c0.8,0,1.3-0.1,1.4-0.2
			c0.1-0.1,0.2-0.7,0.2-1.7v-0.7c0-0.8,0-1.4-0.1-1.6c0-0.1-0.1-0.2-0.2-0.2l-0.5-0.2l0.4-1.6l0.7,0.2c0.7,0.2,1.1,0.7,1.3,1.4
			c0.1,0.4,0.2,1.1,0.2,2v0.6c0,0.8,0,1.4-0.1,1.7c-0.1,0.5-0.3,0.9-0.5,1.1c-0.4,0.5-1.3,0.7-2.5,0.8L15,177.1L15,177.1z
			 M15.1,170.9c-0.8,0-1.2,0.1-1.3,0.1c-0.1,0.1-0.2,0.7-0.2,1.8v0.6c0,1.1,0.1,1.6,0.2,1.8c0.1,0.1,0.5,0.1,1.3,0.1V170.9z"/>
		<path class="st0" d="M8.8,167.1v-1.8h11.1v1.8H8.8z"/>
		<path class="st0" d="M11.9,159c0-0.9,0.1-1.5,0.2-1.9c0.1-0.5,0.3-0.9,0.6-1.1c0.3-0.3,0.7-0.4,1.2-0.5c0.3-0.1,0.9-0.1,1.7-0.1
			h0.6c0.8,0,1.5,0.1,1.9,0.2c0.5,0.1,0.9,0.3,1.1,0.6c0.3,0.3,0.4,0.7,0.5,1.1c0.1,0.3,0.1,0.9,0.1,1.7v0.6c0,0.8,0,1.4-0.1,1.7
			c-0.1,0.5-0.3,0.9-0.5,1.1c-0.3,0.3-0.7,0.5-1.1,0.6s-1.1,0.2-1.9,0.2h-0.6c-0.8,0-1.4,0-1.7-0.1c-0.5-0.1-0.9-0.3-1.1-0.5
			c-0.3-0.3-0.5-0.7-0.6-1.1c-0.1-0.4-0.2-1.1-0.2-1.9L11.9,159L11.9,159z M13.6,159.7c0,1.1,0.1,1.6,0.2,1.8
			c0.1,0.1,0.7,0.2,1.7,0.2h0.6c1.1,0,1.6-0.1,1.8-0.2c0.1-0.1,0.2-0.7,0.2-1.7V159c0-1-0.1-1.6-0.2-1.7c-0.1-0.1-0.7-0.2-1.8-0.2
			h-0.6c-1,0-1.6,0-1.7,0.1c-0.1,0.1-0.2,0.7-0.2,1.8V159.7z"/>
		<path class="st0" d="M22.9,152.1v1.8h-11v-1.8h0.8c-0.1,0-0.1-0.1-0.2-0.1c-0.3-0.3-0.4-0.6-0.5-0.9c-0.1-0.2-0.1-0.7-0.1-1.5
			v-0.1c0-0.8,0-1.4,0.1-1.7c0.1-0.5,0.3-0.9,0.5-1.1c0.3-0.3,0.7-0.5,1.1-0.6c0.4-0.1,1.1-0.2,1.9-0.2h0.6c0.8,0,1.4,0,1.7,0.1
			c0.5,0.1,0.9,0.3,1.2,0.5c0.3,0.3,0.5,0.7,0.6,1.1c0.1,0.4,0.2,1.1,0.2,1.9v0.1c0,0.8,0,1.3-0.1,1.6s-0.3,0.6-0.6,0.8L22.9,152.1
			L22.9,152.1z M16.3,152.1c0.9,0,1.4,0,1.5-0.1s0.2-0.7,0.2-1.8v-0.6c0-1.1-0.1-1.6-0.2-1.8c-0.1-0.1-0.7-0.1-1.7-0.1h-0.6
			c-1.1,0-1.6,0.1-1.8,0.2c-0.1,0.1-0.2,0.7-0.2,1.7v0.6c0,1,0,1.6,0.1,1.7c0.1,0.1,0.7,0.2,1.7,0.2L16.3,152.1L16.3,152.1z"/>
		<path class="st0" d="M12.7,137.6c-0.6-0.5-0.8-1-0.8-1.8s0-1.4,0.1-1.7c0.1-0.5,0.3-0.8,0.6-1.1c0.5-0.4,1.4-0.6,2.9-0.6h4.3v1.8
			h-4.3c-1.1,0-1.6,0.1-1.8,0.2c-0.1,0.1-0.2,0.6-0.2,1.5s0.1,1.4,0.2,1.5c0.1,0.1,0.7,0.1,1.7,0.1h4.3v1.8h-4.3
			c-1.1,0-1.6,0.1-1.8,0.2c-0.1,0.1-0.2,0.6-0.2,1.5s0.1,1.4,0.2,1.5c0.1,0.1,0.6,0.1,1.6,0.1h4.5v1.8h-8v-1.8h0.7
			c-0.5-0.4-0.7-1-0.7-1.7c0-0.8,0-1.4,0.1-1.7c0.1-0.5,0.3-0.8,0.6-1.1c0.1-0.1,0.3-0.2,0.4-0.3C12.9,137.8,12.8,137.7,12.7,137.6z
			"/>
		<path class="st0" d="M15,130.9c-1.1,0-1.9-0.2-2.3-0.6c-0.3-0.3-0.5-0.7-0.6-1.1c-0.1-0.4-0.2-1.1-0.2-1.9v-0.6
			c0-0.8,0.1-1.5,0.2-1.9c0.1-0.5,0.3-0.9,0.6-1.1c0.3-0.3,0.7-0.4,1.1-0.5c0.3-0.1,0.9-0.1,1.7-0.1h1v6.2c0.8,0,1.3-0.1,1.4-0.2
			c0.1-0.1,0.2-0.7,0.2-1.7v-0.7c0-0.8,0-1.4-0.1-1.6c0-0.1-0.1-0.2-0.2-0.2l-0.5-0.2l0.4-1.6l0.7,0.2c0.7,0.2,1.1,0.7,1.3,1.4
			c0.1,0.4,0.2,1.1,0.2,2v0.6c0,0.8,0,1.4-0.1,1.7c-0.1,0.5-0.3,0.9-0.5,1.1c-0.4,0.5-1.3,0.7-2.5,0.8L15,130.9L15,130.9z
			 M15.1,124.7c-0.8,0-1.2,0.1-1.3,0.1c-0.1,0.1-0.2,0.7-0.2,1.8v0.6c0,1.1,0.1,1.6,0.2,1.8c0.1,0.1,0.5,0.1,1.3,0.1V124.7z"/>
		<path class="st0" d="M11.9,121.5v-1.8h0.8c-0.5-0.5-0.8-1.3-0.8-2.5v-0.1c0-0.8,0.1-1.5,0.2-1.9c0.1-0.5,0.3-0.9,0.6-1.1
			c0.3-0.3,0.7-0.4,1.1-0.5c0.3-0.1,0.9-0.1,1.7-0.1h4.3v1.8h-4.3c-1,0-1.6,0-1.7,0.1c-0.1,0.1-0.2,0.7-0.2,1.8v0.6
			c0,1.1,0.1,1.6,0.2,1.8c0.1,0.1,0.6,0.1,1.6,0.1h4.5v1.8C19.9,121.5,11.9,121.5,11.9,121.5z"/>
		<path class="st0" d="M16.4,106.2v-1.8h1.2c0.3,0,0.6,0,0.8,0.1c0.3,0.1,0.6,0.2,0.8,0.4c0.2,0.2,0.4,0.4,0.5,0.8
			c0.1,0.2,0.1,0.5,0.1,0.8c0,0.1,0,0.3,0,0.5c0,0.3,0,0.5,0,0.6v0.6c0,0.2,0,0.4,0,0.5c0,0.3,0,0.6-0.1,0.8
			c-0.1,0.3-0.2,0.6-0.4,0.8c-0.2,0.2-0.5,0.4-0.9,0.5c-0.2,0.1-0.5,0.1-0.9,0.1h-4.1v1.2h-1.6v-1.2h-3v-1.8h3.1v-4.3h1.6v4.3h4
			c0.2,0,0.3,0,0.4-0.1s0.2-0.2,0.2-0.4c0-0.1,0-0.3,0-0.4v-1.1c0-0.2,0-0.3,0-0.5s0-0.3-0.1-0.3c0,0-0.2,0-0.4,0L16.4,106.2
			L16.4,106.2z"/>
		<path class="st0" d="M16.4,93.2v-1.8h1.2c0.3,0,0.6,0,0.8,0.1c0.3,0.1,0.6,0.2,0.8,0.4c0.2,0.2,0.4,0.4,0.5,0.8
			c0.1,0.2,0.1,0.5,0.1,0.8c0,0.1,0,0.3,0,0.5c0,0.3,0,0.5,0,0.6v0.6c0,0.2,0,0.4,0,0.5c0,0.3,0,0.6-0.1,0.8
			c-0.1,0.3-0.2,0.6-0.4,0.8c-0.2,0.2-0.5,0.4-0.9,0.5c-0.2,0.1-0.5,0.1-0.9,0.1h-4.1V99h-1.6v-1.2h-3V96h3.1v-4.3h1.6V96h4
			c0.2,0,0.3,0,0.4-0.1s0.2-0.2,0.2-0.4c0-0.1,0-0.3,0-0.4V94c0-0.2,0-0.3,0-0.5s0-0.3-0.1-0.3c0,0-0.2,0-0.4,0H16.4z"/>
		<path class="st0" d="M8.8,90.3v-1.8h4.1c-0.1,0-0.1-0.1-0.2-0.1c-0.3-0.3-0.5-0.7-0.6-1.1s-0.2-1-0.2-1.6s0.1-1.1,0.2-1.6
			c0.1-0.5,0.3-0.9,0.6-1.1c0.3-0.3,0.7-0.4,1.1-0.5c0.3-0.1,0.9-0.1,1.7-0.1h4.3v1.8h-4.3c-1,0-1.6,0-1.7,0.1
			c-0.1,0.1-0.2,0.7-0.2,1.8v0.6c0,1.1,0.1,1.6,0.2,1.8c0.1,0.1,0.6,0.1,1.6,0.1h4.5v1.8H8.8V90.3z"/>
		<path class="st0" d="M15,80.9c-1.1,0-1.9-0.2-2.3-0.6c-0.3-0.3-0.5-0.7-0.6-1.1s-0.2-1.1-0.2-1.9v-0.6c0-0.8,0.1-1.5,0.2-1.9
			c0.1-0.5,0.3-0.9,0.6-1.1c0.3-0.3,0.7-0.4,1.1-0.5c0.3-0.1,0.9-0.1,1.7-0.1h1v6.2c0.8,0,1.3-0.1,1.4-0.2s0.2-0.7,0.2-1.7v-0.7
			c0-0.8,0-1.4-0.1-1.6c0-0.1-0.1-0.2-0.2-0.2l-0.5-0.2l0.4-1.6l0.7,0.2c0.7,0.2,1.1,0.7,1.3,1.4c0.1,0.4,0.2,1.1,0.2,2v0.6
			c0,0.8,0,1.4-0.1,1.7c-0.1,0.5-0.3,0.9-0.5,1.1c-0.4,0.5-1.3,0.7-2.5,0.8L15,80.9L15,80.9z M15.1,74.7c-0.8,0-1.2,0.1-1.3,0.1
			c-0.1,0.1-0.2,0.7-0.2,1.8v0.6c0,1.1,0.1,1.6,0.2,1.8c0.1,0.1,0.5,0.1,1.3,0.1V74.7z"/>
		<path class="st0" d="M11.9,60.2h4.3c1.1,0,1.6,0,1.8-0.1c0.1-0.1,0.2-0.6,0.2-1.5s-0.1-1.4-0.2-1.5s-0.7-0.2-1.8-0.2h-4.3v-1.8
			h4.3c1.5,0,2.5,0.2,2.9,0.6c0.3,0.3,0.5,0.6,0.6,1.1c0.1,0.4,0.1,1,0.1,1.7c0,0.8-0.1,1.3-0.2,1.6s-0.3,0.6-0.7,0.8
			c-0.1,0.1-0.2,0.1-0.3,0.2c0.1,0.1,0.2,0.2,0.3,0.2c0.3,0.3,0.5,0.6,0.6,0.8c0.1,0.3,0.1,0.8,0.1,1.5c0,0.8-0.1,1.4-0.2,1.8
			c-0.1,0.5-0.3,0.8-0.7,1.1c-0.3,0.2-0.7,0.4-1.1,0.5c-0.3,0-0.9,0.1-1.7,0.1h-4.3v-1.8h4.3c1.1,0,1.6,0,1.8-0.1
			c0.1-0.1,0.2-0.6,0.2-1.5s-0.1-1.4-0.2-1.5c0.1-0.2-0.5-0.2-1.6-0.2h-4.3L11.9,60.2L11.9,60.2z"/>
		<path class="st0" d="M15,53.6c-1.1,0-1.9-0.2-2.3-0.6c-0.3-0.3-0.5-0.7-0.6-1.1c-0.1-0.4-0.2-1.1-0.2-1.9v-0.6
			c0-0.8,0.1-1.5,0.2-1.9c0.1-0.5,0.3-0.9,0.6-1.1c0.3-0.3,0.7-0.4,1.1-0.5c0.3-0.1,0.9-0.1,1.7-0.1h1V52c0.8,0,1.3-0.1,1.4-0.2
			c0.1-0.1,0.2-0.7,0.2-1.7v-0.7c0-0.8,0-1.4-0.1-1.6c0-0.1-0.1-0.2-0.2-0.2l-0.5-0.2l0.4-1.6l0.7,0.2c0.7,0.2,1.1,0.7,1.3,1.4
			c0.1,0.4,0.2,1.1,0.2,2V50c0,0.8,0,1.4-0.1,1.7c-0.1,0.5-0.3,0.9-0.5,1.1c-0.4,0.5-1.3,0.7-2.5,0.8C16.8,53.6,15,53.6,15,53.6z
			 M15.1,47.4c-0.8,0-1.2,0.1-1.3,0.1c-0.1,0.1-0.2,0.7-0.2,1.8v0.6c0,1.1,0.1,1.6,0.2,1.8c0.1,0.1,0.5,0.1,1.3,0.1V47.4z"/>
		<path class="st0" d="M12.6,42.4c-0.3-0.3-0.5-0.6-0.6-0.8c-0.1-0.3-0.1-0.9-0.1-1.6v-0.1c0-0.8,0.1-1.5,0.2-1.9
			c0.1-0.5,0.3-0.9,0.6-1.1c0.3-0.3,0.7-0.4,1.2-0.5c0.3-0.1,0.9-0.1,1.7-0.1h0.6c0.8,0,1.5,0.1,1.9,0.2c0.5,0.1,0.9,0.3,1.1,0.6
			c0.3,0.3,0.4,0.7,0.5,1.1c0.1,0.3,0.1,0.9,0.1,1.7V40c0,0.7,0,1.2-0.1,1.5s-0.2,0.6-0.5,0.9c0,0.1-0.1,0.1-0.2,0.1h0.8v1.8h-11
			v-1.8h3.8V42.4z M16.2,42.4c1,0,1.5-0.1,1.7-0.2c0.1-0.1,0.2-0.7,0.2-1.7v-0.6c0-1-0.1-1.6-0.2-1.7C17.8,38,17.2,38,16.1,38h-0.6
			c-1,0-1.6,0-1.7,0.1c-0.1,0.1-0.2,0.7-0.2,1.8v0.6c0,1.1,0.1,1.6,0.2,1.8c0.1,0.1,0.6,0.1,1.5,0.1C15.3,42.4,16.2,42.4,16.2,42.4z
			"/>
		<path class="st0" d="M14.3,26.8v1.8H14c-0.1,0-0.2,0-0.3,0.1c0,0,0,0.2-0.1,0.4c0,0.3,0,0.8,0,1.4v0.6c0,0.9,0,1.4,0.1,1.6
			c0,0.1,0.1,0.2,0.1,0.2c0.1,0,0.2,0.1,0.4,0.1h0.4c0.2,0,0.3,0,0.4,0c0.1,0,0.1-0.1,0.1-0.2c0-0.3,0-0.8,0-1.6v-0.6
			c0-1.5,0.1-2.4,0.4-2.8c0.2-0.4,0.5-0.6,0.8-0.7c0.2-0.1,0.6-0.1,1.1-0.1h0.2c0.5,0,0.9,0.1,1.2,0.2c0.4,0.2,0.6,0.4,0.8,0.8
			c0.2,0.4,0.3,1.3,0.3,2.7v0.6c0,1.4-0.1,2.3-0.3,2.7c-0.2,0.4-0.5,0.7-0.8,0.8S18.1,35,17.6,35h-0.2l-0.1-2h0.2c0.2,0,0.3,0,0.4,0
			s0.1-0.1,0.1-0.3s0-0.8,0-1.6v-0.6c0-0.8,0-1.3,0-1.5s0-0.3-0.1-0.3c0,0-0.1-0.1-0.2-0.1H17c-0.1,0-0.2,0-0.3,0
			c-0.1,0-0.1,0.2-0.1,0.4c0,0.3,0,0.8,0,1.5v0.6c0,1.4-0.1,2.3-0.3,2.7c-0.2,0.4-0.5,0.7-0.8,0.8s-0.7,0.2-1.2,0.2h-0.1
			c-0.5,0-0.9,0-1.1-0.1c-0.3-0.1-0.6-0.4-0.8-0.7c-0.2-0.4-0.4-1.4-0.4-2.8v-0.6c0-1.5,0.1-2.4,0.4-2.8c0.2-0.4,0.5-0.6,0.8-0.7
			c0.2-0.1,0.6-0.1,1.1-0.1h0.1V26.8z"/>
		<path class="st0" d="M8.8,24.9v-1.8h1.8v1.8H8.8z M11.9,24.9v-1.8h8v1.8H11.9z"/>
		<path class="st0" d="M16.4,15.5v-1.8h1.2c0.3,0,0.6,0,0.8,0.1c0.3,0.1,0.6,0.2,0.8,0.4c0.2,0.2,0.4,0.4,0.5,0.8
			c0.1,0.2,0.1,0.5,0.1,0.8c0,0.1,0,0.3,0,0.5c0,0.3,0,0.5,0,0.6v0.6c0,0.2,0,0.4,0,0.5c0,0.3,0,0.6-0.1,0.8
			c-0.1,0.3-0.2,0.6-0.4,0.8c-0.2,0.2-0.5,0.4-0.9,0.5c-0.2,0.1-0.5,0.1-0.9,0.1h-4.1v1.2h-1.6v-1.2h-3v-1.8h3.1v-4.3h1.6v4.3h4
			c0.2,0,0.3,0,0.4-0.1s0.2-0.2,0.2-0.4c0-0.1,0-0.3,0-0.4v-1.1c0-0.2,0-0.3,0-0.5c0-0.2,0-0.3-0.1-0.3c0,0-0.2,0-0.4,0L16.4,15.5
			L16.4,15.5z"/>
		<path class="st0" d="M15,12.6c-1.1,0-1.9-0.2-2.3-0.6c-0.3-0.3-0.5-0.7-0.6-1.1C12,10.5,11.9,9.8,11.9,9V8.3
			c0-0.8,0.1-1.5,0.2-1.9c0.1-0.5,0.3-0.9,0.6-1.1C13,5,13.4,4.9,13.8,4.8c0.3-0.1,0.9-0.1,1.7-0.1h1v6.2c0.8,0,1.3-0.1,1.4-0.2
			C18,10.6,18.1,10,18.1,9V8.2c0-0.8,0-1.4-0.1-1.6c0-0.1-0.1-0.2-0.2-0.2l-0.5-0.2l0.4-1.6l0.7,0.2c0.7,0.2,1.1,0.7,1.3,1.4
			c0.1,0.4,0.2,1.1,0.2,2v0.6c0,0.8,0,1.4-0.1,1.7c-0.1,0.5-0.3,0.9-0.5,1.1c-0.4,0.5-1.3,0.7-2.5,0.8H15V12.6z M15.1,6.4
			c-0.8,0-1.2,0.1-1.3,0.1c-0.1,0.1-0.2,0.7-0.2,1.8v0.6c0,1.1,0.1,1.6,0.2,1.8c0.1,0.1,0.5,0.1,1.3,0.1V6.4z"/>
		<path class="st0" d="M38.1,198.4v1.8h-0.8c0.5,0.5,0.8,1.3,0.8,2.5v0.1c0,0.8-0.1,1.5-0.2,1.9c-0.1,0.5-0.3,0.9-0.6,1.1
			c-0.3,0.3-0.7,0.4-1.1,0.5c-0.3,0.1-0.9,0.1-1.7,0.1h-4.3v-1.8h4.3c1,0,1.6-0.1,1.7-0.2c0.1-0.1,0.2-0.7,0.2-1.8V202
			c0-1.1-0.1-1.6-0.2-1.8c-0.1-0.1-0.6-0.1-1.6-0.1h-4.5v-1.8h8V198.4z"/>
		<path class="st0" d="M32.7,188.9v1.8h-0.4c-0.1,0-0.2,0-0.3,0.1c0,0,0,0.2-0.1,0.4c0,0.3,0,0.8,0,1.4v0.6c0,0.9,0,1.4,0.1,1.6
			c0,0.1,0.1,0.2,0.1,0.2c0.1,0,0.2,0.1,0.4,0.1h0.4c0.2,0,0.3,0,0.4,0c0.1,0,0.1-0.1,0.1-0.2c0-0.3,0-0.8,0-1.6v-0.6
			c0-1.5,0.1-2.4,0.4-2.8c0.2-0.4,0.5-0.6,0.8-0.7c0.2-0.1,0.6-0.1,1.1-0.1h0.2c0.5,0,0.9,0.1,1.2,0.2c0.4,0.2,0.6,0.4,0.8,0.8
			c0.2,0.4,0.3,1.3,0.3,2.7v0.6c0,1.4-0.1,2.3-0.3,2.7s-0.5,0.7-0.8,0.8s-0.7,0.2-1.2,0.2h-0.2l-0.1-1.8h0.2c0.2,0,0.3,0,0.4,0
			c0.1,0,0.1-0.1,0.1-0.3s0-0.8,0-1.6v-0.6c0-0.8,0-1.3,0-1.5s0-0.3-0.1-0.3c0,0-0.1-0.1-0.2-0.1h-0.8c-0.1,0-0.2,0-0.3,0
			s-0.1,0.2-0.1,0.4c0,0.3,0,0.8,0,1.5v0.6c0,1.4-0.1,2.3-0.3,2.7s-0.5,0.7-0.8,0.8s-0.7,0.2-1.2,0.2h-0.1c-0.5,0-0.9,0-1.1-0.1
			c-0.3-0.1-0.6-0.4-0.8-0.7c-0.2-0.4-0.4-1.4-0.4-2.8v-0.6c0-1.5,0.1-2.4,0.4-2.8c0.2-0.4,0.5-0.6,0.8-0.7c0.2-0.1,0.6-0.1,1.1-0.1
			h0.3V188.9z"/>
		<path class="st0" d="M27.1,187.1v-1.8h1.8v1.8H27.1z M30.2,187.1v-1.8h8v1.8H30.2z"/>
		<path class="st0" d="M30.2,183.5v-1.8H31c-0.5-0.5-0.8-1.3-0.8-2.5v-0.1c0-0.8,0.1-1.5,0.2-1.9c0.1-0.5,0.3-0.9,0.6-1.1
			c0.3-0.3,0.7-0.4,1.1-0.5c0.3-0.1,0.9-0.1,1.7-0.1h4.3v1.8h-4.3c-1,0-1.6,0-1.7,0.1c-0.1,0.1-0.2,0.7-0.2,1.8v0.6
			c0,1.1,0.1,1.6,0.2,1.8c0.1,0.1,0.6,0.1,1.6,0.1h4.5v1.8L30.2,183.5L30.2,183.5z"/>
		<path class="st0" d="M30.2,170.3c0-0.8,0-1.3,0.1-1.6s0.3-0.6,0.6-0.8h-0.8v-1.8h7.4c0.8,0,1.5,0.1,1.9,0.2
			c0.5,0.1,0.9,0.3,1.1,0.6c0.3,0.3,0.4,0.7,0.5,1.1c0.1,0.3,0.1,0.9,0.1,1.7v0.6c0,1.2-0.1,2.1-0.3,2.5c-0.4,0.7-1.1,1-2.2,1.1
			h-0.1l-0.1-1.7h0.1c0.5,0,0.7-0.1,0.8-0.2c0.1-0.2,0.1-0.7,0.1-1.7v-0.6c0-1-0.1-1.6-0.2-1.7c-0.1-0.1-0.7-0.2-1.8-0.2H37
			c0.1,0,0.1,0.1,0.2,0.1c0.3,0.3,0.5,0.6,0.5,0.9c0.1,0.2,0.1,0.7,0.1,1.5v0.1c0,0.8,0,1.4-0.1,1.7c-0.1,0.5-0.3,0.9-0.5,1.1
			c-0.3,0.3-0.7,0.5-1.1,0.6c-0.4,0.1-1.1,0.2-1.9,0.2H34c-0.8,0-1.4,0-1.7-0.1c-0.5-0.1-0.9-0.3-1.2-0.5c-0.3-0.3-0.5-0.7-0.6-1.1
			C30.2,171.8,30.2,171.2,30.2,170.3L30.2,170.3z M31.9,170.3c0,1.1,0.1,1.6,0.2,1.8c0.1,0.1,0.7,0.1,1.7,0.1H34
			c1.1,0,1.7-0.1,1.8-0.2c0.1-0.1,0.2-0.7,0.2-1.7v-0.6c0-1-0.1-1.6-0.2-1.7c-0.1-0.1-0.7-0.2-1.7-0.2h-0.4c-1,0-1.5,0-1.6,0.1
			c-0.1,0.1-0.2,0.7-0.2,1.8C31.9,169.7,31.9,170.3,31.9,170.3z"/>
		<path class="st0" d="M33.9,158.5h4.3v1.8H27.1v-4.6c0-1.5,0.1-2.5,0.4-3c0.5-0.8,1.5-1.3,3-1.3c0.8,0,1.4,0.1,1.9,0.4
			c0.4,0.3,0.8,0.7,1,1.2c0.3,0.6,0.4,1.7,0.4,3.3L33.9,158.5L33.9,158.5z M32.3,158.5v-2.2c0-1.3-0.1-2.2-0.3-2.5
			c-0.2-0.4-0.7-0.6-1.5-0.6s-1.3,0.1-1.5,0.4c-0.1,0.2-0.2,1-0.2,2.1v2.8H32.3z"/>
		<path class="st0" d="M27.1,143.5v-1.8h11.1v1.8h-4.7v4.9h4.7v1.8H27.1v-1.8h4.7v-4.9H27.1z"/>
		<path class="st0" d="M33.9,138.5h4.3v1.8H27.1v-4.6c0-1.5,0.1-2.5,0.4-3c0.5-0.8,1.5-1.3,3-1.3c0.8,0,1.4,0.1,1.9,0.4
			c0.4,0.3,0.8,0.7,1,1.2c0.3,0.6,0.4,1.7,0.4,3.3L33.9,138.5L33.9,138.5z M32.3,138.5v-2.2c0-1.3-0.1-2.2-0.3-2.5
			c-0.2-0.4-0.7-0.6-1.5-0.6s-1.3,0.1-1.5,0.4c-0.1,0.2-0.2,1-0.2,2.1v2.8H32.3z"/>
		<path class="st0" d="M32.9,125.9h-1.4v-0.6h-0.7c-1.5,0-2.5-0.2-2.9-0.6c-0.3-0.3-0.5-0.6-0.6-1.1c-0.1-0.4-0.1-0.9-0.1-1.7
			c0-1.3,0.2-2.2,0.7-2.7c0.4-0.4,1.3-0.6,2.5-0.7h0.1l0.1,1.7h-0.2c-0.8,0-1.2,0.1-1.3,0.1c-0.1,0.1-0.2,0.6-0.2,1.5s0,1.4,0.1,1.4
			c0.1,0.1,0.7,0.2,1.8,0.2h0.7v-3.8h1.4v3.8h5.2v1.7h-5.2V125.9z"/>
		<path class="st0" d="M38.1,116v1.8h-8V116h0.8c-0.1,0-0.1-0.1-0.2-0.1c-0.3-0.3-0.4-0.6-0.5-0.9c-0.1-0.2-0.1-0.6-0.1-1.2
			s0-1.1,0.1-1.4c0.1-0.5,0.3-0.9,0.5-1.1c0.5-0.5,1.5-0.8,3-0.8l0.1,1.8c-1,0-1.6,0.1-1.7,0.2c-0.1,0.1-0.2,0.6-0.2,1.4v0.3
			c0,1,0,1.6,0.1,1.7s0.7,0.2,1.7,0.2L38.1,116L38.1,116z"/>
		<path class="st0" d="M38.1,101.1v1.7h-0.6c0.3,0.2,0.4,0.6,0.5,1c0,0.3,0.1,0.9,0.1,1.7v0.1c0,1.5-0.1,2.5-0.3,2.8
			c-0.2,0.4-0.4,0.6-0.8,0.7c-0.2,0.1-0.6,0.1-1.2,0.1h-0.3c-0.6,0-1,0-1.2-0.1c-0.3-0.1-0.6-0.3-0.8-0.7c-0.2-0.4-0.3-1.3-0.3-2.8
			v-0.2c0-0.8,0-1.4,0.1-1.7c0.1-0.5,0.2-0.8,0.5-1c-0.9,0-1.4,0.1-1.6,0.3c-0.2,0.2-0.2,0.8-0.2,1.8v0.7c0,0.7,0,1.2,0,1.4
			c0,0.2,0,0.3,0,0.4c0,0,0.1,0.1,0.3,0.1l0.3,0.1l-0.3,1.7l-0.7-0.2c-0.6-0.2-1-0.5-1.2-1.1c-0.1-0.4-0.2-1.2-0.2-2.4V105
			c0-1.1,0-1.8,0.1-2.2c0.1-0.5,0.2-0.9,0.4-1.1c0.2-0.2,0.6-0.4,1.2-0.4c0.4,0,1.2-0.1,2.3-0.1h3.9V101.1z M35,106.8
			c0,0.3,0,0.4,0.1,0.6c0.1,0.1,0.2,0.2,0.4,0.2h0.3c0.3,0,0.5-0.2,0.5-0.6v-3.1c0-0.3,0-0.5-0.1-0.7c0-0.1-0.1-0.2-0.2-0.3
			c-0.1,0-0.2-0.1-0.4-0.1s-0.3,0-0.4,0c-0.1,0-0.2,0.1-0.2,0.2c-0.1,0.2-0.1,0.4-0.1,0.8v3H35z"/>
		<path class="st0" d="M31,92.9c-0.6-0.5-0.8-1-0.8-1.8s0-1.4,0.1-1.7c0.1-0.5,0.3-0.8,0.6-1.1c0.5-0.4,1.4-0.6,2.9-0.6h4.3v1.8
			h-4.3c-1.1,0-1.6,0.1-1.8,0.2c-0.1,0.1-0.2,0.6-0.2,1.5s0.1,1.4,0.2,1.5c0.1,0.1,0.7,0.1,1.7,0.1H38v1.8h-4.3
			c-1.1,0-1.6,0.1-1.8,0.2c-0.1,0.1-0.2,0.6-0.2,1.5s0.1,1.4,0.2,1.5c0.1,0.1,0.6,0.1,1.6,0.1H38v1.8h-8v-1.8h0.7
			c-0.5-0.4-0.7-1-0.7-1.7c0-0.8,0-1.4,0.1-1.7c0.1-0.5,0.3-0.8,0.6-1.1c0.1-0.1,0.3-0.2,0.4-0.3C31.2,93,31.1,92.9,31,92.9z"/>
		<path class="st0" d="M33.3,86.1c-1.1,0-1.9-0.2-2.3-0.6c-0.3-0.3-0.5-0.7-0.6-1.1s-0.2-1.1-0.2-1.9v-0.6c0-0.8,0.1-1.5,0.2-1.9
			c0.1-0.5,0.3-0.9,0.6-1.1c0.3-0.3,0.7-0.4,1.1-0.5c0.3-0.1,0.9-0.1,1.7-0.1h1v6.2c0.8,0,1.3-0.1,1.4-0.2c0.1-0.1,0.2-0.7,0.2-1.7
			v-0.7c0-0.8,0-1.4-0.1-1.6c0-0.1-0.1-0.2-0.2-0.2l-0.5-0.2l0.4-1.6l0.7,0.2c0.7,0.2,1.1,0.7,1.3,1.4c0.1,0.4,0.2,1.1,0.2,2v0.6
			c0,0.8,0,1.4-0.1,1.7c-0.1,0.5-0.3,0.9-0.5,1.1c-0.4,0.5-1.3,0.7-2.5,0.8L33.3,86.1L33.3,86.1z M33.5,79.9c-0.8,0-1.2,0.1-1.3,0.1
			c-0.1,0.1-0.2,0.7-0.2,1.8v0.6c0,1.1,0.1,1.6,0.2,1.8c0.1,0.1,0.5,0.1,1.3,0.1V79.9z"/>
		<path class="st0" d="M30.2,69.8h4.3c1.1,0,1.6,0,1.8-0.1c0.1-0.1,0.2-0.6,0.2-1.5s-0.1-1.4-0.2-1.5c-0.1-0.1-0.7-0.2-1.8-0.2h-4.3
			v-1.8h4.3c1.5,0,2.5,0.2,2.9,0.6c0.3,0.3,0.5,0.6,0.6,1.1c0.1,0.4,0.1,1,0.1,1.7c0,0.8-0.1,1.3-0.2,1.6c-0.1,0.3-0.3,0.6-0.7,0.8
			c-0.1,0.1-0.2,0.1-0.3,0.2c0.1,0.1,0.2,0.2,0.3,0.2c0.3,0.3,0.5,0.6,0.6,0.8c0.1,0.3,0.1,0.8,0.1,1.5c0,0.8-0.1,1.4-0.2,1.8
			c-0.1,0.5-0.3,0.8-0.7,1.1c-0.3,0.2-0.7,0.4-1.1,0.5c-0.3,0-0.9,0.1-1.7,0.1h-4.3v-1.8h4.3c1.1,0,1.6,0,1.8-0.1
			c0.1-0.1,0.2-0.6,0.2-1.5s-0.1-1.4-0.2-1.5c-0.1-0.1-0.7-0.2-1.8-0.2h-4.3v-1.8H30.2z"/>
		<path class="st0" d="M30.2,58.9c0-0.9,0.1-1.5,0.2-1.9c0.1-0.5,0.3-0.9,0.6-1.1c0.3-0.3,0.7-0.4,1.2-0.5c0.3-0.1,0.9-0.1,1.7-0.1
			h0.6c0.8,0,1.5,0.1,1.9,0.2c0.5,0.1,0.9,0.3,1.1,0.6c0.3,0.3,0.4,0.7,0.5,1.1c0.1,0.3,0.1,0.9,0.1,1.7v0.6c0,0.8,0,1.4-0.1,1.7
			c-0.1,0.5-0.3,0.9-0.5,1.1c-0.3,0.3-0.7,0.5-1.1,0.6c-0.4,0.1-1.1,0.2-1.9,0.2h-0.6c-0.8,0-1.4,0-1.7-0.1
			c-0.5-0.1-0.9-0.3-1.1-0.5c-0.3-0.3-0.5-0.7-0.6-1.1c-0.1-0.4-0.2-1.1-0.2-1.9L30.2,58.9L30.2,58.9z M31.9,59.5
			c0,1.1,0.1,1.6,0.2,1.8c0.1,0.1,0.7,0.2,1.7,0.2h0.6c1.1,0,1.6-0.1,1.8-0.2c0.1-0.1,0.2-0.7,0.2-1.7V59c0-1-0.1-1.6-0.2-1.7
			c-0.1-0.1-0.7-0.2-1.8-0.2h-0.6c-1,0-1.6,0-1.7,0.1c-0.1,0.1-0.2,0.7-0.2,1.8C31.9,59,31.9,59.5,31.9,59.5z"/>
		<path class="st0" d="M38.1,52v1.8h-8V52h0.8c-0.1,0-0.1-0.1-0.2-0.1c-0.3-0.3-0.4-0.6-0.5-0.9c-0.1-0.2-0.1-0.6-0.1-1.2
			c0-0.6,0-1.1,0.1-1.4c0.1-0.5,0.3-0.9,0.5-1.1c0.5-0.5,1.5-0.8,3-0.8l0.1,1.8c-1,0-1.6,0.1-1.7,0.2c-0.1,0.1-0.2,0.6-0.2,1.4v0.3
			c0,1,0,1.6,0.1,1.7c0.1,0.1,0.7,0.2,1.7,0.2h4.4V52z"/>
		<path class="st0" d="M27.1,45.4v-1.8h5.8l-2.7-4.1v-2.8l2.7,4c0.8-2.1,2.3-3.2,4.4-3.2h0.9v1.8h-0.9c-1,0-1.8,0.4-2.4,1.2
			c-0.4,0.5-0.6,1-0.8,1.7l0.9,1.4h3.2v1.8C38.2,45.4,27.1,45.4,27.1,45.4z"/>
		<path class="st0" d="M32.7,28.1v1.8h-0.4c-0.1,0-0.2,0-0.3,0.1c0,0,0,0.2-0.1,0.4c0,0.3,0,0.8,0,1.4v0.6c0,0.9,0,1.4,0.1,1.6
			c0,0.1,0.1,0.2,0.1,0.2c0.1,0,0.2,0.1,0.4,0.1h0.4c0.2,0,0.3,0,0.4,0c0.1,0,0.1-0.1,0.1-0.2c0-0.3,0-0.8,0-1.6v-0.6
			c0-1.5,0.1-2.4,0.4-2.8c0.2-0.4,0.5-0.6,0.8-0.7c0.2-0.1,0.6-0.1,1.1-0.1h0.2c0.5,0,0.9,0.1,1.2,0.2c0.4,0.2,0.6,0.4,0.8,0.8
			s0.3,1.3,0.3,2.7v0.6c0,1.4-0.1,2.3-0.3,2.7s-0.5,0.7-0.8,0.8s-0.7,0.2-1.2,0.2h-0.2l-0.1-1.8h0.2c0.2,0,0.3,0,0.4,0
			c0.1,0,0.1-0.1,0.1-0.3s0-0.8,0-1.6V32c0-0.8,0-1.3,0-1.5s0-0.3-0.1-0.3c0,0-0.1-0.1-0.2-0.1h-0.8c-0.1,0-0.2,0-0.3,0
			s-0.1,0.2-0.1,0.4c0,0.3,0,0.8,0,1.5v0.6c0,1.4-0.1,2.3-0.3,2.7S34,36,33.7,36.1s-0.7,0.2-1.2,0.2h-0.1c-0.5,0-0.9,0-1.1-0.1
			c-0.3-0.1-0.6-0.4-0.8-0.7c-0.2-0.4-0.4-1.4-0.4-2.8v-0.6c0-1.5,0.1-2.4,0.4-2.8c0.2-0.4,0.5-0.6,0.8-0.7c0.2-0.1,0.6-0.1,1.1-0.1
			h0.3V28.1z"/>
	</g>
	<g>
		<path class="st0" d="M22.6,269.7l4.6-9c0.1-0.1,0.1-0.3,0-0.4s-0.2-0.2-0.3-0.2H21v-1.8h5.9c0.4,0,0.7,0.1,1,0.3
			c0.3,0.2,0.6,0.4,0.8,0.7c0.2,0.3,0.3,0.7,0.4,1c0,0.4,0,0.7-0.2,1.1l-4.2,8.3H22.6z"/>
	</g>
</g>
</svg>
