<?xml version="1.0" encoding="utf-8"?>
<!-- Generator: Adobe Illustrator 26.1.0, SVG Export Plug-In . SVG Version: 6.00 Build 0)  -->
<svg version="1.1" id="Layer_1" xmlns="http://www.w3.org/2000/svg" xmlns:xlink="http://www.w3.org/1999/xlink" x="0px" y="0px"
	 viewBox="0 0 50 500" style="enable-background:new 0 0 50 500;" xml:space="preserve">
<style type="text/css">
	.st0{fill:#3F3F3F;}
</style>
<g>
	<polygon class="st0" points="50,219.2 25.2,219.2 24.8,219.2 0,219.2 0,221.7 24,221.7 24,246.3 26.4,246.3 26.4,221.7 50,221.7 	
		"/>
	<polygon class="st0" points="26.3,349 26.3,322.7 26.2,322.7 34.5,314.4 26.3,306.1 26.3,279.8 23.7,279.8 23.7,306.1 15.5,314.4 
		23.8,322.7 23.7,322.7 23.7,349 15.5,357.3 23.8,365.6 23.7,365.6 23.7,391.9 15.5,400.1 23.8,408.5 23.7,408.5 23.7,434.7 
		15.5,443 25,452.5 34.5,443 26.3,434.7 26.3,408.5 26.2,408.5 34.5,400.1 26.3,391.9 26.3,365.6 26.2,365.6 34.5,357.3 	"/>
	<g>
		<path class="st0" d="M21.7,197v1.8h-0.1c-1,0-1.6,0-1.7,0.1s-0.2,0.7-0.2,1.8v2c0,1.1,0.1,1.6,0.2,1.8c0.1,0.1,0.7,0.1,1.7,0.1
			h3.7c1.1,0,1.6-0.1,1.8-0.2c0.1-0.1,0.2-0.7,0.2-1.7v-2c0-1-0.1-1.6-0.2-1.7c-0.1-0.1-0.7-0.2-1.8-0.2h-0.1V197h0.1
			c0.8,0,1.5,0,1.9,0.1c0.5,0.1,0.9,0.3,1.1,0.6c0.3,0.3,0.4,0.7,0.5,1.1c0.1,0.3,0.1,0.9,0.1,1.7v2c0,0.8,0,1.4-0.1,1.7
			c-0.1,0.5-0.3,0.9-0.5,1.1c-0.3,0.3-0.7,0.5-1.1,0.6s-1.1,0.2-1.9,0.2h-3.7c-0.8,0-1.4,0-1.7-0.1c-0.5-0.1-0.9-0.3-1.1-0.5
			c-0.3-0.3-0.5-0.7-0.6-1.1c-0.1-0.4-0.2-1.1-0.2-1.9v-2c0-0.9,0.1-1.5,0.2-1.9c0.1-0.5,0.3-0.9,0.6-1.1c0.3-0.3,0.7-0.4,1.2-0.5
			C20.3,196.9,20.9,196.9,21.7,197L21.7,197L21.7,197z"/>
		<path class="st0" d="M29,193.8v1.8h-8v-1.8h0.8c-0.1,0-0.1-0.1-0.2-0.1c-0.3-0.3-0.4-0.6-0.5-0.9c-0.1-0.2-0.1-0.6-0.1-1.2
			c0-0.6,0-1.1,0.1-1.4c0.1-0.5,0.3-0.9,0.5-1.1c0.5-0.5,1.5-0.8,3-0.8l0.1,1.8c-1,0-1.6,0.1-1.7,0.2c-0.1,0.1-0.2,0.6-0.2,1.4v0.3
			c0,1,0,1.6,0.1,1.7c0.1,0.1,0.7,0.2,1.7,0.2L29,193.8L29,193.8z"/>
		<path class="st0" d="M24.1,187.2c-1.1,0-1.9-0.2-2.3-0.6c-0.3-0.3-0.5-0.7-0.6-1.1c-0.1-0.4-0.2-1.1-0.2-1.9V183
			c0-0.8,0.1-1.5,0.2-1.9c0.1-0.5,0.3-0.9,0.6-1.1c0.3-0.3,0.7-0.4,1.1-0.5c0.3-0.1,0.9-0.1,1.7-0.1h1v6.2c0.8,0,1.3-0.1,1.4-0.2
			c0.1-0.1,0.2-0.7,0.2-1.7V183c0-0.8,0-1.4-0.1-1.6c0-0.1-0.1-0.2-0.2-0.2l-0.5-0.2l0.4-1.6l0.7,0.2c0.7,0.2,1.1,0.7,1.3,1.4
			c0.1,0.4,0.2,1.1,0.2,2v0.6c0,0.8,0,1.4-0.1,1.7c-0.1,0.5-0.3,0.9-0.5,1.1c-0.4,0.5-1.3,0.7-2.5,0.8H24.1L24.1,187.2z M24.3,181
			c-0.8,0-1.2,0.1-1.3,0.1c-0.1,0.1-0.2,0.7-0.2,1.8v0.6c0,1.1,0.1,1.6,0.2,1.8c0.1,0.1,0.5,0.1,1.3,0.1V181z"/>
		<path class="st0" d="M29,169.4v1.7h-0.6c0.3,0.2,0.4,0.6,0.5,1c0,0.3,0.1,0.9,0.1,1.7v0.1c0,1.5-0.1,2.5-0.3,2.8
			c-0.2,0.4-0.4,0.6-0.8,0.7c-0.2,0.1-0.6,0.1-1.2,0.1h-0.3c-0.6,0-1,0-1.2-0.1c-0.3-0.1-0.6-0.3-0.8-0.7c-0.2-0.4-0.3-1.3-0.3-2.8
			v-0.2c0-0.8,0-1.4,0.1-1.7c0.1-0.5,0.2-0.8,0.5-1c-0.9,0-1.4,0.1-1.6,0.3s-0.2,0.8-0.2,1.8v0.7c0,0.7,0,1.2,0,1.4s0,0.3,0,0.4
			c0,0,0.1,0.1,0.3,0.1l0.3,0.1l-0.3,1.7l-0.7-0.2c-0.6-0.2-1-0.5-1.2-1.1c-0.1-0.4-0.2-1.2-0.2-2.4v-0.7c0-1.1,0-1.8,0.1-2.2
			c0.1-0.5,0.2-0.9,0.4-1.1c0.2-0.2,0.6-0.4,1.2-0.4c0.4,0,1.2-0.1,2.3-0.1L29,169.4L29,169.4z M25.8,175.1c0,0.3,0,0.4,0.1,0.6
			c0.1,0.1,0.2,0.2,0.4,0.2h0.3c0.3,0,0.5-0.2,0.5-0.6v-3.1c0-0.3,0-0.5-0.1-0.7c0-0.1-0.1-0.2-0.2-0.3c-0.1,0-0.2-0.1-0.4-0.1
			c-0.2,0-0.3,0-0.4,0s-0.2,0.1-0.2,0.2c-0.1,0.2-0.1,0.4-0.1,0.8v3L25.8,175.1L25.8,175.1z"/>
		<path class="st0" d="M25.5,162.1v-1.8h1.2c0.3,0,0.6,0,0.8,0.1c0.3,0.1,0.6,0.2,0.8,0.4c0.2,0.2,0.4,0.4,0.5,0.8
			c0.1,0.2,0.1,0.5,0.1,0.8c0,0.1,0,0.3,0,0.5c0,0.3,0,0.5,0,0.6v0.6c0,0.2,0,0.4,0,0.5c0,0.3,0,0.6-0.1,0.8
			c-0.1,0.3-0.2,0.6-0.4,0.8c-0.2,0.2-0.5,0.4-0.9,0.5c-0.2,0.1-0.5,0.1-0.9,0.1h-4.1v1.2H21v-1.2h-3.1V165H21v-4.3h1.6v4.3h4
			c0.2,0,0.3,0,0.4-0.1s0.2-0.2,0.2-0.4c0-0.1,0-0.3,0-0.4V163c0-0.2,0-0.3,0-0.5s0-0.3-0.1-0.3c0,0-0.2,0-0.4,0L25.5,162.1
			L25.5,162.1z"/>
		<path class="st0" d="M17.9,158.9v-1.8h1.8v1.8H17.9z M21,158.9v-1.8h8v1.8H21z"/>
		<path class="st0" d="M21,155.3v-1.8h0.8c-0.5-0.5-0.8-1.3-0.8-2.5l0,0c0-0.8,0.1-1.5,0.2-1.9c0.1-0.5,0.3-0.9,0.6-1.1
			c0.3-0.3,0.7-0.4,1.1-0.5c0.3-0.1,0.9-0.1,1.7-0.1H29v1.8h-4.3c-1,0-1.6,0-1.7,0.1s-0.2,0.7-0.2,1.8v0.6c0,1.1,0.1,1.6,0.2,1.8
			c0.1,0.1,0.6,0.1,1.6,0.1H29v1.8h-8V155.3z"/>
		<path class="st0" d="M21,142.1c0-0.8,0-1.3,0.1-1.6s0.3-0.6,0.6-0.8H21v-1.8h7.4c0.8,0,1.5,0.1,1.9,0.2c0.5,0.1,0.9,0.3,1.1,0.6
			c0.3,0.3,0.4,0.7,0.5,1.1c0.1,0.3,0.1,0.9,0.1,1.7v0.6c0,1.2-0.1,2.1-0.3,2.5c-0.4,0.7-1.1,1-2.2,1.1h-0.1l-0.1-1.7h0.1
			c0.5,0,0.7-0.1,0.8-0.2c0.1-0.2,0.1-0.7,0.1-1.7v-0.6c0-1-0.1-1.6-0.2-1.7c-0.1-0.1-0.7-0.2-1.8-0.2h-0.6c0.1,0,0.1,0.1,0.2,0.1
			c0.3,0.3,0.5,0.6,0.5,0.9c0.1,0.2,0.1,0.7,0.1,1.5v0.1c0,0.8,0,1.4-0.1,1.7c-0.1,0.5-0.3,0.9-0.5,1.1c-0.3,0.3-0.7,0.5-1.1,0.6
			s-1.1,0.2-1.9,0.2h-0.2c-0.8,0-1.4,0-1.7-0.1c-0.5-0.1-0.9-0.3-1.2-0.5c-0.3-0.3-0.5-0.7-0.6-1.1C21.1,143.6,21,143,21,142.1
			L21,142.1z M22.8,142.1c0,1.1,0.1,1.6,0.2,1.8c0.1,0.1,0.7,0.1,1.7,0.1h0.2c1.1,0,1.7-0.1,1.8-0.2c0.1-0.1,0.2-0.7,0.2-1.7v-0.6
			c0-1-0.1-1.6-0.2-1.7c-0.1-0.1-0.7-0.2-1.7-0.2h-0.4c-1,0-1.5,0-1.6,0.1s-0.2,0.7-0.2,1.8V142.1z"/>
		<path class="st0" d="M17.9,125.9v-1.8H29v1.8h-0.8c0.1,0,0.1,0.1,0.2,0.1c0.3,0.3,0.4,0.6,0.5,0.9c0.1,0.2,0.1,0.7,0.1,1.5v0.1
			c0,0.8,0,1.4-0.1,1.7c-0.1,0.5-0.3,0.9-0.5,1.1c-0.3,0.3-0.7,0.5-1.1,0.6s-1.1,0.2-1.9,0.2h-0.6c-0.8,0-1.4,0-1.7-0.1
			c-0.5-0.1-0.9-0.3-1.2-0.5c-0.3-0.3-0.5-0.7-0.6-1.1c-0.1-0.4-0.2-1.1-0.2-1.9v-0.1c0-0.8,0-1.3,0.1-1.6c0.1-0.3,0.3-0.6,0.6-0.8
			L17.9,125.9L17.9,125.9z M24.5,125.9c-0.9,0-1.4,0-1.5,0.1s-0.2,0.7-0.2,1.8v0.6c0,1.1,0.1,1.6,0.2,1.8c0.1,0.1,0.7,0.1,1.7,0.1
			h0.6c1.1,0,1.6-0.1,1.8-0.2c0.1-0.1,0.2-0.7,0.2-1.7v-0.6c0-1-0.1-1.6-0.2-1.7s-0.7-0.2-1.7-0.2L24.5,125.9L24.5,125.9z"/>
		<path class="st0" d="M29,114.3v1.7h-0.6c0.3,0.2,0.4,0.6,0.5,1c0,0.3,0.1,0.9,0.1,1.7v0.1c0,1.5-0.1,2.5-0.3,2.8
			c-0.2,0.4-0.4,0.6-0.8,0.7c-0.2,0.1-0.6,0.1-1.2,0.1h-0.3c-0.6,0-1,0-1.2-0.1c-0.3-0.1-0.6-0.3-0.8-0.7c-0.2-0.4-0.3-1.3-0.3-2.8
			v-0.2c0-0.8,0-1.4,0.1-1.7c0.1-0.5,0.2-0.8,0.5-1c-0.9,0-1.4,0.1-1.6,0.3c-0.2,0.2-0.2,0.8-0.2,1.8v0.7c0,0.7,0,1.2,0,1.4
			c0,0.2,0,0.3,0,0.4c0,0,0.1,0.1,0.3,0.1l0.3,0.1l-0.3,1.7l-0.7-0.2c-0.6-0.2-1-0.5-1.2-1.1c-0.1-0.4-0.2-1.2-0.2-2.4V118
			c0-1.1,0-1.8,0.1-2.2c0.1-0.5,0.2-0.9,0.4-1.1c0.2-0.2,0.6-0.4,1.2-0.4c0.4,0,1.2-0.1,2.3-0.1L29,114.3L29,114.3z M25.8,120
			c0,0.3,0,0.4,0.1,0.6c0.1,0.1,0.2,0.2,0.4,0.2h0.3c0.3,0,0.5-0.2,0.5-0.6V117c0-0.3,0-0.5-0.1-0.7c0-0.1-0.1-0.2-0.2-0.3
			c-0.1,0-0.2-0.1-0.4-0.1c-0.2,0-0.3,0-0.4,0s-0.2,0.1-0.2,0.2c-0.1,0.2-0.1,0.4-0.1,0.8v3.1H25.8z"/>
		<path class="st0" d="M25.5,107v-1.8h1.2c0.3,0,0.6,0,0.8,0.1c0.3,0.1,0.6,0.2,0.8,0.4c0.2,0.2,0.4,0.4,0.5,0.8
			c0.1,0.2,0.1,0.5,0.1,0.8c0,0.1,0,0.3,0,0.5c0,0.3,0,0.5,0,0.6v0.6c0,0.2,0,0.4,0,0.5c0,0.3,0,0.6-0.1,0.8
			c-0.1,0.3-0.2,0.6-0.4,0.8c-0.2,0.2-0.5,0.4-0.9,0.5c-0.2,0.1-0.5,0.1-0.9,0.1h-4.1v1.2H21v-1.2h-3.1v-1.8H21v-4.3h1.6v4.3h4
			c0.2,0,0.3,0,0.4-0.1s0.2-0.2,0.2-0.4c0-0.1,0-0.3,0-0.4v-1.1c0-0.2,0-0.3,0-0.5s0-0.3-0.1-0.3c0,0-0.2,0-0.4,0L25.5,107L25.5,107
			z"/>
		<path class="st0" d="M29,95.8v1.7h-0.6c0.3,0.2,0.4,0.6,0.5,1c0,0.3,0.1,0.9,0.1,1.7v0.1c0,1.5-0.1,2.5-0.3,2.8
			c-0.2,0.4-0.4,0.6-0.8,0.7c-0.2,0.1-0.6,0.1-1.2,0.1h-0.3c-0.6,0-1,0-1.2-0.1c-0.3-0.1-0.6-0.3-0.8-0.7c-0.2-0.4-0.3-1.3-0.3-2.8
			v-0.2c0-0.8,0-1.4,0.1-1.7c0.1-0.5,0.2-0.8,0.5-1c-0.9,0-1.4,0.1-1.6,0.3c-0.2,0.2-0.2,0.8-0.2,1.8v0.7c0,0.7,0,1.2,0,1.4
			c0,0.2,0,0.3,0,0.4c0,0,0.1,0.1,0.3,0.1l0.3,0.1l-0.3,1.7l-0.7-0.2c-0.6-0.2-1-0.5-1.2-1.1c-0.1-0.4-0.2-1.2-0.2-2.4v-0.7
			c0-1.1,0-1.8,0.1-2.2c0.1-0.5,0.2-0.9,0.4-1.1c0.2-0.2,0.6-0.4,1.2-0.4c0.4,0,1.2-0.1,2.3-0.1L29,95.8L29,95.8z M25.8,101.5
			c0,0.3,0,0.4,0.1,0.6c0.1,0.1,0.2,0.2,0.4,0.2h0.3c0.3,0,0.5-0.2,0.5-0.6v-3.1c0-0.3,0-0.5-0.1-0.7c0-0.1-0.1-0.2-0.2-0.3
			c-0.1,0-0.2-0.1-0.4-0.1c-0.2,0-0.3,0-0.4,0s-0.2,0.1-0.2,0.2c-0.1,0.2-0.1,0.4-0.1,0.8v3H25.8z"/>
		<path class="st0" d="M21.8,92.6c-0.3-0.3-0.5-0.6-0.6-0.8c-0.1-0.3-0.1-0.9-0.1-1.6v-0.1c0-0.8,0.1-1.5,0.2-1.9
			c0.1-0.5,0.3-0.9,0.6-1.1c0.3-0.3,0.7-0.4,1.2-0.5c0.3-0.1,0.9-0.1,1.7-0.1h0.6c0.8,0,1.5,0.1,1.9,0.2c0.5,0.1,0.9,0.3,1.1,0.6
			c0.3,0.3,0.4,0.7,0.5,1.1c0.1,0.3,0.1,0.9,0.1,1.7v0.1c0,0.7,0,1.2-0.1,1.5s-0.2,0.6-0.5,0.9c0,0.1-0.1,0.1-0.2,0.1H29v1.8H17.9
			v-1.8L21.8,92.6L21.8,92.6z M25.4,92.6c1,0,1.5-0.1,1.7-0.2c0.1-0.1,0.2-0.7,0.2-1.7v-0.6c0-1-0.1-1.6-0.2-1.7s-0.7-0.2-1.8-0.2
			h-0.6c-1,0-1.6,0-1.7,0.1s-0.2,0.7-0.2,1.8v0.6c0,1.1,0.1,1.6,0.2,1.8c0.1,0.1,0.6,0.1,1.5,0.1L25.4,92.6L25.4,92.6z"/>
		<path class="st0" d="M29,76.6v1.7h-0.6c0.3,0.2,0.4,0.6,0.5,1c0,0.3,0.1,0.9,0.1,1.7v0.1c0,1.5-0.1,2.5-0.3,2.8
			c-0.2,0.4-0.4,0.6-0.8,0.7c-0.2,0.1-0.6,0.1-1.2,0.1h-0.3c-0.6,0-1,0-1.2-0.1c-0.3-0.1-0.6-0.3-0.8-0.7c-0.2-0.4-0.3-1.3-0.3-2.8
			V81c0-0.8,0-1.4,0.1-1.7c0.1-0.5,0.2-0.8,0.5-1c-0.9,0-1.4,0.1-1.6,0.3c-0.2,0.2-0.2,0.8-0.2,1.8v0.7c0,0.7,0,1.2,0,1.4
			c0,0.2,0,0.3,0,0.4c0,0,0.1,0.1,0.3,0.1l0.3,0.1l-0.3,1.7l-0.7-0.2c-0.6-0.2-1-0.5-1.2-1.1c-0.1-0.4-0.2-1.2-0.2-2.4v-0.7
			c0-1.1,0-1.8,0.1-2.2c0.1-0.5,0.2-0.9,0.4-1.1c0.2-0.2,0.6-0.4,1.2-0.4c0.4,0,1.2-0.1,2.3-0.1L29,76.6L29,76.6z M25.8,82.3
			c0,0.3,0,0.4,0.1,0.6c0.1,0.1,0.2,0.2,0.4,0.2h0.3c0.3,0,0.5-0.2,0.5-0.6v-3.1c0-0.3,0-0.5-0.1-0.7c0-0.1-0.1-0.2-0.2-0.3
			c-0.1,0-0.2-0.1-0.4-0.1c-0.2,0-0.3,0-0.4,0s-0.2,0.1-0.2,0.2c-0.1,0.2-0.1,0.4-0.1,0.8v3H25.8z"/>
		<path class="st0" d="M23.5,67.2V69h-0.4c-0.1,0-0.2,0-0.3,0.1c0,0,0,0.2-0.1,0.4c0,0.3,0,0.8,0,1.4v0.6c0,0.9,0,1.4,0.1,1.6
			c0,0.1,0.1,0.2,0.1,0.2c0.1,0,0.2,0.1,0.4,0.1h0.4c0.2,0,0.3,0,0.4,0s0.1-0.1,0.1-0.2c0-0.3,0-0.8,0-1.6V71c0-1.5,0.1-2.4,0.4-2.8
			c0.2-0.4,0.5-0.6,0.8-0.7c0.2-0.1,0.6-0.1,1.1-0.1h0.2c0.5,0,0.9,0.1,1.2,0.2c0.4,0.2,0.6,0.4,0.8,0.8c0.2,0.4,0.3,1.3,0.3,2.7
			v0.6c0,1.4-0.1,2.3-0.3,2.7c-0.2,0.4-0.5,0.7-0.8,0.8c-0.3,0.1-0.7,0.2-1.2,0.2h-0.2l-0.1-1.8h0.2c0.2,0,0.3,0,0.4,0
			s0.1-0.1,0.1-0.3c0-0.2,0-0.8,0-1.6v-0.6c0-0.8,0-1.3,0-1.5s0-0.3-0.1-0.3c0,0-0.1-0.1-0.2-0.1H26c-0.1,0-0.2,0-0.3,0
			c-0.1,0-0.1,0.2-0.1,0.4c0,0.3,0,0.8,0,1.5v0.6c0,1.4-0.1,2.3-0.3,2.7c-0.2,0.4-0.5,0.7-0.8,0.8c-0.3,0.1-0.7,0.2-1.2,0.2h-0.1
			c-0.5,0-0.9,0-1.1-0.1c-0.3-0.1-0.6-0.4-0.8-0.7c-0.2-0.4-0.4-1.4-0.4-2.8v-0.6c0-1.5,0.1-2.4,0.4-2.8c0.2-0.4,0.5-0.6,0.8-0.7
			c0.2-0.1,0.6-0.1,1.1-0.1h0.3V67.2z"/>
		<path class="st0" d="M24.1,65.7c-1.1,0-1.9-0.2-2.3-0.6c-0.3-0.3-0.5-0.7-0.6-1.1c-0.1-0.5-0.2-1.2-0.2-2v-0.6
			c0-0.8,0.1-1.5,0.2-1.9c0.1-0.5,0.3-0.9,0.6-1.1c0.3-0.3,0.7-0.4,1.1-0.5c0.3-0.1,0.9-0.1,1.7-0.1h1V64c0.8,0,1.3-0.1,1.4-0.2
			c0.1-0.1,0.2-0.7,0.2-1.7v-0.7c0-0.8,0-1.4-0.1-1.6c0-0.1-0.1-0.2-0.2-0.2l-0.5-0.2l0.4-1.6l0.7,0.2c0.7,0.2,1.1,0.7,1.3,1.4
			c0.1,0.4,0.2,1.1,0.2,2V62c0,0.8,0,1.4-0.1,1.7c-0.1,0.5-0.3,0.9-0.5,1.1c-0.4,0.5-1.3,0.7-2.5,0.8L24.1,65.7L24.1,65.7z
			 M24.3,59.5c-0.8,0-1.2,0.1-1.3,0.1c-0.1,0.1-0.2,0.7-0.2,1.8V62c0,1.1,0.1,1.6,0.2,1.8c0.1,0.1,0.5,0.1,1.3,0.1V59.5z"/>
		<path class="st0" d="M23.5,48.3v1.8h-0.4c-0.1,0-0.2,0-0.3,0.1c0,0,0,0.2-0.1,0.4c0,0.3,0,0.8,0,1.4v0.6c0,0.9,0,1.4,0.1,1.6
			c0,0.1,0.1,0.2,0.1,0.2c0.1,0,0.2,0.1,0.4,0.1h0.4c0.2,0,0.3,0,0.4,0s0.1-0.1,0.1-0.2c0-0.3,0-0.8,0-1.6v-0.6
			c0-1.5,0.1-2.4,0.4-2.8c0.2-0.4,0.5-0.6,0.8-0.7c0.2-0.1,0.6-0.1,1.1-0.1h0.2c0.5,0,0.9,0.1,1.2,0.2c0.4,0.2,0.6,0.4,0.8,0.8
			c0.2,0.4,0.3,1.3,0.3,2.7v0.6c0,1.4-0.1,2.3-0.3,2.7c-0.2,0.4-0.5,0.7-0.8,0.8s-0.7,0.2-1.2,0.2h-0.2l-0.1-1.8h0.2
			c0.2,0,0.3,0,0.4,0s0.1-0.1,0.1-0.3s0-0.8,0-1.6v-0.6c0-0.8,0-1.3,0-1.5s0-0.3-0.1-0.3c0,0-0.1-0.1-0.2-0.1H26c-0.1,0-0.2,0-0.3,0
			c-0.1,0-0.1,0.2-0.1,0.4c0,0.3,0,0.8,0,1.5v0.6c0,1.4-0.1,2.3-0.3,2.7c-0.2,0.4-0.5,0.7-0.8,0.8s-0.7,0.2-1.2,0.2h-0.1
			c-0.5,0-0.9,0-1.1-0.1c-0.3-0.1-0.6-0.4-0.8-0.7C21.1,55,21,54,21,52.6V52c0-1.5,0.1-2.4,0.4-2.8c0.2-0.4,0.5-0.6,0.8-0.7
			c0.2-0.1,0.6-0.1,1.1-0.1h0.2V48.3z"/>
	</g>
	<g>
		<path class="st0" d="M29.4,266.5c0,0.7,0,1.3-0.1,1.6c-0.1,0.4-0.3,0.8-0.6,1.1c-0.5,0.4-1.5,0.7-3.1,0.7h-1.3
			c-1.6,0-2.6-0.2-3.1-0.7c-0.3-0.3-0.5-0.6-0.6-1.1c-0.1-0.3-0.1-0.8-0.1-1.6c0-1.3,0.4-2.1,1.2-2.4c-0.7-0.4-1.1-1.2-1.1-2.4v-1.1
			c0.1-0.9,0.5-1.5,1.2-1.8c0.5-0.2,1.3-0.3,2.5-0.3h1.1c1.6,0,2.6,0.2,3.1,0.7c0.3,0.3,0.5,0.6,0.6,1c0.1,0.3,0.1,0.8,0.1,1.6
			c0,1.2-0.4,2-1.1,2.4C29,264.4,29.4,265.2,29.4,266.5z M24.4,265c-1.1,0-1.7,0.1-1.8,0.2c-0.1,0.1-0.1,0.5-0.1,1.3s0,1.2,0.1,1.3
			c0.1,0.1,0.8,0.2,1.9,0.2h1.3c1.1,0,1.7-0.1,1.9-0.2c0.1-0.1,0.1-0.5,0.1-1.3s0-1.3-0.1-1.3c-0.1-0.1-0.7-0.2-1.8-0.2H24.4z
			 M25.5,263.2c1.1,0,1.7-0.1,1.8-0.2c0.1-0.1,0.1-0.5,0.1-1.3s0-1.2-0.1-1.3c-0.1-0.1-0.8-0.2-1.9-0.2h-1.1c-1,0-1.6,0-1.8,0.1
			c-0.1,0-0.1,0.1-0.1,0.3v1c0,0.8,0,1.3,0.1,1.3c0.1,0.1,0.7,0.2,1.8,0.2h1.2V263.2z"/>
	</g>
</g>
</svg>
