<?xml version="1.0" encoding="utf-8"?>
<!-- Generator: Adobe Illustrator 26.1.0, SVG Export Plug-In . SVG Version: 6.00 Build 0)  -->
<svg version="1.1" id="Layer_1" xmlns="http://www.w3.org/2000/svg" xmlns:xlink="http://www.w3.org/1999/xlink" x="0px" y="0px"
	 viewBox="0 0 50 500" style="enable-background:new 0 0 50 500;" xml:space="preserve">
<style type="text/css">
	.st0{fill:#3F3F3F;}
</style>
<g>
	<polygon class="st0" points="50,219.2 25.2,219.2 24.8,219.2 0,219.2 0,221.7 24,221.7 24,246.3 26.4,246.3 26.4,221.7 50,221.7 	
		"/>
	<polygon class="st0" points="26.3,349 26.3,322.7 26.2,322.7 34.5,314.4 26.3,306.1 26.3,279.8 23.7,279.8 23.7,306.1 15.5,314.4 
		23.8,322.7 23.7,322.7 23.7,349 15.5,357.3 23.8,365.6 23.7,365.6 23.7,391.9 15.5,400.1 25,409.6 34.5,400.1 26.3,391.9 
		26.3,365.6 26.2,365.6 34.5,357.3 	"/>
	<g>
		<path class="st0" d="M25.5,200.5v-1.8h1.2c0.3,0,0.6,0,0.8,0.1c0.3,0.1,0.6,0.2,0.8,0.4c0.2,0.2,0.4,0.4,0.5,0.8
			c0.1,0.2,0.1,0.5,0.1,0.8c0,0.1,0,0.3,0,0.5c0,0.3,0,0.5,0,0.6v0.6c0,0.2,0,0.4,0,0.5c0,0.3,0,0.6-0.1,0.8
			c-0.1,0.3-0.2,0.6-0.4,0.8c-0.2,0.2-0.5,0.4-0.9,0.5c-0.2,0.1-0.5,0.1-0.9,0.1h-4.1v1.2H21v-1.2h-3.1v-1.8H21v-4.3h1.6v4.3h4
			c0.2,0,0.3,0,0.4-0.1s0.2-0.2,0.2-0.4c0-0.1,0-0.3,0-0.4v-1.1c0-0.2,0-0.3,0-0.5s0-0.3-0.1-0.3c0,0-0.2,0-0.4,0h-1.2V200.5z"/>
		<path class="st0" d="M24.1,197.6c-1.1,0-1.9-0.2-2.3-0.6c-0.3-0.3-0.5-0.7-0.6-1.1c-0.1-0.4-0.2-1.1-0.2-1.9v-0.6
			c0-0.8,0.1-1.5,0.2-1.9c0.1-0.5,0.3-0.9,0.6-1.1c0.3-0.3,0.7-0.4,1.1-0.5c0.3-0.1,0.9-0.1,1.7-0.1h1v6.2c0.8,0,1.3-0.1,1.4-0.2
			c0.1-0.1,0.2-0.7,0.2-1.7v-0.7c0-0.8,0-1.4-0.1-1.6c0-0.1-0.1-0.2-0.2-0.2l-0.5-0.2l0.4-1.6l0.7,0.2c0.7,0.2,1.1,0.7,1.3,1.4
			c0.1,0.4,0.2,1.1,0.2,2v0.6c0,0.8,0,1.4-0.1,1.7c-0.1,0.5-0.3,0.9-0.5,1.1c-0.4,0.5-1.3,0.7-2.5,0.8L24.1,197.6L24.1,197.6z
			 M24.3,191.4c-0.8,0-1.2,0.1-1.3,0.1c-0.1,0.1-0.2,0.7-0.2,1.8v0.6c0,1.1,0.1,1.6,0.2,1.8c0.1,0.1,0.5,0.1,1.3,0.1V191.4z"/>
		<path class="st0" d="M23.5,180.2v1.8h-0.4c-0.1,0-0.2,0-0.3,0.1c0,0,0,0.2-0.1,0.4c0,0.3,0,0.8,0,1.4v0.6c0,0.9,0,1.4,0.1,1.6
			c0,0.1,0.1,0.2,0.1,0.2c0.1,0,0.2,0.1,0.4,0.1h0.4c0.2,0,0.3,0,0.4,0s0.1-0.1,0.1-0.2c0-0.3,0-0.8,0-1.6V184
			c0-1.5,0.1-2.4,0.4-2.8c0.2-0.4,0.5-0.6,0.8-0.7c0.2-0.1,0.6-0.1,1.1-0.1h0.2c0.5,0,0.9,0.1,1.2,0.2c0.4,0.2,0.6,0.4,0.8,0.8
			c0.2,0.4,0.3,1.3,0.3,2.7v0.6c0,1.4-0.1,2.3-0.3,2.7c-0.2,0.4-0.5,0.7-0.8,0.8s-0.7,0.2-1.2,0.2h-0.2l-0.1-1.8h0.2
			c0.2,0,0.3,0,0.4,0s0.1-0.1,0.1-0.3s0-0.8,0-1.6v-0.6c0-0.8,0-1.3,0-1.5s0-0.3-0.1-0.3c0,0-0.1-0.1-0.2-0.1H26c-0.1,0-0.2,0-0.3,0
			c-0.1,0-0.1,0.2-0.1,0.4c0,0.3,0,0.8,0,1.5v0.6c0,1.4-0.1,2.3-0.3,2.7c-0.2,0.4-0.5,0.7-0.8,0.8s-0.7,0.2-1.2,0.2h-0.1
			c-0.5,0-0.9,0-1.1-0.1c-0.3-0.1-0.6-0.4-0.8-0.7c-0.2-0.4-0.4-1.4-0.4-2.8v-0.6c0-1.5,0.1-2.4,0.4-2.8c0.2-0.4,0.5-0.6,0.8-0.7
			c0.2-0.1,0.6-0.1,1.1-0.1h0.3V180.2z"/>
		<path class="st0" d="M25.5,172.9v-1.8h1.2c0.3,0,0.6,0,0.8,0.1c0.3,0.1,0.6,0.2,0.8,0.4c0.2,0.2,0.4,0.4,0.5,0.8
			c0.1,0.2,0.1,0.5,0.1,0.8c0,0.1,0,0.3,0,0.5c0,0.3,0,0.5,0,0.6v0.6c0,0.2,0,0.4,0,0.5c0,0.3,0,0.6-0.1,0.8
			c-0.1,0.3-0.2,0.6-0.4,0.8c-0.2,0.2-0.5,0.4-0.9,0.5c-0.2,0.1-0.5,0.1-0.9,0.1h-4.1v1.2H21v-1.2h-3.1v-1.8H21v-4.3h1.6v4.3h4
			c0.2,0,0.3,0,0.4-0.1s0.2-0.2,0.2-0.4c0-0.1,0-0.3,0-0.4v-1.1c0-0.2,0-0.3,0-0.5s0-0.3-0.1-0.3c0,0-0.2,0-0.4,0h-1.2V172.9z"/>
		<path class="st0" d="M17.9,169.7v-1.8h1.8v1.8H17.9z M21,169.7v-1.8h8v1.8H21z"/>
		<path class="st0" d="M21,166v-1.8h0.8c-0.5-0.5-0.8-1.3-0.8-2.5v-0.1c0-0.8,0.1-1.5,0.2-1.9c0.1-0.5,0.3-0.9,0.6-1.1
			c0.3-0.3,0.7-0.4,1.1-0.5c0.3-0.1,0.9-0.1,1.7-0.1H29v1.8h-4.3c-1,0-1.6,0-1.7,0.1s-0.2,0.7-0.2,1.8v0.6c0,1.1,0.1,1.6,0.2,1.8
			c0.1,0.1,0.6,0.1,1.6,0.1H29v1.8L21,166L21,166z"/>
		<path class="st0" d="M21,152.9c0-0.8,0-1.3,0.1-1.6s0.3-0.6,0.6-0.8H21v-1.8h7.4c0.8,0,1.5,0.1,1.9,0.2c0.5,0.1,0.9,0.3,1.1,0.6
			c0.3,0.3,0.4,0.7,0.5,1.1c0.1,0.3,0.1,0.9,0.1,1.7v0.6c0,1.2-0.1,2.1-0.3,2.5c-0.4,0.7-1.1,1-2.2,1.1h-0.1l-0.1-1.7h0.1
			c0.5,0,0.7-0.1,0.8-0.2c0.1-0.2,0.1-0.7,0.1-1.7v-0.6c0-1-0.1-1.6-0.2-1.7c-0.1-0.1-0.7-0.2-1.8-0.2h-0.6c0.1,0,0.1,0.1,0.2,0.1
			c0.3,0.3,0.5,0.6,0.5,0.9c0.1,0.2,0.1,0.7,0.1,1.5v0.1c0,0.8,0,1.4-0.1,1.7c-0.1,0.5-0.3,0.9-0.5,1.1c-0.3,0.3-0.7,0.5-1.1,0.6
			s-1.1,0.2-1.9,0.2h-0.2c-0.8,0-1.4,0-1.7-0.1c-0.5-0.1-0.9-0.3-1.2-0.5c-0.3-0.3-0.5-0.7-0.6-1.1C21.1,154.4,21,153.8,21,152.9
			L21,152.9z M22.8,152.9c0,1.1,0.1,1.6,0.2,1.8c0.1,0.1,0.7,0.1,1.7,0.1h0.2c1.1,0,1.7-0.1,1.8-0.2c0.1-0.1,0.2-0.7,0.2-1.7v-0.6
			c0-1-0.1-1.6-0.2-1.7c-0.1-0.1-0.7-0.2-1.7-0.2h-0.4c-1,0-1.5,0-1.6,0.1s-0.2,0.7-0.2,1.8V152.9z"/>
		<path class="st0" d="M25.5,137v-1.8h1.2c0.3,0,0.6,0,0.8,0.1c0.3,0.1,0.6,0.2,0.8,0.4c0.2,0.2,0.4,0.4,0.5,0.8
			c0.1,0.2,0.1,0.5,0.1,0.8c0,0.1,0,0.3,0,0.5c0,0.3,0,0.5,0,0.6v0.6c0,0.2,0,0.4,0,0.5c0,0.3,0,0.6-0.1,0.8
			c-0.1,0.3-0.2,0.6-0.4,0.8c-0.2,0.2-0.5,0.4-0.9,0.5c-0.2,0.1-0.5,0.1-0.9,0.1h-4.1v1.2H21v-1.2h-3.1v-1.8H21v-4.3h1.6v4.3h4
			c0.2,0,0.3,0,0.4-0.1s0.2-0.2,0.2-0.4c0-0.1,0-0.3,0-0.4v-1.1c0-0.2,0-0.3,0-0.5s0-0.3-0.1-0.3c0,0-0.2,0-0.4,0h-1.2V137z"/>
		<path class="st0" d="M17.9,134.1v-1.8H22c-0.1,0-0.1-0.1-0.2-0.1c-0.3-0.3-0.5-0.7-0.6-1.1c-0.1-0.4-0.2-1-0.2-1.6
			s0.1-1.1,0.2-1.6c0.1-0.5,0.3-0.9,0.6-1.1c0.3-0.3,0.7-0.4,1.1-0.5c0.3-0.1,0.9-0.1,1.7-0.1H29v1.8h-4.3c-1,0-1.6,0-1.7,0.1
			c-0.1,0.1-0.2,0.7-0.2,1.8v0.6c0,1.1,0.1,1.6,0.2,1.8c0.1,0.1,0.6,0.1,1.6,0.1H29v1.8H17.9V134.1z"/>
		<path class="st0" d="M24.1,124.7c-1.1,0-1.9-0.2-2.3-0.6c-0.3-0.3-0.5-0.7-0.6-1.1s-0.2-1.1-0.2-1.9v-0.6c0-0.8,0.1-1.5,0.2-1.9
			c0.1-0.5,0.3-0.9,0.6-1.1c0.3-0.3,0.7-0.4,1.1-0.5c0.3-0.1,0.9-0.1,1.7-0.1h1v6.2c0.8,0,1.3-0.1,1.4-0.2s0.2-0.7,0.2-1.7v-0.7
			c0-0.8,0-1.4-0.1-1.6c0-0.1-0.1-0.2-0.2-0.2l-0.5-0.2l0.4-1.6l0.7,0.2c0.7,0.2,1.1,0.7,1.3,1.4c0.1,0.4,0.2,1.1,0.2,2v0.6
			c0,0.8,0,1.4-0.1,1.7c-0.1,0.5-0.3,0.9-0.5,1.1c-0.4,0.5-1.3,0.7-2.5,0.8L24.1,124.7L24.1,124.7z M24.3,118.5
			c-0.8,0-1.2,0.1-1.3,0.1c-0.1,0.1-0.2,0.7-0.2,1.8v0.6c0,1.1,0.1,1.6,0.2,1.8c0.1,0.1,0.5,0.1,1.3,0.1V118.5z"/>
		<path class="st0" d="M21,104h4.3c1.1,0,1.6,0,1.8-0.1c0.1-0.1,0.2-0.6,0.2-1.5s-0.1-1.4-0.2-1.5s-0.7-0.2-1.8-0.2H21v-1.8h4.3
			c1.5,0,2.5,0.2,2.9,0.6c0.3,0.3,0.5,0.6,0.6,1.1c0.1,0.4,0.1,1,0.1,1.7c0,0.8-0.1,1.3-0.2,1.6c-0.1,0.3-0.3,0.6-0.7,0.8
			c-0.1,0.1-0.2,0.1-0.3,0.2c0.1,0.1,0.2,0.2,0.3,0.2c0.3,0.3,0.5,0.6,0.6,0.8c0.1,0.3,0.1,0.8,0.1,1.5c0,0.8-0.1,1.4-0.2,1.8
			c-0.1,0.5-0.3,0.8-0.7,1.1c-0.3,0.2-0.7,0.4-1.1,0.5c-0.3,0-0.9,0.1-1.7,0.1h-4v-1.8h4.3c1.1,0,1.6,0,1.8-0.1
			c0.1-0.1,0.2-0.6,0.2-1.5s-0.1-1.4-0.2-1.5s-0.7-0.2-1.8-0.2H21V104z"/>
		<path class="st0" d="M24.1,97.4c-1.1,0-1.9-0.2-2.3-0.6c-0.3-0.3-0.5-0.7-0.6-1.1S21,94.6,21,93.8v-0.6c0-0.8,0.1-1.5,0.2-1.9
			c0.1-0.5,0.3-0.9,0.6-1.1c0.3-0.3,0.7-0.4,1.1-0.5c0.3-0.1,0.9-0.1,1.7-0.1h1v6.2c0.8,0,1.3-0.1,1.4-0.2s0.2-0.7,0.2-1.7v-0.7
			c0-0.8,0-1.4-0.1-1.6c0-0.1-0.1-0.2-0.2-0.2l-0.5-0.2l0.4-1.6l0.7,0.2c0.7,0.2,1.1,0.7,1.3,1.4c0.1,0.4,0.2,1.1,0.2,2v0.6
			c0,0.8,0,1.4-0.1,1.7c-0.1,0.5-0.3,0.9-0.5,1.1c-0.4,0.5-1.3,0.7-2.5,0.8L24.1,97.4L24.1,97.4z M24.3,91.2c-0.8,0-1.2,0.1-1.3,0.1
			c-0.1,0.1-0.2,0.7-0.2,1.8v0.6c0,1.1,0.1,1.6,0.2,1.8c0.1,0.1,0.5,0.1,1.3,0.1V91.2z"/>
		<path class="st0" d="M21.8,86.2c-0.3-0.3-0.5-0.6-0.6-0.8c-0.1-0.3-0.1-0.9-0.1-1.6v-0.1c0-0.8,0.1-1.5,0.2-1.9
			c0.1-0.5,0.3-0.9,0.6-1.1c0.3-0.3,0.7-0.4,1.2-0.5c0.3-0.1,0.9-0.1,1.7-0.1h0.6c0.8,0,1.5,0.1,1.9,0.2c0.5,0.1,0.9,0.3,1.1,0.6
			c0.3,0.3,0.4,0.7,0.5,1.1c0.1,0.3,0.1,0.9,0.1,1.7v0.1c0,0.7,0,1.2-0.1,1.5s-0.2,0.6-0.5,0.9c0,0.1-0.1,0.1-0.2,0.1H29V88H17.9
			v-1.8H21.8z M25.4,86.2c1,0,1.5-0.1,1.7-0.2c0.1-0.1,0.2-0.7,0.2-1.7v-0.6c0-1-0.1-1.6-0.2-1.7s-0.7-0.2-1.8-0.2h-0.6
			c-1,0-1.6,0-1.7,0.1s-0.2,0.7-0.2,1.8v0.6c0,1.1,0.1,1.6,0.2,1.8c0.1,0.1,0.6,0.1,1.5,0.1L25.4,86.2L25.4,86.2z"/>
		<path class="st0" d="M23.5,70.6v1.8h-0.4c-0.1,0-0.2,0-0.3,0.1c0,0,0,0.2-0.1,0.4c0,0.3,0,0.8,0,1.4v0.6c0,0.9,0,1.4,0.1,1.6
			c0,0.1,0.1,0.2,0.1,0.2c0.1,0,0.2,0.1,0.4,0.1h0.4c0.2,0,0.3,0,0.4,0s0.1-0.1,0.1-0.2c0-0.3,0-0.8,0-1.6v-0.6
			c0-1.5,0.1-2.4,0.4-2.8c0.2-0.4,0.5-0.6,0.8-0.7c0.2-0.1,0.6-0.1,1.1-0.1h0.2c0.5,0,0.9,0.1,1.2,0.2c0.4,0.2,0.6,0.4,0.8,0.8
			c0.2,0.4,0.3,1.3,0.3,2.7v0.6c0,1.4-0.1,2.3-0.3,2.7c-0.2,0.4-0.5,0.7-0.8,0.8c-0.3,0.1-0.7,0.2-1.2,0.2h-0.2L26.4,77h0.2
			c0.2,0,0.3,0,0.4,0s0.1-0.1,0.1-0.3c0-0.2,0-0.8,0-1.6v-0.6c0-0.8,0-1.3,0-1.5s0-0.3-0.1-0.3c0,0-0.1-0.1-0.2-0.1H26
			c-0.1,0-0.2,0-0.3,0c-0.1,0-0.1,0.2-0.1,0.4c0,0.3,0,0.8,0,1.5v0.6c0,1.4-0.1,2.3-0.3,2.7c-0.2,0.4-0.5,0.7-0.8,0.8
			c-0.3,0.1-0.7,0.2-1.2,0.2h-0.1c-0.5,0-0.9,0-1.1-0.1c-0.3-0.1-0.6-0.4-0.8-0.7c-0.2-0.4-0.4-1.4-0.4-2.8v-0.6
			c0-1.5,0.1-2.4,0.4-2.8c0.2-0.4,0.5-0.6,0.8-0.7c0.2-0.1,0.6-0.1,1.1-0.1h0.3V70.6z"/>
		<path class="st0" d="M17.9,68.7V67h1.8v1.8h-1.8V68.7z M21,68.7V67h8v1.8h-8V68.7z"/>
		<path class="st0" d="M25.5,59.3v-1.8h1.2c0.3,0,0.6,0,0.8,0.1c0.3,0.1,0.6,0.2,0.8,0.4c0.2,0.2,0.4,0.4,0.5,0.8
			c0.1,0.2,0.1,0.5,0.1,0.8c0,0.1,0,0.3,0,0.5c0,0.3,0,0.5,0,0.6v0.6c0,0.2,0,0.4,0,0.5c0,0.3,0,0.6-0.1,0.8
			c-0.1,0.3-0.2,0.6-0.4,0.8c-0.2,0.2-0.5,0.4-0.9,0.5C27.3,64,27,64,26.6,64h-4.1v1.2H21V64h-3.1v-1.8H21v-4.3h1.6v4.3h4
			c0.2,0,0.3,0,0.4-0.1s0.2-0.2,0.2-0.4c0-0.1,0-0.3,0-0.4v-1.1c0-0.2,0-0.3,0-0.5s0-0.3-0.1-0.3c0,0-0.2,0-0.4,0L25.5,59.3
			L25.5,59.3z"/>
		<path class="st0" d="M24.1,56.4c-1.1,0-1.9-0.2-2.3-0.6c-0.3-0.3-0.5-0.7-0.6-1.1c-0.1-0.4-0.2-1.1-0.2-1.9v-0.6
			c0-0.8,0.1-1.5,0.2-1.9c0.1-0.5,0.3-0.9,0.6-1.1c0.3-0.3,0.7-0.4,1.1-0.5c0.3-0.1,0.9-0.1,1.7-0.1h1v6.2c0.8,0,1.3-0.1,1.4-0.2
			c0.1-0.1,0.2-0.7,0.2-1.7V52c0-0.8,0-1.4-0.1-1.6c0-0.1-0.1-0.2-0.2-0.2L26.5,50l0.4-1.6l0.7,0.2c0.7,0.2,1.1,0.7,1.3,1.4
			c0.1,0.4,0.2,1.1,0.2,2v0.6c0,0.8,0,1.4-0.1,1.7c-0.1,0.5-0.3,0.9-0.5,1.1c-0.4,0.5-1.3,0.7-2.5,0.8h-1.9V56.4z M24.3,50.2
			c-0.8,0-1.2,0.1-1.3,0.1c-0.1,0.1-0.2,0.7-0.2,1.8v0.6c0,1.1,0.1,1.6,0.2,1.8c0.1,0.1,0.5,0.1,1.3,0.1V50.2z"/>
	</g>
	<g>
		<path class="st0" d="M27.6,264.6c-0.1,0.2-0.3,0.3-0.6,0.5c-0.3,0.1-0.6,0.2-0.9,0.2h-1.8c-1.5,0-2.5-0.2-3-0.6
			c-0.3-0.2-0.5-0.6-0.7-1c-0.1-0.3-0.1-0.8-0.1-1.5V262v-0.5c0-0.7,0.1-1.3,0.2-1.6c0.1-0.4,0.4-0.7,0.7-1c0.4-0.3,1.4-0.5,2.8-0.5
			h1.3c1.5,0,2.5,0.2,3,0.6c0.3,0.3,0.5,0.6,0.6,1.1c0.1,0.4,0.1,0.9,0.1,1.7v5.7c0,0.8-0.3,1.3-0.7,1.7c-0.5,0.4-1.5,0.7-3.1,0.7
			h-1.3c-1.6,0-2.6-0.2-3-0.6c-0.3-0.3-0.5-0.6-0.6-1.1c-0.1-0.3-0.1-0.9-0.1-1.6v-0.1h1.8v0.1c0,0.8,0,1.3,0.1,1.3
			c0.1,0.1,0.7,0.2,1.9,0.2h1.3c1.1,0,1.7-0.1,1.9-0.2c0.1-0.1,0.1-0.5,0.1-1.2v-2.1H27.6z M27.6,261.7c0-0.8,0-1.3-0.1-1.3
			c-0.1-0.1-0.7-0.2-1.8-0.2h-1.3c-1.1,0-1.7,0-1.8,0.1c-0.1,0.1-0.1,0.4-0.1,1.1v0.4v0.2c0,0.7,0,1.1,0.1,1.1
			c0.1,0.1,0.8,0.2,1.9,0.2h2.9c0.1,0,0.2,0,0.3-0.1s0.1-0.2,0.1-0.3v-1.2L27.6,261.7L27.6,261.7z"/>
	</g>
</g>
</svg>
