<?xml version="1.0" encoding="utf-8"?>
<!-- Generator: Adobe Illustrator 24.0.2, SVG Export Plug-In . SVG Version: 6.00 Build 0)  -->
<svg version="1.1" id="Layer_1" xmlns="http://www.w3.org/2000/svg" xmlns:xlink="http://www.w3.org/1999/xlink" x="0px" y="0px"
	 viewBox="0 0 1186.3 500" style="enable-background:new 0 0 1186.3 500;" xml:space="preserve">
<style type="text/css">
	.st0{fill:url(#SVGID_1_);}
	.st1{fill:#B6B6B7;}
	.st2{opacity:0.29;}
	.st3{opacity:0.15;}
	.st4{fill:#ECECEC;}
	.st5{fill:none;stroke:url(#SVGID_2_);stroke-width:0.4366;stroke-miterlimit:10;}
	.st6{fill:none;stroke:#005789;stroke-width:0.5;stroke-linecap:round;stroke-linejoin:round;stroke-miterlimit:10;}
	.st7{fill:url(#SVGID_3_);}
	.st8{fill:url(#SVGID_4_);}
	.st9{fill:url(#SVGID_5_);}
	.st10{fill:none;stroke:url(#SVGID_6_);stroke-width:0.1563;stroke-miterlimit:10;}
	.st11{fill:none;stroke:#005789;stroke-width:0.6106;stroke-linecap:round;stroke-linejoin:round;stroke-miterlimit:10;}
	.st12{fill:none;stroke:url(#SVGID_7_);stroke-width:0.4366;stroke-miterlimit:10;}
	.st13{fill:url(#SVGID_8_);}
	.st14{fill:url(#SVGID_9_);}
	.st15{fill:url(#SVGID_10_);}
	.st16{fill:url(#SVGID_11_);}
	.st17{fill:url(#SVGID_12_);}
	.st18{fill:url(#SVGID_13_);}
	.st19{fill:url(#SVGID_14_);}
	.st20{fill:url(#SVGID_15_);}
	.st21{clip-path:url(#SVGID_17_);}
	.st22{fill:url(#SVGID_18_);}
	.st23{clip-path:url(#SVGID_20_);}
	.st24{fill:none;stroke:#005789;stroke-width:0.954;stroke-linecap:round;stroke-linejoin:round;stroke-miterlimit:10;}
	.st25{fill:#C9C9C9;}
	.st26{font-family:'ArialMT';}
	.st27{font-size:4.8141px;}
	.st28{fill:url(#SVGID_21_);}
	.st29{font-size:6.0802px;}
	.st30{fill:none;stroke:#005789;stroke-width:0.5;stroke-miterlimit:10;}
	.st31{fill:none;stroke:url(#SVGID_22_);stroke-width:0.863;stroke-miterlimit:10;}
	.st32{opacity:0.51;}
	.st33{fill:url(#SVGID_23_);}
	.st34{fill:url(#SVGID_24_);}
	.st35{fill:none;stroke:url(#SVGID_25_);stroke-width:0.4366;stroke-miterlimit:10;}
	.st36{fill:url(#SVGID_26_);}
	.st37{fill:url(#SVGID_27_);}
	.st38{fill:url(#SVGID_28_);}
	.st39{fill:url(#SVGID_29_);}
	.st40{fill:none;stroke:url(#SVGID_30_);stroke-width:0.2448;stroke-miterlimit:10;}
	.st41{fill:#005789;}
	.st42{fill:none;stroke:url(#SVGID_31_);stroke-width:0.163;stroke-miterlimit:10;}
	.st43{fill:none;stroke:#FFFFFF;stroke-width:0.954;stroke-linecap:round;stroke-linejoin:round;stroke-miterlimit:10;}
	.st44{fill:none;stroke:url(#SVGID_32_);stroke-width:0.4366;stroke-miterlimit:10;}
</style>
<g id="BACKGROUND">
	
		<linearGradient id="SVGID_1_" gradientUnits="userSpaceOnUse" x1="336.5973" y1="-192.3345" x2="849.6705" y2="696.3345" gradientTransform="matrix(1 0 0 -1 0 502)">
		<stop  offset="0" style="stop-color:#FFFFFF"/>
		<stop  offset="1" style="stop-color:#DCDCDC"/>
	</linearGradient>
	<rect class="st0" width="1186.3" height="500"/>
</g>
<g id="OBJECTS">
	<g>
		<g>
			<g>
				
					<image style="overflow:visible;opacity:0.75;enable-background:new    ;" width="53" height="54" xlink:href="4CD3FBDC.png"  transform="matrix(1.4886 0 0 0.9811 154.0489 272.9068)">
				</image>
				<path class="st1" d="M179,317.3h34.2c4.2,0,7.6-2.3,7.6-5v-22.5c0-2.8-3.4-5-7.6-5H179c-4.2,0-7.6,2.3-7.6,5v22.5
					C171.4,315,174.8,317.3,179,317.3z"/>
			</g>
		</g>
		<g>
			<g>
				
					<image style="overflow:visible;opacity:0.75;enable-background:new    ;" width="53" height="54" xlink:href="4CD3FBDE.png"  transform="matrix(1.4886 0 0 0.9811 979.4256 320.9068)">
				</image>
				<path class="st1" d="M1004.4,365.6h34.2c4.2,0,7.6-2.3,7.6-5v-22.5c0-2.8-3.4-5-7.6-5h-34.2c-4.2,0-7.6,2.3-7.6,5v22.5
					C996.8,363.4,1000.2,365.6,1004.4,365.6z"/>
			</g>
		</g>
		<g class="st2">
			<g>
				
					<image style="overflow:visible;opacity:0.75;enable-background:new    ;" width="53" height="54" xlink:href="4CD3FBDA.png"  transform="matrix(1.4886 0 0 0.9811 93.3594 232.9068)">
				</image>
				<path class="st1" d="M118.3,277.3h34.2c4.2,0,7.6-2.3,7.6-5v-22.5c0-2.8-3.4-5-7.6-5h-34.2c-4.2,0-7.6,2.3-7.6,5v22.5
					C110.7,275,114.1,277.3,118.3,277.3z"/>
			</g>
		</g>
		<g class="st3">
			<g>
				
					<image style="overflow:visible;opacity:0.75;enable-background:new    ;" width="54" height="54" xlink:href="4CD3FBDB.png"  transform="matrix(1.4891 0 0 0.9815 151.0144 193.8974)">
				</image>
				<path class="st1" d="M176.9,238.6h34.2c4.2,0,7.6-2.3,7.6-5v-22.5c0-2.8-3.4-5-7.6-5H177c-4.2,0-7.6,2.3-7.6,5v22.5
					C169.4,236.4,172.8,238.6,176.9,238.6z"/>
			</g>
		</g>
		<g class="st2">
			<g>
				
					<image style="overflow:visible;opacity:0.75;enable-background:new    ;" width="53" height="54" xlink:href="4CD3FBD4.png"  transform="matrix(1.4886 0 0 0.9811 879.288 193.9068)">
				</image>
				<path class="st1" d="M904.2,238.6h34.2c4.2,0,7.6-2.3,7.6-5v-22.5c0-2.8-3.4-5-7.6-5h-34.2c-4.2,0-7.6,2.3-7.6,5v22.5
					C896.6,236.4,900,238.6,904.2,238.6z"/>
			</g>
		</g>
		<g class="st3">
			<g>
				
					<image style="overflow:visible;opacity:0.75;enable-background:new    ;" width="54" height="53" xlink:href="4CD3FBC9.png"  transform="matrix(1.4886 0 0 0.9811 983.9916 153.8974)">
				</image>
				<path class="st1" d="M1009.9,197.9h34.2c4.2,0,7.6-2.3,7.6-5v-22.5c0-2.8-3.4-5-7.6-5h-34.2c-4.2,0-7.6,2.3-7.6,5v22.5
					C1002.3,195.7,1005.8,197.9,1009.9,197.9z"/>
			</g>
		</g>
		<g class="st3">
			<g>
				
					<image style="overflow:visible;opacity:0.75;enable-background:new    ;" width="30" height="30" xlink:href="4CD3FBCA.png"  transform="matrix(1.4667 0 0 0.9667 67.8255 146.0682)">
				</image>
				<path class="st1" d="M81.9,170.8h18.6c2.3,0,4.1-1.2,4.1-2.7v-12.2c0-1.5-1.9-2.7-4.1-2.7H81.9c-2.3,0-4.1,1.2-4.1,2.7v12.2
					C77.8,169.6,79.7,170.8,81.9,170.8z"/>
			</g>
		</g>
		<g class="st3">
			<g>
				
					<image style="overflow:visible;opacity:0.75;enable-background:new    ;" width="30" height="30" xlink:href="4CD3FBCB.png"  transform="matrix(1.4667 0 0 0.9667 67.8255 120.0682)">
				</image>
				<path class="st1" d="M81.9,144.8h18.6c2.3,0,4.1-1.2,4.1-2.7v-12.2c0-1.5-1.9-2.7-4.1-2.7H81.9c-2.3,0-4.1,1.2-4.1,2.7v12.2
					C77.8,143.6,79.7,144.8,81.9,144.8z"/>
			</g>
		</g>
		<g class="st3">
			<g>
				
					<image style="overflow:visible;opacity:0.75;enable-background:new    ;" width="30" height="30" xlink:href="4CD3FBCC.png"  transform="matrix(1.4667 0 0 0.9667 67.8255 94.0682)">
				</image>
				<path class="st1" d="M81.9,118.8h18.6c2.3,0,4.1-1.2,4.1-2.7v-12.2c0-1.5-1.9-2.7-4.1-2.7H81.9c-2.3,0-4.1,1.2-4.1,2.7v12.2
					C77.8,117.6,79.7,118.8,81.9,118.8z"/>
			</g>
		</g>
		<g class="st3">
			<g>
				
					<image style="overflow:visible;opacity:0.75;enable-background:new    ;" width="30" height="30" xlink:href="1AA365DF.png"  transform="matrix(1.4667 0 0 0.9667 419.8244 43.0682)">
				</image>
				<path class="st1" d="M434.5,67.8H453c2.3,0,4.1-1.2,4.1-2.7V52.9c0-1.5-1.9-2.7-4.1-2.7h-18.5c-2.3,0-4.1,1.2-4.1,2.7v12.2
					C430.3,66.6,432.2,67.8,434.5,67.8z"/>
			</g>
		</g>
		<g class="st3">
			<g>
				
					<image style="overflow:visible;opacity:0.75;enable-background:new    ;" width="30" height="30" xlink:href="1AA365DB.png"  transform="matrix(1.4667 0 0 0.9667 447.1347 26.0682)">
				</image>
				<path class="st1" d="M461.8,50.8h18.5c2.3,0,4.1-1.2,4.1-2.7V35.9c0-1.5-1.9-2.7-4.1-2.7h-18.5c-2.3,0-4.1,1.2-4.1,2.7v12.2
					C457.7,49.6,459.5,50.8,461.8,50.8z"/>
			</g>
		</g>
		<g class="st3">
			<g>
				
					<image style="overflow:visible;opacity:0.75;enable-background:new    ;" width="30" height="30" xlink:href="1AA365C6.png"  transform="matrix(1.4667 0 0 0.9667 1014.5812 26.0682)">
				</image>
				<path class="st1" d="M1029.2,50.8h18.5c2.3,0,4.1-1.2,4.1-2.7V35.9c0-1.5-1.9-2.7-4.1-2.7h-18.5c-2.3,0-4.1,1.2-4.1,2.7v12.2
					C1025.1,49.6,1026.9,50.8,1029.2,50.8z"/>
			</g>
		</g>
		<g class="st3">
			<g>
				
					<image style="overflow:visible;opacity:0.75;enable-background:new    ;" width="29" height="30" xlink:href="1AA365C7.png"  transform="matrix(1.4649 0 0 0.9655 107.2737 400.0854)">
				</image>
				<path class="st1" d="M120.9,424.8h18.5c2.3,0,4.1-1.2,4.1-2.7v-12.2c0-1.5-1.9-2.7-4.1-2.7h-18.5c-2.3,0-4.1,1.2-4.1,2.7v12.2
					C116.8,423.6,118.6,424.8,120.9,424.8z"/>
			</g>
		</g>
		<g>
			<g>
				
					<image style="overflow:visible;opacity:0.75;enable-background:new    ;" width="16" height="16" xlink:href="1AA365D7.png"  transform="matrix(1.4224 0 0 0.9375 1004.6452 49.5195)">
				</image>
				<path class="st1" d="M1011.6,62.5h9.3c1.1,0,2.1-0.6,2.1-1.4V55c0-0.8-0.9-1.4-2.1-1.4h-9.3c-1.1,0-2.1,0.6-2.1,1.4v6.1
					C1009.6,61.8,1010.5,62.5,1011.6,62.5z"/>
			</g>
		</g>
		<g class="st3">
			<g>
				
					<image style="overflow:visible;opacity:0.75;enable-background:new    ;" width="29" height="30" xlink:href="1AA365CD.png"  transform="matrix(1.4649 0 0 0.9655 1037.3397 422.0854)">
				</image>
				<path class="st1" d="M1051,446.8h18.5c2.3,0,4.1-1.2,4.1-2.7v-12.2c0-1.5-1.9-2.7-4.1-2.7H1051c-2.3,0-4.1,1.2-4.1,2.7v12.2
					C1046.8,445.6,1048.7,446.8,1051,446.8z"/>
			</g>
		</g>
		<g class="st3">
			<g>
				
					<image style="overflow:visible;opacity:0.75;enable-background:new    ;" width="30" height="30" xlink:href="1AA365CF.png"  transform="matrix(1.4667 0 0 0.9667 997.8915 422.0682)">
				</image>
				<path class="st1" d="M1012.5,446.8h18.5c2.3,0,4.1-1.2,4.1-2.7v-12.2c0-1.5-1.9-2.7-4.1-2.7h-18.5c-2.3,0-4.1,1.2-4.1,2.7v12.2
					C1008.4,445.6,1010.3,446.8,1012.5,446.8z"/>
			</g>
		</g>
		<g class="st3">
			<g>
				
					<image style="overflow:visible;opacity:0.75;enable-background:new    ;" width="30" height="30" xlink:href="1AA365CC.png"  transform="matrix(1.4667 0 0 0.9667 959.9606 422.0682)">
				</image>
				<path class="st1" d="M974.1,446.8h18.5c2.3,0,4.1-1.2,4.1-2.7v-12.2c0-1.5-1.9-2.7-4.1-2.7h-18.5c-2.3,0-4.1,1.2-4.1,2.7v12.2
					C970,445.6,971.8,446.8,974.1,446.8z"/>
			</g>
		</g>
		<g class="st3">
			<g>
				
					<image style="overflow:visible;opacity:0.75;enable-background:new    ;" width="30" height="30" xlink:href="1AA365C4.png"  transform="matrix(1.4667 0 0 0.9667 422.8589 422.0682)">
				</image>
				<path class="st1" d="M437,446.8h18.5c2.3,0,4.1-1.2,4.1-2.7v-12.2c0-1.5-1.9-2.7-4.1-2.7H437c-2.3,0-4.1,1.2-4.1,2.7v12.2
					C432.9,445.6,434.7,446.8,437,446.8z"/>
			</g>
		</g>
		<g class="st3">
			<g>
				
					<image style="overflow:visible;opacity:0.75;enable-background:new    ;" width="30" height="30" xlink:href="1AA365C5.png"  transform="matrix(1.4667 0 0 0.9667 394.0314 440.0682)">
				</image>
				<path class="st1" d="M408.1,464.8h18.5c2.3,0,4.1-1.2,4.1-2.7v-12.2c0-1.5-1.9-2.7-4.1-2.7h-18.5c-2.3,0-4.1,1.2-4.1,2.7v12.2
					C404,463.6,405.9,464.8,408.1,464.8z"/>
			</g>
		</g>
		<g class="st3">
			<g>
				
					<image style="overflow:visible;opacity:0.75;enable-background:new    ;" width="29" height="30" xlink:href="1AA365EE.png"  transform="matrix(1.4649 0 0 0.9655 1037.3397 396.0854)">
				</image>
				<path class="st1" d="M1051,420.8h18.5c2.3,0,4.1-1.2,4.1-2.7v-12.2c0-1.5-1.9-2.7-4.1-2.7H1051c-2.3,0-4.1,1.2-4.1,2.7v12.2
					C1046.8,419.6,1048.7,420.8,1051,420.8z"/>
			</g>
		</g>
		<g class="st3">
			<g>
				
					<image style="overflow:visible;opacity:0.75;enable-background:new    ;" width="29" height="30" xlink:href="1AA365E2.png"  transform="matrix(1.4649 0 0 0.9655 1037.3397 370.0854)">
				</image>
				<path class="st1" d="M1051,394.8h18.5c2.3,0,4.1-1.2,4.1-2.7v-12.2c0-1.5-1.9-2.7-4.1-2.7H1051c-2.3,0-4.1,1.2-4.1,2.7v12.2
					C1046.8,393.6,1048.7,394.8,1051,394.8z"/>
			</g>
		</g>
	</g>
	<g>
		<g>
			<g>
				<g>
					<g>
						<g>
							<g>
								
									<image style="overflow:visible;opacity:0.75;enable-background:new    ;" width="79" height="79" xlink:href="1AA365E3.png"  transform="matrix(1.498 0 0 0.9873 10.376 441.2036)">
								</image>
								<path class="st4" d="M33.7,498.5h51.9c6.3,0,11.5-3.4,11.5-7.6v-34.2c0-4.2-5.2-7.6-11.5-7.6H33.7c-6.3,0-11.5,3.4-11.5,7.6
									v34.2C22.3,495,27.4,498.5,33.7,498.5z"/>
							</g>
						</g>
						<g>
							<g>
								
									<image style="overflow:visible;opacity:0.75;enable-background:new    ;" width="79" height="80" xlink:href="1AA365E6.png"  transform="matrix(1.498 0 0 0.9873 -4.7964 431.2099)">
								</image>
								<path class="st4" d="M33.7,498.5h51.9c6.3,0,11.5-3.4,11.5-7.6v-34.2c0-4.2-5.2-7.6-11.5-7.6H33.7c-6.3,0-11.5,3.4-11.5,7.6
									v34.2C22.3,495,27.4,498.5,33.7,498.5z"/>
							</g>
						</g>
						
							<linearGradient id="SVGID_2_" gradientUnits="userSpaceOnUse" x1="188.6708" y1="28.2" x2="263.9678" y2="28.2" gradientTransform="matrix(-1 0 0 -1 286 502)">
							<stop  offset="0" style="stop-color:#FFFFFF"/>
							<stop  offset="1" style="stop-color:#FFFFFF;stop-opacity:0.2"/>
						</linearGradient>
						<path class="st5" d="M33.7,498.5h51.9c6.3,0,11.5-3.4,11.5-7.6v-34.2c0-4.2-5.2-7.6-11.5-7.6H33.7c-6.3,0-11.5,3.4-11.5,7.6
							v34.2C22.3,495,27.4,498.5,33.7,498.5z"/>
					</g>
				</g>
				<g>
					<g>
						<g>
							<path class="st6" d="M71.8,469.2c-0.3,0-0.6,0-0.9,0c-1.2-2.6-4.9-4.5-9.2-4.5c-5.2,0-9.5,2.8-9.6,6.2
								c-2.5-0.3-5.1,0.3-7.1,1.5c-3.2,2.1-3.2,5.5,0,7.7c1.7,1.1,3.9,1.8,6.1,1.7l0,0h20.6c5.3,0,9.6-2.8,9.6-6.3
								C81.4,472.1,77.1,469.2,71.8,469.2z"/>
							<path class="st6" d="M41.7,472.5c-1.6-1.2-2.5-2.8-2.5-4.5c0-3.8,4.7-6.9,10.4-6.9c2.6,0,4.9,0.6,6.8,1.6"/>
							<line class="st6" x1="41.7" y1="461.3" x2="38.8" y2="459.3"/>
						</g>
						<line class="st6" x1="56.5" y1="461.2" x2="59.8" y2="459.2"/>
						<line class="st6" x1="36.3" y1="474.6" x2="39.6" y2="472.6"/>
						<line class="st6" x1="49.4" y1="459.6" x2="49.4" y2="457.1"/>
						<line class="st6" x1="37.6" y1="466.9" x2="33.7" y2="466.9"/>
					</g>
					<g>
						<g>
							
								<linearGradient id="SVGID_3_" gradientUnits="userSpaceOnUse" x1="56.1621" y1="13.025" x2="69.1118" y2="13.025" gradientTransform="matrix(1 0 0 -1 0 502)">
								<stop  offset="0" style="stop-color:#BABABA"/>
								<stop  offset="1" style="stop-color:#999999"/>
							</linearGradient>
							<path class="st7" d="M57.6,487.3L57.6,487.3l-1.2,0.4l-0.2-0.5l1.5-0.5h0.8v4.5h-0.9L57.6,487.3L57.6,487.3z"/>
							
								<linearGradient id="SVGID_4_" gradientUnits="userSpaceOnUse" x1="56.1621" y1="13.03" x2="69.1118" y2="13.03" gradientTransform="matrix(1 0 0 -1 0 502)">
								<stop  offset="0" style="stop-color:#BABABA"/>
								<stop  offset="1" style="stop-color:#999999"/>
							</linearGradient>
							<path class="st8" d="M64.9,487.1c-0.2,0-0.4,0-0.7,0c-1.5,0.2-2.2,0.9-2.4,1.6h0c0.3-0.3,0.9-0.5,1.7-0.5
								c1.2,0,2.1,0.6,2.1,1.5c0,0.8-0.9,1.6-2.3,1.6c-1.5,0-2.4-0.8-2.4-1.9c0-0.9,0.5-1.6,1.2-2c0.6-0.4,1.3-0.6,2.2-0.7
								c0.3,0,0.5,0,0.7,0L64.9,487.1L64.9,487.1z M64.7,489.8c0-0.6-0.6-1-1.4-1c-0.6,0-1.1,0.2-1.3,0.6c-0.1,0.1-0.1,0.2-0.1,0.3
								c0,0.8,0.5,1.3,1.5,1.3C64.1,490.9,64.7,490.4,64.7,489.8z"/>
							
								<linearGradient id="SVGID_5_" gradientUnits="userSpaceOnUse" x1="56.1621" y1="14.0601" x2="69.1118" y2="14.0601" gradientTransform="matrix(1 0 0 -1 0 502)">
								<stop  offset="0" style="stop-color:#BABABA"/>
								<stop  offset="1" style="stop-color:#999999"/>
							</linearGradient>
							<path class="st9" d="M69.1,487.9c0,0.7-0.8,1-1.5,1c-0.8,0-1.4-0.4-1.4-1c0-0.7,0.7-1,1.5-1
								C68.5,486.9,69.1,487.3,69.1,487.9z M66.7,487.9c0,0.4,0.4,0.8,0.9,0.8c0.5,0,0.9-0.3,0.9-0.8c0-0.3-0.3-0.8-0.9-0.8
								C67,487.2,66.7,487.6,66.7,487.9z"/>
						</g>
					</g>
				</g>
			</g>
			<g>
				<g>
					<g>
						<g>
							<g>
								
									<image style="overflow:visible;opacity:0.75;enable-background:new    ;" width="29" height="30" xlink:href="1AA365E1.png"  transform="matrix(1.4649 0 0 0.9655 17.7432 6.0765)">
								</image>
								<path class="st4" d="M26.4,27.1h18.6c2.3,0,4.1-1.2,4.1-2.7V12.2c0-1.5-1.9-2.7-4.1-2.7H26.4c-2.3,0-4.1,1.2-4.1,2.7v12.2
									C22.3,25.9,24.1,27.1,26.4,27.1z"/>
							</g>
						</g>
						<g>
							<g>
								
									<image style="overflow:visible;opacity:0.52;enable-background:new    ;" width="30" height="29" xlink:href="1AA365E0.png"  transform="matrix(1.4649 0 0 0.9655 11.7004 3.0593)">
								</image>
								<path class="st4" d="M26.4,27.1h18.6c2.3,0,4.1-1.2,4.1-2.7V12.2c0-1.5-1.9-2.7-4.1-2.7H26.4c-2.3,0-4.1,1.2-4.1,2.7v12.2
									C22.3,25.9,24.1,27.1,26.4,27.1z"/>
							</g>
						</g>
						
							<linearGradient id="SVGID_6_" gradientUnits="userSpaceOnUse" x1="236.877" y1="483.695" x2="263.8277" y2="483.695" gradientTransform="matrix(-1 0 0 -1 286 502)">
							<stop  offset="0" style="stop-color:#FFFFFF"/>
							<stop  offset="1" style="stop-color:#FFFFFF;stop-opacity:0.2"/>
						</linearGradient>
						<path class="st10" d="M26.4,27.1h18.6c2.3,0,4.1-1.2,4.1-2.7V12.2c0-1.5-1.9-2.7-4.1-2.7H26.4c-2.3,0-4.1,1.2-4.1,2.7v12.2
							C22.3,25.9,24.1,27.1,26.4,27.1z"/>
					</g>
				</g>
				<g>
					<path class="st11" d="M38.6,15c2.2,0.7,3.7,2.3,3.6,4c-0.2,2.3-3.2,4.1-6.7,4c-3.5-0.1-6.3-2.1-6.1-4.4
						c0.1-1.5,1.5-2.9,3.4-3.5"/>
					<line class="st11" x1="35.8" y1="17.6" x2="35.8" y2="12.4"/>
				</g>
			</g>
			<g>
				<g>
					<g>
						<g>
							<g>
								
									<image style="overflow:visible;opacity:0.75;enable-background:new    ;" width="80" height="80" xlink:href="1AA365DD.png"  transform="matrix(1.4983 0 0 0.9875 803.8907 28.2036)">
								</image>
								<path class="st4" d="M827.9,85.8h51.9c6.3,0,11.5-3.4,11.5-7.6V44.1c0-4.2-5.2-7.6-11.5-7.6h-51.9c-6.3,0-11.5,3.4-11.5,7.6
									v34.2C816.4,82.4,821.5,85.8,827.9,85.8z"/>
							</g>
						</g>
						<g>
							<g>
								
									<image style="overflow:visible;opacity:0.75;enable-background:new    ;" width="80" height="79" xlink:href="1AA3661C.png"  transform="matrix(1.498 0 0 0.9873 788.728 19.2036)">
								</image>
								<path class="st4" d="M827.9,85.8h51.9c6.3,0,11.5-3.4,11.5-7.6V44.1c0-4.2-5.2-7.6-11.5-7.6h-51.9c-6.3,0-11.5,3.4-11.5,7.6
									v34.2C816.4,82.4,821.5,85.8,827.9,85.8z"/>
							</g>
						</g>
						
							<linearGradient id="SVGID_7_" gradientUnits="userSpaceOnUse" x1="-605.4357" y1="440.85" x2="-530.1538" y2="440.85" gradientTransform="matrix(-1 0 0 -1 286 502)">
							<stop  offset="0" style="stop-color:#FFFFFF"/>
							<stop  offset="1" style="stop-color:#FFFFFF;stop-opacity:0.2"/>
						</linearGradient>
						<path class="st12" d="M827.9,85.8h51.9c6.3,0,11.5-3.4,11.5-7.6V44.1c0-4.2-5.2-7.6-11.5-7.6h-51.9c-6.3,0-11.5,3.4-11.5,7.6
							v34.2C816.4,82.4,821.5,85.8,827.9,85.8z"/>
					</g>
				</g>
				<g>
					<g>
						
							<linearGradient id="SVGID_8_" gradientUnits="userSpaceOnUse" x1="834.8882" y1="429.71" x2="865.2285" y2="429.71" gradientTransform="matrix(1 0 0 -1 0 502)">
							<stop  offset="0" style="stop-color:#BABABA"/>
							<stop  offset="1" style="stop-color:#999999"/>
						</linearGradient>
						<path class="st13" d="M834.9,70.6h2.8V71h-2.1v1.1h1.9v0.4h-1.9V74h-0.7V70.6z"/>
						
							<linearGradient id="SVGID_9_" gradientUnits="userSpaceOnUse" x1="834.8882" y1="429.715" x2="865.2285" y2="429.715" gradientTransform="matrix(1 0 0 -1 0 502)">
							<stop  offset="0" style="stop-color:#BABABA"/>
							<stop  offset="1" style="stop-color:#999999"/>
						</linearGradient>
						<path class="st14" d="M839.4,72.9l-0.5,1.1h-0.7l1.7-3.4h0.8l1.7,3.4h-0.7l-0.5-1.1H839.4z M841.1,72.6l-0.5-1
							c-0.1-0.2-0.2-0.4-0.3-0.6h0c-0.1,0.2-0.2,0.4-0.3,0.6l-0.5,1H841.1z"/>
						
							<linearGradient id="SVGID_10_" gradientUnits="userSpaceOnUse" x1="834.8882" y1="429.72" x2="865.2285" y2="429.72" gradientTransform="matrix(1 0 0 -1 0 502)">
							<stop  offset="0" style="stop-color:#BABABA"/>
							<stop  offset="1" style="stop-color:#999999"/>
						</linearGradient>
						<path class="st15" d="M844.3,74l-1.7-3.4h0.7l0.8,1.7c0.2,0.5,0.4,0.9,0.5,1.3h0c0.2-0.4,0.4-0.8,0.6-1.3l0.9-1.7h0.7
							l-1.8,3.4L844.3,74L844.3,74z"/>
						
							<linearGradient id="SVGID_11_" gradientUnits="userSpaceOnUse" x1="834.8882" y1="429.71" x2="865.2285" y2="429.71" gradientTransform="matrix(1 0 0 -1 0 502)">
							<stop  offset="0" style="stop-color:#BABABA"/>
							<stop  offset="1" style="stop-color:#999999"/>
						</linearGradient>
						<path class="st16" d="M851.8,72.3c0,1.2-1.1,1.8-2.4,1.8c-1.4,0-2.3-0.7-2.3-1.7c0-1.1,1-1.8,2.4-1.8
							C850.9,70.6,851.8,71.3,851.8,72.3z M847.9,72.3c0,0.7,0.6,1.4,1.6,1.4s1.6-0.6,1.6-1.4c0-0.7-0.5-1.4-1.6-1.4
							C848.4,70.9,847.9,71.6,847.9,72.3z"/>
						
							<linearGradient id="SVGID_12_" gradientUnits="userSpaceOnUse" x1="834.8882" y1="429.715" x2="865.2285" y2="429.715" gradientTransform="matrix(1 0 0 -1 0 502)">
							<stop  offset="0" style="stop-color:#BABABA"/>
							<stop  offset="1" style="stop-color:#999999"/>
						</linearGradient>
						<path class="st17" d="M852.7,70.7c0.3,0,0.8-0.1,1.3-0.1c0.7,0,1.2,0.1,1.5,0.3c0.3,0.2,0.4,0.4,0.4,0.6c0,0.4-0.4,0.7-1,0.9
							v0c0.4,0.1,0.6,0.3,0.8,0.7c0.2,0.5,0.3,0.8,0.4,0.9h-0.7c-0.1-0.1-0.2-0.4-0.3-0.8c-0.2-0.5-0.4-0.6-1-0.7h-0.6V74h-0.7
							L852.7,70.7L852.7,70.7z M853.3,72.2h0.7c0.7,0,1.2-0.3,1.2-0.6c0-0.4-0.5-0.6-1.2-0.6c-0.3,0-0.5,0-0.7,0V72.2z"/>
						
							<linearGradient id="SVGID_13_" gradientUnits="userSpaceOnUse" x1="834.8882" y1="429.715" x2="865.2285" y2="429.715" gradientTransform="matrix(1 0 0 -1 0 502)">
							<stop  offset="0" style="stop-color:#BABABA"/>
							<stop  offset="1" style="stop-color:#999999"/>
						</linearGradient>
						<path class="st18" d="M857.4,70.6V74h-0.7v-3.4H857.4z"/>
						
							<linearGradient id="SVGID_14_" gradientUnits="userSpaceOnUse" x1="834.8882" y1="429.715" x2="865.2285" y2="429.715" gradientTransform="matrix(1 0 0 -1 0 502)">
							<stop  offset="0" style="stop-color:#BABABA"/>
							<stop  offset="1" style="stop-color:#999999"/>
						</linearGradient>
						<path class="st19" d="M859.6,71H858v-0.4h3.8V71h-1.6v3h-0.7L859.6,71L859.6,71z"/>
						
							<linearGradient id="SVGID_15_" gradientUnits="userSpaceOnUse" x1="834.8882" y1="429.71" x2="865.2285" y2="429.71" gradientTransform="matrix(1 0 0 -1 0 502)">
							<stop  offset="0" style="stop-color:#BABABA"/>
							<stop  offset="1" style="stop-color:#999999"/>
						</linearGradient>
						<path class="st20" d="M865,72.4h-2v1.2h2.2V74h-2.9v-3.4h2.8V71H863V72h2L865,72.4L865,72.4z"/>
					</g>
				</g>
				<polygon class="st6" points="853.4,49 857.2,54 865.6,54.9 859.5,58.8 861,64.3 853.4,61.7 845.9,64.3 847.3,58.8 841.2,54.9 
					849.7,54 				"/>
			</g>
			<g>
				<g>
					<g>
						<defs>
							<path id="SVGID_16_" d="M155.4,80.5h-45.1c-5.5,0-10-3-10-6.6V44.2c0-3.6,4.5-6.6,10-6.6h45.1c5.5,0,10,3,10,6.6v29.7
								C165.4,77.5,160.9,80.5,155.4,80.5z"/>
						</defs>
						<clipPath id="SVGID_17_">
							<use xlink:href="#SVGID_16_"  style="overflow:visible;"/>
						</clipPath>
						<g class="st21">
							<g>
								
									<linearGradient id="SVGID_18_" gradientUnits="userSpaceOnUse" x1="100.3275" y1="442.975" x2="165.4169" y2="442.975" gradientTransform="matrix(1 0 0 -1 0 502)">
									<stop  offset="0" style="stop-color:#DEDEDE"/>
									<stop  offset="1" style="stop-color:#FFFFFF"/>
								</linearGradient>
								<path class="st22" d="M155.4,80.5h-45.1c-5.5,0-10-3-10-6.6V44.2c0-3.6,4.5-6.6,10-6.6h45.1c5.5,0,10,3,10,6.6v29.7
									C165.4,77.5,160.9,80.5,155.4,80.5z"/>
							</g>
						</g>
					</g>
					<g>
						<defs>
							<path id="SVGID_19_" d="M155.4,80.5h-45.1c-5.5,0-10-3-10-6.6V44.2c0-3.6,4.5-6.6,10-6.6h45.1c5.5,0,10,3,10,6.6v29.7
								C165.4,77.5,160.9,80.5,155.4,80.5z"/>
						</defs>
						<clipPath id="SVGID_20_">
							<use xlink:href="#SVGID_19_"  style="overflow:visible;"/>
						</clipPath>
						<g class="st23">
							<g>
								
									<image style="overflow:visible;enable-background:new    ;" width="115" height="115" xlink:href="1AA3661E.png"  transform="matrix(1.5172 0 0 1 44.9635 1)">
								</image>
							</g>
							<g>
								
									<image style="overflow:visible;enable-background:new    ;" width="115" height="115" xlink:href="1AA36622.png"  transform="matrix(1.5172 0 0 1 49.5152 4)">
								</image>
							</g>
						</g>
					</g>
				</g>
				<g>
					<g>
						<line class="st24" x1="119" y1="61.2" x2="119" y2="50.3"/>
						<line class="st24" x1="126.1" y1="61.2" x2="126.1" y2="54.5"/>
						<line class="st24" x1="133.2" y1="61.2" x2="133.2" y2="52.4"/>
						<line class="st24" x1="140.3" y1="61.2" x2="140.3" y2="50.3"/>
						<line class="st24" x1="147.4" y1="61.2" x2="147.4" y2="56.5"/>
					</g>
					<g>
						<g>
							<text transform="matrix(1.5172 0 0 1 119.7314 71.375)" class="st25 st26 st27">MUSIC</text>
						</g>
					</g>
				</g>
			</g>
			<g>
				<g>
					<g>
						
							<image style="overflow:visible;opacity:0.75;enable-background:new    ;" width="102" height="103" xlink:href="1AA3663E.png"  transform="matrix(1.5024 0 0 0.9902 1003.8893 -17.9738)">
						</image>
						
							<linearGradient id="SVGID_21_" gradientUnits="userSpaceOnUse" x1="1038.4652" y1="464.415" x2="1136.0236" y2="464.415" gradientTransform="matrix(1 0 0 -1 0 502)">
							<stop  offset="0" style="stop-color:#DEDEDE"/>
							<stop  offset="1" style="stop-color:#FFFFFF"/>
						</linearGradient>
						<path class="st28" d="M1053.4,69.7h67.6c8.2,0,15-4.4,15-9.9V15.3c0-5.4-6.7-9.9-15-9.9h-67.6c-8.2,0-15,4.4-15,9.9v44.5
							C1038.5,65.3,1045.2,69.7,1053.4,69.7z"/>
					</g>
				</g>
				<g>
					<g>
						<g>
							<text transform="matrix(1.5172 0 0 1 1068.123 51.502)" class="st25 st26 st29">ERROR</text>
						</g>
					</g>
					<polygon class="st30" points="1099,27.9 1093.9,24.5 1085.5,30.1 1077.1,24.5 1072,27.9 1080.4,33.4 1072,39 1077.1,42.3 
						1085.5,36.8 1093.9,42.3 1099,39 1090.6,33.4 					"/>
				</g>
			</g>
			<g>
				<g>
					<g>
						<g>
							<g>
								
									<image style="overflow:visible;opacity:0.75;enable-background:new    ;" width="155" height="155" xlink:href="1AA3663D.png"  transform="matrix(1.5074 0 0 0.9935 952.6133 185.7587)">
								</image>
								<path class="st4" d="M1101.1,298.7H998.5c-12.5,0-22.7-6.7-22.7-15v-67.5c0-8.2,10.2-15,22.7-15h102.5
									c12.5,0,22.7,6.7,22.7,15v67.5C1123.8,292,1113.6,298.7,1101.1,298.7z"/>
							</g>
						</g>
						<g>
							<g>
								
									<image style="overflow:visible;opacity:0.75;enable-background:new    ;" width="154" height="154" xlink:href="1AA36604.png"  transform="matrix(1.5074 0 0 0.9935 923.7858 166.7587)">
								</image>
								<path class="st4" d="M1101.1,298.7H998.5c-12.5,0-22.7-6.7-22.7-15v-67.5c0-8.2,10.2-15,22.7-15h102.5
									c12.5,0,22.7,6.7,22.7,15v67.5C1123.8,292,1113.6,298.7,1101.1,298.7z"/>
							</g>
						</g>
						
							<linearGradient id="SVGID_22_" gradientUnits="userSpaceOnUse" x1="975.4022" y1="252" x2="1124.2412" y2="252" gradientTransform="matrix(1 0 0 -1 0 502)">
							<stop  offset="0" style="stop-color:#FFFFFF"/>
							<stop  offset="1" style="stop-color:#FFFFFF;stop-opacity:0.2"/>
						</linearGradient>
						<path class="st31" d="M1101.1,298.7H998.5c-12.5,0-22.7-6.7-22.7-15v-67.5c0-8.2,10.2-15,22.7-15h102.5
							c12.5,0,22.7,6.7,22.7,15v67.5C1123.8,292,1113.6,298.7,1101.1,298.7z"/>
					</g>
					<g>
						<g>
							<g>
								
									<image style="overflow:visible;opacity:0.75;enable-background:new    ;" width="122" height="121" xlink:href="1AA36605.png"  transform="matrix(1.5047 0 0 0.9917 950.827 184.5772)">
								</image>
							</g>
							<path class="st30" d="M1091.2,288.3h-80.7c-9.8,0-17.9-5.3-17.9-11.8v-53.1c0-6.5,8-11.8,17.9-11.8h80.7
								c9.8,0,17.9,5.3,17.9,11.8v53.1C1109.1,283,1101.1,288.3,1091.2,288.3z"/>
						</g>
					</g>
				</g>
				<g class="st32">
					<g>
						
							<linearGradient id="SVGID_23_" gradientUnits="userSpaceOnUse" x1="1034.0651" y1="265.3499" x2="1066.5342" y2="209.1116" gradientTransform="matrix(1 0 0 -1 0 502)">
							<stop  offset="0" style="stop-color:#8A8A8A"/>
							<stop  offset="1" style="stop-color:#BCBCBC"/>
						</linearGradient>
						<path class="st33" d="M1028,280.9h43.3c14.3,0,26-7.7,26-17.1v-0.3c0-3.3-1.4-6.5-4-9.3l-10.2-10.9
							c-5.1-5.4-16.9-5.6-22.4-0.3l-8.3,8.1c-4.9,4.8-15.3,5.2-21,0.9l-1.4-1.1c-5.7-4.3-16-3.9-20.9,0.8l-2.2,2
							c-3.1,3-4.8,6.5-4.8,10.1l0,0C1001.9,273.1,1013.6,280.9,1028,280.9z"/>
					</g>
					
						<linearGradient id="SVGID_24_" gradientUnits="userSpaceOnUse" x1="1016.7363" y1="272.8972" x2="1022.0798" y2="263.642" gradientTransform="matrix(1 0 0 -1 0 502)">
						<stop  offset="0" style="stop-color:#8A8A8A"/>
						<stop  offset="1" style="stop-color:#BCBCBC"/>
					</linearGradient>
					<path class="st34" d="M1026.4,233.7c0,2.6-3.2,4.6-7,4.6c-3.9,0-7-2.1-7-4.6c0-2.6,3.2-4.6,7-4.6
						C1023.3,229.1,1026.4,231.2,1026.4,233.7z"/>
				</g>
			</g>
			<g>
				<g>
					<g>
						<g>
							<g>
								
									<image style="overflow:visible;opacity:0.75;enable-background:new    ;" width="79" height="79" xlink:href="1AA3660A.png"  transform="matrix(1.498 0 0 0.9873 1037.5452 434.2036)">
								</image>
								<path class="st4" d="M1061.3,491.3h51.9c6.3,0,11.5-3.4,11.5-7.6v-34.2c0-4.2-5.2-7.6-11.5-7.6h-51.9
									c-6.3,0-11.5,3.4-11.5,7.6v34.2C1049.8,487.9,1055,491.3,1061.3,491.3z"/>
							</g>
						</g>
						<g>
							<g>
								
									<image style="overflow:visible;opacity:0.75;enable-background:new    ;" width="80" height="79" xlink:href="1AA3660B.png"  transform="matrix(1.498 0 0 0.9873 1022.3824 424.2036)">
								</image>
								<path class="st4" d="M1061.3,491.3h51.9c6.3,0,11.5-3.4,11.5-7.6v-34.2c0-4.2-5.2-7.6-11.5-7.6h-51.9
									c-6.3,0-11.5,3.4-11.5,7.6v34.2C1049.8,487.9,1055,491.3,1061.3,491.3z"/>
							</g>
						</g>
						
							<linearGradient id="SVGID_25_" gradientUnits="userSpaceOnUse" x1="-838.8929" y1="35.37" x2="-763.611" y2="35.37" gradientTransform="matrix(-1 0 0 -1 286 502)">
							<stop  offset="0" style="stop-color:#FFFFFF"/>
							<stop  offset="1" style="stop-color:#FFFFFF;stop-opacity:0.2"/>
						</linearGradient>
						<path class="st35" d="M1061.3,491.3h51.9c6.3,0,11.5-3.4,11.5-7.6v-34.2c0-4.2-5.2-7.6-11.5-7.6h-51.9
							c-6.3,0-11.5,3.4-11.5,7.6v34.2C1049.8,487.9,1055,491.3,1061.3,491.3z"/>
					</g>
				</g>
				<g>
					<g>
						<path class="st6" d="M1095.6,461.2h-14.9c-1.5,0-2.8,0.8-2.8,1.8v8.9c0,1,1.3,1.8,2.8,1.8h14.9c1.5,0,2.8-0.8,2.8-1.8V463
							C1098.4,462,1097.1,461.2,1095.6,461.2z M1089.5,470.4h-2.9l0.5-3.3c-0.6-0.2-1.1-0.6-1.1-1.1c0-0.7,0.9-1.3,2-1.3
							s2,0.6,2,1.3c0,0.5-0.5,1-1.1,1.2L1089.5,470.4z"/>
						<g>
							<path class="st6" d="M1095.9,460.1h-1.5c0-2.3-2.8-4.2-6.3-4.2c-3.5,0-6.3,1.9-6.3,4.2h-1.5c0-2.8,3.5-5.1,7.8-5.1
								C1092.4,454.9,1095.9,457.3,1095.9,460.1z"/>
						</g>
					</g>
					<g>
						<g>
							
								<linearGradient id="SVGID_26_" gradientUnits="userSpaceOnUse" x1="1077.1699" y1="23.26" x2="1093.9913" y2="23.26" gradientTransform="matrix(1 0 0 -1 0 502)">
								<stop  offset="0" style="stop-color:#BABABA"/>
								<stop  offset="1" style="stop-color:#999999"/>
							</linearGradient>
							<path class="st36" d="M1077.2,477h0.7v3h2.2v0.4h-2.9V477z"/>
							
								<linearGradient id="SVGID_27_" gradientUnits="userSpaceOnUse" x1="1077.1675" y1="23.26" x2="1093.9889" y2="23.26" gradientTransform="matrix(1 0 0 -1 0 502)">
								<stop  offset="0" style="stop-color:#BABABA"/>
								<stop  offset="1" style="stop-color:#999999"/>
							</linearGradient>
							<path class="st37" d="M1085.1,478.7c0,1.2-1.1,1.8-2.4,1.8c-1.4,0-2.3-0.7-2.3-1.7c0-1.1,1-1.8,2.4-1.8
								C1084.2,477,1085.1,477.7,1085.1,478.7z M1081.1,478.8c0,0.7,0.6,1.4,1.6,1.4c1,0,1.6-0.6,1.6-1.4c0-0.7-0.5-1.4-1.6-1.4
								C1081.7,477.4,1081.1,478,1081.1,478.8z"/>
							
								<linearGradient id="SVGID_28_" gradientUnits="userSpaceOnUse" x1="1077.1675" y1="23.27" x2="1093.9889" y2="23.27" gradientTransform="matrix(1 0 0 -1 0 502)">
								<stop  offset="0" style="stop-color:#BABABA"/>
								<stop  offset="1" style="stop-color:#999999"/>
							</linearGradient>
							<path class="st38" d="M1089.6,480.3c-0.2,0.1-0.7,0.2-1.4,0.2c-1.4,0-2.5-0.6-2.5-1.7c0-1.1,1.1-1.8,2.7-1.8
								c0.6,0,1,0.1,1.2,0.1l-0.2,0.4c-0.3-0.1-0.6-0.1-1-0.1c-1.2,0-2,0.5-2,1.4c0,0.8,0.7,1.4,2,1.4c0.4,0,0.8,0,1.1-0.1
								L1089.6,480.3z"/>
							
								<linearGradient id="SVGID_29_" gradientUnits="userSpaceOnUse" x1="1077.1675" y1="23.265" x2="1093.9889" y2="23.265" gradientTransform="matrix(1 0 0 -1 0 502)">
								<stop  offset="0" style="stop-color:#BABABA"/>
								<stop  offset="1" style="stop-color:#999999"/>
							</linearGradient>
							<path class="st39" d="M1090.4,477h0.7v1.6h0c0.1-0.1,0.3-0.3,0.4-0.4l1.6-1.3h0.8l-1.9,1.4l2,1.9h-0.8l-1.7-1.7l-0.5,0.4v1.3
								h-0.7L1090.4,477L1090.4,477z"/>
						</g>
					</g>
				</g>
			</g>
			<g>
				<g>
					<g>
						<g>
							<g>
								
									<image style="overflow:visible;opacity:0.75;enable-background:new    ;" width="46" height="45" xlink:href="1AA3660C.png"  transform="matrix(1.4835 0 0 0.9778 983.0316 115.263)">
								</image>
								<path class="st4" d="M997.1,147.3h29.1c3.6,0,6.4-1.9,6.4-4.3v-19.2c0-2.3-2.9-4.3-6.4-4.3h-29.1c-3.6,0-6.4,1.9-6.4,4.3
									v19.2C990.7,145.4,993.6,147.3,997.1,147.3z"/>
							</g>
						</g>
						<g>
							<g>
								
									<image style="overflow:visible;opacity:0.52;enable-background:new    ;" width="46" height="46" xlink:href="1AA36609.png"  transform="matrix(1.4843 0 0 0.9783 975.4286 109.263)">
								</image>
								<path class="st4" d="M997.1,147.3h29.1c3.6,0,6.4-1.9,6.4-4.3v-19.2c0-2.3-2.9-4.3-6.4-4.3h-29.1c-3.6,0-6.4,1.9-6.4,4.3
									v19.2C990.7,145.4,993.6,147.3,997.1,147.3z"/>
							</g>
						</g>
						
							<linearGradient id="SVGID_30_" gradientUnits="userSpaceOnUse" x1="-746.8069" y1="368.49" x2="-704.5651" y2="368.49" gradientTransform="matrix(-1 0 0 -1 286 502)">
							<stop  offset="0" style="stop-color:#FFFFFF"/>
							<stop  offset="1" style="stop-color:#FFFFFF;stop-opacity:0.2"/>
						</linearGradient>
						<path class="st40" d="M997.1,147.3h29.1c3.6,0,6.4-1.9,6.4-4.3v-19.2c0-2.3-2.9-4.3-6.4-4.3h-29.1c-3.6,0-6.4,1.9-6.4,4.3
							v19.2C990.7,145.4,993.6,147.3,997.1,147.3z"/>
					</g>
				</g>
				<path class="st6" d="M1009.7,130.4l7.2,2.9c1,0.4,1,1.4,0,1.8l-7.2,2.9c-1.1,0.4-2.4-0.1-2.4-0.9v-5.8
					C1007.2,130.5,1008.6,130,1009.7,130.4z"/>
			</g>
			<g>
				<g>
					<g>
						<g>
							<g>
								
									<image style="overflow:visible;opacity:0.75;enable-background:new    ;" width="53" height="52" xlink:href="1AA36608.png"  transform="matrix(1.4881 0 0 0.9808 739.8765 453.0027)">
								</image>
								<path class="st4" d="M756,490.6h33.8c4.1,0,7.5-2.2,7.5-4.9v-22.3c0-2.7-3.4-4.9-7.5-4.9H756c-4.1,0-7.5,2.2-7.5,4.9v22.3
									C748.5,488.4,751.9,490.6,756,490.6z"/>
							</g>
						</g>
						<g>
							<g>
								
									<image style="overflow:visible;opacity:0.75;enable-background:new    ;" width="52" height="52" xlink:href="1AA36617.png"  transform="matrix(1.4881 0 0 0.9808 730.7585 447.0027)">
								</image>
								<path class="st41" d="M756,490.6h33.8c4.1,0,7.5-2.2,7.5-4.9v-22.3c0-2.7-3.4-4.9-7.5-4.9H756c-4.1,0-7.5,2.2-7.5,4.9v22.3
									C748.5,488.4,751.9,490.6,756,490.6z"/>
							</g>
						</g>
						
							<linearGradient id="SVGID_31_" gradientUnits="userSpaceOnUse" x1="-511.3971" y1="27.43" x2="-462.4095" y2="27.43" gradientTransform="matrix(-1 0 0 -1 286 502)">
							<stop  offset="0" style="stop-color:#8858FB"/>
							<stop  offset="1" style="stop-color:#DF5656"/>
						</linearGradient>
						<path class="st42" d="M756,490.6h33.8c4.1,0,7.5-2.2,7.5-4.9v-22.3c0-2.7-3.4-4.9-7.5-4.9H756c-4.1,0-7.5,2.2-7.5,4.9v22.3
							C748.5,488.4,751.9,490.6,756,490.6z"/>
					</g>
				</g>
				<g>
					<g>
						<line class="st43" x1="775.7" y1="472.2" x2="775.7" y2="477.2"/>
						<line class="st43" x1="765.3" y1="472.2" x2="765.3" y2="477.2"/>
						<line class="st43" x1="780.2" y1="472.2" x2="780.2" y2="477.2"/>
						<line class="st43" x1="769.7" y1="474.7" x2="772.1" y2="474.7"/>
					</g>
				</g>
			</g>
			<g>
				<g>
					<g>
						<g>
							<g>
								
									<image style="overflow:visible;opacity:0.75;enable-background:new    ;" width="80" height="80" xlink:href="1AA3666A.png"  transform="matrix(1.4983 0 0 0.9875 483.8606 26.9711)">
								</image>
								<path class="st4" d="M508.1,84.6H560c6.3,0,11.5-3.4,11.5-7.6V42.8c0-4.2-5.2-7.6-11.5-7.6h-51.9c-6.3,0-11.5,3.4-11.5,7.6
									V77C496.6,81.2,501.8,84.6,508.1,84.6z"/>
							</g>
						</g>
						<g>
							<g>
								
									<image style="overflow:visible;opacity:0.75;enable-background:new    ;" width="79" height="79" xlink:href="1AA3666E.png"  transform="matrix(1.498 0 0 0.9873 470.2055 17.9711)">
								</image>
								<path class="st4" d="M508.1,84.6H560c6.3,0,11.5-3.4,11.5-7.6V42.8c0-4.2-5.2-7.6-11.5-7.6h-51.9c-6.3,0-11.5,3.4-11.5,7.6
									V77C496.6,81.2,501.8,84.6,508.1,84.6z"/>
							</g>
						</g>
						
							<linearGradient id="SVGID_32_" gradientUnits="userSpaceOnUse" x1="-285.6629" y1="442.08" x2="-210.381" y2="442.08" gradientTransform="matrix(-1 0 0 -1 286 502)">
							<stop  offset="0" style="stop-color:#FFFFFF"/>
							<stop  offset="1" style="stop-color:#FFFFFF;stop-opacity:0.2"/>
						</linearGradient>
						<path class="st44" d="M508.1,84.6H560c6.3,0,11.5-3.4,11.5-7.6V42.8c0-4.2-5.2-7.6-11.5-7.6h-51.9c-6.3,0-11.5,3.4-11.5,7.6
							V77C496.6,81.2,501.8,84.6,508.1,84.6z"/>
					</g>
				</g>
				<g>
					<path class="st6" d="M512.2,56.5c5.3,0,5.3,1.3,10.7,1.3c5.3,0,5.3-1.3,10.7-1.3c5.3,0,5.3,1.3,10.7,1.3
						c5.4,0,5.3-1.3,10.7-1.3"/>
					<path class="st6" d="M512.2,60.8c5.3,0,5.3,1.3,10.7,1.3c5.3,0,5.3-1.3,10.7-1.3c5.3,0,5.3,1.3,10.7,1.3
						c5.4,0,5.3-1.3,10.7-1.3"/>
					<path class="st6" d="M512.2,65.2c5.3,0,5.3,1.3,10.7,1.3c5.3,0,5.3-1.3,10.7-1.3c5.3,0,5.3,1.3,10.7,1.3
						c5.4,0,5.3-1.3,10.7-1.3"/>
				</g>
			</g>
		</g>
	</g>
</g>
</svg>
